<?xml version="1.0" standalone="no"?>
 <!DOCTYPE svg PUBLIC "-//W3C//DTD SVG 1.1//EN" 
 "http://www.w3.org/Graphics/SVG/1.1/DTD/svg11.dtd"> 
<svg xmlns="http://www.w3.org/2000/svg" version="1.1" 
    width="4.26212cm" height="5.9182cm" viewBox="0 0 16780 23300 ">
<title>SVG Picture created as Nugget-PCB-brd.svg date 2021/10/04 04:22:48 </title>
  <desc>Picture generated by PCBNEW </desc>
<g style="fill:#000000; fill-opacity:1;stroke:#000000; stroke-opacity:1;
stroke-linecap:round; stroke-linejoin:round; "
 transform="translate(0 0) scale(1 1)">
</g>
<g style="fill:#000000; fill-opacity:0.0; 
stroke:#000000; stroke-width:-0.000393701; stroke-opacity:1; 
stroke-linecap:round; stroke-linejoin:round;">
</g>
<g style="fill:#000000; fill-opacity:1.0; 
stroke:#000000; stroke-width:0; stroke-opacity:1; 
stroke-linecap:round; stroke-linejoin:round;">
<path style="fill:#000000; fill-opacity:1.0; 
stroke:#000000; stroke-width:0; stroke-opacity:1; 
stroke-linecap:round; stroke-linejoin:round;fill-rule:evenodd;"
d="M 12788.4,22479.1
11890,22479.1
11890,21809.1
12788.4,21809.1
Z" /> 
<path style="fill:#000000; fill-opacity:1.0; 
stroke:#000000; stroke-width:0; stroke-opacity:1; 
stroke-linecap:round; stroke-linejoin:round;fill-rule:evenodd;"
d="M 9174.21,22479.1
8275.79,22479.1
8275.79,21809.1
9174.21,21809.1
Z" /> 
<path style="fill:#000000; fill-opacity:1.0; 
stroke:#000000; stroke-width:0; stroke-opacity:1; 
stroke-linecap:round; stroke-linejoin:round;fill-rule:evenodd;"
d="M 5048.23,21614.4
4141.93,21614.4
4141.93,20983.7
5048.23,20983.7
Z" /> 
<path style="fill:#000000; fill-opacity:1.0; 
stroke:#000000; stroke-width:0; stroke-opacity:1; 
stroke-linecap:round; stroke-linejoin:round;fill-rule:evenodd;"
d="M 2922.24,21614.4
2015.95,21614.4
2015.95,20983.7
2922.24,20983.7
Z" /> 
<path style="fill:#000000; fill-opacity:1.0; 
stroke:#000000; stroke-width:0; stroke-opacity:1; 
stroke-linecap:round; stroke-linejoin:round;fill-rule:evenodd;"
d="M 15238.4,20970.5
14340,20970.5
14340,20300.4
15238.4,20300.4
Z" /> 
<path style="fill:#000000; fill-opacity:1.0; 
stroke:#000000; stroke-width:0; stroke-opacity:1; 
stroke-linecap:round; stroke-linejoin:round;fill-rule:evenodd;"
d="M 10313.4,20970.5
9414.96,20970.5
9414.96,20300.4
10313.4,20300.4
Z" /> 
<path style="fill:#000000; fill-opacity:1.0; 
stroke:#000000; stroke-width:0; stroke-opacity:1; 
stroke-linecap:round; stroke-linejoin:round;fill-rule:evenodd;"
d="M 6699.21,20970.5
5800.79,20970.5
5800.79,20300.4
6699.21,20300.4
Z" /> 
<path style="fill:#000000; fill-opacity:1.0; 
stroke:#000000; stroke-width:0; stroke-opacity:1; 
stroke-linecap:round; stroke-linejoin:round;fill-rule:evenodd;"
d="M 11624.2,20970.5
10725.8,20970.5
10725.8,20300.4
11624.2,20300.4
Z" /> 
<path style="fill:#000000; fill-opacity:1.0; 
stroke:#000000; stroke-width:0; stroke-opacity:1; 
stroke-linecap:round; stroke-linejoin:round;fill-rule:evenodd;"
d="M 5048.23,20354.5
4141.93,20354.5
4141.93,19723.8
5048.23,19723.8
Z" /> 
<path style="fill:#000000; fill-opacity:1.0; 
stroke:#000000; stroke-width:0; stroke-opacity:1; 
stroke-linecap:round; stroke-linejoin:round;fill-rule:evenodd;"
d="M 2922.24,20354.5
2015.95,20354.5
2015.95,19723.8
2922.24,19723.8
Z" /> 
<path style="fill:#000000; fill-opacity:1.0; 
stroke:#000000; stroke-width:0; stroke-opacity:1; 
stroke-linecap:round; stroke-linejoin:round;fill-rule:evenodd;"
d="M 9174.21,19454.1
8275.79,19454.1
8275.79,18784.1
9174.21,18784.1
Z" /> 
<path style="fill:#000000; fill-opacity:1.0; 
stroke:#000000; stroke-width:0; stroke-opacity:1; 
stroke-linecap:round; stroke-linejoin:round;fill-rule:evenodd;"
d="M 12788.4,19454.1
11890,19454.1
11890,18784.1
12788.4,18784.1
Z" /> 
<path style="fill:#000000; fill-opacity:1.0; 
stroke:#000000; stroke-width:0; stroke-opacity:1; 
stroke-linecap:round; stroke-linejoin:round;fill-rule:evenodd;"
d="M 7016.3,15784.1
7084.44,15812.3
7084.44,15812.3
7145.76,15853.3
7197.91,15905.4
7197.91,15905.4
7238.88,15966.7
7267.11,16034.9
7281.5,16107.2
7281.5,16181
7267.11,16253.3
7238.88,16321.4
7238.88,16321.4
7197.91,16382.8
7145.76,16434.9
7114.89,16455.5
7084.44,16475.9
7016.3,16504.1
6943.96,16518.5
6870.21,16518.5
6797.88,16504.1
6729.74,16475.9
6699.28,16455.5
6668.41,16434.9
6616.26,16382.8
6575.29,16321.4
6575.29,16321.4
6547.07,16253.3
6532.68,16181
6532.68,16107.2
6547.07,16034.9
6575.29,15966.7
6616.26,15905.4
6616.26,15905.4
6668.41,15853.3
6729.74,15812.3
6729.74,15812.3
6797.88,15784.1
6870.21,15769.7
6943.96,15769.7
Z" /> 
<path style="fill:#000000; fill-opacity:1.0; 
stroke:#000000; stroke-width:0; stroke-opacity:1; 
stroke-linecap:round; stroke-linejoin:round;fill-rule:evenodd;"
d="M 4016.3,15784.1
4084.44,15812.3
4084.44,15812.3
4145.76,15853.3
4197.91,15905.4
4197.91,15905.4
4238.88,15966.7
4267.11,16034.9
4281.5,16107.2
4281.5,16181
4267.11,16253.3
4238.88,16321.4
4238.88,16321.4
4197.91,16382.8
4145.76,16434.9
4114.89,16455.5
4084.44,16475.9
4016.3,16504.1
3943.96,16518.5
3870.21,16518.5
3797.88,16504.1
3729.74,16475.9
3699.28,16455.5
3668.41,16434.9
3616.26,16382.8
3575.29,16321.4
3575.29,16321.4
3547.07,16253.3
3532.68,16181
3532.68,16107.2
3547.07,16034.9
3575.29,15966.7
3616.26,15905.4
3616.26,15905.4
3668.41,15853.3
3729.74,15812.3
3729.74,15812.3
3797.88,15784.1
3870.21,15769.7
3943.96,15769.7
Z" /> 
<path style="fill:#000000; fill-opacity:1.0; 
stroke:#000000; stroke-width:0; stroke-opacity:1; 
stroke-linecap:round; stroke-linejoin:round;fill-rule:evenodd;"
d="M 5016.3,15784.1
5084.44,15812.3
5084.44,15812.3
5145.76,15853.3
5197.91,15905.4
5197.91,15905.4
5238.88,15966.7
5267.11,16034.9
5281.5,16107.2
5281.5,16181
5267.11,16253.3
5238.88,16321.4
5238.88,16321.4
5197.91,16382.8
5145.76,16434.9
5114.89,16455.5
5084.44,16475.9
5016.3,16504.1
4943.96,16518.5
4870.21,16518.5
4797.88,16504.1
4729.74,16475.9
4699.28,16455.5
4668.41,16434.9
4616.26,16382.8
4575.29,16321.4
4575.29,16321.4
4547.07,16253.3
4532.68,16181
4532.68,16107.2
4547.07,16034.9
4575.29,15966.7
4616.26,15905.4
4616.26,15905.4
4668.41,15853.3
4729.74,15812.3
4729.74,15812.3
4797.88,15784.1
4870.21,15769.7
4943.96,15769.7
Z" /> 
<path style="fill:#000000; fill-opacity:1.0; 
stroke:#000000; stroke-width:0; stroke-opacity:1; 
stroke-linecap:round; stroke-linejoin:round;fill-rule:evenodd;"
d="M 6016.3,15784.1
6084.44,15812.3
6084.44,15812.3
6145.76,15853.3
6197.91,15905.4
6197.91,15905.4
6238.88,15966.7
6267.11,16034.9
6281.5,16107.2
6281.5,16181
6267.11,16253.3
6238.88,16321.4
6238.88,16321.4
6197.91,16382.8
6145.76,16434.9
6114.89,16455.5
6084.44,16475.9
6016.3,16504.1
5943.96,16518.5
5870.21,16518.5
5797.88,16504.1
5729.74,16475.9
5699.28,16455.5
5668.41,16434.9
5616.26,16382.8
5575.29,16321.4
5575.29,16321.4
5547.07,16253.3
5532.68,16181
5532.68,16107.2
5547.07,16034.9
5575.29,15966.7
5616.26,15905.4
5616.26,15905.4
5668.41,15853.3
5729.74,15812.3
5729.74,15812.3
5797.88,15784.1
5870.21,15769.7
5943.96,15769.7
Z" /> 
<path style="fill:#000000; fill-opacity:1.0; 
stroke:#000000; stroke-width:0; stroke-opacity:1; 
stroke-linecap:round; stroke-linejoin:round;fill-rule:evenodd;"
d="M 11016.3,15784.1
11084.4,15812.3
11084.4,15812.3
11145.8,15853.3
11197.9,15905.4
11197.9,15905.4
11238.9,15966.7
11267.1,16034.9
11281.5,16107.2
11281.5,16181
11267.1,16253.3
11238.9,16321.4
11238.9,16321.4
11197.9,16382.8
11145.8,16434.9
11114.9,16455.5
11084.4,16475.9
11016.3,16504.1
10944,16518.5
10870.2,16518.5
10797.9,16504.1
10729.7,16475.9
10699.3,16455.5
10668.4,16434.9
10616.3,16382.8
10575.3,16321.4
10575.3,16321.4
10547.1,16253.3
10532.7,16181
10532.7,16107.2
10547.1,16034.9
10575.3,15966.7
10616.3,15905.4
10616.3,15905.4
10668.4,15853.3
10729.7,15812.3
10729.7,15812.3
10797.9,15784.1
10870.2,15769.7
10944,15769.7
Z" /> 
<path style="fill:#000000; fill-opacity:1.0; 
stroke:#000000; stroke-width:0; stroke-opacity:1; 
stroke-linecap:round; stroke-linejoin:round;fill-rule:evenodd;"
d="M 10016.3,15784.1
10084.4,15812.3
10084.4,15812.3
10145.8,15853.3
10197.9,15905.4
10197.9,15905.4
10238.9,15966.7
10267.1,16034.9
10281.5,16107.2
10281.5,16181
10267.1,16253.3
10238.9,16321.4
10238.9,16321.4
10197.9,16382.8
10145.8,16434.9
10114.9,16455.5
10084.4,16475.9
10016.3,16504.1
9943.96,16518.5
9870.21,16518.5
9797.88,16504.1
9729.74,16475.9
9699.28,16455.5
9668.41,16434.9
9616.26,16382.8
9575.29,16321.4
9575.29,16321.4
9547.07,16253.3
9532.68,16181
9532.68,16107.2
9547.07,16034.9
9575.29,15966.7
9616.26,15905.4
9616.26,15905.4
9668.41,15853.3
9729.74,15812.3
9729.74,15812.3
9797.88,15784.1
9870.21,15769.7
9943.96,15769.7
Z" /> 
<path style="fill:#000000; fill-opacity:1.0; 
stroke:#000000; stroke-width:0; stroke-opacity:1; 
stroke-linecap:round; stroke-linejoin:round;fill-rule:evenodd;"
d="M 9016.3,15784.1
9084.44,15812.3
9084.44,15812.3
9145.76,15853.3
9197.91,15905.4
9197.91,15905.4
9238.88,15966.7
9267.11,16034.9
9281.5,16107.2
9281.5,16181
9267.11,16253.3
9238.88,16321.4
9238.88,16321.4
9197.91,16382.8
9145.76,16434.9
9114.89,16455.5
9084.44,16475.9
9016.3,16504.1
8943.96,16518.5
8870.21,16518.5
8797.88,16504.1
8729.74,16475.9
8699.28,16455.5
8668.41,16434.9
8616.26,16382.8
8575.29,16321.4
8575.29,16321.4
8547.07,16253.3
8532.68,16181
8532.68,16107.2
8547.07,16034.9
8575.29,15966.7
8616.26,15905.4
8616.26,15905.4
8668.41,15853.3
8729.74,15812.3
8729.74,15812.3
8797.88,15784.1
8870.21,15769.7
8943.96,15769.7
Z" /> 
<path style="fill:#000000; fill-opacity:1.0; 
stroke:#000000; stroke-width:0; stroke-opacity:1; 
stroke-linecap:round; stroke-linejoin:round;fill-rule:evenodd;"
d="M 8016.3,15784.1
8084.44,15812.3
8084.44,15812.3
8145.76,15853.3
8197.91,15905.4
8197.91,15905.4
8238.88,15966.7
8267.11,16034.9
8281.5,16107.2
8281.5,16181
8267.11,16253.3
8238.88,16321.4
8238.88,16321.4
8197.91,16382.8
8145.76,16434.9
8114.89,16455.5
8084.44,16475.9
8016.3,16504.1
7943.96,16518.5
7870.21,16518.5
7797.88,16504.1
7729.74,16475.9
7699.28,16455.5
7668.41,16434.9
7616.26,16382.8
7575.29,16321.4
7575.29,16321.4
7547.07,16253.3
7532.68,16181
7532.68,16107.2
7547.07,16034.9
7575.29,15966.7
7616.26,15905.4
7616.26,15905.4
7668.41,15853.3
7729.74,15812.3
7729.74,15812.3
7797.88,15784.1
7870.21,15769.7
7943.96,15769.7
Z" /> 
<path style="fill:#000000; fill-opacity:1.0; 
stroke:#000000; stroke-width:0; stroke-opacity:1; 
stroke-linecap:round; stroke-linejoin:round;fill-rule:evenodd;"
d="M 15951.8,11791.3
16010.6,11803
16075.1,11829.7
16133.2,11868.6
16182.6,11918
16221.4,11976.1
16248.2,12040.6
16261.8,12109.2
16261.8,12179
16248.2,12247.6
16221.4,12312.1
16182.6,12370.2
16133.2,12419.6
16075.1,12458.4
16010.6,12485.2
15951.8,12496.9
15942,12498.8
15872.1,12498.8
15862.4,12496.9
15803.6,12485.2
15739.1,12458.4
15681,12419.6
15631.6,12370.2
15592.7,12312.1
15566,12247.6
15552.4,12179
15552.4,12109.2
15566,12040.6
15592.7,11976.1
15631.6,11918
15681,11868.6
15739.1,11829.7
15803.6,11803
15862.4,11791.3
15872.1,11789.4
15942,11789.4
Z" /> 
<path style="fill:#000000; fill-opacity:1.0; 
stroke:#000000; stroke-width:0; stroke-opacity:1; 
stroke-linecap:round; stroke-linejoin:round;fill-rule:evenodd;"
d="M 15951.8,10791.3
16010.6,10803
16075.1,10829.7
16133.2,10868.6
16182.6,10918
16221.4,10976.1
16248.2,11040.6
16261.8,11109.2
16261.8,11179
16248.2,11247.6
16221.4,11312.1
16182.6,11370.2
16133.2,11419.6
16075.1,11458.4
16010.6,11485.2
15951.8,11496.9
15942,11498.8
15872.1,11498.8
15862.4,11496.9
15803.6,11485.2
15739.1,11458.4
15681,11419.6
15631.6,11370.2
15592.7,11312.1
15566,11247.6
15552.4,11179
15552.4,11109.2
15566,11040.6
15592.7,10976.1
15631.6,10918
15681,10868.6
15739.1,10829.7
15803.6,10803
15862.4,10791.3
15872.1,10789.4
15942,10789.4
Z" /> 
<path style="fill:#000000; fill-opacity:1.0; 
stroke:#000000; stroke-width:0; stroke-opacity:1; 
stroke-linecap:round; stroke-linejoin:round;fill-rule:evenodd;"
d="M 15951.8,9791.31
16010.6,9803
16075.1,9829.74
16133.2,9868.56
16182.6,9917.97
16221.4,9976.07
16248.2,10040.6
16261.8,10109.2
16261.8,10179
16248.2,10247.6
16221.4,10312.1
16182.6,10370.2
16133.2,10419.6
16075.1,10458.4
16010.6,10485.2
15951.8,10496.9
15942,10498.8
15872.1,10498.8
15862.4,10496.9
15803.6,10485.2
15739.1,10458.4
15681,10419.6
15631.6,10370.2
15592.7,10312.1
15566,10247.6
15552.4,10179
15552.4,10109.2
15566,10040.6
15592.7,9976.07
15631.6,9917.97
15681,9868.56
15739.1,9829.74
15803.6,9803
15862.4,9791.31
15872.1,9789.37
15942,9789.37
Z" /> 
<path style="fill:#000000; fill-opacity:1.0; 
stroke:#000000; stroke-width:0; stroke-opacity:1; 
stroke-linecap:round; stroke-linejoin:round;fill-rule:evenodd;"
d="M 15951.8,8791.31
16010.6,8803
16075.1,8829.74
16133.2,8868.56
16182.6,8917.97
16221.4,8976.07
16248.2,9040.63
16261.8,9109.16
16261.8,9179.03
16248.2,9247.56
16221.4,9312.12
16182.6,9370.22
16133.2,9419.63
16075.1,9458.45
16010.6,9485.19
15951.8,9496.88
15942,9498.82
15872.1,9498.82
15862.4,9496.88
15803.6,9485.19
15739.1,9458.45
15681,9419.63
15631.6,9370.22
15592.7,9312.12
15566,9247.56
15552.4,9179.03
15552.4,9109.16
15566,9040.63
15592.7,8976.07
15631.6,8917.97
15681,8868.56
15739.1,8829.74
15803.6,8803
15862.4,8791.31
15872.1,8789.37
15942,8789.37
Z" /> 
<path style="fill:#000000; fill-opacity:1.0; 
stroke:#000000; stroke-width:0; stroke-opacity:1; 
stroke-linecap:round; stroke-linejoin:round;fill-rule:evenodd;"
d="M 15951.8,7791.31
16010.6,7803
16075.1,7829.74
16133.2,7868.56
16182.6,7917.97
16221.4,7976.07
16248.2,8040.63
16261.8,8109.16
16261.8,8179.03
16248.2,8247.56
16221.4,8312.12
16182.6,8370.22
16133.2,8419.63
16075.1,8458.45
16010.6,8485.19
15951.8,8496.88
15942,8498.82
15872.1,8498.82
15862.4,8496.88
15803.6,8485.19
15739.1,8458.45
15681,8419.63
15631.6,8370.22
15592.7,8312.12
15566,8247.56
15552.4,8179.03
15552.4,8109.16
15566,8040.63
15592.7,7976.07
15631.6,7917.97
15681,7868.56
15739.1,7829.74
15803.6,7803
15862.4,7791.31
15872.1,7789.37
15942,7789.37
Z" /> 
<path style="fill:#000000; fill-opacity:1.0; 
stroke:#000000; stroke-width:0; stroke-opacity:1; 
stroke-linecap:round; stroke-linejoin:round;fill-rule:evenodd;"
d="M 4016.3,6784.07
4084.44,6812.3
4084.44,6812.3
4145.76,6853.27
4197.91,6905.42
4197.91,6905.42
4238.88,6966.75
4267.11,7034.88
4281.5,7107.22
4281.5,7180.97
4267.11,7253.31
4238.88,7321.44
4238.88,7321.44
4197.91,7382.77
4145.76,7434.92
4114.89,7455.54
4084.44,7475.89
4016.3,7504.12
3943.96,7518.5
3870.21,7518.5
3797.88,7504.12
3729.74,7475.89
3699.28,7455.54
3668.41,7434.92
3616.26,7382.77
3575.29,7321.44
3575.29,7321.44
3547.07,7253.31
3532.68,7180.97
3532.68,7107.22
3547.07,7034.88
3575.29,6966.75
3616.26,6905.42
3616.26,6905.42
3668.41,6853.27
3729.74,6812.3
3729.74,6812.3
3797.88,6784.07
3870.21,6769.69
3943.96,6769.69
Z" /> 
<path style="fill:#000000; fill-opacity:1.0; 
stroke:#000000; stroke-width:0; stroke-opacity:1; 
stroke-linecap:round; stroke-linejoin:round;fill-rule:evenodd;"
d="M 5016.3,6784.07
5084.44,6812.3
5084.44,6812.3
5145.76,6853.27
5197.91,6905.42
5197.91,6905.42
5238.88,6966.75
5267.11,7034.88
5281.5,7107.22
5281.5,7180.97
5267.11,7253.31
5238.88,7321.44
5238.88,7321.44
5197.91,7382.77
5145.76,7434.92
5114.89,7455.54
5084.44,7475.89
5016.3,7504.12
4943.96,7518.5
4870.21,7518.5
4797.88,7504.12
4729.74,7475.89
4699.28,7455.54
4668.41,7434.92
4616.26,7382.77
4575.29,7321.44
4575.29,7321.44
4547.07,7253.31
4532.68,7180.97
4532.68,7107.22
4547.07,7034.88
4575.29,6966.75
4616.26,6905.42
4616.26,6905.42
4668.41,6853.27
4729.74,6812.3
4729.74,6812.3
4797.88,6784.07
4870.21,6769.69
4943.96,6769.69
Z" /> 
<path style="fill:#000000; fill-opacity:1.0; 
stroke:#000000; stroke-width:0; stroke-opacity:1; 
stroke-linecap:round; stroke-linejoin:round;fill-rule:evenodd;"
d="M 6016.3,6784.07
6084.44,6812.3
6084.44,6812.3
6145.76,6853.27
6197.91,6905.42
6197.91,6905.42
6238.88,6966.75
6267.11,7034.88
6281.5,7107.22
6281.5,7180.97
6267.11,7253.31
6238.88,7321.44
6238.88,7321.44
6197.91,7382.77
6145.76,7434.92
6114.89,7455.54
6084.44,7475.89
6016.3,7504.12
5943.96,7518.5
5870.21,7518.5
5797.88,7504.12
5729.74,7475.89
5699.28,7455.54
5668.41,7434.92
5616.26,7382.77
5575.29,7321.44
5575.29,7321.44
5547.07,7253.31
5532.68,7180.97
5532.68,7107.22
5547.07,7034.88
5575.29,6966.75
5616.26,6905.42
5616.26,6905.42
5668.41,6853.27
5729.74,6812.3
5729.74,6812.3
5797.88,6784.07
5870.21,6769.69
5943.96,6769.69
Z" /> 
<path style="fill:#000000; fill-opacity:1.0; 
stroke:#000000; stroke-width:0; stroke-opacity:1; 
stroke-linecap:round; stroke-linejoin:round;fill-rule:evenodd;"
d="M 7016.3,6784.07
7084.44,6812.3
7084.44,6812.3
7145.76,6853.27
7197.91,6905.42
7197.91,6905.42
7238.88,6966.75
7267.11,7034.88
7281.5,7107.22
7281.5,7180.97
7267.11,7253.31
7238.88,7321.44
7238.88,7321.44
7197.91,7382.77
7145.76,7434.92
7114.89,7455.54
7084.44,7475.89
7016.3,7504.12
6943.96,7518.5
6870.21,7518.5
6797.88,7504.12
6729.74,7475.89
6699.28,7455.54
6668.41,7434.92
6616.26,7382.77
6575.29,7321.44
6575.29,7321.44
6547.07,7253.31
6532.68,7180.97
6532.68,7107.22
6547.07,7034.88
6575.29,6966.75
6616.26,6905.42
6616.26,6905.42
6668.41,6853.27
6729.74,6812.3
6729.74,6812.3
6797.88,6784.07
6870.21,6769.69
6943.96,6769.69
Z" /> 
<path style="fill:#000000; fill-opacity:1.0; 
stroke:#000000; stroke-width:0; stroke-opacity:1; 
stroke-linecap:round; stroke-linejoin:round;fill-rule:evenodd;"
d="M 9016.3,6784.07
9084.44,6812.3
9084.44,6812.3
9145.76,6853.27
9197.91,6905.42
9197.91,6905.42
9238.88,6966.75
9267.11,7034.88
9281.5,7107.22
9281.5,7180.97
9267.11,7253.31
9238.88,7321.44
9238.88,7321.44
9197.91,7382.77
9145.76,7434.92
9114.89,7455.54
9084.44,7475.89
9016.3,7504.12
8943.96,7518.5
8870.21,7518.5
8797.88,7504.12
8729.74,7475.89
8699.28,7455.54
8668.41,7434.92
8616.26,7382.77
8575.29,7321.44
8575.29,7321.44
8547.07,7253.31
8532.68,7180.97
8532.68,7107.22
8547.07,7034.88
8575.29,6966.75
8616.26,6905.42
8616.26,6905.42
8668.41,6853.27
8729.74,6812.3
8729.74,6812.3
8797.88,6784.07
8870.21,6769.69
8943.96,6769.69
Z" /> 
<path style="fill:#000000; fill-opacity:1.0; 
stroke:#000000; stroke-width:0; stroke-opacity:1; 
stroke-linecap:round; stroke-linejoin:round;fill-rule:evenodd;"
d="M 10016.3,6784.07
10084.4,6812.3
10084.4,6812.3
10145.8,6853.27
10197.9,6905.42
10197.9,6905.42
10238.9,6966.75
10267.1,7034.88
10281.5,7107.22
10281.5,7180.97
10267.1,7253.31
10238.9,7321.44
10238.9,7321.44
10197.9,7382.77
10145.8,7434.92
10114.9,7455.54
10084.4,7475.89
10016.3,7504.12
9943.96,7518.5
9870.21,7518.5
9797.88,7504.12
9729.74,7475.89
9699.28,7455.54
9668.41,7434.92
9616.26,7382.77
9575.29,7321.44
9575.29,7321.44
9547.07,7253.31
9532.68,7180.97
9532.68,7107.22
9547.07,7034.88
9575.29,6966.75
9616.26,6905.42
9616.26,6905.42
9668.41,6853.27
9729.74,6812.3
9729.74,6812.3
9797.88,6784.07
9870.21,6769.69
9943.96,6769.69
Z" /> 
<path style="fill:#000000; fill-opacity:1.0; 
stroke:#000000; stroke-width:0; stroke-opacity:1; 
stroke-linecap:round; stroke-linejoin:round;fill-rule:evenodd;"
d="M 11016.3,6784.07
11084.4,6812.3
11084.4,6812.3
11145.8,6853.27
11197.9,6905.42
11197.9,6905.42
11238.9,6966.75
11267.1,7034.88
11281.5,7107.22
11281.5,7180.97
11267.1,7253.31
11238.9,7321.44
11238.9,7321.44
11197.9,7382.77
11145.8,7434.92
11114.9,7455.54
11084.4,7475.89
11016.3,7504.12
10944,7518.5
10870.2,7518.5
10797.9,7504.12
10729.7,7475.89
10699.3,7455.54
10668.4,7434.92
10616.3,7382.77
10575.3,7321.44
10575.3,7321.44
10547.1,7253.31
10532.7,7180.97
10532.7,7107.22
10547.1,7034.88
10575.3,6966.75
10616.3,6905.42
10616.3,6905.42
10668.4,6853.27
10729.7,6812.3
10729.7,6812.3
10797.9,6784.07
10870.2,6769.69
10944,6769.69
Z" /> 
<path style="fill:#000000; fill-opacity:1.0; 
stroke:#000000; stroke-width:0; stroke-opacity:1; 
stroke-linecap:round; stroke-linejoin:round;fill-rule:evenodd;"
d="M 8016.3,6784.07
8084.44,6812.3
8084.44,6812.3
8145.76,6853.27
8197.91,6905.42
8197.91,6905.42
8238.88,6966.75
8267.11,7034.88
8281.5,7107.22
8281.5,7180.97
8267.11,7253.31
8238.88,7321.44
8238.88,7321.44
8197.91,7382.77
8145.76,7434.92
8114.89,7455.54
8084.44,7475.89
8016.3,7504.12
7943.96,7518.5
7870.21,7518.5
7797.88,7504.12
7729.74,7475.89
7699.28,7455.54
7668.41,7434.92
7616.26,7382.77
7575.29,7321.44
7575.29,7321.44
7547.07,7253.31
7532.68,7180.97
7532.68,7107.22
7547.07,7034.88
7575.29,6966.75
7616.26,6905.42
7616.26,6905.42
7668.41,6853.27
7729.74,6812.3
7729.74,6812.3
7797.88,6784.07
7870.21,6769.69
7943.96,6769.69
Z" /> 
<path style="fill:#000000; fill-opacity:1.0; 
stroke:#000000; stroke-width:0; stroke-opacity:1; 
stroke-linecap:round; stroke-linejoin:round;fill-rule:evenodd;"
d="M 15951.8,6791.31
16010.6,6803
16075.1,6829.74
16133.2,6868.56
16182.6,6917.97
16221.4,6976.07
16248.2,7040.63
16261.8,7109.16
16261.8,7179.03
16248.2,7247.56
16221.4,7312.12
16182.6,7370.22
16133.2,7419.63
16075.1,7458.45
16010.6,7485.19
15951.8,7496.88
15942,7498.82
15872.1,7498.82
15862.4,7496.88
15803.6,7485.19
15739.1,7458.45
15681,7419.63
15631.6,7370.22
15592.7,7312.12
15566,7247.56
15552.4,7179.03
15552.4,7109.16
15566,7040.63
15592.7,6976.07
15631.6,6917.97
15681,6868.56
15739.1,6829.74
15803.6,6803
15862.4,6791.31
15872.1,6789.37
15942,6789.37
Z" /> 
<path style="fill:#000000; fill-opacity:1.0; 
stroke:#000000; stroke-width:0; stroke-opacity:1; 
stroke-linecap:round; stroke-linejoin:round;fill-rule:evenodd;"
d="M 15951.8,5791.31
16010.6,5803
16075.1,5829.74
16133.2,5868.56
16182.6,5917.97
16221.4,5976.07
16248.2,6040.63
16261.8,6109.16
16261.8,6179.03
16248.2,6247.56
16221.4,6312.12
16182.6,6370.22
16133.2,6419.63
16075.1,6458.45
16010.6,6485.19
15951.8,6496.88
15942,6498.82
15872.1,6498.82
15862.4,6496.88
15803.6,6485.19
15739.1,6458.45
15681,6419.63
15631.6,6370.22
15592.7,6312.12
15566,6247.56
15552.4,6179.03
15552.4,6109.16
15566,6040.63
15592.7,5976.07
15631.6,5917.97
15681,5868.56
15739.1,5829.74
15803.6,5803
15862.4,5791.31
15872.1,5789.37
15942,5789.37
Z" /> 
<path style="fill:#000000; fill-opacity:1.0; 
stroke:#000000; stroke-width:0; stroke-opacity:1; 
stroke-linecap:round; stroke-linejoin:round;fill-rule:evenodd;"
d="M 9916.3,5076.99
9984.44,5105.21
9984.44,5105.21
10045.8,5146.19
10097.9,5198.34
10097.9,5198.34
10138.9,5259.66
10167.1,5327.8
10181.5,5400.13
10181.5,5473.89
10167.1,5546.22
10138.9,5614.36
10138.9,5614.36
10097.9,5675.68
10045.8,5727.83
10014.9,5748.46
9984.44,5768.81
9916.3,5797.03
9843.96,5811.42
9770.21,5811.42
9697.88,5797.03
9629.74,5768.81
9599.28,5748.46
9568.41,5727.83
9516.26,5675.68
9475.29,5614.36
9475.29,5614.36
9447.07,5546.22
9432.68,5473.89
9432.68,5400.13
9447.07,5327.8
9475.29,5259.66
9516.26,5198.34
9516.26,5198.34
9568.41,5146.19
9629.74,5105.21
9629.74,5105.21
9697.88,5076.99
9770.21,5062.6
9843.96,5062.6
Z" /> 
<path style="fill:#000000; fill-opacity:1.0; 
stroke:#000000; stroke-width:0; stroke-opacity:1; 
stroke-linecap:round; stroke-linejoin:round;fill-rule:evenodd;"
d="M 8916.3,5076.99
8984.44,5105.21
8984.44,5105.21
9045.76,5146.19
9097.91,5198.34
9097.91,5198.34
9138.88,5259.66
9167.11,5327.8
9181.5,5400.13
9181.5,5473.89
9167.11,5546.22
9138.88,5614.36
9138.88,5614.36
9097.91,5675.68
9045.76,5727.83
9014.89,5748.46
8984.44,5768.81
8916.3,5797.03
8843.96,5811.42
8770.21,5811.42
8697.88,5797.03
8629.74,5768.81
8599.28,5748.46
8568.41,5727.83
8516.26,5675.68
8475.29,5614.36
8475.29,5614.36
8447.07,5546.22
8432.68,5473.89
8432.68,5400.13
8447.07,5327.8
8475.29,5259.66
8516.26,5198.34
8516.26,5198.34
8568.41,5146.19
8629.74,5105.21
8629.74,5105.21
8697.88,5076.99
8770.21,5062.6
8843.96,5062.6
Z" /> 
<path style="fill:#000000; fill-opacity:1.0; 
stroke:#000000; stroke-width:0; stroke-opacity:1; 
stroke-linecap:round; stroke-linejoin:round;fill-rule:evenodd;"
d="M 7916.3,5076.99
7984.44,5105.21
7984.44,5105.21
8045.76,5146.19
8097.91,5198.34
8097.91,5198.34
8138.88,5259.66
8167.11,5327.8
8181.5,5400.13
8181.5,5473.89
8167.11,5546.22
8138.88,5614.36
8138.88,5614.36
8097.91,5675.68
8045.76,5727.83
8014.89,5748.46
7984.44,5768.81
7916.3,5797.03
7843.96,5811.42
7770.21,5811.42
7697.88,5797.03
7629.74,5768.81
7599.28,5748.46
7568.41,5727.83
7516.26,5675.68
7475.29,5614.36
7475.29,5614.36
7447.07,5546.22
7432.68,5473.89
7432.68,5400.13
7447.07,5327.8
7475.29,5259.66
7516.26,5198.34
7516.26,5198.34
7568.41,5146.19
7629.74,5105.21
7629.74,5105.21
7697.88,5076.99
7770.21,5062.6
7843.96,5062.6
Z" /> 
<path style="fill:#000000; fill-opacity:1.0; 
stroke:#000000; stroke-width:0; stroke-opacity:1; 
stroke-linecap:round; stroke-linejoin:round;fill-rule:evenodd;"
d="M 6916.3,5076.99
6984.44,5105.21
6984.44,5105.21
7045.76,5146.19
7097.91,5198.34
7097.91,5198.34
7138.88,5259.66
7167.11,5327.8
7181.5,5400.13
7181.5,5473.89
7167.11,5546.22
7138.88,5614.36
7138.88,5614.36
7097.91,5675.68
7045.76,5727.83
7014.89,5748.46
6984.44,5768.81
6916.3,5797.03
6843.96,5811.42
6770.21,5811.42
6697.88,5797.03
6629.74,5768.81
6599.28,5748.46
6568.41,5727.83
6516.26,5675.68
6475.29,5614.36
6475.29,5614.36
6447.07,5546.22
6432.68,5473.89
6432.68,5400.13
6447.07,5327.8
6475.29,5259.66
6516.26,5198.34
6516.26,5198.34
6568.41,5146.19
6629.74,5105.21
6629.74,5105.21
6697.88,5076.99
6770.21,5062.6
6843.96,5062.6
Z" /> 
<path style="fill:#000000; fill-opacity:1.0; 
stroke:#000000; stroke-width:0; stroke-opacity:1; 
stroke-linecap:round; stroke-linejoin:round;fill-rule:evenodd;"
d="M 16261.8,5498.82
15552.4,5498.82
15552.4,4789.37
16261.8,4789.37
Z" /> 
<path style="fill:#000000; fill-opacity:1.0; 
stroke:#000000; stroke-width:0; stroke-opacity:1; 
stroke-linecap:round; stroke-linejoin:round;fill-rule:evenodd;"
d="M 14013.4,1829.54
14196.2,1905.25
14196.2,1905.25
14360.7,2015.16
14500.6,2155.05
14610.5,2319.55
14610.5,2319.55
14686.2,2502.32
14724.8,2696.36
14724.8,2894.19
14686.2,3088.23
14610.5,3271
14610.5,3271.01
14500.6,3435.5
14360.7,3575.39
14196.2,3685.3
14196.2,3685.3
14196.2,3685.3
14013.4,3761.01
13819.4,3799.61
13621.6,3799.61
13427.5,3761.01
13244.7,3685.3
13244.7,3685.3
13244.7,3685.3
13080.2,3575.39
12940.4,3435.5
12830.4,3271.01
12830.4,3271
12754.7,3088.23
12716.1,2894.19
12716.1,2696.36
12754.7,2502.32
12830.4,2319.55
12830.4,2319.55
12940.4,2155.05
13080.2,2015.16
13244.7,1905.25
13244.7,1905.25
13427.5,1829.54
13621.6,1790.95
13819.4,1790.95
Z" /> 
<path style="fill:#000000; fill-opacity:1.0; 
stroke:#000000; stroke-width:0; stroke-opacity:1; 
stroke-linecap:round; stroke-linejoin:round;fill-rule:evenodd;"
d="M 3186.65,1829.54
3369.43,1905.25
3369.43,1905.25
3533.92,2015.16
3673.82,2155.05
3783.73,2319.55
3783.73,2319.55
3859.44,2502.32
3898.03,2696.36
3898.03,2894.19
3859.44,3088.23
3783.73,3271
3783.73,3271.01
3673.82,3435.5
3533.92,3575.39
3369.43,3685.3
3369.43,3685.3
3369.43,3685.3
3186.65,3761.01
2992.62,3799.61
2794.78,3799.61
2600.75,3761.01
2417.97,3685.3
2417.97,3685.3
2417.97,3685.3
2253.48,3575.39
2113.59,3435.5
2003.67,3271.01
2003.67,3271
1927.97,3088.23
1889.37,2894.19
1889.37,2696.36
1927.97,2502.32
2003.67,2319.55
2003.67,2319.55
2113.59,2155.05
2253.48,2015.16
2417.97,1905.25
2417.97,1905.25
2600.75,1829.54
2794.78,1790.95
2992.62,1790.95
Z" /> 
<g >
<path style="fill:#000000; fill-opacity:1.0; 
stroke:#000000; stroke-width:0; stroke-opacity:1; 
stroke-linecap:round; stroke-linejoin:round;fill-rule:evenodd;"
d="M 8295.87,19434.1
8295.87,18804.1
9154.13,18804.1
9154.13,19434.1
Z" /> 
<path style="fill:#000000; fill-opacity:1.0; 
stroke:#000000; stroke-width:0; stroke-opacity:1; 
stroke-linecap:round; stroke-linejoin:round;fill-rule:evenodd;"
d="M 11910,19434.1
11910,18804.1
12768.3,18804.1
12768.3,19434.1
Z" /> 
</g>
<g >
</g>
<g style="fill:#000000; fill-opacity:1.0; 
stroke:#000000; stroke-width:0; stroke-opacity:1; 
stroke-linecap:round; stroke-linejoin:round;">
<path style="fill:#000000; fill-opacity:1.0; 
stroke:#000000; stroke-width:0; stroke-opacity:1; 
stroke-linecap:round; stroke-linejoin:round;fill-rule:evenodd;"
d="M 4162.01,21594.3
4162.01,21003.7
5028.15,21003.7
5028.15,21594.3
Z" /> 
<path style="fill:#000000; fill-opacity:1.0; 
stroke:#000000; stroke-width:0; stroke-opacity:1; 
stroke-linecap:round; stroke-linejoin:round;fill-rule:evenodd;"
d="M 4162.01,20334.4
4162.01,19743.9
5028.15,19743.9
5028.15,20334.4
Z" /> 
<path style="fill:#000000; fill-opacity:1.0; 
stroke:#000000; stroke-width:0; stroke-opacity:1; 
stroke-linecap:round; stroke-linejoin:round;fill-rule:evenodd;"
d="M 2036.02,21594.3
2036.02,21003.7
2902.17,21003.7
2902.17,21594.3
Z" /> 
<path style="fill:#000000; fill-opacity:1.0; 
stroke:#000000; stroke-width:0; stroke-opacity:1; 
stroke-linecap:round; stroke-linejoin:round;fill-rule:evenodd;"
d="M 2036.02,20334.4
2036.02,19743.9
2902.17,19743.9
2902.17,20334.4
Z" /> 
</g>
<g >
</g>
<g >
</g>
<g >
</g>
<g >
</g>
<g style="fill:#000000; fill-opacity:1.0; 
stroke:#000000; stroke-width:0; stroke-opacity:1; 
stroke-linecap:round; stroke-linejoin:round;">
<path style="fill:#000000; fill-opacity:1.0; 
stroke:#000000; stroke-width:0; stroke-opacity:1; 
stroke-linecap:round; stroke-linejoin:round;fill-rule:evenodd;"
d="M 10745.9,20950.4
10745.9,20320.5
11604.1,20320.5
11604.1,20950.4
Z" /> 
<path style="fill:#000000; fill-opacity:1.0; 
stroke:#000000; stroke-width:0; stroke-opacity:1; 
stroke-linecap:round; stroke-linejoin:round;fill-rule:evenodd;"
d="M 14360,20950.4
14360,20320.5
15218.3,20320.5
15218.3,20950.4
Z" /> 
</g>
<g >
</g>
<g >
</g>
<g >
</g>
<g style="fill:#000000; fill-opacity:1.0; 
stroke:#000000; stroke-width:0; stroke-opacity:1; 
stroke-linecap:round; stroke-linejoin:round;">
<path style="fill:#000000; fill-opacity:1.0; 
stroke:#000000; stroke-width:0; stroke-opacity:1; 
stroke-linecap:round; stroke-linejoin:round;fill-rule:evenodd;"
d="M 5820.87,20950.4
5820.87,20320.5
6679.13,20320.5
6679.13,20950.4
Z" /> 
<path style="fill:#000000; fill-opacity:1.0; 
stroke:#000000; stroke-width:0; stroke-opacity:1; 
stroke-linecap:round; stroke-linejoin:round;fill-rule:evenodd;"
d="M 9435.04,20950.4
9435.04,20320.5
10293.3,20320.5
10293.3,20950.4
Z" /> 
</g>
<g >
</g>
<g style="fill:#000000; fill-opacity:1.0; 
stroke:#000000; stroke-width:0; stroke-opacity:1; 
stroke-linecap:round; stroke-linejoin:round;">
<path style="fill:#000000; fill-opacity:1.0; 
stroke:#000000; stroke-width:0; stroke-opacity:1; 
stroke-linecap:round; stroke-linejoin:round;fill-rule:evenodd;"
d="M 8295.87,22459.1
8295.87,21829.1
9154.13,21829.1
9154.13,22459.1
Z" /> 
<path style="fill:#000000; fill-opacity:1.0; 
stroke:#000000; stroke-width:0; stroke-opacity:1; 
stroke-linecap:round; stroke-linejoin:round;fill-rule:evenodd;"
d="M 11910,22459.1
11910,21829.1
12768.3,21829.1
12768.3,22459.1
Z" /> 
</g>
<g >
</g>
<g >
</g>
<g >
</g>
<g >
</g>
<g >
</g>
<g >
</g>
<g >
</g>
<g >
</g>
<g >
</g>
<g >
</g>
<g >
</g>
<g >
</g>
<g >
</g>
<g >
</g>
</g>
<g style="fill:#000000; fill-opacity:1.0; 
stroke:#000000; stroke-width:0; stroke-opacity:1; 
stroke-linecap:round; stroke-linejoin:round;">
</g>
<g style="fill:#000000; fill-opacity:1.0; 
stroke:#000000; stroke-width:47.2441; stroke-opacity:1; 
stroke-linecap:round; stroke-linejoin:round;">
</g>
<g style="fill:#000000; fill-opacity:0.0; 
stroke:#000000; stroke-width:47.2441; stroke-opacity:1; 
stroke-linecap:round; stroke-linejoin:round;">
<path d="M9327 18406
L11736 18406
" />
<path d="M11736 18406
L11736 19831
" />
<path d="M11736 19831
L9327 19831
" />
<path d="M9327 19831
L9327 18406
" />
<path d="M4507 20709
L3572 21644
" />
</g>
<g style="fill:#000000; fill-opacity:0.0; 
stroke:#000000; stroke-width:39.3701; stroke-opacity:1; 
stroke-linecap:round; stroke-linejoin:round;">
<path d="M2547 19684
L2547 21653
" />
<path d="M2547 21653
L4516 21653
" />
<path d="M4516 21653
L4516 19684
" />
<path d="M4516 19684
L2547 19684
" />
</g>
<g style="fill:#000000; fill-opacity:0.0; 
stroke:#000000; stroke-width:47.2441; stroke-opacity:1; 
stroke-linecap:round; stroke-linejoin:round;">
<path d="M16407 4644
L16430 12667
" />
<path d="M15407 4644
L15383 12667
" />
<path d="M15383 12667
L16430 12667
" />
<path d="M16407 4644
L15407 4644
" />
<path d="M15275 17838
L15275 4649
" />
<path d="M1338 4649
L15275 4649
" />
<path d="M1338 17838
L15275 17838
" />
<path d="M1338 4649
L1338 17838
" />
<path d="M11777 19922
L14186 19922
" />
<path d="M14186 19922
L14186 21348
" />
<path d="M14186 21348
L11777 21348
" />
<path d="M11777 21348
L11777 19922
" />
<path d="M6852 19922
L9261 19922
" />
<path d="M9261 19922
L9261 21348
" />
<path d="M9261 21348
L6852 21348
" />
<path d="M6852 21348
L6852 19922
" />
<path d="M9327 21431
L11736 21431
" />
<path d="M11736 21431
L11736 22856
" />
<path d="M11736 22856
L9327 22856
" />
<path d="M9327 22856
L9327 21431
" />
<g >
</g>
</g>
<g style="fill:#000000; fill-opacity:0.0; 
stroke:#000000; stroke-width:47.2441; stroke-opacity:1; 
stroke-linecap:round; stroke-linejoin:round;">
</g>
<g style="fill:#000000; fill-opacity:0.0; 
stroke:#000000; stroke-width:78.7402; stroke-opacity:1; 
stroke-linecap:round; stroke-linejoin:round;">
<path d="M39 20118
L39 4370
" />
<path d="M3307 23267
L39 20118
" />
<path d="M13307 23267
L3307 23267
" />
<path d="M16574 20118
L13307 23267
" />
<path d="M16574 4370
L16574 20118
" />
<path d="M13720 39
L16574 4370
" />
<path d="M10866 4370
L13720 39
" />
<path d="M5748 4370
L10866 4370
" />
<path d="M2893 39
L5748 4370
" />
<path d="M39 4370
L2893 39
" />
<g >
</g>
<g >
</g>
<g >
</g>
<g >
</g>
<g >
</g>
<g >
</g>
<g >
</g>
<g >
</g>
<g >
</g>
<g >
</g>
<g >
</g>
<g >
</g>
<g >
</g>
<g >
</g>
<g >
</g>
<g >
</g>
<g >
</g>
<g >
</g>
<g >
</g>
<g >
</g>
<g >
</g>
<g >
</g>
</g> 
</svg>
