G04 #@! TF.GenerationSoftware,KiCad,Pcbnew,5.1.5+dfsg1-2build2*
G04 #@! TF.CreationDate,2021-10-07T21:38:51-07:00*
G04 #@! TF.ProjectId,Nugget-PCB,4e756767-6574-42d5-9043-422e6b696361,rev?*
G04 #@! TF.SameCoordinates,Original*
G04 #@! TF.FileFunction,Soldermask,Top*
G04 #@! TF.FilePolarity,Negative*
%FSLAX46Y46*%
G04 Gerber Fmt 4.6, Leading zero omitted, Abs format (unit mm)*
G04 Created by KiCad (PCBNEW 5.1.5+dfsg1-2build2) date 2021-10-07 21:38:51*
%MOMM*%
%LPD*%
G04 APERTURE LIST*
%ADD10C,0.010000*%
%ADD11C,0.300000*%
G04 APERTURE END LIST*
D10*
G36*
X-9630833Y-26246667D02*
G01*
X-9704917Y-26246667D01*
X-9754570Y-26249943D01*
X-9774933Y-26268430D01*
X-9778991Y-26315111D01*
X-9779000Y-26320750D01*
X-9779000Y-26394834D01*
X-10498667Y-26394834D01*
X-10498667Y-26246667D01*
X-9927167Y-26246667D01*
X-9927167Y-26098500D01*
X-10498667Y-26098500D01*
X-10498667Y-26024417D01*
X-10501943Y-25974764D01*
X-10520430Y-25954401D01*
X-10567111Y-25950343D01*
X-10572750Y-25950334D01*
X-10646833Y-25950334D01*
X-10646833Y-25654000D01*
X-10572750Y-25654000D01*
X-10350500Y-25654000D01*
X-10350500Y-25950334D01*
X-9927167Y-25950334D01*
X-9927167Y-25654000D01*
X-10350500Y-25654000D01*
X-10572750Y-25654000D01*
X-10522976Y-25650460D01*
X-10502561Y-25632505D01*
X-10498667Y-25590500D01*
X-10498667Y-25527000D01*
X-9630833Y-25527000D01*
X-9630833Y-26246667D01*
G37*
X-9630833Y-26246667D02*
X-9704917Y-26246667D01*
X-9754570Y-26249943D01*
X-9774933Y-26268430D01*
X-9778991Y-26315111D01*
X-9779000Y-26320750D01*
X-9779000Y-26394834D01*
X-10498667Y-26394834D01*
X-10498667Y-26246667D01*
X-9927167Y-26246667D01*
X-9927167Y-26098500D01*
X-10498667Y-26098500D01*
X-10498667Y-26024417D01*
X-10501943Y-25974764D01*
X-10520430Y-25954401D01*
X-10567111Y-25950343D01*
X-10572750Y-25950334D01*
X-10646833Y-25950334D01*
X-10646833Y-25654000D01*
X-10572750Y-25654000D01*
X-10350500Y-25654000D01*
X-10350500Y-25950334D01*
X-9927167Y-25950334D01*
X-9927167Y-25654000D01*
X-10350500Y-25654000D01*
X-10572750Y-25654000D01*
X-10522976Y-25650460D01*
X-10502561Y-25632505D01*
X-10498667Y-25590500D01*
X-10498667Y-25527000D01*
X-9630833Y-25527000D01*
X-9630833Y-26246667D01*
G36*
X-8466667Y-26246667D02*
G01*
X-8540750Y-26246667D01*
X-8590403Y-26249943D01*
X-8610766Y-26268430D01*
X-8614824Y-26315111D01*
X-8614833Y-26320750D01*
X-8614833Y-26394834D01*
X-9334500Y-26394834D01*
X-9334500Y-26246667D01*
X-8763000Y-26246667D01*
X-8763000Y-26098500D01*
X-9331818Y-26098500D01*
X-9338451Y-26029709D01*
X-9348713Y-25981218D01*
X-9376309Y-25960331D01*
X-9413875Y-25954284D01*
X-9454841Y-25950334D01*
X-9209434Y-25950334D01*
X-8763000Y-25950334D01*
X-8763000Y-25652519D01*
X-8979958Y-25658551D01*
X-9196917Y-25664584D01*
X-9203176Y-25807459D01*
X-9209434Y-25950334D01*
X-9454841Y-25950334D01*
X-9482667Y-25947651D01*
X-9482667Y-25654000D01*
X-9408583Y-25654000D01*
X-9358810Y-25650460D01*
X-9338395Y-25632505D01*
X-9334500Y-25590500D01*
X-9334500Y-25527000D01*
X-8466667Y-25527000D01*
X-8466667Y-26246667D01*
G37*
X-8466667Y-26246667D02*
X-8540750Y-26246667D01*
X-8590403Y-26249943D01*
X-8610766Y-26268430D01*
X-8614824Y-26315111D01*
X-8614833Y-26320750D01*
X-8614833Y-26394834D01*
X-9334500Y-26394834D01*
X-9334500Y-26246667D01*
X-8763000Y-26246667D01*
X-8763000Y-26098500D01*
X-9331818Y-26098500D01*
X-9338451Y-26029709D01*
X-9348713Y-25981218D01*
X-9376309Y-25960331D01*
X-9413875Y-25954284D01*
X-9454841Y-25950334D01*
X-9209434Y-25950334D01*
X-8763000Y-25950334D01*
X-8763000Y-25652519D01*
X-8979958Y-25658551D01*
X-9196917Y-25664584D01*
X-9203176Y-25807459D01*
X-9209434Y-25950334D01*
X-9454841Y-25950334D01*
X-9482667Y-25947651D01*
X-9482667Y-25654000D01*
X-9408583Y-25654000D01*
X-9358810Y-25650460D01*
X-9338395Y-25632505D01*
X-9334500Y-25590500D01*
X-9334500Y-25527000D01*
X-8466667Y-25527000D01*
X-8466667Y-26246667D01*
G36*
X-12678833Y-25304750D02*
G01*
X-12675252Y-25354550D01*
X-12657344Y-25374974D01*
X-12616675Y-25378834D01*
X-12573019Y-25384375D01*
X-12553857Y-25409713D01*
X-12547883Y-25447625D01*
X-12537621Y-25496116D01*
X-12510025Y-25517003D01*
X-12472458Y-25523050D01*
X-12424736Y-25532658D01*
X-12406233Y-25557337D01*
X-12403667Y-25591841D01*
X-12399398Y-25633625D01*
X-12378054Y-25650762D01*
X-12329583Y-25654000D01*
X-12255500Y-25654000D01*
X-12255500Y-25230667D01*
X-11959167Y-25230667D01*
X-11959167Y-26246667D01*
X-12255500Y-26246667D01*
X-12255500Y-25950334D01*
X-12329583Y-25950334D01*
X-12379236Y-25947057D01*
X-12399600Y-25928570D01*
X-12403658Y-25881889D01*
X-12403667Y-25876250D01*
X-12406943Y-25826597D01*
X-12425430Y-25806234D01*
X-12472111Y-25802176D01*
X-12477750Y-25802167D01*
X-12527403Y-25798890D01*
X-12547766Y-25780404D01*
X-12551824Y-25733722D01*
X-12551833Y-25728084D01*
X-12555392Y-25678299D01*
X-12573325Y-25657880D01*
X-12614736Y-25654000D01*
X-12677639Y-25654000D01*
X-12689417Y-26236084D01*
X-12832292Y-26242342D01*
X-12975167Y-26248601D01*
X-12975167Y-25230667D01*
X-12678833Y-25230667D01*
X-12678833Y-25304750D01*
G37*
X-12678833Y-25304750D02*
X-12675252Y-25354550D01*
X-12657344Y-25374974D01*
X-12616675Y-25378834D01*
X-12573019Y-25384375D01*
X-12553857Y-25409713D01*
X-12547883Y-25447625D01*
X-12537621Y-25496116D01*
X-12510025Y-25517003D01*
X-12472458Y-25523050D01*
X-12424736Y-25532658D01*
X-12406233Y-25557337D01*
X-12403667Y-25591841D01*
X-12399398Y-25633625D01*
X-12378054Y-25650762D01*
X-12329583Y-25654000D01*
X-12255500Y-25654000D01*
X-12255500Y-25230667D01*
X-11959167Y-25230667D01*
X-11959167Y-26246667D01*
X-12255500Y-26246667D01*
X-12255500Y-25950334D01*
X-12329583Y-25950334D01*
X-12379236Y-25947057D01*
X-12399600Y-25928570D01*
X-12403658Y-25881889D01*
X-12403667Y-25876250D01*
X-12406943Y-25826597D01*
X-12425430Y-25806234D01*
X-12472111Y-25802176D01*
X-12477750Y-25802167D01*
X-12527403Y-25798890D01*
X-12547766Y-25780404D01*
X-12551824Y-25733722D01*
X-12551833Y-25728084D01*
X-12555392Y-25678299D01*
X-12573325Y-25657880D01*
X-12614736Y-25654000D01*
X-12677639Y-25654000D01*
X-12689417Y-26236084D01*
X-12832292Y-26242342D01*
X-12975167Y-26248601D01*
X-12975167Y-25230667D01*
X-12678833Y-25230667D01*
X-12678833Y-25304750D01*
G36*
X-11514667Y-26098500D02*
G01*
X-11091333Y-26098500D01*
X-11091333Y-25527000D01*
X-10795000Y-25527000D01*
X-10795000Y-26246667D01*
X-11662833Y-26246667D01*
X-11662833Y-26172584D01*
X-11666110Y-26122931D01*
X-11684597Y-26102567D01*
X-11731278Y-26098509D01*
X-11736917Y-26098500D01*
X-11811000Y-26098500D01*
X-11811000Y-25527000D01*
X-11514667Y-25527000D01*
X-11514667Y-26098500D01*
G37*
X-11514667Y-26098500D02*
X-11091333Y-26098500D01*
X-11091333Y-25527000D01*
X-10795000Y-25527000D01*
X-10795000Y-26246667D01*
X-11662833Y-26246667D01*
X-11662833Y-26172584D01*
X-11666110Y-26122931D01*
X-11684597Y-26102567D01*
X-11731278Y-26098509D01*
X-11736917Y-26098500D01*
X-11811000Y-26098500D01*
X-11811000Y-25527000D01*
X-11514667Y-25527000D01*
X-11514667Y-26098500D01*
G36*
X-7450667Y-25589159D02*
G01*
X-7445125Y-25632814D01*
X-7419788Y-25651976D01*
X-7381875Y-25657951D01*
X-7313083Y-25664584D01*
X-7300589Y-25949326D01*
X-7666670Y-25955121D01*
X-8032750Y-25960917D01*
X-8039383Y-26029709D01*
X-8046016Y-26098500D01*
X-7450667Y-26098500D01*
X-7450667Y-26246667D01*
X-8170333Y-26246667D01*
X-8170333Y-26172584D01*
X-8173610Y-26122931D01*
X-8192097Y-26102567D01*
X-8238778Y-26098509D01*
X-8244417Y-26098500D01*
X-8318500Y-26098500D01*
X-8318500Y-25802167D01*
X-8046016Y-25802167D01*
X-7598833Y-25802167D01*
X-7598833Y-25652519D01*
X-7815792Y-25658551D01*
X-8032750Y-25664584D01*
X-8039383Y-25733375D01*
X-8046016Y-25802167D01*
X-8318500Y-25802167D01*
X-8318500Y-25654000D01*
X-8244417Y-25654000D01*
X-8194643Y-25650460D01*
X-8174228Y-25632505D01*
X-8170333Y-25590500D01*
X-8170333Y-25527000D01*
X-7450667Y-25527000D01*
X-7450667Y-25589159D01*
G37*
X-7450667Y-25589159D02*
X-7445125Y-25632814D01*
X-7419788Y-25651976D01*
X-7381875Y-25657951D01*
X-7313083Y-25664584D01*
X-7300589Y-25949326D01*
X-7666670Y-25955121D01*
X-8032750Y-25960917D01*
X-8039383Y-26029709D01*
X-8046016Y-26098500D01*
X-7450667Y-26098500D01*
X-7450667Y-26246667D01*
X-8170333Y-26246667D01*
X-8170333Y-26172584D01*
X-8173610Y-26122931D01*
X-8192097Y-26102567D01*
X-8238778Y-26098509D01*
X-8244417Y-26098500D01*
X-8318500Y-26098500D01*
X-8318500Y-25802167D01*
X-8046016Y-25802167D01*
X-7598833Y-25802167D01*
X-7598833Y-25652519D01*
X-7815792Y-25658551D01*
X-8032750Y-25664584D01*
X-8039383Y-25733375D01*
X-8046016Y-25802167D01*
X-8318500Y-25802167D01*
X-8318500Y-25654000D01*
X-8244417Y-25654000D01*
X-8194643Y-25650460D01*
X-8174228Y-25632505D01*
X-8170333Y-25590500D01*
X-8170333Y-25527000D01*
X-7450667Y-25527000D01*
X-7450667Y-25589159D01*
G36*
X-6434667Y-25527000D02*
G01*
X-6138333Y-25527000D01*
X-6138333Y-25589533D01*
X-6139920Y-25622701D01*
X-6150942Y-25641884D01*
X-6180793Y-25651603D01*
X-6238869Y-25656383D01*
X-6281208Y-25658325D01*
X-6424083Y-25664584D01*
X-6429972Y-25955625D01*
X-6435861Y-26246667D01*
X-6731000Y-26246667D01*
X-6731000Y-25654000D01*
X-7006167Y-25654000D01*
X-7006167Y-25527000D01*
X-6731000Y-25527000D01*
X-6731000Y-25230667D01*
X-6434667Y-25230667D01*
X-6434667Y-25527000D01*
G37*
X-6434667Y-25527000D02*
X-6138333Y-25527000D01*
X-6138333Y-25589533D01*
X-6139920Y-25622701D01*
X-6150942Y-25641884D01*
X-6180793Y-25651603D01*
X-6238869Y-25656383D01*
X-6281208Y-25658325D01*
X-6424083Y-25664584D01*
X-6429972Y-25955625D01*
X-6435861Y-26246667D01*
X-6731000Y-26246667D01*
X-6731000Y-25654000D01*
X-7006167Y-25654000D01*
X-7006167Y-25527000D01*
X-6731000Y-25527000D01*
X-6731000Y-25230667D01*
X-6434667Y-25230667D01*
X-6434667Y-25527000D01*
G36*
X-3958167Y-25304750D02*
G01*
X-3954890Y-25354403D01*
X-3936404Y-25374766D01*
X-3889722Y-25378824D01*
X-3884083Y-25378834D01*
X-3810000Y-25378834D01*
X-3810000Y-25654000D01*
X-3884083Y-25654000D01*
X-3933736Y-25657277D01*
X-3954100Y-25675763D01*
X-3958158Y-25722445D01*
X-3958167Y-25728084D01*
X-3961443Y-25777736D01*
X-3979930Y-25798100D01*
X-4026611Y-25802158D01*
X-4032250Y-25802167D01*
X-4081903Y-25805443D01*
X-4102266Y-25823930D01*
X-4106324Y-25870611D01*
X-4106333Y-25876250D01*
X-4106333Y-25950334D01*
X-4402667Y-25950334D01*
X-4402667Y-26098500D01*
X-3810000Y-26098500D01*
X-3810000Y-26246667D01*
X-4826000Y-26246667D01*
X-4826000Y-25950334D01*
X-4751917Y-25950334D01*
X-4702264Y-25947057D01*
X-4681901Y-25928570D01*
X-4677843Y-25881889D01*
X-4677833Y-25876250D01*
X-4674252Y-25826451D01*
X-4656344Y-25806026D01*
X-4615675Y-25802167D01*
X-4572019Y-25796625D01*
X-4552857Y-25771288D01*
X-4546883Y-25733375D01*
X-4540250Y-25664584D01*
X-4397375Y-25658325D01*
X-4321751Y-25654318D01*
X-4279026Y-25647622D01*
X-4259807Y-25633715D01*
X-4254698Y-25608073D01*
X-4254500Y-25589533D01*
X-4250271Y-25547504D01*
X-4229040Y-25530266D01*
X-4180417Y-25527000D01*
X-4130764Y-25523724D01*
X-4110401Y-25505237D01*
X-4106343Y-25458556D01*
X-4106333Y-25452917D01*
X-4106333Y-25378834D01*
X-4550833Y-25378834D01*
X-4550833Y-25527000D01*
X-4826000Y-25527000D01*
X-4826000Y-25454258D01*
X-4821894Y-25404533D01*
X-4801326Y-25382667D01*
X-4757208Y-25374883D01*
X-4708718Y-25364621D01*
X-4687831Y-25337025D01*
X-4681784Y-25299459D01*
X-4675151Y-25230667D01*
X-3958167Y-25230667D01*
X-3958167Y-25304750D01*
G37*
X-3958167Y-25304750D02*
X-3954890Y-25354403D01*
X-3936404Y-25374766D01*
X-3889722Y-25378824D01*
X-3884083Y-25378834D01*
X-3810000Y-25378834D01*
X-3810000Y-25654000D01*
X-3884083Y-25654000D01*
X-3933736Y-25657277D01*
X-3954100Y-25675763D01*
X-3958158Y-25722445D01*
X-3958167Y-25728084D01*
X-3961443Y-25777736D01*
X-3979930Y-25798100D01*
X-4026611Y-25802158D01*
X-4032250Y-25802167D01*
X-4081903Y-25805443D01*
X-4102266Y-25823930D01*
X-4106324Y-25870611D01*
X-4106333Y-25876250D01*
X-4106333Y-25950334D01*
X-4402667Y-25950334D01*
X-4402667Y-26098500D01*
X-3810000Y-26098500D01*
X-3810000Y-26246667D01*
X-4826000Y-26246667D01*
X-4826000Y-25950334D01*
X-4751917Y-25950334D01*
X-4702264Y-25947057D01*
X-4681901Y-25928570D01*
X-4677843Y-25881889D01*
X-4677833Y-25876250D01*
X-4674252Y-25826451D01*
X-4656344Y-25806026D01*
X-4615675Y-25802167D01*
X-4572019Y-25796625D01*
X-4552857Y-25771288D01*
X-4546883Y-25733375D01*
X-4540250Y-25664584D01*
X-4397375Y-25658325D01*
X-4321751Y-25654318D01*
X-4279026Y-25647622D01*
X-4259807Y-25633715D01*
X-4254698Y-25608073D01*
X-4254500Y-25589533D01*
X-4250271Y-25547504D01*
X-4229040Y-25530266D01*
X-4180417Y-25527000D01*
X-4130764Y-25523724D01*
X-4110401Y-25505237D01*
X-4106343Y-25458556D01*
X-4106333Y-25452917D01*
X-4106333Y-25378834D01*
X-4550833Y-25378834D01*
X-4550833Y-25527000D01*
X-4826000Y-25527000D01*
X-4826000Y-25454258D01*
X-4821894Y-25404533D01*
X-4801326Y-25382667D01*
X-4757208Y-25374883D01*
X-4708718Y-25364621D01*
X-4687831Y-25337025D01*
X-4681784Y-25299459D01*
X-4675151Y-25230667D01*
X-3958167Y-25230667D01*
X-3958167Y-25304750D01*
G36*
X-3090333Y-26246667D02*
G01*
X-3388601Y-26246667D01*
X-3376083Y-25960917D01*
X-3090333Y-25948399D01*
X-3090333Y-26246667D01*
G37*
X-3090333Y-26246667D02*
X-3388601Y-26246667D01*
X-3376083Y-25960917D01*
X-3090333Y-25948399D01*
X-3090333Y-26246667D01*
G36*
X-1778000Y-26098500D02*
G01*
X-1481667Y-26098500D01*
X-1481667Y-26246667D01*
X-2349500Y-26246667D01*
X-2349500Y-26098500D01*
X-2074333Y-26098500D01*
X-2074333Y-25529682D01*
X-2143125Y-25523050D01*
X-2191616Y-25512787D01*
X-2212503Y-25485192D01*
X-2218550Y-25447625D01*
X-2219888Y-25401863D01*
X-2203956Y-25382837D01*
X-2159060Y-25378856D01*
X-2149758Y-25378834D01*
X-2099513Y-25375717D01*
X-2078672Y-25357933D01*
X-2074353Y-25312828D01*
X-2074333Y-25304750D01*
X-2074333Y-25230667D01*
X-1778000Y-25230667D01*
X-1778000Y-26098500D01*
G37*
X-1778000Y-26098500D02*
X-1481667Y-26098500D01*
X-1481667Y-26246667D01*
X-2349500Y-26246667D01*
X-2349500Y-26098500D01*
X-2074333Y-26098500D01*
X-2074333Y-25529682D01*
X-2143125Y-25523050D01*
X-2191616Y-25512787D01*
X-2212503Y-25485192D01*
X-2218550Y-25447625D01*
X-2219888Y-25401863D01*
X-2203956Y-25382837D01*
X-2159060Y-25378856D01*
X-2149758Y-25378834D01*
X-2099513Y-25375717D01*
X-2078672Y-25357933D01*
X-2074353Y-25312828D01*
X-2074333Y-25304750D01*
X-2074333Y-25230667D01*
X-1778000Y-25230667D01*
X-1778000Y-26098500D01*
G36*
X-18965333Y-13419667D02*
G01*
X-20997333Y-13419667D01*
X-20997333Y-12107334D01*
X-18965333Y-12107334D01*
X-18965333Y-13419667D01*
G37*
X-18965333Y-13419667D02*
X-20997333Y-13419667D01*
X-20997333Y-12107334D01*
X-18965333Y-12107334D01*
X-18965333Y-13419667D01*
G36*
X20997333Y-13419667D02*
G01*
X19984861Y-13419667D01*
X19781766Y-13419380D01*
X19591690Y-13418560D01*
X19418806Y-13417262D01*
X19267289Y-13415544D01*
X19141311Y-13413464D01*
X19045047Y-13411079D01*
X18982672Y-13408446D01*
X18958357Y-13405624D01*
X18958278Y-13405556D01*
X18954753Y-13381625D01*
X18951550Y-13320658D01*
X18948783Y-13227953D01*
X18946565Y-13108806D01*
X18945011Y-12968514D01*
X18944234Y-12812375D01*
X18944167Y-12749389D01*
X18944167Y-12107334D01*
X20997333Y-12107334D01*
X20997333Y-13419667D01*
G37*
X20997333Y-13419667D02*
X19984861Y-13419667D01*
X19781766Y-13419380D01*
X19591690Y-13418560D01*
X19418806Y-13417262D01*
X19267289Y-13415544D01*
X19141311Y-13413464D01*
X19045047Y-13411079D01*
X18982672Y-13408446D01*
X18958357Y-13405624D01*
X18958278Y-13405556D01*
X18954753Y-13381625D01*
X18951550Y-13320658D01*
X18948783Y-13227953D01*
X18946565Y-13108806D01*
X18945011Y-12968514D01*
X18944234Y-12812375D01*
X18944167Y-12749389D01*
X18944167Y-12107334D01*
X20997333Y-12107334D01*
X20997333Y-13419667D01*
G36*
X-18965333Y-10879667D02*
G01*
X-20997333Y-10879667D01*
X-20997333Y-9567334D01*
X-18965333Y-9567334D01*
X-18965333Y-10879667D01*
G37*
X-18965333Y-10879667D02*
X-20997333Y-10879667D01*
X-20997333Y-9567334D01*
X-18965333Y-9567334D01*
X-18965333Y-10879667D01*
G36*
X20997333Y-10879667D02*
G01*
X19984861Y-10879667D01*
X19781766Y-10879380D01*
X19591690Y-10878560D01*
X19418806Y-10877262D01*
X19267289Y-10875544D01*
X19141311Y-10873464D01*
X19045047Y-10871079D01*
X18982672Y-10868446D01*
X18958357Y-10865624D01*
X18958278Y-10865556D01*
X18954753Y-10841625D01*
X18951550Y-10780658D01*
X18948783Y-10687953D01*
X18946565Y-10568806D01*
X18945011Y-10428514D01*
X18944234Y-10272375D01*
X18944167Y-10209389D01*
X18944167Y-9567334D01*
X20997333Y-9567334D01*
X20997333Y-10879667D01*
G37*
X20997333Y-10879667D02*
X19984861Y-10879667D01*
X19781766Y-10879380D01*
X19591690Y-10878560D01*
X19418806Y-10877262D01*
X19267289Y-10875544D01*
X19141311Y-10873464D01*
X19045047Y-10871079D01*
X18982672Y-10868446D01*
X18958357Y-10865624D01*
X18958278Y-10865556D01*
X18954753Y-10841625D01*
X18951550Y-10780658D01*
X18948783Y-10687953D01*
X18946565Y-10568806D01*
X18945011Y-10428514D01*
X18944234Y-10272375D01*
X18944167Y-10209389D01*
X18944167Y-9567334D01*
X20997333Y-9567334D01*
X20997333Y-10879667D01*
G36*
X-18965333Y-8339667D02*
G01*
X-20997333Y-8339667D01*
X-20997333Y-7027334D01*
X-18965333Y-7027334D01*
X-18965333Y-8339667D01*
G37*
X-18965333Y-8339667D02*
X-20997333Y-8339667D01*
X-20997333Y-7027334D01*
X-18965333Y-7027334D01*
X-18965333Y-8339667D01*
G36*
X20997333Y-8339667D02*
G01*
X19984861Y-8339667D01*
X19781766Y-8339380D01*
X19591690Y-8338560D01*
X19418806Y-8337262D01*
X19267289Y-8335544D01*
X19141311Y-8333464D01*
X19045047Y-8331079D01*
X18982672Y-8328446D01*
X18958357Y-8325624D01*
X18958278Y-8325556D01*
X18954753Y-8301625D01*
X18951550Y-8240658D01*
X18948783Y-8147953D01*
X18946565Y-8028806D01*
X18945011Y-7888514D01*
X18944234Y-7732375D01*
X18944167Y-7669389D01*
X18944167Y-7027334D01*
X20997333Y-7027334D01*
X20997333Y-8339667D01*
G37*
X20997333Y-8339667D02*
X19984861Y-8339667D01*
X19781766Y-8339380D01*
X19591690Y-8338560D01*
X19418806Y-8337262D01*
X19267289Y-8335544D01*
X19141311Y-8333464D01*
X19045047Y-8331079D01*
X18982672Y-8328446D01*
X18958357Y-8325624D01*
X18958278Y-8325556D01*
X18954753Y-8301625D01*
X18951550Y-8240658D01*
X18948783Y-8147953D01*
X18946565Y-8028806D01*
X18945011Y-7888514D01*
X18944234Y-7732375D01*
X18944167Y-7669389D01*
X18944167Y-7027334D01*
X20997333Y-7027334D01*
X20997333Y-8339667D01*
G36*
X-18880667Y529166D02*
G01*
X-19452167Y529166D01*
X-19452167Y105833D01*
X-18880667Y105833D01*
X-18880667Y-169334D01*
X-19875500Y-169334D01*
X-19875500Y105833D01*
X-19601562Y105833D01*
X-19595656Y386291D01*
X-19589750Y666750D01*
X-19520958Y673383D01*
X-19473236Y682991D01*
X-19454733Y707670D01*
X-19452167Y742174D01*
X-19452167Y804333D01*
X-18880667Y804333D01*
X-18880667Y529166D01*
G37*
X-18880667Y529166D02*
X-19452167Y529166D01*
X-19452167Y105833D01*
X-18880667Y105833D01*
X-18880667Y-169334D01*
X-19875500Y-169334D01*
X-19875500Y105833D01*
X-19601562Y105833D01*
X-19595656Y386291D01*
X-19589750Y666750D01*
X-19520958Y673383D01*
X-19473236Y682991D01*
X-19454733Y707670D01*
X-19452167Y742174D01*
X-19452167Y804333D01*
X-18880667Y804333D01*
X-18880667Y529166D01*
G36*
X-19171708Y1942656D02*
G01*
X-18891250Y1936750D01*
X-18879772Y1100666D01*
X-18954303Y1100666D01*
X-19004154Y1097444D01*
X-19024677Y1079197D01*
X-19028821Y1033051D01*
X-19028833Y1026583D01*
X-19032110Y976930D01*
X-19050597Y956567D01*
X-19097278Y952509D01*
X-19102917Y952500D01*
X-19152570Y955776D01*
X-19172933Y974263D01*
X-19176991Y1020944D01*
X-19177000Y1026583D01*
X-19180540Y1076357D01*
X-19198495Y1096772D01*
X-19240500Y1100666D01*
X-19304000Y1100666D01*
X-19304000Y1651000D01*
X-19177000Y1651000D01*
X-19177000Y1453444D01*
X-19175577Y1365821D01*
X-19171760Y1294862D01*
X-19166229Y1250743D01*
X-19162889Y1241778D01*
X-19133283Y1231438D01*
X-19088806Y1227666D01*
X-19028833Y1227666D01*
X-19028833Y1651000D01*
X-19177000Y1651000D01*
X-19304000Y1651000D01*
X-19452167Y1651000D01*
X-19452167Y1100666D01*
X-19600333Y1100666D01*
X-19600333Y1799166D01*
X-19526250Y1799166D01*
X-19476736Y1802395D01*
X-19456323Y1820706D01*
X-19452180Y1867035D01*
X-19452167Y1873864D01*
X-19452167Y1948562D01*
X-19171708Y1942656D01*
G37*
X-19171708Y1942656D02*
X-18891250Y1936750D01*
X-18879772Y1100666D01*
X-18954303Y1100666D01*
X-19004154Y1097444D01*
X-19024677Y1079197D01*
X-19028821Y1033051D01*
X-19028833Y1026583D01*
X-19032110Y976930D01*
X-19050597Y956567D01*
X-19097278Y952509D01*
X-19102917Y952500D01*
X-19152570Y955776D01*
X-19172933Y974263D01*
X-19176991Y1020944D01*
X-19177000Y1026583D01*
X-19180540Y1076357D01*
X-19198495Y1096772D01*
X-19240500Y1100666D01*
X-19304000Y1100666D01*
X-19304000Y1651000D01*
X-19177000Y1651000D01*
X-19177000Y1453444D01*
X-19175577Y1365821D01*
X-19171760Y1294862D01*
X-19166229Y1250743D01*
X-19162889Y1241778D01*
X-19133283Y1231438D01*
X-19088806Y1227666D01*
X-19028833Y1227666D01*
X-19028833Y1651000D01*
X-19177000Y1651000D01*
X-19304000Y1651000D01*
X-19452167Y1651000D01*
X-19452167Y1100666D01*
X-19600333Y1100666D01*
X-19600333Y1799166D01*
X-19526250Y1799166D01*
X-19476736Y1802395D01*
X-19456323Y1820706D01*
X-19452180Y1867035D01*
X-19452167Y1873864D01*
X-19452167Y1948562D01*
X-19171708Y1942656D01*
G36*
X-19476597Y3065890D02*
G01*
X-19456234Y3047403D01*
X-19452176Y3000722D01*
X-19452167Y2995083D01*
X-19448890Y2945430D01*
X-19430404Y2925067D01*
X-19383722Y2921009D01*
X-19378083Y2921000D01*
X-19328310Y2917460D01*
X-19307895Y2899505D01*
X-19304000Y2857500D01*
X-19298755Y2812523D01*
X-19274015Y2795945D01*
X-19240500Y2794000D01*
X-19195523Y2799245D01*
X-19178946Y2823985D01*
X-19177000Y2857500D01*
X-19172870Y2900163D01*
X-19151923Y2917662D01*
X-19102917Y2921000D01*
X-19053264Y2924276D01*
X-19032901Y2942763D01*
X-19028843Y2989444D01*
X-19028833Y2995083D01*
X-19025557Y3044736D01*
X-19007070Y3065099D01*
X-18960389Y3069157D01*
X-18954750Y3069166D01*
X-18880667Y3069166D01*
X-18880667Y2794000D01*
X-18954750Y2794000D01*
X-19004403Y2790723D01*
X-19024766Y2772237D01*
X-19028824Y2725555D01*
X-19028833Y2719916D01*
X-19032110Y2670264D01*
X-19050597Y2649900D01*
X-19097278Y2645842D01*
X-19102917Y2645833D01*
X-19177000Y2645833D01*
X-19177000Y2372601D01*
X-18891250Y2360083D01*
X-18891250Y2084916D01*
X-19383375Y2079235D01*
X-19875500Y2073553D01*
X-19875500Y2370666D01*
X-19304000Y2370666D01*
X-19304000Y2645833D01*
X-19378083Y2645833D01*
X-19427736Y2649110D01*
X-19448100Y2667596D01*
X-19452158Y2714278D01*
X-19452167Y2719916D01*
X-19455443Y2769569D01*
X-19473930Y2789933D01*
X-19520611Y2793991D01*
X-19526250Y2794000D01*
X-19600333Y2794000D01*
X-19600333Y3069166D01*
X-19526250Y3069166D01*
X-19476597Y3065890D01*
G37*
X-19476597Y3065890D02*
X-19456234Y3047403D01*
X-19452176Y3000722D01*
X-19452167Y2995083D01*
X-19448890Y2945430D01*
X-19430404Y2925067D01*
X-19383722Y2921009D01*
X-19378083Y2921000D01*
X-19328310Y2917460D01*
X-19307895Y2899505D01*
X-19304000Y2857500D01*
X-19298755Y2812523D01*
X-19274015Y2795945D01*
X-19240500Y2794000D01*
X-19195523Y2799245D01*
X-19178946Y2823985D01*
X-19177000Y2857500D01*
X-19172870Y2900163D01*
X-19151923Y2917662D01*
X-19102917Y2921000D01*
X-19053264Y2924276D01*
X-19032901Y2942763D01*
X-19028843Y2989444D01*
X-19028833Y2995083D01*
X-19025557Y3044736D01*
X-19007070Y3065099D01*
X-18960389Y3069157D01*
X-18954750Y3069166D01*
X-18880667Y3069166D01*
X-18880667Y2794000D01*
X-18954750Y2794000D01*
X-19004403Y2790723D01*
X-19024766Y2772237D01*
X-19028824Y2725555D01*
X-19028833Y2719916D01*
X-19032110Y2670264D01*
X-19050597Y2649900D01*
X-19097278Y2645842D01*
X-19102917Y2645833D01*
X-19177000Y2645833D01*
X-19177000Y2372601D01*
X-18891250Y2360083D01*
X-18891250Y2084916D01*
X-19383375Y2079235D01*
X-19875500Y2073553D01*
X-19875500Y2370666D01*
X-19304000Y2370666D01*
X-19304000Y2645833D01*
X-19378083Y2645833D01*
X-19427736Y2649110D01*
X-19448100Y2667596D01*
X-19452158Y2714278D01*
X-19452167Y2719916D01*
X-19455443Y2769569D01*
X-19473930Y2789933D01*
X-19520611Y2793991D01*
X-19526250Y2794000D01*
X-19600333Y2794000D01*
X-19600333Y3069166D01*
X-19526250Y3069166D01*
X-19476597Y3065890D01*
G36*
X-19452167Y3492500D02*
G01*
X-19028833Y3492500D01*
X-19028833Y4191000D01*
X-18879772Y4191000D01*
X-18891250Y3354916D01*
X-18960042Y3348284D01*
X-19007764Y3338675D01*
X-19026267Y3313997D01*
X-19028833Y3279492D01*
X-19028833Y3217333D01*
X-19452167Y3217333D01*
X-19452167Y3279492D01*
X-19457709Y3323147D01*
X-19483046Y3342309D01*
X-19520958Y3348284D01*
X-19589750Y3354916D01*
X-19601228Y4191000D01*
X-19452167Y4191000D01*
X-19452167Y3492500D01*
G37*
X-19452167Y3492500D02*
X-19028833Y3492500D01*
X-19028833Y4191000D01*
X-18879772Y4191000D01*
X-18891250Y3354916D01*
X-18960042Y3348284D01*
X-19007764Y3338675D01*
X-19026267Y3313997D01*
X-19028833Y3279492D01*
X-19028833Y3217333D01*
X-19452167Y3217333D01*
X-19452167Y3279492D01*
X-19457709Y3323147D01*
X-19483046Y3342309D01*
X-19520958Y3348284D01*
X-19589750Y3354916D01*
X-19601228Y4191000D01*
X-19452167Y4191000D01*
X-19452167Y3492500D01*
G36*
X-19171708Y5329323D02*
G01*
X-18891250Y5323416D01*
X-18885511Y4905375D01*
X-18879772Y4487333D01*
X-18954303Y4487333D01*
X-19004154Y4484111D01*
X-19024677Y4465863D01*
X-19028821Y4419717D01*
X-19028833Y4413250D01*
X-19032110Y4363597D01*
X-19050597Y4343234D01*
X-19097278Y4339176D01*
X-19102917Y4339166D01*
X-19152570Y4342443D01*
X-19172933Y4360930D01*
X-19176991Y4407611D01*
X-19177000Y4413250D01*
X-19180540Y4463024D01*
X-19198495Y4483439D01*
X-19240500Y4487333D01*
X-19304000Y4487333D01*
X-19304000Y5037666D01*
X-19177000Y5037666D01*
X-19177000Y4840111D01*
X-19175577Y4752488D01*
X-19171760Y4681528D01*
X-19166229Y4637410D01*
X-19162889Y4628444D01*
X-19133283Y4618105D01*
X-19088806Y4614333D01*
X-19028833Y4614333D01*
X-19028833Y5037666D01*
X-19177000Y5037666D01*
X-19304000Y5037666D01*
X-19452167Y5037666D01*
X-19452167Y4487333D01*
X-19600333Y4487333D01*
X-19600333Y5185833D01*
X-19526250Y5185833D01*
X-19476736Y5189062D01*
X-19456323Y5207372D01*
X-19452180Y5253702D01*
X-19452167Y5260531D01*
X-19452167Y5335229D01*
X-19171708Y5329323D01*
G37*
X-19171708Y5329323D02*
X-18891250Y5323416D01*
X-18885511Y4905375D01*
X-18879772Y4487333D01*
X-18954303Y4487333D01*
X-19004154Y4484111D01*
X-19024677Y4465863D01*
X-19028821Y4419717D01*
X-19028833Y4413250D01*
X-19032110Y4363597D01*
X-19050597Y4343234D01*
X-19097278Y4339176D01*
X-19102917Y4339166D01*
X-19152570Y4342443D01*
X-19172933Y4360930D01*
X-19176991Y4407611D01*
X-19177000Y4413250D01*
X-19180540Y4463024D01*
X-19198495Y4483439D01*
X-19240500Y4487333D01*
X-19304000Y4487333D01*
X-19304000Y5037666D01*
X-19177000Y5037666D01*
X-19177000Y4840111D01*
X-19175577Y4752488D01*
X-19171760Y4681528D01*
X-19166229Y4637410D01*
X-19162889Y4628444D01*
X-19133283Y4618105D01*
X-19088806Y4614333D01*
X-19028833Y4614333D01*
X-19028833Y5037666D01*
X-19177000Y5037666D01*
X-19304000Y5037666D01*
X-19452167Y5037666D01*
X-19452167Y4487333D01*
X-19600333Y4487333D01*
X-19600333Y5185833D01*
X-19526250Y5185833D01*
X-19476736Y5189062D01*
X-19456323Y5207372D01*
X-19452180Y5253702D01*
X-19452167Y5260531D01*
X-19452167Y5335229D01*
X-19171708Y5329323D01*
G36*
X-19452167Y6181895D02*
G01*
X-19171708Y6175989D01*
X-18891250Y6170083D01*
X-18891250Y5894916D01*
X-19171708Y5889010D01*
X-19452167Y5883104D01*
X-19452167Y5609166D01*
X-19600333Y5609166D01*
X-19600333Y5884333D01*
X-19875500Y5884333D01*
X-19875500Y6180666D01*
X-19600333Y6180666D01*
X-19600333Y6455833D01*
X-19452167Y6455833D01*
X-19452167Y6181895D01*
G37*
X-19452167Y6181895D02*
X-19171708Y6175989D01*
X-18891250Y6170083D01*
X-18891250Y5894916D01*
X-19171708Y5889010D01*
X-19452167Y5883104D01*
X-19452167Y5609166D01*
X-19600333Y5609166D01*
X-19600333Y5884333D01*
X-19875500Y5884333D01*
X-19875500Y6180666D01*
X-19600333Y6180666D01*
X-19600333Y6455833D01*
X-19452167Y6455833D01*
X-19452167Y6181895D01*
G36*
X-18880667Y6879166D02*
G01*
X-19177000Y6879166D01*
X-19177000Y7154333D01*
X-18880667Y7154333D01*
X-18880667Y6879166D01*
G37*
X-18880667Y6879166D02*
X-19177000Y6879166D01*
X-19177000Y7154333D01*
X-18880667Y7154333D01*
X-18880667Y6879166D01*
G36*
X-18960042Y8716716D02*
G01*
X-18891250Y8710083D01*
X-18885511Y8292041D01*
X-18879772Y7874000D01*
X-18954303Y7874000D01*
X-19004154Y7870778D01*
X-19024677Y7852530D01*
X-19028821Y7806384D01*
X-19028833Y7799916D01*
X-19028833Y7725833D01*
X-19452167Y7725833D01*
X-19452167Y7799916D01*
X-19455408Y7849468D01*
X-19473766Y7869868D01*
X-19520191Y7873988D01*
X-19526698Y7874000D01*
X-19601228Y7874000D01*
X-19595489Y8292041D01*
X-19589750Y8710083D01*
X-19520958Y8716716D01*
X-19452167Y8723349D01*
X-19452167Y8001000D01*
X-19028833Y8001000D01*
X-19028833Y8723349D01*
X-18960042Y8716716D01*
G37*
X-18960042Y8716716D02*
X-18891250Y8710083D01*
X-18885511Y8292041D01*
X-18879772Y7874000D01*
X-18954303Y7874000D01*
X-19004154Y7870778D01*
X-19024677Y7852530D01*
X-19028821Y7806384D01*
X-19028833Y7799916D01*
X-19028833Y7725833D01*
X-19452167Y7725833D01*
X-19452167Y7799916D01*
X-19455408Y7849468D01*
X-19473766Y7869868D01*
X-19520191Y7873988D01*
X-19526698Y7874000D01*
X-19601228Y7874000D01*
X-19595489Y8292041D01*
X-19589750Y8710083D01*
X-19520958Y8716716D01*
X-19452167Y8723349D01*
X-19452167Y8001000D01*
X-19028833Y8001000D01*
X-19028833Y8723349D01*
X-18960042Y8716716D01*
G36*
X-19028833Y9768416D02*
G01*
X-19025557Y9718764D01*
X-19007070Y9698400D01*
X-18960389Y9694342D01*
X-18954750Y9694333D01*
X-18880667Y9694333D01*
X-18880667Y8995833D01*
X-18954750Y8995833D01*
X-19004403Y8992557D01*
X-19024766Y8974070D01*
X-19028824Y8927389D01*
X-19028833Y8921750D01*
X-19028833Y8847666D01*
X-19452167Y8847666D01*
X-19452167Y8921750D01*
X-19455443Y8971403D01*
X-19473930Y8991766D01*
X-19520611Y8995824D01*
X-19526250Y8995833D01*
X-19600333Y8995833D01*
X-19600333Y9567333D01*
X-19452167Y9567333D01*
X-19452167Y9144000D01*
X-19028833Y9144000D01*
X-19028833Y9567333D01*
X-19452167Y9567333D01*
X-19600333Y9567333D01*
X-19600333Y9694333D01*
X-19526250Y9694333D01*
X-19476597Y9697610D01*
X-19456234Y9716096D01*
X-19452176Y9762778D01*
X-19452167Y9768416D01*
X-19452167Y9842500D01*
X-19028833Y9842500D01*
X-19028833Y9768416D01*
G37*
X-19028833Y9768416D02*
X-19025557Y9718764D01*
X-19007070Y9698400D01*
X-18960389Y9694342D01*
X-18954750Y9694333D01*
X-18880667Y9694333D01*
X-18880667Y8995833D01*
X-18954750Y8995833D01*
X-19004403Y8992557D01*
X-19024766Y8974070D01*
X-19028824Y8927389D01*
X-19028833Y8921750D01*
X-19028833Y8847666D01*
X-19452167Y8847666D01*
X-19452167Y8921750D01*
X-19455443Y8971403D01*
X-19473930Y8991766D01*
X-19520611Y8995824D01*
X-19526250Y8995833D01*
X-19600333Y8995833D01*
X-19600333Y9567333D01*
X-19452167Y9567333D01*
X-19452167Y9144000D01*
X-19028833Y9144000D01*
X-19028833Y9567333D01*
X-19452167Y9567333D01*
X-19600333Y9567333D01*
X-19600333Y9694333D01*
X-19526250Y9694333D01*
X-19476597Y9697610D01*
X-19456234Y9716096D01*
X-19452176Y9762778D01*
X-19452167Y9768416D01*
X-19452167Y9842500D01*
X-19028833Y9842500D01*
X-19028833Y9768416D01*
G36*
X-18880667Y10689166D02*
G01*
X-19452167Y10689166D01*
X-19452167Y10541000D01*
X-18880667Y10541000D01*
X-18880667Y10265833D01*
X-19452167Y10265833D01*
X-19452167Y10117666D01*
X-18880667Y10117666D01*
X-18880667Y9990666D01*
X-19601228Y9990666D01*
X-19589750Y10826750D01*
X-19520958Y10833383D01*
X-19473236Y10842991D01*
X-19454733Y10867670D01*
X-19452167Y10902174D01*
X-19452167Y10964333D01*
X-18880667Y10964333D01*
X-18880667Y10689166D01*
G37*
X-18880667Y10689166D02*
X-19452167Y10689166D01*
X-19452167Y10541000D01*
X-18880667Y10541000D01*
X-18880667Y10265833D01*
X-19452167Y10265833D01*
X-19452167Y10117666D01*
X-18880667Y10117666D01*
X-18880667Y9990666D01*
X-19601228Y9990666D01*
X-19589750Y10826750D01*
X-19520958Y10833383D01*
X-19473236Y10842991D01*
X-19454733Y10867670D01*
X-19452167Y10902174D01*
X-19452167Y10964333D01*
X-18880667Y10964333D01*
X-18880667Y10689166D01*
G36*
X-19806708Y12103383D02*
G01*
X-19758218Y12093120D01*
X-19737331Y12065525D01*
X-19731284Y12027958D01*
X-19721675Y11980236D01*
X-19696997Y11961733D01*
X-19662492Y11959166D01*
X-19620709Y11954898D01*
X-19603572Y11933554D01*
X-19600333Y11885083D01*
X-19597057Y11835430D01*
X-19578570Y11815067D01*
X-19531889Y11811009D01*
X-19526250Y11811000D01*
X-19476451Y11807418D01*
X-19456026Y11789510D01*
X-19452167Y11748841D01*
X-19446625Y11705186D01*
X-19421288Y11686024D01*
X-19383375Y11680049D01*
X-19334884Y11669787D01*
X-19313998Y11642191D01*
X-19307951Y11604625D01*
X-19298342Y11556903D01*
X-19273664Y11538399D01*
X-19239159Y11535833D01*
X-19197375Y11531564D01*
X-19180238Y11510221D01*
X-19177000Y11461750D01*
X-19173724Y11412097D01*
X-19155237Y11391734D01*
X-19108556Y11387676D01*
X-19102917Y11387666D01*
X-19053117Y11384085D01*
X-19032693Y11366177D01*
X-19028833Y11325508D01*
X-19023292Y11281852D01*
X-18997954Y11262690D01*
X-18960042Y11256716D01*
X-18911551Y11246454D01*
X-18890664Y11218858D01*
X-18884617Y11181291D01*
X-18883279Y11135529D01*
X-18899211Y11116503D01*
X-18944107Y11112522D01*
X-18953409Y11112500D01*
X-19003654Y11115616D01*
X-19024495Y11133400D01*
X-19028814Y11178505D01*
X-19028833Y11186583D01*
X-19032110Y11236236D01*
X-19050597Y11256599D01*
X-19097278Y11260657D01*
X-19102917Y11260666D01*
X-19152691Y11264206D01*
X-19173106Y11282161D01*
X-19177000Y11324166D01*
X-19182245Y11369144D01*
X-19206985Y11385721D01*
X-19240500Y11387666D01*
X-19283163Y11391796D01*
X-19300662Y11412744D01*
X-19304000Y11461750D01*
X-19307277Y11511403D01*
X-19325763Y11531766D01*
X-19372445Y11535824D01*
X-19378083Y11535833D01*
X-19427736Y11539110D01*
X-19448100Y11557596D01*
X-19452158Y11604278D01*
X-19452167Y11609916D01*
X-19455443Y11659569D01*
X-19473930Y11679933D01*
X-19520611Y11683991D01*
X-19526250Y11684000D01*
X-19576024Y11687540D01*
X-19596439Y11705495D01*
X-19600333Y11747500D01*
X-19605578Y11792477D01*
X-19630318Y11809054D01*
X-19663833Y11811000D01*
X-19706497Y11815130D01*
X-19723995Y11836077D01*
X-19727333Y11885083D01*
X-19730610Y11934736D01*
X-19749097Y11955099D01*
X-19795778Y11959157D01*
X-19801417Y11959166D01*
X-19850768Y11962339D01*
X-19871239Y11980446D01*
X-19875481Y12026366D01*
X-19875500Y12034591D01*
X-19872697Y12084496D01*
X-19856492Y12103793D01*
X-19815195Y12104176D01*
X-19806708Y12103383D01*
G37*
X-19806708Y12103383D02*
X-19758218Y12093120D01*
X-19737331Y12065525D01*
X-19731284Y12027958D01*
X-19721675Y11980236D01*
X-19696997Y11961733D01*
X-19662492Y11959166D01*
X-19620709Y11954898D01*
X-19603572Y11933554D01*
X-19600333Y11885083D01*
X-19597057Y11835430D01*
X-19578570Y11815067D01*
X-19531889Y11811009D01*
X-19526250Y11811000D01*
X-19476451Y11807418D01*
X-19456026Y11789510D01*
X-19452167Y11748841D01*
X-19446625Y11705186D01*
X-19421288Y11686024D01*
X-19383375Y11680049D01*
X-19334884Y11669787D01*
X-19313998Y11642191D01*
X-19307951Y11604625D01*
X-19298342Y11556903D01*
X-19273664Y11538399D01*
X-19239159Y11535833D01*
X-19197375Y11531564D01*
X-19180238Y11510221D01*
X-19177000Y11461750D01*
X-19173724Y11412097D01*
X-19155237Y11391734D01*
X-19108556Y11387676D01*
X-19102917Y11387666D01*
X-19053117Y11384085D01*
X-19032693Y11366177D01*
X-19028833Y11325508D01*
X-19023292Y11281852D01*
X-18997954Y11262690D01*
X-18960042Y11256716D01*
X-18911551Y11246454D01*
X-18890664Y11218858D01*
X-18884617Y11181291D01*
X-18883279Y11135529D01*
X-18899211Y11116503D01*
X-18944107Y11112522D01*
X-18953409Y11112500D01*
X-19003654Y11115616D01*
X-19024495Y11133400D01*
X-19028814Y11178505D01*
X-19028833Y11186583D01*
X-19032110Y11236236D01*
X-19050597Y11256599D01*
X-19097278Y11260657D01*
X-19102917Y11260666D01*
X-19152691Y11264206D01*
X-19173106Y11282161D01*
X-19177000Y11324166D01*
X-19182245Y11369144D01*
X-19206985Y11385721D01*
X-19240500Y11387666D01*
X-19283163Y11391796D01*
X-19300662Y11412744D01*
X-19304000Y11461750D01*
X-19307277Y11511403D01*
X-19325763Y11531766D01*
X-19372445Y11535824D01*
X-19378083Y11535833D01*
X-19427736Y11539110D01*
X-19448100Y11557596D01*
X-19452158Y11604278D01*
X-19452167Y11609916D01*
X-19455443Y11659569D01*
X-19473930Y11679933D01*
X-19520611Y11683991D01*
X-19526250Y11684000D01*
X-19576024Y11687540D01*
X-19596439Y11705495D01*
X-19600333Y11747500D01*
X-19605578Y11792477D01*
X-19630318Y11809054D01*
X-19663833Y11811000D01*
X-19706497Y11815130D01*
X-19723995Y11836077D01*
X-19727333Y11885083D01*
X-19730610Y11934736D01*
X-19749097Y11955099D01*
X-19795778Y11959157D01*
X-19801417Y11959166D01*
X-19850768Y11962339D01*
X-19871239Y11980446D01*
X-19875481Y12026366D01*
X-19875500Y12034591D01*
X-19872697Y12084496D01*
X-19856492Y12103793D01*
X-19815195Y12104176D01*
X-19806708Y12103383D01*
G36*
X-18880667Y12954000D02*
G01*
X-19452167Y12954000D01*
X-19452167Y12531895D01*
X-19171708Y12525989D01*
X-18891250Y12520083D01*
X-18884991Y12377208D01*
X-18878733Y12234333D01*
X-19600333Y12234333D01*
X-19600333Y13081000D01*
X-19526250Y13081000D01*
X-19476597Y13084276D01*
X-19456234Y13102763D01*
X-19452176Y13149444D01*
X-19452167Y13155083D01*
X-19452167Y13229166D01*
X-18880667Y13229166D01*
X-18880667Y12954000D01*
G37*
X-18880667Y12954000D02*
X-19452167Y12954000D01*
X-19452167Y12531895D01*
X-19171708Y12525989D01*
X-18891250Y12520083D01*
X-18884991Y12377208D01*
X-18878733Y12234333D01*
X-19600333Y12234333D01*
X-19600333Y13081000D01*
X-19526250Y13081000D01*
X-19476597Y13084276D01*
X-19456234Y13102763D01*
X-19452176Y13149444D01*
X-19452167Y13155083D01*
X-19452167Y13229166D01*
X-18880667Y13229166D01*
X-18880667Y12954000D01*
G36*
X-18880667Y13504333D02*
G01*
X-18954750Y13504333D01*
X-19004524Y13500793D01*
X-19024939Y13482838D01*
X-19028833Y13440833D01*
X-19028833Y13377333D01*
X-19600333Y13377333D01*
X-19600333Y13652500D01*
X-19028833Y13652500D01*
X-19028833Y14075833D01*
X-19600333Y14075833D01*
X-19600333Y14351000D01*
X-18880667Y14351000D01*
X-18880667Y13504333D01*
G37*
X-18880667Y13504333D02*
X-18954750Y13504333D01*
X-19004524Y13500793D01*
X-19024939Y13482838D01*
X-19028833Y13440833D01*
X-19028833Y13377333D01*
X-19600333Y13377333D01*
X-19600333Y13652500D01*
X-19028833Y13652500D01*
X-19028833Y14075833D01*
X-19600333Y14075833D01*
X-19600333Y14351000D01*
X-18880667Y14351000D01*
X-18880667Y13504333D01*
G36*
X-18884617Y15414625D02*
G01*
X-18875009Y15366903D01*
X-18850330Y15348399D01*
X-18815826Y15345833D01*
X-18753667Y15345833D01*
X-18753667Y14647333D01*
X-18880667Y14647333D01*
X-18880667Y15197666D01*
X-19028833Y15197666D01*
X-19028833Y14650015D01*
X-19097625Y14643383D01*
X-19146116Y14633120D01*
X-19167003Y14605525D01*
X-19173050Y14567958D01*
X-19179682Y14499166D01*
X-19452167Y14499166D01*
X-19452167Y14573250D01*
X-19455408Y14622802D01*
X-19473766Y14643201D01*
X-19520191Y14647321D01*
X-19526698Y14647333D01*
X-19601228Y14647333D01*
X-19595489Y15065375D01*
X-19593673Y15197666D01*
X-19452167Y15197666D01*
X-19452167Y14774333D01*
X-19177000Y14774333D01*
X-19177000Y15197666D01*
X-19452167Y15197666D01*
X-19593673Y15197666D01*
X-19589750Y15483416D01*
X-18891250Y15483416D01*
X-18884617Y15414625D01*
G37*
X-18884617Y15414625D02*
X-18875009Y15366903D01*
X-18850330Y15348399D01*
X-18815826Y15345833D01*
X-18753667Y15345833D01*
X-18753667Y14647333D01*
X-18880667Y14647333D01*
X-18880667Y15197666D01*
X-19028833Y15197666D01*
X-19028833Y14650015D01*
X-19097625Y14643383D01*
X-19146116Y14633120D01*
X-19167003Y14605525D01*
X-19173050Y14567958D01*
X-19179682Y14499166D01*
X-19452167Y14499166D01*
X-19452167Y14573250D01*
X-19455408Y14622802D01*
X-19473766Y14643201D01*
X-19520191Y14647321D01*
X-19526698Y14647333D01*
X-19601228Y14647333D01*
X-19595489Y15065375D01*
X-19593673Y15197666D01*
X-19452167Y15197666D01*
X-19452167Y14774333D01*
X-19177000Y14774333D01*
X-19177000Y15197666D01*
X-19452167Y15197666D01*
X-19593673Y15197666D01*
X-19589750Y15483416D01*
X-18891250Y15483416D01*
X-18884617Y15414625D01*
G36*
X-18880667Y16541750D02*
G01*
X-18877127Y16491976D01*
X-18859172Y16471561D01*
X-18817167Y16467666D01*
X-18753667Y16467666D01*
X-18753667Y15769166D01*
X-18879438Y15769166D01*
X-18885344Y16049625D01*
X-18891250Y16330083D01*
X-18960042Y16336716D01*
X-19028833Y16343349D01*
X-19028833Y15769166D01*
X-19102917Y15769166D01*
X-19152570Y15765890D01*
X-19172933Y15747403D01*
X-19176991Y15700722D01*
X-19177000Y15695083D01*
X-19177000Y15621000D01*
X-19452167Y15621000D01*
X-19452167Y15695083D01*
X-19455443Y15744736D01*
X-19473930Y15765099D01*
X-19520611Y15769157D01*
X-19526250Y15769166D01*
X-19600333Y15769166D01*
X-19600333Y16340666D01*
X-19452167Y16340666D01*
X-19452167Y15917333D01*
X-19177000Y15917333D01*
X-19177000Y16340666D01*
X-19452167Y16340666D01*
X-19600333Y16340666D01*
X-19600333Y16615833D01*
X-18880667Y16615833D01*
X-18880667Y16541750D01*
G37*
X-18880667Y16541750D02*
X-18877127Y16491976D01*
X-18859172Y16471561D01*
X-18817167Y16467666D01*
X-18753667Y16467666D01*
X-18753667Y15769166D01*
X-18879438Y15769166D01*
X-18885344Y16049625D01*
X-18891250Y16330083D01*
X-18960042Y16336716D01*
X-19028833Y16343349D01*
X-19028833Y15769166D01*
X-19102917Y15769166D01*
X-19152570Y15765890D01*
X-19172933Y15747403D01*
X-19176991Y15700722D01*
X-19177000Y15695083D01*
X-19177000Y15621000D01*
X-19452167Y15621000D01*
X-19452167Y15695083D01*
X-19455443Y15744736D01*
X-19473930Y15765099D01*
X-19520611Y15769157D01*
X-19526250Y15769166D01*
X-19600333Y15769166D01*
X-19600333Y16340666D01*
X-19452167Y16340666D01*
X-19452167Y15917333D01*
X-19177000Y15917333D01*
X-19177000Y16340666D01*
X-19452167Y16340666D01*
X-19600333Y16340666D01*
X-19600333Y16615833D01*
X-18880667Y16615833D01*
X-18880667Y16541750D01*
G36*
X-19177000Y17039166D02*
G01*
X-19028833Y17039166D01*
X-19028833Y17613349D01*
X-18960042Y17606716D01*
X-18891250Y17600083D01*
X-18885447Y17245541D01*
X-18879643Y16891000D01*
X-18954238Y16891000D01*
X-19004236Y16887522D01*
X-19024834Y16869823D01*
X-19028833Y16827500D01*
X-19028833Y16764000D01*
X-19452167Y16764000D01*
X-19452167Y16827500D01*
X-19456252Y16870061D01*
X-19477044Y16887595D01*
X-19526762Y16891000D01*
X-19601357Y16891000D01*
X-19595554Y17245541D01*
X-19592003Y17462500D01*
X-19452167Y17462500D01*
X-19452167Y17039166D01*
X-19304000Y17039166D01*
X-19304000Y17462500D01*
X-19452167Y17462500D01*
X-19592003Y17462500D01*
X-19589750Y17600083D01*
X-19520958Y17606716D01*
X-19473236Y17616325D01*
X-19454733Y17641003D01*
X-19452167Y17675508D01*
X-19452167Y17737666D01*
X-19177000Y17737666D01*
X-19177000Y17039166D01*
G37*
X-19177000Y17039166D02*
X-19028833Y17039166D01*
X-19028833Y17613349D01*
X-18960042Y17606716D01*
X-18891250Y17600083D01*
X-18885447Y17245541D01*
X-18879643Y16891000D01*
X-18954238Y16891000D01*
X-19004236Y16887522D01*
X-19024834Y16869823D01*
X-19028833Y16827500D01*
X-19028833Y16764000D01*
X-19452167Y16764000D01*
X-19452167Y16827500D01*
X-19456252Y16870061D01*
X-19477044Y16887595D01*
X-19526762Y16891000D01*
X-19601357Y16891000D01*
X-19595554Y17245541D01*
X-19592003Y17462500D01*
X-19452167Y17462500D01*
X-19452167Y17039166D01*
X-19304000Y17039166D01*
X-19304000Y17462500D01*
X-19452167Y17462500D01*
X-19592003Y17462500D01*
X-19589750Y17600083D01*
X-19520958Y17606716D01*
X-19473236Y17616325D01*
X-19454733Y17641003D01*
X-19452167Y17675508D01*
X-19452167Y17737666D01*
X-19177000Y17737666D01*
X-19177000Y17039166D01*
G36*
X-19452167Y18584333D02*
G01*
X-18880667Y18584333D01*
X-18880667Y18309166D01*
X-19452167Y18309166D01*
X-19452167Y18034000D01*
X-19600333Y18034000D01*
X-19600333Y18309166D01*
X-19875500Y18309166D01*
X-19875500Y18584333D01*
X-19602268Y18584333D01*
X-19589750Y18870083D01*
X-19520958Y18876716D01*
X-19452167Y18883349D01*
X-19452167Y18584333D01*
G37*
X-19452167Y18584333D02*
X-18880667Y18584333D01*
X-18880667Y18309166D01*
X-19452167Y18309166D01*
X-19452167Y18034000D01*
X-19600333Y18034000D01*
X-19600333Y18309166D01*
X-19875500Y18309166D01*
X-19875500Y18584333D01*
X-19602268Y18584333D01*
X-19589750Y18870083D01*
X-19520958Y18876716D01*
X-19452167Y18883349D01*
X-19452167Y18584333D01*
D11*
G36*
X11347500Y-25997000D02*
G01*
X8845500Y-25997000D01*
X8845500Y-24295000D01*
X11347500Y-24295000D01*
X11347500Y-25997000D01*
G37*
G36*
X2457500Y-25997000D02*
G01*
X-44500Y-25997000D01*
X-44500Y-24295000D01*
X2457500Y-24295000D01*
X2457500Y-25997000D01*
G37*
G36*
X-8277500Y-23800500D02*
G01*
X-10579500Y-23800500D01*
X-10579500Y-22198500D01*
X-8277500Y-22198500D01*
X-8277500Y-23800500D01*
G37*
G36*
X-13677500Y-23800500D02*
G01*
X-15979500Y-23800500D01*
X-15979500Y-22198500D01*
X-13677500Y-22198500D01*
X-13677500Y-23800500D01*
G37*
G36*
X17570500Y-22165000D02*
G01*
X15068500Y-22165000D01*
X15068500Y-20463000D01*
X17570500Y-20463000D01*
X17570500Y-22165000D01*
G37*
G36*
X8680500Y-22165000D02*
G01*
X6178500Y-22165000D01*
X6178500Y-20463000D01*
X8680500Y-20463000D01*
X8680500Y-22165000D01*
G37*
G36*
X5061000Y-22165000D02*
G01*
X2559000Y-22165000D01*
X2559000Y-20463000D01*
X5061000Y-20463000D01*
X5061000Y-22165000D01*
G37*
G36*
X-3829000Y-22165000D02*
G01*
X-6331000Y-22165000D01*
X-6331000Y-20463000D01*
X-3829000Y-20463000D01*
X-3829000Y-22165000D01*
G37*
G36*
X-13677500Y-20600500D02*
G01*
X-15979500Y-20600500D01*
X-15979500Y-18998500D01*
X-13677500Y-18998500D01*
X-13677500Y-20600500D01*
G37*
G36*
X-8277500Y-20600500D02*
G01*
X-10579500Y-20600500D01*
X-10579500Y-18998500D01*
X-8277500Y-18998500D01*
X-8277500Y-20600500D01*
G37*
G36*
X2457500Y-18313500D02*
G01*
X-44500Y-18313500D01*
X-44500Y-16611500D01*
X2457500Y-16611500D01*
X2457500Y-18313500D01*
G37*
G36*
X11347500Y-18313500D02*
G01*
X8845500Y-18313500D01*
X8845500Y-16611500D01*
X11347500Y-16611500D01*
X11347500Y-18313500D01*
G37*
G36*
X6881395Y-8991546D02*
G01*
X7054466Y-9063234D01*
X7054467Y-9063235D01*
X7210227Y-9167310D01*
X7342690Y-9299773D01*
X7342691Y-9299775D01*
X7446766Y-9455534D01*
X7518454Y-9628605D01*
X7555000Y-9812333D01*
X7555000Y-9999667D01*
X7518454Y-10183395D01*
X7446766Y-10356466D01*
X7446765Y-10356467D01*
X7342690Y-10512227D01*
X7210227Y-10644690D01*
X7131818Y-10697081D01*
X7054466Y-10748766D01*
X6881395Y-10820454D01*
X6697667Y-10857000D01*
X6510333Y-10857000D01*
X6326605Y-10820454D01*
X6153534Y-10748766D01*
X6076182Y-10697081D01*
X5997773Y-10644690D01*
X5865310Y-10512227D01*
X5761235Y-10356467D01*
X5761234Y-10356466D01*
X5689546Y-10183395D01*
X5653000Y-9999667D01*
X5653000Y-9812333D01*
X5689546Y-9628605D01*
X5761234Y-9455534D01*
X5865309Y-9299775D01*
X5865310Y-9299773D01*
X5997773Y-9167310D01*
X6153533Y-9063235D01*
X6153534Y-9063234D01*
X6326605Y-8991546D01*
X6510333Y-8955000D01*
X6697667Y-8955000D01*
X6881395Y-8991546D01*
G37*
G36*
X-10898605Y-8991546D02*
G01*
X-10725534Y-9063234D01*
X-10725533Y-9063235D01*
X-10569773Y-9167310D01*
X-10437310Y-9299773D01*
X-10437309Y-9299775D01*
X-10333234Y-9455534D01*
X-10261546Y-9628605D01*
X-10225000Y-9812333D01*
X-10225000Y-9999667D01*
X-10261546Y-10183395D01*
X-10333234Y-10356466D01*
X-10333235Y-10356467D01*
X-10437310Y-10512227D01*
X-10569773Y-10644690D01*
X-10648182Y-10697081D01*
X-10725534Y-10748766D01*
X-10898605Y-10820454D01*
X-11082333Y-10857000D01*
X-11269667Y-10857000D01*
X-11453395Y-10820454D01*
X-11626466Y-10748766D01*
X-11703818Y-10697081D01*
X-11782227Y-10644690D01*
X-11914690Y-10512227D01*
X-12018765Y-10356467D01*
X-12018766Y-10356466D01*
X-12090454Y-10183395D01*
X-12127000Y-9999667D01*
X-12127000Y-9812333D01*
X-12090454Y-9628605D01*
X-12018766Y-9455534D01*
X-11914691Y-9299775D01*
X-11914690Y-9299773D01*
X-11782227Y-9167310D01*
X-11626467Y-9063235D01*
X-11626466Y-9063234D01*
X-11453395Y-8991546D01*
X-11269667Y-8955000D01*
X-11082333Y-8955000D01*
X-10898605Y-8991546D01*
G37*
G36*
X-8358605Y-8991546D02*
G01*
X-8185534Y-9063234D01*
X-8185533Y-9063235D01*
X-8029773Y-9167310D01*
X-7897310Y-9299773D01*
X-7897309Y-9299775D01*
X-7793234Y-9455534D01*
X-7721546Y-9628605D01*
X-7685000Y-9812333D01*
X-7685000Y-9999667D01*
X-7721546Y-10183395D01*
X-7793234Y-10356466D01*
X-7793235Y-10356467D01*
X-7897310Y-10512227D01*
X-8029773Y-10644690D01*
X-8108182Y-10697081D01*
X-8185534Y-10748766D01*
X-8358605Y-10820454D01*
X-8542333Y-10857000D01*
X-8729667Y-10857000D01*
X-8913395Y-10820454D01*
X-9086466Y-10748766D01*
X-9163818Y-10697081D01*
X-9242227Y-10644690D01*
X-9374690Y-10512227D01*
X-9478765Y-10356467D01*
X-9478766Y-10356466D01*
X-9550454Y-10183395D01*
X-9587000Y-9999667D01*
X-9587000Y-9812333D01*
X-9550454Y-9628605D01*
X-9478766Y-9455534D01*
X-9374691Y-9299775D01*
X-9374690Y-9299773D01*
X-9242227Y-9167310D01*
X-9086467Y-9063235D01*
X-9086466Y-9063234D01*
X-8913395Y-8991546D01*
X-8729667Y-8955000D01*
X-8542333Y-8955000D01*
X-8358605Y-8991546D01*
G37*
G36*
X-5818605Y-8991546D02*
G01*
X-5645534Y-9063234D01*
X-5645533Y-9063235D01*
X-5489773Y-9167310D01*
X-5357310Y-9299773D01*
X-5357309Y-9299775D01*
X-5253234Y-9455534D01*
X-5181546Y-9628605D01*
X-5145000Y-9812333D01*
X-5145000Y-9999667D01*
X-5181546Y-10183395D01*
X-5253234Y-10356466D01*
X-5253235Y-10356467D01*
X-5357310Y-10512227D01*
X-5489773Y-10644690D01*
X-5568182Y-10697081D01*
X-5645534Y-10748766D01*
X-5818605Y-10820454D01*
X-6002333Y-10857000D01*
X-6189667Y-10857000D01*
X-6373395Y-10820454D01*
X-6546466Y-10748766D01*
X-6623818Y-10697081D01*
X-6702227Y-10644690D01*
X-6834690Y-10512227D01*
X-6938765Y-10356467D01*
X-6938766Y-10356466D01*
X-7010454Y-10183395D01*
X-7047000Y-9999667D01*
X-7047000Y-9812333D01*
X-7010454Y-9628605D01*
X-6938766Y-9455534D01*
X-6834691Y-9299775D01*
X-6834690Y-9299773D01*
X-6702227Y-9167310D01*
X-6546467Y-9063235D01*
X-6546466Y-9063234D01*
X-6373395Y-8991546D01*
X-6189667Y-8955000D01*
X-6002333Y-8955000D01*
X-5818605Y-8991546D01*
G37*
G36*
X-3278605Y-8991546D02*
G01*
X-3105534Y-9063234D01*
X-3105533Y-9063235D01*
X-2949773Y-9167310D01*
X-2817310Y-9299773D01*
X-2817309Y-9299775D01*
X-2713234Y-9455534D01*
X-2641546Y-9628605D01*
X-2605000Y-9812333D01*
X-2605000Y-9999667D01*
X-2641546Y-10183395D01*
X-2713234Y-10356466D01*
X-2713235Y-10356467D01*
X-2817310Y-10512227D01*
X-2949773Y-10644690D01*
X-3028182Y-10697081D01*
X-3105534Y-10748766D01*
X-3278605Y-10820454D01*
X-3462333Y-10857000D01*
X-3649667Y-10857000D01*
X-3833395Y-10820454D01*
X-4006466Y-10748766D01*
X-4083818Y-10697081D01*
X-4162227Y-10644690D01*
X-4294690Y-10512227D01*
X-4398765Y-10356467D01*
X-4398766Y-10356466D01*
X-4470454Y-10183395D01*
X-4507000Y-9999667D01*
X-4507000Y-9812333D01*
X-4470454Y-9628605D01*
X-4398766Y-9455534D01*
X-4294691Y-9299775D01*
X-4294690Y-9299773D01*
X-4162227Y-9167310D01*
X-4006467Y-9063235D01*
X-4006466Y-9063234D01*
X-3833395Y-8991546D01*
X-3649667Y-8955000D01*
X-3462333Y-8955000D01*
X-3278605Y-8991546D01*
G37*
G36*
X-738605Y-8991546D02*
G01*
X-565534Y-9063234D01*
X-565533Y-9063235D01*
X-409773Y-9167310D01*
X-277310Y-9299773D01*
X-277309Y-9299775D01*
X-173234Y-9455534D01*
X-101546Y-9628605D01*
X-65000Y-9812333D01*
X-65000Y-9999667D01*
X-101546Y-10183395D01*
X-173234Y-10356466D01*
X-173235Y-10356467D01*
X-277310Y-10512227D01*
X-409773Y-10644690D01*
X-488182Y-10697081D01*
X-565534Y-10748766D01*
X-738605Y-10820454D01*
X-922333Y-10857000D01*
X-1109667Y-10857000D01*
X-1293395Y-10820454D01*
X-1466466Y-10748766D01*
X-1543818Y-10697081D01*
X-1622227Y-10644690D01*
X-1754690Y-10512227D01*
X-1858765Y-10356467D01*
X-1858766Y-10356466D01*
X-1930454Y-10183395D01*
X-1967000Y-9999667D01*
X-1967000Y-9812333D01*
X-1930454Y-9628605D01*
X-1858766Y-9455534D01*
X-1754691Y-9299775D01*
X-1754690Y-9299773D01*
X-1622227Y-9167310D01*
X-1466467Y-9063235D01*
X-1466466Y-9063234D01*
X-1293395Y-8991546D01*
X-1109667Y-8955000D01*
X-922333Y-8955000D01*
X-738605Y-8991546D01*
G37*
G36*
X4341395Y-8991546D02*
G01*
X4514466Y-9063234D01*
X4514467Y-9063235D01*
X4670227Y-9167310D01*
X4802690Y-9299773D01*
X4802691Y-9299775D01*
X4906766Y-9455534D01*
X4978454Y-9628605D01*
X5015000Y-9812333D01*
X5015000Y-9999667D01*
X4978454Y-10183395D01*
X4906766Y-10356466D01*
X4906765Y-10356467D01*
X4802690Y-10512227D01*
X4670227Y-10644690D01*
X4591818Y-10697081D01*
X4514466Y-10748766D01*
X4341395Y-10820454D01*
X4157667Y-10857000D01*
X3970333Y-10857000D01*
X3786605Y-10820454D01*
X3613534Y-10748766D01*
X3536182Y-10697081D01*
X3457773Y-10644690D01*
X3325310Y-10512227D01*
X3221235Y-10356467D01*
X3221234Y-10356466D01*
X3149546Y-10183395D01*
X3113000Y-9999667D01*
X3113000Y-9812333D01*
X3149546Y-9628605D01*
X3221234Y-9455534D01*
X3325309Y-9299775D01*
X3325310Y-9299773D01*
X3457773Y-9167310D01*
X3613533Y-9063235D01*
X3613534Y-9063234D01*
X3786605Y-8991546D01*
X3970333Y-8955000D01*
X4157667Y-8955000D01*
X4341395Y-8991546D01*
G37*
G36*
X1801395Y-8991546D02*
G01*
X1974466Y-9063234D01*
X1974467Y-9063235D01*
X2130227Y-9167310D01*
X2262690Y-9299773D01*
X2262691Y-9299775D01*
X2366766Y-9455534D01*
X2438454Y-9628605D01*
X2475000Y-9812333D01*
X2475000Y-9999667D01*
X2438454Y-10183395D01*
X2366766Y-10356466D01*
X2366765Y-10356467D01*
X2262690Y-10512227D01*
X2130227Y-10644690D01*
X2051818Y-10697081D01*
X1974466Y-10748766D01*
X1801395Y-10820454D01*
X1617667Y-10857000D01*
X1430333Y-10857000D01*
X1246605Y-10820454D01*
X1073534Y-10748766D01*
X996182Y-10697081D01*
X917773Y-10644690D01*
X785310Y-10512227D01*
X681235Y-10356467D01*
X681234Y-10356466D01*
X609546Y-10183395D01*
X573000Y-9999667D01*
X573000Y-9812333D01*
X609546Y-9628605D01*
X681234Y-9455534D01*
X785309Y-9299775D01*
X785310Y-9299773D01*
X917773Y-9167310D01*
X1073533Y-9063235D01*
X1073534Y-9063234D01*
X1246605Y-8991546D01*
X1430333Y-8955000D01*
X1617667Y-8955000D01*
X1801395Y-8991546D01*
G37*
G36*
X19417512Y1150073D02*
G01*
X19566812Y1120376D01*
X19730784Y1052456D01*
X19878354Y953853D01*
X20003853Y828354D01*
X20102456Y680784D01*
X20170376Y516812D01*
X20205000Y342741D01*
X20205000Y165259D01*
X20170376Y-8812D01*
X20102456Y-172784D01*
X20003853Y-320354D01*
X19878354Y-445853D01*
X19730784Y-544456D01*
X19566812Y-612376D01*
X19417512Y-642073D01*
X19392742Y-647000D01*
X19215258Y-647000D01*
X19190488Y-642073D01*
X19041188Y-612376D01*
X18877216Y-544456D01*
X18729646Y-445853D01*
X18604147Y-320354D01*
X18505544Y-172784D01*
X18437624Y-8812D01*
X18403000Y165259D01*
X18403000Y342741D01*
X18437624Y516812D01*
X18505544Y680784D01*
X18604147Y828354D01*
X18729646Y953853D01*
X18877216Y1052456D01*
X19041188Y1120376D01*
X19190488Y1150073D01*
X19215258Y1155000D01*
X19392742Y1155000D01*
X19417512Y1150073D01*
G37*
G36*
X19417512Y3690073D02*
G01*
X19566812Y3660376D01*
X19730784Y3592456D01*
X19878354Y3493853D01*
X20003853Y3368354D01*
X20102456Y3220784D01*
X20170376Y3056812D01*
X20205000Y2882741D01*
X20205000Y2705259D01*
X20170376Y2531188D01*
X20102456Y2367216D01*
X20003853Y2219646D01*
X19878354Y2094147D01*
X19730784Y1995544D01*
X19566812Y1927624D01*
X19417512Y1897927D01*
X19392742Y1893000D01*
X19215258Y1893000D01*
X19190488Y1897927D01*
X19041188Y1927624D01*
X18877216Y1995544D01*
X18729646Y2094147D01*
X18604147Y2219646D01*
X18505544Y2367216D01*
X18437624Y2531188D01*
X18403000Y2705259D01*
X18403000Y2882741D01*
X18437624Y3056812D01*
X18505544Y3220784D01*
X18604147Y3368354D01*
X18729646Y3493853D01*
X18877216Y3592456D01*
X19041188Y3660376D01*
X19190488Y3690073D01*
X19215258Y3695000D01*
X19392742Y3695000D01*
X19417512Y3690073D01*
G37*
G36*
X19417512Y6230073D02*
G01*
X19566812Y6200376D01*
X19730784Y6132456D01*
X19878354Y6033853D01*
X20003853Y5908354D01*
X20102456Y5760784D01*
X20170376Y5596812D01*
X20205000Y5422741D01*
X20205000Y5245259D01*
X20170376Y5071188D01*
X20102456Y4907216D01*
X20003853Y4759646D01*
X19878354Y4634147D01*
X19730784Y4535544D01*
X19566812Y4467624D01*
X19417512Y4437927D01*
X19392742Y4433000D01*
X19215258Y4433000D01*
X19190488Y4437927D01*
X19041188Y4467624D01*
X18877216Y4535544D01*
X18729646Y4634147D01*
X18604147Y4759646D01*
X18505544Y4907216D01*
X18437624Y5071188D01*
X18403000Y5245259D01*
X18403000Y5422741D01*
X18437624Y5596812D01*
X18505544Y5760784D01*
X18604147Y5908354D01*
X18729646Y6033853D01*
X18877216Y6132456D01*
X19041188Y6200376D01*
X19190488Y6230073D01*
X19215258Y6235000D01*
X19392742Y6235000D01*
X19417512Y6230073D01*
G37*
G36*
X19417512Y8770073D02*
G01*
X19566812Y8740376D01*
X19730784Y8672456D01*
X19878354Y8573853D01*
X20003853Y8448354D01*
X20102456Y8300784D01*
X20170376Y8136812D01*
X20205000Y7962741D01*
X20205000Y7785259D01*
X20170376Y7611188D01*
X20102456Y7447216D01*
X20003853Y7299646D01*
X19878354Y7174147D01*
X19730784Y7075544D01*
X19566812Y7007624D01*
X19417512Y6977927D01*
X19392742Y6973000D01*
X19215258Y6973000D01*
X19190488Y6977927D01*
X19041188Y7007624D01*
X18877216Y7075544D01*
X18729646Y7174147D01*
X18604147Y7299646D01*
X18505544Y7447216D01*
X18437624Y7611188D01*
X18403000Y7785259D01*
X18403000Y7962741D01*
X18437624Y8136812D01*
X18505544Y8300784D01*
X18604147Y8448354D01*
X18729646Y8573853D01*
X18877216Y8672456D01*
X19041188Y8740376D01*
X19190488Y8770073D01*
X19215258Y8775000D01*
X19392742Y8775000D01*
X19417512Y8770073D01*
G37*
G36*
X19417512Y11310073D02*
G01*
X19566812Y11280376D01*
X19730784Y11212456D01*
X19878354Y11113853D01*
X20003853Y10988354D01*
X20102456Y10840784D01*
X20170376Y10676812D01*
X20205000Y10502741D01*
X20205000Y10325259D01*
X20170376Y10151188D01*
X20102456Y9987216D01*
X20003853Y9839646D01*
X19878354Y9714147D01*
X19730784Y9615544D01*
X19566812Y9547624D01*
X19417512Y9517927D01*
X19392742Y9513000D01*
X19215258Y9513000D01*
X19190488Y9517927D01*
X19041188Y9547624D01*
X18877216Y9615544D01*
X18729646Y9714147D01*
X18604147Y9839646D01*
X18505544Y9987216D01*
X18437624Y10151188D01*
X18403000Y10325259D01*
X18403000Y10502741D01*
X18437624Y10676812D01*
X18505544Y10840784D01*
X18604147Y10988354D01*
X18729646Y11113853D01*
X18877216Y11212456D01*
X19041188Y11280376D01*
X19190488Y11310073D01*
X19215258Y11315000D01*
X19392742Y11315000D01*
X19417512Y11310073D01*
G37*
G36*
X6881395Y13868454D02*
G01*
X7054466Y13796766D01*
X7054467Y13796765D01*
X7210227Y13692690D01*
X7342690Y13560227D01*
X7342691Y13560225D01*
X7446766Y13404466D01*
X7518454Y13231395D01*
X7555000Y13047667D01*
X7555000Y12860333D01*
X7518454Y12676605D01*
X7446766Y12503534D01*
X7446765Y12503533D01*
X7342690Y12347773D01*
X7210227Y12215310D01*
X7131818Y12162919D01*
X7054466Y12111234D01*
X6881395Y12039546D01*
X6697667Y12003000D01*
X6510333Y12003000D01*
X6326605Y12039546D01*
X6153534Y12111234D01*
X6076182Y12162919D01*
X5997773Y12215310D01*
X5865310Y12347773D01*
X5761235Y12503533D01*
X5761234Y12503534D01*
X5689546Y12676605D01*
X5653000Y12860333D01*
X5653000Y13047667D01*
X5689546Y13231395D01*
X5761234Y13404466D01*
X5865309Y13560225D01*
X5865310Y13560227D01*
X5997773Y13692690D01*
X6153533Y13796765D01*
X6153534Y13796766D01*
X6326605Y13868454D01*
X6510333Y13905000D01*
X6697667Y13905000D01*
X6881395Y13868454D01*
G37*
G36*
X1801395Y13868454D02*
G01*
X1974466Y13796766D01*
X1974467Y13796765D01*
X2130227Y13692690D01*
X2262690Y13560227D01*
X2262691Y13560225D01*
X2366766Y13404466D01*
X2438454Y13231395D01*
X2475000Y13047667D01*
X2475000Y12860333D01*
X2438454Y12676605D01*
X2366766Y12503534D01*
X2366765Y12503533D01*
X2262690Y12347773D01*
X2130227Y12215310D01*
X2051818Y12162919D01*
X1974466Y12111234D01*
X1801395Y12039546D01*
X1617667Y12003000D01*
X1430333Y12003000D01*
X1246605Y12039546D01*
X1073534Y12111234D01*
X996182Y12162919D01*
X917773Y12215310D01*
X785310Y12347773D01*
X681235Y12503533D01*
X681234Y12503534D01*
X609546Y12676605D01*
X573000Y12860333D01*
X573000Y13047667D01*
X609546Y13231395D01*
X681234Y13404466D01*
X785309Y13560225D01*
X785310Y13560227D01*
X917773Y13692690D01*
X1073533Y13796765D01*
X1073534Y13796766D01*
X1246605Y13868454D01*
X1430333Y13905000D01*
X1617667Y13905000D01*
X1801395Y13868454D01*
G37*
G36*
X4341395Y13868454D02*
G01*
X4514466Y13796766D01*
X4514467Y13796765D01*
X4670227Y13692690D01*
X4802690Y13560227D01*
X4802691Y13560225D01*
X4906766Y13404466D01*
X4978454Y13231395D01*
X5015000Y13047667D01*
X5015000Y12860333D01*
X4978454Y12676605D01*
X4906766Y12503534D01*
X4906765Y12503533D01*
X4802690Y12347773D01*
X4670227Y12215310D01*
X4591818Y12162919D01*
X4514466Y12111234D01*
X4341395Y12039546D01*
X4157667Y12003000D01*
X3970333Y12003000D01*
X3786605Y12039546D01*
X3613534Y12111234D01*
X3536182Y12162919D01*
X3457773Y12215310D01*
X3325310Y12347773D01*
X3221235Y12503533D01*
X3221234Y12503534D01*
X3149546Y12676605D01*
X3113000Y12860333D01*
X3113000Y13047667D01*
X3149546Y13231395D01*
X3221234Y13404466D01*
X3325309Y13560225D01*
X3325310Y13560227D01*
X3457773Y13692690D01*
X3613533Y13796765D01*
X3613534Y13796766D01*
X3786605Y13868454D01*
X3970333Y13905000D01*
X4157667Y13905000D01*
X4341395Y13868454D01*
G37*
G36*
X-738605Y13868454D02*
G01*
X-565534Y13796766D01*
X-565533Y13796765D01*
X-409773Y13692690D01*
X-277310Y13560227D01*
X-277309Y13560225D01*
X-173234Y13404466D01*
X-101546Y13231395D01*
X-65000Y13047667D01*
X-65000Y12860333D01*
X-101546Y12676605D01*
X-173234Y12503534D01*
X-173235Y12503533D01*
X-277310Y12347773D01*
X-409773Y12215310D01*
X-488182Y12162919D01*
X-565534Y12111234D01*
X-738605Y12039546D01*
X-922333Y12003000D01*
X-1109667Y12003000D01*
X-1293395Y12039546D01*
X-1466466Y12111234D01*
X-1543818Y12162919D01*
X-1622227Y12215310D01*
X-1754690Y12347773D01*
X-1858765Y12503533D01*
X-1858766Y12503534D01*
X-1930454Y12676605D01*
X-1967000Y12860333D01*
X-1967000Y13047667D01*
X-1930454Y13231395D01*
X-1858766Y13404466D01*
X-1754691Y13560225D01*
X-1754690Y13560227D01*
X-1622227Y13692690D01*
X-1466467Y13796765D01*
X-1466466Y13796766D01*
X-1293395Y13868454D01*
X-1109667Y13905000D01*
X-922333Y13905000D01*
X-738605Y13868454D01*
G37*
G36*
X-3278605Y13868454D02*
G01*
X-3105534Y13796766D01*
X-3105533Y13796765D01*
X-2949773Y13692690D01*
X-2817310Y13560227D01*
X-2817309Y13560225D01*
X-2713234Y13404466D01*
X-2641546Y13231395D01*
X-2605000Y13047667D01*
X-2605000Y12860333D01*
X-2641546Y12676605D01*
X-2713234Y12503534D01*
X-2713235Y12503533D01*
X-2817310Y12347773D01*
X-2949773Y12215310D01*
X-3028182Y12162919D01*
X-3105534Y12111234D01*
X-3278605Y12039546D01*
X-3462333Y12003000D01*
X-3649667Y12003000D01*
X-3833395Y12039546D01*
X-4006466Y12111234D01*
X-4083818Y12162919D01*
X-4162227Y12215310D01*
X-4294690Y12347773D01*
X-4398765Y12503533D01*
X-4398766Y12503534D01*
X-4470454Y12676605D01*
X-4507000Y12860333D01*
X-4507000Y13047667D01*
X-4470454Y13231395D01*
X-4398766Y13404466D01*
X-4294691Y13560225D01*
X-4294690Y13560227D01*
X-4162227Y13692690D01*
X-4006467Y13796765D01*
X-4006466Y13796766D01*
X-3833395Y13868454D01*
X-3649667Y13905000D01*
X-3462333Y13905000D01*
X-3278605Y13868454D01*
G37*
G36*
X-5818605Y13868454D02*
G01*
X-5645534Y13796766D01*
X-5645533Y13796765D01*
X-5489773Y13692690D01*
X-5357310Y13560227D01*
X-5357309Y13560225D01*
X-5253234Y13404466D01*
X-5181546Y13231395D01*
X-5145000Y13047667D01*
X-5145000Y12860333D01*
X-5181546Y12676605D01*
X-5253234Y12503534D01*
X-5253235Y12503533D01*
X-5357310Y12347773D01*
X-5489773Y12215310D01*
X-5568182Y12162919D01*
X-5645534Y12111234D01*
X-5818605Y12039546D01*
X-6002333Y12003000D01*
X-6189667Y12003000D01*
X-6373395Y12039546D01*
X-6546466Y12111234D01*
X-6623818Y12162919D01*
X-6702227Y12215310D01*
X-6834690Y12347773D01*
X-6938765Y12503533D01*
X-6938766Y12503534D01*
X-7010454Y12676605D01*
X-7047000Y12860333D01*
X-7047000Y13047667D01*
X-7010454Y13231395D01*
X-6938766Y13404466D01*
X-6834691Y13560225D01*
X-6834690Y13560227D01*
X-6702227Y13692690D01*
X-6546467Y13796765D01*
X-6546466Y13796766D01*
X-6373395Y13868454D01*
X-6189667Y13905000D01*
X-6002333Y13905000D01*
X-5818605Y13868454D01*
G37*
G36*
X-10898605Y13868454D02*
G01*
X-10725534Y13796766D01*
X-10725533Y13796765D01*
X-10569773Y13692690D01*
X-10437310Y13560227D01*
X-10437309Y13560225D01*
X-10333234Y13404466D01*
X-10261546Y13231395D01*
X-10225000Y13047667D01*
X-10225000Y12860333D01*
X-10261546Y12676605D01*
X-10333234Y12503534D01*
X-10333235Y12503533D01*
X-10437310Y12347773D01*
X-10569773Y12215310D01*
X-10648182Y12162919D01*
X-10725534Y12111234D01*
X-10898605Y12039546D01*
X-11082333Y12003000D01*
X-11269667Y12003000D01*
X-11453395Y12039546D01*
X-11626466Y12111234D01*
X-11703818Y12162919D01*
X-11782227Y12215310D01*
X-11914690Y12347773D01*
X-12018765Y12503533D01*
X-12018766Y12503534D01*
X-12090454Y12676605D01*
X-12127000Y12860333D01*
X-12127000Y13047667D01*
X-12090454Y13231395D01*
X-12018766Y13404466D01*
X-11914691Y13560225D01*
X-11914690Y13560227D01*
X-11782227Y13692690D01*
X-11626467Y13796765D01*
X-11626466Y13796766D01*
X-11453395Y13868454D01*
X-11269667Y13905000D01*
X-11082333Y13905000D01*
X-10898605Y13868454D01*
G37*
G36*
X-8358605Y13868454D02*
G01*
X-8185534Y13796766D01*
X-8185533Y13796765D01*
X-8029773Y13692690D01*
X-7897310Y13560227D01*
X-7897309Y13560225D01*
X-7793234Y13404466D01*
X-7721546Y13231395D01*
X-7685000Y13047667D01*
X-7685000Y12860333D01*
X-7721546Y12676605D01*
X-7793234Y12503534D01*
X-7793235Y12503533D01*
X-7897310Y12347773D01*
X-8029773Y12215310D01*
X-8108182Y12162919D01*
X-8185534Y12111234D01*
X-8358605Y12039546D01*
X-8542333Y12003000D01*
X-8729667Y12003000D01*
X-8913395Y12039546D01*
X-9086466Y12111234D01*
X-9163818Y12162919D01*
X-9242227Y12215310D01*
X-9374690Y12347773D01*
X-9478765Y12503533D01*
X-9478766Y12503534D01*
X-9550454Y12676605D01*
X-9587000Y12860333D01*
X-9587000Y13047667D01*
X-9550454Y13231395D01*
X-9478766Y13404466D01*
X-9374691Y13560225D01*
X-9374690Y13560227D01*
X-9242227Y13692690D01*
X-9086467Y13796765D01*
X-9086466Y13796766D01*
X-8913395Y13868454D01*
X-8729667Y13905000D01*
X-8542333Y13905000D01*
X-8358605Y13868454D01*
G37*
G36*
X19417512Y13850073D02*
G01*
X19566812Y13820376D01*
X19730784Y13752456D01*
X19878354Y13653853D01*
X20003853Y13528354D01*
X20102456Y13380784D01*
X20170376Y13216812D01*
X20205000Y13042741D01*
X20205000Y12865259D01*
X20170376Y12691188D01*
X20102456Y12527216D01*
X20003853Y12379646D01*
X19878354Y12254147D01*
X19730784Y12155544D01*
X19566812Y12087624D01*
X19417512Y12057927D01*
X19392742Y12053000D01*
X19215258Y12053000D01*
X19190488Y12057927D01*
X19041188Y12087624D01*
X18877216Y12155544D01*
X18729646Y12254147D01*
X18604147Y12379646D01*
X18505544Y12527216D01*
X18437624Y12691188D01*
X18403000Y12865259D01*
X18403000Y13042741D01*
X18437624Y13216812D01*
X18505544Y13380784D01*
X18604147Y13528354D01*
X18729646Y13653853D01*
X18877216Y13752456D01*
X19041188Y13820376D01*
X19190488Y13850073D01*
X19215258Y13855000D01*
X19392742Y13855000D01*
X19417512Y13850073D01*
G37*
G36*
X19417512Y16390073D02*
G01*
X19566812Y16360376D01*
X19730784Y16292456D01*
X19878354Y16193853D01*
X20003853Y16068354D01*
X20102456Y15920784D01*
X20170376Y15756812D01*
X20205000Y15582741D01*
X20205000Y15405259D01*
X20170376Y15231188D01*
X20102456Y15067216D01*
X20003853Y14919646D01*
X19878354Y14794147D01*
X19730784Y14695544D01*
X19566812Y14627624D01*
X19417512Y14597927D01*
X19392742Y14593000D01*
X19215258Y14593000D01*
X19190488Y14597927D01*
X19041188Y14627624D01*
X18877216Y14695544D01*
X18729646Y14794147D01*
X18604147Y14919646D01*
X18505544Y15067216D01*
X18437624Y15231188D01*
X18403000Y15405259D01*
X18403000Y15582741D01*
X18437624Y15756812D01*
X18505544Y15920784D01*
X18604147Y16068354D01*
X18729646Y16193853D01*
X18877216Y16292456D01*
X19041188Y16360376D01*
X19190488Y16390073D01*
X19215258Y16395000D01*
X19392742Y16395000D01*
X19417512Y16390073D01*
G37*
G36*
X4087395Y18204454D02*
G01*
X4260466Y18132766D01*
X4260467Y18132765D01*
X4416227Y18028690D01*
X4548690Y17896227D01*
X4548691Y17896225D01*
X4652766Y17740466D01*
X4724454Y17567395D01*
X4761000Y17383667D01*
X4761000Y17196333D01*
X4724454Y17012605D01*
X4652766Y16839534D01*
X4652765Y16839533D01*
X4548690Y16683773D01*
X4416227Y16551310D01*
X4337818Y16498919D01*
X4260466Y16447234D01*
X4087395Y16375546D01*
X3903667Y16339000D01*
X3716333Y16339000D01*
X3532605Y16375546D01*
X3359534Y16447234D01*
X3282182Y16498919D01*
X3203773Y16551310D01*
X3071310Y16683773D01*
X2967235Y16839533D01*
X2967234Y16839534D01*
X2895546Y17012605D01*
X2859000Y17196333D01*
X2859000Y17383667D01*
X2895546Y17567395D01*
X2967234Y17740466D01*
X3071309Y17896225D01*
X3071310Y17896227D01*
X3203773Y18028690D01*
X3359533Y18132765D01*
X3359534Y18132766D01*
X3532605Y18204454D01*
X3716333Y18241000D01*
X3903667Y18241000D01*
X4087395Y18204454D01*
G37*
G36*
X1547395Y18204454D02*
G01*
X1720466Y18132766D01*
X1720467Y18132765D01*
X1876227Y18028690D01*
X2008690Y17896227D01*
X2008691Y17896225D01*
X2112766Y17740466D01*
X2184454Y17567395D01*
X2221000Y17383667D01*
X2221000Y17196333D01*
X2184454Y17012605D01*
X2112766Y16839534D01*
X2112765Y16839533D01*
X2008690Y16683773D01*
X1876227Y16551310D01*
X1797818Y16498919D01*
X1720466Y16447234D01*
X1547395Y16375546D01*
X1363667Y16339000D01*
X1176333Y16339000D01*
X992605Y16375546D01*
X819534Y16447234D01*
X742182Y16498919D01*
X663773Y16551310D01*
X531310Y16683773D01*
X427235Y16839533D01*
X427234Y16839534D01*
X355546Y17012605D01*
X319000Y17196333D01*
X319000Y17383667D01*
X355546Y17567395D01*
X427234Y17740466D01*
X531309Y17896225D01*
X531310Y17896227D01*
X663773Y18028690D01*
X819533Y18132765D01*
X819534Y18132766D01*
X992605Y18204454D01*
X1176333Y18241000D01*
X1363667Y18241000D01*
X1547395Y18204454D01*
G37*
G36*
X-992605Y18204454D02*
G01*
X-819534Y18132766D01*
X-819533Y18132765D01*
X-663773Y18028690D01*
X-531310Y17896227D01*
X-531309Y17896225D01*
X-427234Y17740466D01*
X-355546Y17567395D01*
X-319000Y17383667D01*
X-319000Y17196333D01*
X-355546Y17012605D01*
X-427234Y16839534D01*
X-427235Y16839533D01*
X-531310Y16683773D01*
X-663773Y16551310D01*
X-742182Y16498919D01*
X-819534Y16447234D01*
X-992605Y16375546D01*
X-1176333Y16339000D01*
X-1363667Y16339000D01*
X-1547395Y16375546D01*
X-1720466Y16447234D01*
X-1797818Y16498919D01*
X-1876227Y16551310D01*
X-2008690Y16683773D01*
X-2112765Y16839533D01*
X-2112766Y16839534D01*
X-2184454Y17012605D01*
X-2221000Y17196333D01*
X-2221000Y17383667D01*
X-2184454Y17567395D01*
X-2112766Y17740466D01*
X-2008691Y17896225D01*
X-2008690Y17896227D01*
X-1876227Y18028690D01*
X-1720467Y18132765D01*
X-1720466Y18132766D01*
X-1547395Y18204454D01*
X-1363667Y18241000D01*
X-1176333Y18241000D01*
X-992605Y18204454D01*
G37*
G36*
X-3532605Y18204454D02*
G01*
X-3359534Y18132766D01*
X-3359533Y18132765D01*
X-3203773Y18028690D01*
X-3071310Y17896227D01*
X-3071309Y17896225D01*
X-2967234Y17740466D01*
X-2895546Y17567395D01*
X-2859000Y17383667D01*
X-2859000Y17196333D01*
X-2895546Y17012605D01*
X-2967234Y16839534D01*
X-2967235Y16839533D01*
X-3071310Y16683773D01*
X-3203773Y16551310D01*
X-3282182Y16498919D01*
X-3359534Y16447234D01*
X-3532605Y16375546D01*
X-3716333Y16339000D01*
X-3903667Y16339000D01*
X-4087395Y16375546D01*
X-4260466Y16447234D01*
X-4337818Y16498919D01*
X-4416227Y16551310D01*
X-4548690Y16683773D01*
X-4652765Y16839533D01*
X-4652766Y16839534D01*
X-4724454Y17012605D01*
X-4761000Y17196333D01*
X-4761000Y17383667D01*
X-4724454Y17567395D01*
X-4652766Y17740466D01*
X-4548691Y17896225D01*
X-4548690Y17896227D01*
X-4416227Y18028690D01*
X-4260467Y18132765D01*
X-4260466Y18132766D01*
X-4087395Y18204454D01*
X-3903667Y18241000D01*
X-3716333Y18241000D01*
X-3532605Y18204454D01*
G37*
G36*
X20205000Y17133000D02*
G01*
X18403000Y17133000D01*
X18403000Y18935000D01*
X20205000Y18935000D01*
X20205000Y17133000D01*
G37*
G36*
X-13005902Y26452967D02*
G01*
X-12541650Y26260668D01*
X-12541648Y26260667D01*
X-12123832Y25981491D01*
X-11768509Y25626168D01*
X-11489333Y25208352D01*
X-11489332Y25208350D01*
X-11297033Y24744098D01*
X-11199000Y24251253D01*
X-11199000Y23748747D01*
X-11297033Y23255902D01*
X-11489332Y22791650D01*
X-11489333Y22791648D01*
X-11768509Y22373832D01*
X-12123832Y22018509D01*
X-12541648Y21739333D01*
X-12541649Y21739332D01*
X-12541650Y21739332D01*
X-13005902Y21547033D01*
X-13498747Y21449000D01*
X-14001253Y21449000D01*
X-14494098Y21547033D01*
X-14958350Y21739332D01*
X-14958351Y21739332D01*
X-14958352Y21739333D01*
X-15376168Y22018509D01*
X-15731491Y22373832D01*
X-16010667Y22791648D01*
X-16010668Y22791650D01*
X-16202967Y23255902D01*
X-16301000Y23748747D01*
X-16301000Y24251253D01*
X-16202967Y24744098D01*
X-16010668Y25208350D01*
X-16010667Y25208352D01*
X-15731491Y25626168D01*
X-15376168Y25981491D01*
X-14958352Y26260667D01*
X-14958350Y26260668D01*
X-14494098Y26452967D01*
X-14001253Y26551000D01*
X-13498747Y26551000D01*
X-13005902Y26452967D01*
G37*
G36*
X14494098Y26452967D02*
G01*
X14958350Y26260668D01*
X14958352Y26260667D01*
X15376168Y25981491D01*
X15731491Y25626168D01*
X16010667Y25208352D01*
X16010668Y25208350D01*
X16202967Y24744098D01*
X16301000Y24251253D01*
X16301000Y23748747D01*
X16202967Y23255902D01*
X16010668Y22791650D01*
X16010667Y22791648D01*
X15731491Y22373832D01*
X15376168Y22018509D01*
X14958352Y21739333D01*
X14958351Y21739332D01*
X14958350Y21739332D01*
X14494098Y21547033D01*
X14001253Y21449000D01*
X13498747Y21449000D01*
X13005902Y21547033D01*
X12541650Y21739332D01*
X12541649Y21739332D01*
X12541648Y21739333D01*
X12123832Y22018509D01*
X11768509Y22373832D01*
X11489333Y22791648D01*
X11489332Y22791650D01*
X11297033Y23255902D01*
X11199000Y23748747D01*
X11199000Y24251253D01*
X11297033Y24744098D01*
X11489332Y25208350D01*
X11489333Y25208352D01*
X11768509Y25626168D01*
X12123832Y25981491D01*
X12541648Y26260667D01*
X12541650Y26260668D01*
X13005902Y26452967D01*
X13498747Y26551000D01*
X14001253Y26551000D01*
X14494098Y26452967D01*
G37*
M02*
