G04 #@! TF.GenerationSoftware,KiCad,Pcbnew,5.1.5+dfsg1-2build2*
G04 #@! TF.CreationDate,2021-10-07T21:38:51-07:00*
G04 #@! TF.ProjectId,Nugget-PCB,4e756767-6574-42d5-9043-422e6b696361,rev?*
G04 #@! TF.SameCoordinates,Original*
G04 #@! TF.FileFunction,Legend,Top*
G04 #@! TF.FilePolarity,Positive*
%FSLAX46Y46*%
G04 Gerber Fmt 4.6, Leading zero omitted, Abs format (unit mm)*
G04 Created by KiCad (PCBNEW 5.1.5+dfsg1-2build2) date 2021-10-07 21:38:51*
%MOMM*%
%LPD*%
G04 APERTURE LIST*
%ADD10C,0.120000*%
%ADD11C,0.100000*%
%ADD12C,0.010000*%
G04 APERTURE END LIST*
D10*
X20574000Y11684000D02*
X18034000Y11684000D01*
X2591500Y-23336000D02*
X8711500Y-23336000D01*
X8711500Y-23336000D02*
X8711500Y-26956000D01*
X8711500Y-26956000D02*
X2591500Y-26956000D01*
X2591500Y-26956000D02*
X2591500Y-23336000D01*
X2591500Y-15652500D02*
X8711500Y-15652500D01*
X8711500Y-15652500D02*
X8711500Y-19272500D01*
X8711500Y-19272500D02*
X2591500Y-19272500D01*
X2591500Y-19272500D02*
X2591500Y-15652500D01*
X-3695000Y-19504000D02*
X2425000Y-19504000D01*
X2425000Y-19504000D02*
X2425000Y-23124000D01*
X2425000Y-23124000D02*
X-3695000Y-23124000D01*
X-3695000Y-23124000D02*
X-3695000Y-19504000D01*
X8814500Y-19504000D02*
X14934500Y-19504000D01*
X14934500Y-19504000D02*
X14934500Y-23124000D01*
X14934500Y-23124000D02*
X8814500Y-23124000D01*
X8814500Y-23124000D02*
X8814500Y-19504000D01*
X17700000Y-14210000D02*
X17700000Y19290000D01*
X-17700000Y19290000D02*
X17700000Y19290000D01*
X-17700000Y-14210000D02*
X17700000Y-14210000D01*
X-17700000Y19290000D02*
X-17700000Y-14210000D01*
X-9652000Y-21501100D02*
X-12026900Y-23876000D01*
D11*
X-14628500Y-18899500D02*
X-14628500Y-23899500D01*
X-14628500Y-23899500D02*
X-9628500Y-23899500D01*
X-9628500Y-23899500D02*
X-9628500Y-18899500D01*
X-9628500Y-18899500D02*
X-14628500Y-18899500D01*
D10*
X20574000Y19304000D02*
X20634000Y-1076000D01*
X18034000Y19304000D02*
X17974000Y-1076000D01*
X17974000Y-1076000D02*
X20634000Y-1076000D01*
X20574000Y19304000D02*
X18034000Y19304000D01*
D12*
G36*
X6413500Y-25802167D02*
G01*
X4931833Y-25802167D01*
X4931833Y-24828500D01*
X5185833Y-24828500D01*
X5185833Y-25251834D01*
X5249333Y-25251834D01*
X5291996Y-25255963D01*
X5309495Y-25276911D01*
X5312833Y-25325917D01*
X5316110Y-25375570D01*
X5334596Y-25395933D01*
X5381278Y-25399991D01*
X5386917Y-25400000D01*
X5436569Y-25403277D01*
X5456933Y-25421763D01*
X5460991Y-25468445D01*
X5461000Y-25474084D01*
X5461000Y-25548167D01*
X6159500Y-25548167D01*
X6159500Y-24976667D01*
X5733484Y-24976667D01*
X5740117Y-25045459D01*
X5750379Y-25093949D01*
X5777975Y-25114836D01*
X5815542Y-25120883D01*
X5884333Y-25127516D01*
X5884333Y-25400000D01*
X5609167Y-25400000D01*
X5609167Y-25325917D01*
X5605890Y-25276264D01*
X5587403Y-25255901D01*
X5540722Y-25251843D01*
X5535083Y-25251834D01*
X5461000Y-25251834D01*
X5461000Y-24828500D01*
X5535083Y-24828500D01*
X5584857Y-24824960D01*
X5605272Y-24807005D01*
X5609167Y-24765000D01*
X5609167Y-24701500D01*
X6159500Y-24701500D01*
X6159500Y-24553334D01*
X5461000Y-24553334D01*
X5461000Y-24627417D01*
X5457723Y-24677070D01*
X5439237Y-24697433D01*
X5392555Y-24701491D01*
X5386917Y-24701500D01*
X5337143Y-24705040D01*
X5316728Y-24722995D01*
X5312833Y-24765000D01*
X5307588Y-24809977D01*
X5282848Y-24826555D01*
X5249333Y-24828500D01*
X5185833Y-24828500D01*
X4931833Y-24828500D01*
X4931833Y-24299334D01*
X6413500Y-24299334D01*
X6413500Y-25802167D01*
G37*
X6413500Y-25802167D02*
X4931833Y-25802167D01*
X4931833Y-24828500D01*
X5185833Y-24828500D01*
X5185833Y-25251834D01*
X5249333Y-25251834D01*
X5291996Y-25255963D01*
X5309495Y-25276911D01*
X5312833Y-25325917D01*
X5316110Y-25375570D01*
X5334596Y-25395933D01*
X5381278Y-25399991D01*
X5386917Y-25400000D01*
X5436569Y-25403277D01*
X5456933Y-25421763D01*
X5460991Y-25468445D01*
X5461000Y-25474084D01*
X5461000Y-25548167D01*
X6159500Y-25548167D01*
X6159500Y-24976667D01*
X5733484Y-24976667D01*
X5740117Y-25045459D01*
X5750379Y-25093949D01*
X5777975Y-25114836D01*
X5815542Y-25120883D01*
X5884333Y-25127516D01*
X5884333Y-25400000D01*
X5609167Y-25400000D01*
X5609167Y-25325917D01*
X5605890Y-25276264D01*
X5587403Y-25255901D01*
X5540722Y-25251843D01*
X5535083Y-25251834D01*
X5461000Y-25251834D01*
X5461000Y-24828500D01*
X5535083Y-24828500D01*
X5584857Y-24824960D01*
X5605272Y-24807005D01*
X5609167Y-24765000D01*
X5609167Y-24701500D01*
X6159500Y-24701500D01*
X6159500Y-24553334D01*
X5461000Y-24553334D01*
X5461000Y-24627417D01*
X5457723Y-24677070D01*
X5439237Y-24697433D01*
X5392555Y-24701491D01*
X5386917Y-24701500D01*
X5337143Y-24705040D01*
X5316728Y-24722995D01*
X5312833Y-24765000D01*
X5307588Y-24809977D01*
X5282848Y-24826555D01*
X5249333Y-24828500D01*
X5185833Y-24828500D01*
X4931833Y-24828500D01*
X4931833Y-24299334D01*
X6413500Y-24299334D01*
X6413500Y-25802167D01*
G36*
X-105833Y-21928667D02*
G01*
X-1608667Y-21928667D01*
X-1608667Y-20679834D01*
X-1354667Y-20679834D01*
X-1354667Y-21674667D01*
X-508000Y-21674667D01*
X-508000Y-21600584D01*
X-504724Y-21550931D01*
X-486237Y-21530567D01*
X-439556Y-21526509D01*
X-433917Y-21526500D01*
X-359833Y-21526500D01*
X-359833Y-21251334D01*
X-433917Y-21251334D01*
X-483570Y-21248057D01*
X-503933Y-21229570D01*
X-507991Y-21182889D01*
X-508000Y-21177250D01*
X-504724Y-21127597D01*
X-486237Y-21107234D01*
X-439556Y-21103176D01*
X-433917Y-21103167D01*
X-359833Y-21103167D01*
X-359833Y-20828000D01*
X-433917Y-20828000D01*
X-483570Y-20824724D01*
X-503933Y-20806237D01*
X-507991Y-20759556D01*
X-508000Y-20753917D01*
X-508000Y-20679834D01*
X-1354667Y-20679834D01*
X-1608667Y-20679834D01*
X-1608667Y-20425834D01*
X-105833Y-20425834D01*
X-105833Y-21928667D01*
G37*
X-105833Y-21928667D02*
X-1608667Y-21928667D01*
X-1608667Y-20679834D01*
X-1354667Y-20679834D01*
X-1354667Y-21674667D01*
X-508000Y-21674667D01*
X-508000Y-21600584D01*
X-504724Y-21550931D01*
X-486237Y-21530567D01*
X-439556Y-21526509D01*
X-433917Y-21526500D01*
X-359833Y-21526500D01*
X-359833Y-21251334D01*
X-433917Y-21251334D01*
X-483570Y-21248057D01*
X-503933Y-21229570D01*
X-507991Y-21182889D01*
X-508000Y-21177250D01*
X-504724Y-21127597D01*
X-486237Y-21107234D01*
X-439556Y-21103176D01*
X-433917Y-21103167D01*
X-359833Y-21103167D01*
X-359833Y-20828000D01*
X-433917Y-20828000D01*
X-483570Y-20824724D01*
X-503933Y-20806237D01*
X-507991Y-20759556D01*
X-508000Y-20753917D01*
X-508000Y-20679834D01*
X-1354667Y-20679834D01*
X-1608667Y-20679834D01*
X-1608667Y-20425834D01*
X-105833Y-20425834D01*
X-105833Y-21928667D01*
G36*
X12721167Y-21928667D02*
G01*
X11218333Y-21928667D01*
X11218333Y-20679834D01*
X11620500Y-20679834D01*
X11620500Y-21103167D01*
X11694583Y-21103167D01*
X11744236Y-21106443D01*
X11764599Y-21124930D01*
X11768657Y-21171611D01*
X11768667Y-21177250D01*
X11772206Y-21227024D01*
X11790161Y-21247439D01*
X11832167Y-21251334D01*
X11895667Y-21251334D01*
X11895667Y-21448889D01*
X11897181Y-21536643D01*
X11901244Y-21607864D01*
X11907131Y-21652315D01*
X11910673Y-21661451D01*
X11938327Y-21668473D01*
X11994845Y-21671444D01*
X12053548Y-21670270D01*
X12181417Y-21664084D01*
X12193533Y-21251334D01*
X12256266Y-21251334D01*
X12298427Y-21247125D01*
X12315719Y-21225954D01*
X12319000Y-21177250D01*
X12322276Y-21127597D01*
X12340763Y-21107234D01*
X12387444Y-21103176D01*
X12393083Y-21103167D01*
X12467167Y-21103167D01*
X12467167Y-20679834D01*
X12192000Y-20679834D01*
X12192000Y-21103167D01*
X11895667Y-21103167D01*
X11895667Y-20679834D01*
X11620500Y-20679834D01*
X11218333Y-20679834D01*
X11218333Y-20425834D01*
X12721167Y-20425834D01*
X12721167Y-21928667D01*
G37*
X12721167Y-21928667D02*
X11218333Y-21928667D01*
X11218333Y-20679834D01*
X11620500Y-20679834D01*
X11620500Y-21103167D01*
X11694583Y-21103167D01*
X11744236Y-21106443D01*
X11764599Y-21124930D01*
X11768657Y-21171611D01*
X11768667Y-21177250D01*
X11772206Y-21227024D01*
X11790161Y-21247439D01*
X11832167Y-21251334D01*
X11895667Y-21251334D01*
X11895667Y-21448889D01*
X11897181Y-21536643D01*
X11901244Y-21607864D01*
X11907131Y-21652315D01*
X11910673Y-21661451D01*
X11938327Y-21668473D01*
X11994845Y-21671444D01*
X12053548Y-21670270D01*
X12181417Y-21664084D01*
X12193533Y-21251334D01*
X12256266Y-21251334D01*
X12298427Y-21247125D01*
X12315719Y-21225954D01*
X12319000Y-21177250D01*
X12322276Y-21127597D01*
X12340763Y-21107234D01*
X12387444Y-21103176D01*
X12393083Y-21103167D01*
X12467167Y-21103167D01*
X12467167Y-20679834D01*
X12192000Y-20679834D01*
X12192000Y-21103167D01*
X11895667Y-21103167D01*
X11895667Y-20679834D01*
X11620500Y-20679834D01*
X11218333Y-20679834D01*
X11218333Y-20425834D01*
X12721167Y-20425834D01*
X12721167Y-21928667D01*
G36*
X-9609667Y-21822834D02*
G01*
X-14562667Y-21822834D01*
X-14562667Y-20976167D01*
X-14393333Y-20976167D01*
X-14393333Y-21653500D01*
X-14266333Y-21653500D01*
X-14265690Y-21341292D01*
X-14264087Y-21211532D01*
X-14259950Y-21123867D01*
X-14253350Y-21078328D01*
X-14244360Y-21074946D01*
X-14233054Y-21113752D01*
X-14219502Y-21194777D01*
X-14204153Y-21314834D01*
X-14189584Y-21441169D01*
X-14177973Y-21531574D01*
X-14166264Y-21592023D01*
X-14151401Y-21628489D01*
X-14130327Y-21646946D01*
X-14099985Y-21653368D01*
X-14057317Y-21653727D01*
X-14030854Y-21653500D01*
X-13906500Y-21653500D01*
X-13906500Y-21399251D01*
X-13798431Y-21399251D01*
X-13788794Y-21484981D01*
X-13750772Y-21560806D01*
X-13688368Y-21619384D01*
X-13605584Y-21653370D01*
X-13506422Y-21655419D01*
X-13485480Y-21651464D01*
X-13425694Y-21630421D01*
X-13380553Y-21601749D01*
X-13379647Y-21600847D01*
X-13357771Y-21572280D01*
X-13368632Y-21550127D01*
X-13387309Y-21535323D01*
X-13431786Y-21516421D01*
X-13461393Y-21518172D01*
X-13544515Y-21542048D01*
X-13606952Y-21532524D01*
X-13631576Y-21515697D01*
X-13658351Y-21481947D01*
X-13661335Y-21460171D01*
X-13636280Y-21451633D01*
X-13579775Y-21445213D01*
X-13502691Y-21442007D01*
X-13479148Y-21441834D01*
X-13308295Y-21441834D01*
X-13309812Y-21432290D01*
X-13208000Y-21432290D01*
X-13202768Y-21501333D01*
X-13181279Y-21549842D01*
X-13142262Y-21592091D01*
X-13082993Y-21635684D01*
X-13017918Y-21652287D01*
X-12984508Y-21653500D01*
X-12594167Y-21653500D01*
X-12530667Y-21653500D01*
X-12004312Y-21653500D01*
X-11578167Y-21653500D01*
X-11578167Y-21590000D01*
X-11583438Y-21545002D01*
X-11608114Y-21528421D01*
X-11640811Y-21526500D01*
X-11703455Y-21526500D01*
X-11709602Y-21351875D01*
X-11715750Y-21177250D01*
X-11848042Y-21170948D01*
X-11980333Y-21164647D01*
X-11980333Y-21229157D01*
X-11976303Y-21272484D01*
X-11955638Y-21290255D01*
X-11906250Y-21293667D01*
X-11832167Y-21293667D01*
X-11832167Y-21523945D01*
X-11911542Y-21530514D01*
X-11964962Y-21539219D01*
X-11989473Y-21560071D01*
X-11997614Y-21595292D01*
X-12004312Y-21653500D01*
X-12530667Y-21653500D01*
X-12495517Y-21651837D01*
X-12476546Y-21640196D01*
X-12468762Y-21608599D01*
X-12467179Y-21547068D01*
X-12467167Y-21526500D01*
X-12467167Y-21399500D01*
X-12381449Y-21399500D01*
X-12276848Y-21383428D01*
X-12197561Y-21338336D01*
X-12147971Y-21268912D01*
X-12132461Y-21179844D01*
X-12134234Y-21163832D01*
X-11432040Y-21163832D01*
X-11369852Y-21287027D01*
X-11307663Y-21410222D01*
X-11430679Y-21653500D01*
X-11358007Y-21653500D01*
X-11312387Y-21649711D01*
X-11283950Y-21631261D01*
X-11260533Y-21587527D01*
X-11248958Y-21558250D01*
X-11225122Y-21502776D01*
X-11205263Y-21468439D01*
X-11198509Y-21463000D01*
X-11182010Y-21480345D01*
X-11155400Y-21524638D01*
X-11138160Y-21558250D01*
X-11106017Y-21616572D01*
X-11076353Y-21644939D01*
X-11037627Y-21653337D01*
X-11028109Y-21653500D01*
X-10985375Y-21650721D01*
X-10968740Y-21637199D01*
X-10977443Y-21605157D01*
X-11010722Y-21546818D01*
X-11016698Y-21537084D01*
X-11052953Y-21470566D01*
X-11066017Y-21416240D01*
X-11061849Y-21392598D01*
X-10834240Y-21392598D01*
X-10828374Y-21477919D01*
X-10801786Y-21555346D01*
X-10755074Y-21614609D01*
X-10695115Y-21644200D01*
X-10644584Y-21655625D01*
X-10615083Y-21662677D01*
X-10566852Y-21660113D01*
X-10546848Y-21653500D01*
X-10247479Y-21653500D01*
X-9800167Y-21653500D01*
X-9800167Y-21590000D01*
X-9804297Y-21547337D01*
X-9825244Y-21529838D01*
X-9874250Y-21526500D01*
X-9948333Y-21526500D01*
X-9948333Y-20976167D01*
X-10085917Y-20976167D01*
X-10159876Y-20977095D01*
X-10201070Y-20982331D01*
X-10219064Y-20995553D01*
X-10223421Y-21020441D01*
X-10223500Y-21029084D01*
X-10217965Y-21064869D01*
X-10193057Y-21079519D01*
X-10149417Y-21082000D01*
X-10075333Y-21082000D01*
X-10075333Y-21523945D01*
X-10154708Y-21530514D01*
X-10208129Y-21539219D01*
X-10232640Y-21560071D01*
X-10240781Y-21595292D01*
X-10247479Y-21653500D01*
X-10546848Y-21653500D01*
X-10504305Y-21639436D01*
X-10446951Y-21607986D01*
X-10428065Y-21592305D01*
X-10401070Y-21561718D01*
X-10406307Y-21543590D01*
X-10435234Y-21526464D01*
X-10483311Y-21511794D01*
X-10533225Y-21528003D01*
X-10533637Y-21528224D01*
X-10591053Y-21542417D01*
X-10649642Y-21532907D01*
X-10693488Y-21504278D01*
X-10706388Y-21478438D01*
X-10705251Y-21460206D01*
X-10687935Y-21449216D01*
X-10646550Y-21443705D01*
X-10573206Y-21441911D01*
X-10542552Y-21441834D01*
X-10458112Y-21441316D01*
X-10407404Y-21437940D01*
X-10381828Y-21428974D01*
X-10372782Y-21411683D01*
X-10371667Y-21387525D01*
X-10390066Y-21297944D01*
X-10439909Y-21228143D01*
X-10513161Y-21182611D01*
X-10601791Y-21165841D01*
X-10697765Y-21182321D01*
X-10721508Y-21191954D01*
X-10781406Y-21239346D01*
X-10818784Y-21309651D01*
X-10834240Y-21392598D01*
X-11061849Y-21392598D01*
X-11055900Y-21358857D01*
X-11022614Y-21283168D01*
X-11016894Y-21271797D01*
X-10963620Y-21166667D01*
X-11027047Y-21166667D01*
X-11071523Y-21173563D01*
X-11104144Y-21201186D01*
X-11133667Y-21251334D01*
X-11162759Y-21302223D01*
X-11186047Y-21332382D01*
X-11192305Y-21335943D01*
X-11210851Y-21318977D01*
X-11238967Y-21276470D01*
X-11250083Y-21256568D01*
X-11286580Y-21201944D01*
X-11328175Y-21176609D01*
X-11362229Y-21170541D01*
X-11432040Y-21163832D01*
X-12134234Y-21163832D01*
X-12137076Y-21138176D01*
X-12157403Y-21072231D01*
X-12193949Y-21027242D01*
X-12230962Y-21009883D01*
X-11868895Y-21009883D01*
X-11866198Y-21049484D01*
X-11839470Y-21085625D01*
X-11794676Y-21119710D01*
X-11748809Y-21115480D01*
X-11716675Y-21095877D01*
X-11688828Y-21058067D01*
X-11691511Y-21012621D01*
X-11721371Y-20960816D01*
X-11769181Y-20941259D01*
X-11822431Y-20957968D01*
X-11833684Y-20966956D01*
X-11868895Y-21009883D01*
X-12230962Y-21009883D01*
X-12253824Y-20999161D01*
X-12344140Y-20983946D01*
X-12416457Y-20979286D01*
X-12594167Y-20971823D01*
X-12594167Y-21653500D01*
X-12984508Y-21653500D01*
X-12914113Y-21648181D01*
X-12853537Y-21634962D01*
X-12842078Y-21630530D01*
X-12780084Y-21580545D01*
X-12737847Y-21501770D01*
X-12721222Y-21405401D01*
X-12721167Y-21399409D01*
X-12727699Y-21334601D01*
X-12753380Y-21283157D01*
X-12793133Y-21238634D01*
X-12849186Y-21191020D01*
X-12902544Y-21170180D01*
X-12950888Y-21166667D01*
X-13059541Y-21181060D01*
X-13137939Y-21224808D01*
X-13186909Y-21298764D01*
X-13207275Y-21403780D01*
X-13208000Y-21432290D01*
X-13309812Y-21432290D01*
X-13320912Y-21362459D01*
X-13353082Y-21276481D01*
X-13412643Y-21212530D01*
X-13489897Y-21173914D01*
X-13575151Y-21163941D01*
X-13658705Y-21185919D01*
X-13716544Y-21227455D01*
X-13775682Y-21310961D01*
X-13798431Y-21399251D01*
X-13906500Y-21399251D01*
X-13906500Y-20976167D01*
X-14033500Y-20976167D01*
X-14033500Y-21286611D01*
X-14034286Y-21394554D01*
X-14036452Y-21484491D01*
X-14039705Y-21549411D01*
X-14043756Y-21582302D01*
X-14045851Y-21584705D01*
X-14053401Y-21559864D01*
X-14064315Y-21502124D01*
X-14077012Y-21420629D01*
X-14087576Y-21343052D01*
X-14104252Y-21210699D01*
X-14117120Y-21114459D01*
X-14128972Y-21048633D01*
X-14142601Y-21007519D01*
X-14160799Y-20985416D01*
X-14186360Y-20976622D01*
X-14222075Y-20975438D01*
X-14267293Y-20976167D01*
X-14393333Y-20976167D01*
X-14562667Y-20976167D01*
X-14562667Y-20806834D01*
X-9609667Y-20806834D01*
X-9609667Y-21822834D01*
G37*
X-9609667Y-21822834D02*
X-14562667Y-21822834D01*
X-14562667Y-20976167D01*
X-14393333Y-20976167D01*
X-14393333Y-21653500D01*
X-14266333Y-21653500D01*
X-14265690Y-21341292D01*
X-14264087Y-21211532D01*
X-14259950Y-21123867D01*
X-14253350Y-21078328D01*
X-14244360Y-21074946D01*
X-14233054Y-21113752D01*
X-14219502Y-21194777D01*
X-14204153Y-21314834D01*
X-14189584Y-21441169D01*
X-14177973Y-21531574D01*
X-14166264Y-21592023D01*
X-14151401Y-21628489D01*
X-14130327Y-21646946D01*
X-14099985Y-21653368D01*
X-14057317Y-21653727D01*
X-14030854Y-21653500D01*
X-13906500Y-21653500D01*
X-13906500Y-21399251D01*
X-13798431Y-21399251D01*
X-13788794Y-21484981D01*
X-13750772Y-21560806D01*
X-13688368Y-21619384D01*
X-13605584Y-21653370D01*
X-13506422Y-21655419D01*
X-13485480Y-21651464D01*
X-13425694Y-21630421D01*
X-13380553Y-21601749D01*
X-13379647Y-21600847D01*
X-13357771Y-21572280D01*
X-13368632Y-21550127D01*
X-13387309Y-21535323D01*
X-13431786Y-21516421D01*
X-13461393Y-21518172D01*
X-13544515Y-21542048D01*
X-13606952Y-21532524D01*
X-13631576Y-21515697D01*
X-13658351Y-21481947D01*
X-13661335Y-21460171D01*
X-13636280Y-21451633D01*
X-13579775Y-21445213D01*
X-13502691Y-21442007D01*
X-13479148Y-21441834D01*
X-13308295Y-21441834D01*
X-13309812Y-21432290D01*
X-13208000Y-21432290D01*
X-13202768Y-21501333D01*
X-13181279Y-21549842D01*
X-13142262Y-21592091D01*
X-13082993Y-21635684D01*
X-13017918Y-21652287D01*
X-12984508Y-21653500D01*
X-12594167Y-21653500D01*
X-12530667Y-21653500D01*
X-12004312Y-21653500D01*
X-11578167Y-21653500D01*
X-11578167Y-21590000D01*
X-11583438Y-21545002D01*
X-11608114Y-21528421D01*
X-11640811Y-21526500D01*
X-11703455Y-21526500D01*
X-11709602Y-21351875D01*
X-11715750Y-21177250D01*
X-11848042Y-21170948D01*
X-11980333Y-21164647D01*
X-11980333Y-21229157D01*
X-11976303Y-21272484D01*
X-11955638Y-21290255D01*
X-11906250Y-21293667D01*
X-11832167Y-21293667D01*
X-11832167Y-21523945D01*
X-11911542Y-21530514D01*
X-11964962Y-21539219D01*
X-11989473Y-21560071D01*
X-11997614Y-21595292D01*
X-12004312Y-21653500D01*
X-12530667Y-21653500D01*
X-12495517Y-21651837D01*
X-12476546Y-21640196D01*
X-12468762Y-21608599D01*
X-12467179Y-21547068D01*
X-12467167Y-21526500D01*
X-12467167Y-21399500D01*
X-12381449Y-21399500D01*
X-12276848Y-21383428D01*
X-12197561Y-21338336D01*
X-12147971Y-21268912D01*
X-12132461Y-21179844D01*
X-12134234Y-21163832D01*
X-11432040Y-21163832D01*
X-11369852Y-21287027D01*
X-11307663Y-21410222D01*
X-11430679Y-21653500D01*
X-11358007Y-21653500D01*
X-11312387Y-21649711D01*
X-11283950Y-21631261D01*
X-11260533Y-21587527D01*
X-11248958Y-21558250D01*
X-11225122Y-21502776D01*
X-11205263Y-21468439D01*
X-11198509Y-21463000D01*
X-11182010Y-21480345D01*
X-11155400Y-21524638D01*
X-11138160Y-21558250D01*
X-11106017Y-21616572D01*
X-11076353Y-21644939D01*
X-11037627Y-21653337D01*
X-11028109Y-21653500D01*
X-10985375Y-21650721D01*
X-10968740Y-21637199D01*
X-10977443Y-21605157D01*
X-11010722Y-21546818D01*
X-11016698Y-21537084D01*
X-11052953Y-21470566D01*
X-11066017Y-21416240D01*
X-11061849Y-21392598D01*
X-10834240Y-21392598D01*
X-10828374Y-21477919D01*
X-10801786Y-21555346D01*
X-10755074Y-21614609D01*
X-10695115Y-21644200D01*
X-10644584Y-21655625D01*
X-10615083Y-21662677D01*
X-10566852Y-21660113D01*
X-10546848Y-21653500D01*
X-10247479Y-21653500D01*
X-9800167Y-21653500D01*
X-9800167Y-21590000D01*
X-9804297Y-21547337D01*
X-9825244Y-21529838D01*
X-9874250Y-21526500D01*
X-9948333Y-21526500D01*
X-9948333Y-20976167D01*
X-10085917Y-20976167D01*
X-10159876Y-20977095D01*
X-10201070Y-20982331D01*
X-10219064Y-20995553D01*
X-10223421Y-21020441D01*
X-10223500Y-21029084D01*
X-10217965Y-21064869D01*
X-10193057Y-21079519D01*
X-10149417Y-21082000D01*
X-10075333Y-21082000D01*
X-10075333Y-21523945D01*
X-10154708Y-21530514D01*
X-10208129Y-21539219D01*
X-10232640Y-21560071D01*
X-10240781Y-21595292D01*
X-10247479Y-21653500D01*
X-10546848Y-21653500D01*
X-10504305Y-21639436D01*
X-10446951Y-21607986D01*
X-10428065Y-21592305D01*
X-10401070Y-21561718D01*
X-10406307Y-21543590D01*
X-10435234Y-21526464D01*
X-10483311Y-21511794D01*
X-10533225Y-21528003D01*
X-10533637Y-21528224D01*
X-10591053Y-21542417D01*
X-10649642Y-21532907D01*
X-10693488Y-21504278D01*
X-10706388Y-21478438D01*
X-10705251Y-21460206D01*
X-10687935Y-21449216D01*
X-10646550Y-21443705D01*
X-10573206Y-21441911D01*
X-10542552Y-21441834D01*
X-10458112Y-21441316D01*
X-10407404Y-21437940D01*
X-10381828Y-21428974D01*
X-10372782Y-21411683D01*
X-10371667Y-21387525D01*
X-10390066Y-21297944D01*
X-10439909Y-21228143D01*
X-10513161Y-21182611D01*
X-10601791Y-21165841D01*
X-10697765Y-21182321D01*
X-10721508Y-21191954D01*
X-10781406Y-21239346D01*
X-10818784Y-21309651D01*
X-10834240Y-21392598D01*
X-11061849Y-21392598D01*
X-11055900Y-21358857D01*
X-11022614Y-21283168D01*
X-11016894Y-21271797D01*
X-10963620Y-21166667D01*
X-11027047Y-21166667D01*
X-11071523Y-21173563D01*
X-11104144Y-21201186D01*
X-11133667Y-21251334D01*
X-11162759Y-21302223D01*
X-11186047Y-21332382D01*
X-11192305Y-21335943D01*
X-11210851Y-21318977D01*
X-11238967Y-21276470D01*
X-11250083Y-21256568D01*
X-11286580Y-21201944D01*
X-11328175Y-21176609D01*
X-11362229Y-21170541D01*
X-11432040Y-21163832D01*
X-12134234Y-21163832D01*
X-12137076Y-21138176D01*
X-12157403Y-21072231D01*
X-12193949Y-21027242D01*
X-12230962Y-21009883D01*
X-11868895Y-21009883D01*
X-11866198Y-21049484D01*
X-11839470Y-21085625D01*
X-11794676Y-21119710D01*
X-11748809Y-21115480D01*
X-11716675Y-21095877D01*
X-11688828Y-21058067D01*
X-11691511Y-21012621D01*
X-11721371Y-20960816D01*
X-11769181Y-20941259D01*
X-11822431Y-20957968D01*
X-11833684Y-20966956D01*
X-11868895Y-21009883D01*
X-12230962Y-21009883D01*
X-12253824Y-20999161D01*
X-12344140Y-20983946D01*
X-12416457Y-20979286D01*
X-12594167Y-20971823D01*
X-12594167Y-21653500D01*
X-12984508Y-21653500D01*
X-12914113Y-21648181D01*
X-12853537Y-21634962D01*
X-12842078Y-21630530D01*
X-12780084Y-21580545D01*
X-12737847Y-21501770D01*
X-12721222Y-21405401D01*
X-12721167Y-21399409D01*
X-12727699Y-21334601D01*
X-12753380Y-21283157D01*
X-12793133Y-21238634D01*
X-12849186Y-21191020D01*
X-12902544Y-21170180D01*
X-12950888Y-21166667D01*
X-13059541Y-21181060D01*
X-13137939Y-21224808D01*
X-13186909Y-21298764D01*
X-13207275Y-21403780D01*
X-13208000Y-21432290D01*
X-13309812Y-21432290D01*
X-13320912Y-21362459D01*
X-13353082Y-21276481D01*
X-13412643Y-21212530D01*
X-13489897Y-21173914D01*
X-13575151Y-21163941D01*
X-13658705Y-21185919D01*
X-13716544Y-21227455D01*
X-13775682Y-21310961D01*
X-13798431Y-21399251D01*
X-13906500Y-21399251D01*
X-13906500Y-20976167D01*
X-14033500Y-20976167D01*
X-14033500Y-21286611D01*
X-14034286Y-21394554D01*
X-14036452Y-21484491D01*
X-14039705Y-21549411D01*
X-14043756Y-21582302D01*
X-14045851Y-21584705D01*
X-14053401Y-21559864D01*
X-14064315Y-21502124D01*
X-14077012Y-21420629D01*
X-14087576Y-21343052D01*
X-14104252Y-21210699D01*
X-14117120Y-21114459D01*
X-14128972Y-21048633D01*
X-14142601Y-21007519D01*
X-14160799Y-20985416D01*
X-14186360Y-20976622D01*
X-14222075Y-20975438D01*
X-14267293Y-20976167D01*
X-14393333Y-20976167D01*
X-14562667Y-20976167D01*
X-14562667Y-20806834D01*
X-9609667Y-20806834D01*
X-9609667Y-21822834D01*
G36*
X6413500Y-18118667D02*
G01*
X4931833Y-18118667D01*
X4931833Y-16891000D01*
X5185833Y-16891000D01*
X5185833Y-17864667D01*
X5461000Y-17864667D01*
X5461000Y-17589500D01*
X5535083Y-17589500D01*
X5584736Y-17592777D01*
X5605099Y-17611263D01*
X5609157Y-17657945D01*
X5609167Y-17663584D01*
X5612706Y-17713357D01*
X5630661Y-17733772D01*
X5672667Y-17737667D01*
X5717644Y-17742912D01*
X5734221Y-17767652D01*
X5736167Y-17801167D01*
X5736167Y-17864667D01*
X6159500Y-17864667D01*
X6159500Y-17801167D01*
X6154255Y-17756190D01*
X6129515Y-17739612D01*
X6096000Y-17737667D01*
X6053337Y-17733537D01*
X6035838Y-17712589D01*
X6032500Y-17663584D01*
X6029223Y-17613931D01*
X6010737Y-17593567D01*
X5964055Y-17589509D01*
X5958417Y-17589500D01*
X5908764Y-17586224D01*
X5888400Y-17567737D01*
X5884342Y-17521056D01*
X5884333Y-17515417D01*
X5884333Y-17441334D01*
X6159500Y-17441334D01*
X6159500Y-17018000D01*
X6096000Y-17018000D01*
X6051023Y-17012755D01*
X6034445Y-16988015D01*
X6032500Y-16954500D01*
X6032500Y-16891000D01*
X5185833Y-16891000D01*
X4931833Y-16891000D01*
X4931833Y-16637000D01*
X6413500Y-16637000D01*
X6413500Y-18118667D01*
G37*
X6413500Y-18118667D02*
X4931833Y-18118667D01*
X4931833Y-16891000D01*
X5185833Y-16891000D01*
X5185833Y-17864667D01*
X5461000Y-17864667D01*
X5461000Y-17589500D01*
X5535083Y-17589500D01*
X5584736Y-17592777D01*
X5605099Y-17611263D01*
X5609157Y-17657945D01*
X5609167Y-17663584D01*
X5612706Y-17713357D01*
X5630661Y-17733772D01*
X5672667Y-17737667D01*
X5717644Y-17742912D01*
X5734221Y-17767652D01*
X5736167Y-17801167D01*
X5736167Y-17864667D01*
X6159500Y-17864667D01*
X6159500Y-17801167D01*
X6154255Y-17756190D01*
X6129515Y-17739612D01*
X6096000Y-17737667D01*
X6053337Y-17733537D01*
X6035838Y-17712589D01*
X6032500Y-17663584D01*
X6029223Y-17613931D01*
X6010737Y-17593567D01*
X5964055Y-17589509D01*
X5958417Y-17589500D01*
X5908764Y-17586224D01*
X5888400Y-17567737D01*
X5884342Y-17521056D01*
X5884333Y-17515417D01*
X5884333Y-17441334D01*
X6159500Y-17441334D01*
X6159500Y-17018000D01*
X6096000Y-17018000D01*
X6051023Y-17012755D01*
X6034445Y-16988015D01*
X6032500Y-16954500D01*
X6032500Y-16891000D01*
X5185833Y-16891000D01*
X4931833Y-16891000D01*
X4931833Y-16637000D01*
X6413500Y-16637000D01*
X6413500Y-18118667D01*
G36*
X12996333Y-13429762D02*
G01*
X12997212Y-13518027D01*
X13001520Y-13574120D01*
X13011767Y-13608190D01*
X13030462Y-13630389D01*
X13049250Y-13643863D01*
X13090677Y-13666259D01*
X13123251Y-13662637D01*
X13155083Y-13643863D01*
X13180944Y-13623939D01*
X13196654Y-13599037D01*
X13204722Y-13559005D01*
X13207657Y-13493694D01*
X13208000Y-13429762D01*
X13208000Y-13250334D01*
X13356167Y-13250334D01*
X13355842Y-13583709D01*
X13354511Y-13700167D01*
X13351050Y-13803041D01*
X13345907Y-13884260D01*
X13339531Y-13935758D01*
X13335570Y-13948636D01*
X13306481Y-13963825D01*
X13248033Y-13976754D01*
X13173184Y-13986348D01*
X13094892Y-13991533D01*
X13026116Y-13991233D01*
X12979812Y-13984374D01*
X12969875Y-13978978D01*
X12957207Y-13946892D01*
X12954000Y-13914612D01*
X12957987Y-13887064D01*
X12976628Y-13871584D01*
X13019943Y-13863668D01*
X13075708Y-13859931D01*
X13197417Y-13853584D01*
X13210717Y-13692116D01*
X13167025Y-13735808D01*
X13102516Y-13773075D01*
X13025867Y-13778247D01*
X12951951Y-13751824D01*
X12921288Y-13727546D01*
X12897480Y-13700639D01*
X12882304Y-13670917D01*
X12873836Y-13628587D01*
X12870154Y-13563853D01*
X12869334Y-13466921D01*
X12869333Y-13462962D01*
X12869333Y-13250334D01*
X12996333Y-13250334D01*
X12996333Y-13429762D01*
G37*
X12996333Y-13429762D02*
X12997212Y-13518027D01*
X13001520Y-13574120D01*
X13011767Y-13608190D01*
X13030462Y-13630389D01*
X13049250Y-13643863D01*
X13090677Y-13666259D01*
X13123251Y-13662637D01*
X13155083Y-13643863D01*
X13180944Y-13623939D01*
X13196654Y-13599037D01*
X13204722Y-13559005D01*
X13207657Y-13493694D01*
X13208000Y-13429762D01*
X13208000Y-13250334D01*
X13356167Y-13250334D01*
X13355842Y-13583709D01*
X13354511Y-13700167D01*
X13351050Y-13803041D01*
X13345907Y-13884260D01*
X13339531Y-13935758D01*
X13335570Y-13948636D01*
X13306481Y-13963825D01*
X13248033Y-13976754D01*
X13173184Y-13986348D01*
X13094892Y-13991533D01*
X13026116Y-13991233D01*
X12979812Y-13984374D01*
X12969875Y-13978978D01*
X12957207Y-13946892D01*
X12954000Y-13914612D01*
X12957987Y-13887064D01*
X12976628Y-13871584D01*
X13019943Y-13863668D01*
X13075708Y-13859931D01*
X13197417Y-13853584D01*
X13210717Y-13692116D01*
X13167025Y-13735808D01*
X13102516Y-13773075D01*
X13025867Y-13778247D01*
X12951951Y-13751824D01*
X12921288Y-13727546D01*
X12897480Y-13700639D01*
X12882304Y-13670917D01*
X12873836Y-13628587D01*
X12870154Y-13563853D01*
X12869334Y-13466921D01*
X12869333Y-13462962D01*
X12869333Y-13250334D01*
X12996333Y-13250334D01*
X12996333Y-13429762D01*
G36*
X7319668Y-13039480D02*
G01*
X7381951Y-13043453D01*
X7422851Y-13052886D01*
X7452839Y-13070080D01*
X7479530Y-13094470D01*
X7521352Y-13159920D01*
X7537547Y-13237511D01*
X7527382Y-13312280D01*
X7492828Y-13366905D01*
X7464174Y-13397362D01*
X7466814Y-13421399D01*
X7487537Y-13446478D01*
X7510144Y-13485858D01*
X7521820Y-13547362D01*
X7524750Y-13628251D01*
X7524750Y-13768917D01*
X7455958Y-13775550D01*
X7387167Y-13782182D01*
X7387167Y-13658075D01*
X7382226Y-13570891D01*
X7363653Y-13517721D01*
X7325821Y-13491010D01*
X7263102Y-13483201D01*
X7256900Y-13483167D01*
X7177434Y-13483167D01*
X7171175Y-13626042D01*
X7164917Y-13768917D01*
X7096125Y-13775550D01*
X7027333Y-13782182D01*
X7027333Y-13165667D01*
X7175500Y-13165667D01*
X7175500Y-13356167D01*
X7271204Y-13356167D01*
X7334072Y-13352360D01*
X7369180Y-13336928D01*
X7389798Y-13305928D01*
X7403131Y-13241969D01*
X7379256Y-13195725D01*
X7320595Y-13170035D01*
X7270005Y-13165667D01*
X7175500Y-13165667D01*
X7027333Y-13165667D01*
X7027333Y-13038667D01*
X7225530Y-13038667D01*
X7319668Y-13039480D01*
G37*
X7319668Y-13039480D02*
X7381951Y-13043453D01*
X7422851Y-13052886D01*
X7452839Y-13070080D01*
X7479530Y-13094470D01*
X7521352Y-13159920D01*
X7537547Y-13237511D01*
X7527382Y-13312280D01*
X7492828Y-13366905D01*
X7464174Y-13397362D01*
X7466814Y-13421399D01*
X7487537Y-13446478D01*
X7510144Y-13485858D01*
X7521820Y-13547362D01*
X7524750Y-13628251D01*
X7524750Y-13768917D01*
X7455958Y-13775550D01*
X7387167Y-13782182D01*
X7387167Y-13658075D01*
X7382226Y-13570891D01*
X7363653Y-13517721D01*
X7325821Y-13491010D01*
X7263102Y-13483201D01*
X7256900Y-13483167D01*
X7177434Y-13483167D01*
X7171175Y-13626042D01*
X7164917Y-13768917D01*
X7096125Y-13775550D01*
X7027333Y-13782182D01*
X7027333Y-13165667D01*
X7175500Y-13165667D01*
X7175500Y-13356167D01*
X7271204Y-13356167D01*
X7334072Y-13352360D01*
X7369180Y-13336928D01*
X7389798Y-13305928D01*
X7403131Y-13241969D01*
X7379256Y-13195725D01*
X7320595Y-13170035D01*
X7270005Y-13165667D01*
X7175500Y-13165667D01*
X7027333Y-13165667D01*
X7027333Y-13038667D01*
X7225530Y-13038667D01*
X7319668Y-13039480D01*
G36*
X7996340Y-13243372D02*
G01*
X8070371Y-13279023D01*
X8128810Y-13326337D01*
X8145937Y-13350132D01*
X8163682Y-13396692D01*
X8179813Y-13459613D01*
X8181393Y-13467682D01*
X8196211Y-13546667D01*
X8003355Y-13546667D01*
X7901064Y-13549148D01*
X7837478Y-13557679D01*
X7809201Y-13573892D01*
X7812836Y-13599417D01*
X7835900Y-13627100D01*
X7879275Y-13646865D01*
X7939983Y-13651404D01*
X7995982Y-13640666D01*
X8017505Y-13627528D01*
X8046797Y-13613853D01*
X8090160Y-13628135D01*
X8095822Y-13631105D01*
X8137867Y-13659752D01*
X8143221Y-13686215D01*
X8110842Y-13717674D01*
X8080375Y-13737399D01*
X7986936Y-13772115D01*
X7883995Y-13775095D01*
X7788879Y-13746242D01*
X7776223Y-13739081D01*
X7714874Y-13678862D01*
X7675860Y-13594263D01*
X7662399Y-13498674D01*
X7674685Y-13423900D01*
X7810500Y-13423900D01*
X7829643Y-13433175D01*
X7879024Y-13439325D01*
X7926917Y-13440834D01*
X7990678Y-13438049D01*
X8032964Y-13430866D01*
X8043333Y-13423900D01*
X8024387Y-13387685D01*
X7976057Y-13362855D01*
X7926917Y-13356167D01*
X7864672Y-13367190D01*
X7821995Y-13395310D01*
X7810500Y-13423900D01*
X7674685Y-13423900D01*
X7677711Y-13405488D01*
X7689412Y-13377969D01*
X7738370Y-13316713D01*
X7810546Y-13264969D01*
X7888537Y-13233735D01*
X7924755Y-13229246D01*
X7996340Y-13243372D01*
G37*
X7996340Y-13243372D02*
X8070371Y-13279023D01*
X8128810Y-13326337D01*
X8145937Y-13350132D01*
X8163682Y-13396692D01*
X8179813Y-13459613D01*
X8181393Y-13467682D01*
X8196211Y-13546667D01*
X8003355Y-13546667D01*
X7901064Y-13549148D01*
X7837478Y-13557679D01*
X7809201Y-13573892D01*
X7812836Y-13599417D01*
X7835900Y-13627100D01*
X7879275Y-13646865D01*
X7939983Y-13651404D01*
X7995982Y-13640666D01*
X8017505Y-13627528D01*
X8046797Y-13613853D01*
X8090160Y-13628135D01*
X8095822Y-13631105D01*
X8137867Y-13659752D01*
X8143221Y-13686215D01*
X8110842Y-13717674D01*
X8080375Y-13737399D01*
X7986936Y-13772115D01*
X7883995Y-13775095D01*
X7788879Y-13746242D01*
X7776223Y-13739081D01*
X7714874Y-13678862D01*
X7675860Y-13594263D01*
X7662399Y-13498674D01*
X7674685Y-13423900D01*
X7810500Y-13423900D01*
X7829643Y-13433175D01*
X7879024Y-13439325D01*
X7926917Y-13440834D01*
X7990678Y-13438049D01*
X8032964Y-13430866D01*
X8043333Y-13423900D01*
X8024387Y-13387685D01*
X7976057Y-13362855D01*
X7926917Y-13356167D01*
X7864672Y-13367190D01*
X7821995Y-13395310D01*
X7810500Y-13423900D01*
X7674685Y-13423900D01*
X7677711Y-13405488D01*
X7689412Y-13377969D01*
X7738370Y-13316713D01*
X7810546Y-13264969D01*
X7888537Y-13233735D01*
X7924755Y-13229246D01*
X7996340Y-13243372D01*
G36*
X8566827Y-13041648D02*
G01*
X8586192Y-13058030D01*
X8594737Y-13098976D01*
X8597798Y-13139209D01*
X8604250Y-13239750D01*
X8694208Y-13246259D01*
X8750770Y-13252831D01*
X8776759Y-13267575D01*
X8783928Y-13299479D01*
X8784167Y-13315051D01*
X8781299Y-13353357D01*
X8765042Y-13371501D01*
X8723916Y-13376989D01*
X8688917Y-13377334D01*
X8593667Y-13377334D01*
X8593667Y-13502069D01*
X8597363Y-13580781D01*
X8613046Y-13626241D01*
X8647606Y-13647220D01*
X8707932Y-13652492D01*
X8711814Y-13652500D01*
X8748484Y-13659700D01*
X8761862Y-13689721D01*
X8763000Y-13716000D01*
X8760565Y-13754245D01*
X8745798Y-13772632D01*
X8707506Y-13778045D01*
X8662458Y-13777829D01*
X8595572Y-13774378D01*
X8543505Y-13767607D01*
X8530167Y-13764072D01*
X8500166Y-13746935D01*
X8481349Y-13717429D01*
X8471239Y-13666823D01*
X8467359Y-13586385D01*
X8466991Y-13541375D01*
X8466667Y-13377334D01*
X8392583Y-13377334D01*
X8342809Y-13373794D01*
X8322394Y-13355839D01*
X8318500Y-13313834D01*
X8322630Y-13271170D01*
X8343577Y-13253672D01*
X8392583Y-13250334D01*
X8466667Y-13250334D01*
X8466667Y-13144500D01*
X8468085Y-13081842D01*
X8476627Y-13050596D01*
X8498722Y-13039846D01*
X8529007Y-13038667D01*
X8566827Y-13041648D01*
G37*
X8566827Y-13041648D02*
X8586192Y-13058030D01*
X8594737Y-13098976D01*
X8597798Y-13139209D01*
X8604250Y-13239750D01*
X8694208Y-13246259D01*
X8750770Y-13252831D01*
X8776759Y-13267575D01*
X8783928Y-13299479D01*
X8784167Y-13315051D01*
X8781299Y-13353357D01*
X8765042Y-13371501D01*
X8723916Y-13376989D01*
X8688917Y-13377334D01*
X8593667Y-13377334D01*
X8593667Y-13502069D01*
X8597363Y-13580781D01*
X8613046Y-13626241D01*
X8647606Y-13647220D01*
X8707932Y-13652492D01*
X8711814Y-13652500D01*
X8748484Y-13659700D01*
X8761862Y-13689721D01*
X8763000Y-13716000D01*
X8760565Y-13754245D01*
X8745798Y-13772632D01*
X8707506Y-13778045D01*
X8662458Y-13777829D01*
X8595572Y-13774378D01*
X8543505Y-13767607D01*
X8530167Y-13764072D01*
X8500166Y-13746935D01*
X8481349Y-13717429D01*
X8471239Y-13666823D01*
X8467359Y-13586385D01*
X8466991Y-13541375D01*
X8466667Y-13377334D01*
X8392583Y-13377334D01*
X8342809Y-13373794D01*
X8322394Y-13355839D01*
X8318500Y-13313834D01*
X8322630Y-13271170D01*
X8343577Y-13253672D01*
X8392583Y-13250334D01*
X8466667Y-13250334D01*
X8466667Y-13144500D01*
X8468085Y-13081842D01*
X8476627Y-13050596D01*
X8498722Y-13039846D01*
X8529007Y-13038667D01*
X8566827Y-13041648D01*
G36*
X9296664Y-13446125D02*
G01*
X9302750Y-13641917D01*
X9371542Y-13648550D01*
X9419264Y-13658158D01*
X9437767Y-13682837D01*
X9440333Y-13717341D01*
X9440333Y-13779500D01*
X9221611Y-13779500D01*
X9129275Y-13778212D01*
X9053300Y-13774734D01*
X9003275Y-13769647D01*
X8988778Y-13765389D01*
X8977537Y-13735014D01*
X8974667Y-13703106D01*
X8980564Y-13672013D01*
X9005774Y-13656146D01*
X9061570Y-13648650D01*
X9064625Y-13648426D01*
X9154583Y-13641917D01*
X9160885Y-13509625D01*
X9167187Y-13377334D01*
X9081510Y-13377334D01*
X9026803Y-13374902D01*
X9002320Y-13361646D01*
X8995994Y-13328620D01*
X8995833Y-13313834D01*
X8995833Y-13250334D01*
X9290578Y-13250334D01*
X9296664Y-13446125D01*
G37*
X9296664Y-13446125D02*
X9302750Y-13641917D01*
X9371542Y-13648550D01*
X9419264Y-13658158D01*
X9437767Y-13682837D01*
X9440333Y-13717341D01*
X9440333Y-13779500D01*
X9221611Y-13779500D01*
X9129275Y-13778212D01*
X9053300Y-13774734D01*
X9003275Y-13769647D01*
X8988778Y-13765389D01*
X8977537Y-13735014D01*
X8974667Y-13703106D01*
X8980564Y-13672013D01*
X9005774Y-13656146D01*
X9061570Y-13648650D01*
X9064625Y-13648426D01*
X9154583Y-13641917D01*
X9160885Y-13509625D01*
X9167187Y-13377334D01*
X9081510Y-13377334D01*
X9026803Y-13374902D01*
X9002320Y-13361646D01*
X8995994Y-13328620D01*
X8995833Y-13313834D01*
X8995833Y-13250334D01*
X9290578Y-13250334D01*
X9296664Y-13446125D01*
G36*
X9894468Y-13252820D02*
G01*
X9917418Y-13272285D01*
X9952583Y-13301998D01*
X9967248Y-13302263D01*
X9969500Y-13285773D01*
X9983917Y-13258780D01*
X10031424Y-13250338D01*
X10033000Y-13250334D01*
X10096500Y-13250334D01*
X10096500Y-13427658D01*
X10098689Y-13523928D01*
X10106112Y-13586043D01*
X10120051Y-13622000D01*
X10129320Y-13632222D01*
X10152423Y-13673236D01*
X10155778Y-13714188D01*
X10134698Y-13760091D01*
X10092826Y-13776243D01*
X10041240Y-13760758D01*
X10013135Y-13738468D01*
X9980515Y-13709122D01*
X9957887Y-13709407D01*
X9927167Y-13737167D01*
X9861354Y-13776104D01*
X9784735Y-13778072D01*
X9705315Y-13744024D01*
X9658022Y-13705089D01*
X9618022Y-13662735D01*
X9596590Y-13627332D01*
X9589085Y-13583883D01*
X9590870Y-13517389D01*
X9592048Y-13498307D01*
X9716385Y-13498307D01*
X9727051Y-13565314D01*
X9748450Y-13605457D01*
X9798049Y-13643611D01*
X9861372Y-13650166D01*
X9922863Y-13624098D01*
X9930791Y-13617470D01*
X9962190Y-13563632D01*
X9967965Y-13494308D01*
X9948413Y-13427481D01*
X9927167Y-13398500D01*
X9870472Y-13363153D01*
X9814843Y-13362644D01*
X9766484Y-13389788D01*
X9731597Y-13437403D01*
X9716385Y-13498307D01*
X9592048Y-13498307D01*
X9592385Y-13492864D01*
X9610684Y-13381513D01*
X9651165Y-13303825D01*
X9716952Y-13255665D01*
X9786264Y-13236188D01*
X9848443Y-13232990D01*
X9894468Y-13252820D01*
G37*
X9894468Y-13252820D02*
X9917418Y-13272285D01*
X9952583Y-13301998D01*
X9967248Y-13302263D01*
X9969500Y-13285773D01*
X9983917Y-13258780D01*
X10031424Y-13250338D01*
X10033000Y-13250334D01*
X10096500Y-13250334D01*
X10096500Y-13427658D01*
X10098689Y-13523928D01*
X10106112Y-13586043D01*
X10120051Y-13622000D01*
X10129320Y-13632222D01*
X10152423Y-13673236D01*
X10155778Y-13714188D01*
X10134698Y-13760091D01*
X10092826Y-13776243D01*
X10041240Y-13760758D01*
X10013135Y-13738468D01*
X9980515Y-13709122D01*
X9957887Y-13709407D01*
X9927167Y-13737167D01*
X9861354Y-13776104D01*
X9784735Y-13778072D01*
X9705315Y-13744024D01*
X9658022Y-13705089D01*
X9618022Y-13662735D01*
X9596590Y-13627332D01*
X9589085Y-13583883D01*
X9590870Y-13517389D01*
X9592048Y-13498307D01*
X9716385Y-13498307D01*
X9727051Y-13565314D01*
X9748450Y-13605457D01*
X9798049Y-13643611D01*
X9861372Y-13650166D01*
X9922863Y-13624098D01*
X9930791Y-13617470D01*
X9962190Y-13563632D01*
X9967965Y-13494308D01*
X9948413Y-13427481D01*
X9927167Y-13398500D01*
X9870472Y-13363153D01*
X9814843Y-13362644D01*
X9766484Y-13389788D01*
X9731597Y-13437403D01*
X9716385Y-13498307D01*
X9592048Y-13498307D01*
X9592385Y-13492864D01*
X9610684Y-13381513D01*
X9651165Y-13303825D01*
X9716952Y-13255665D01*
X9786264Y-13236188D01*
X9848443Y-13232990D01*
X9894468Y-13252820D01*
G36*
X12361333Y-13631334D02*
G01*
X12702682Y-13631334D01*
X12696049Y-13700125D01*
X12689417Y-13768917D01*
X12466076Y-13774882D01*
X12372685Y-13776018D01*
X12295490Y-13774410D01*
X12243989Y-13770409D01*
X12227951Y-13766063D01*
X12223056Y-13740971D01*
X12218845Y-13680843D01*
X12215609Y-13592970D01*
X12213639Y-13484646D01*
X12213167Y-13394972D01*
X12213167Y-13038667D01*
X12361333Y-13038667D01*
X12361333Y-13631334D01*
G37*
X12361333Y-13631334D02*
X12702682Y-13631334D01*
X12696049Y-13700125D01*
X12689417Y-13768917D01*
X12466076Y-13774882D01*
X12372685Y-13776018D01*
X12295490Y-13774410D01*
X12243989Y-13770409D01*
X12227951Y-13766063D01*
X12223056Y-13740971D01*
X12218845Y-13680843D01*
X12215609Y-13592970D01*
X12213639Y-13484646D01*
X12213167Y-13394972D01*
X12213167Y-13038667D01*
X12361333Y-13038667D01*
X12361333Y-13631334D01*
G36*
X13851222Y-13237911D02*
G01*
X13907890Y-13254550D01*
X13947283Y-13284090D01*
X13972309Y-13333266D01*
X13985875Y-13408813D01*
X13990892Y-13517466D01*
X13991167Y-13561960D01*
X13991167Y-13779500D01*
X13864167Y-13779500D01*
X13864167Y-13608775D01*
X13861530Y-13522902D01*
X13854546Y-13449663D01*
X13844604Y-13402480D01*
X13842255Y-13397109D01*
X13805066Y-13366452D01*
X13750056Y-13356161D01*
X13697371Y-13367874D01*
X13677183Y-13383680D01*
X13665970Y-13416548D01*
X13656146Y-13479898D01*
X13649378Y-13561880D01*
X13648133Y-13590055D01*
X13644503Y-13677000D01*
X13639152Y-13730327D01*
X13629261Y-13758735D01*
X13612015Y-13770924D01*
X13588208Y-13775180D01*
X13541972Y-13774616D01*
X13519416Y-13766361D01*
X13513519Y-13740413D01*
X13508702Y-13681047D01*
X13505472Y-13597173D01*
X13504333Y-13500806D01*
X13504333Y-13250334D01*
X13578417Y-13250334D01*
X13632776Y-13256989D01*
X13652242Y-13278572D01*
X13652500Y-13282717D01*
X13658872Y-13299614D01*
X13683267Y-13290906D01*
X13714247Y-13269449D01*
X13773205Y-13237608D01*
X13836091Y-13235388D01*
X13851222Y-13237911D01*
G37*
X13851222Y-13237911D02*
X13907890Y-13254550D01*
X13947283Y-13284090D01*
X13972309Y-13333266D01*
X13985875Y-13408813D01*
X13990892Y-13517466D01*
X13991167Y-13561960D01*
X13991167Y-13779500D01*
X13864167Y-13779500D01*
X13864167Y-13608775D01*
X13861530Y-13522902D01*
X13854546Y-13449663D01*
X13844604Y-13402480D01*
X13842255Y-13397109D01*
X13805066Y-13366452D01*
X13750056Y-13356161D01*
X13697371Y-13367874D01*
X13677183Y-13383680D01*
X13665970Y-13416548D01*
X13656146Y-13479898D01*
X13649378Y-13561880D01*
X13648133Y-13590055D01*
X13644503Y-13677000D01*
X13639152Y-13730327D01*
X13629261Y-13758735D01*
X13612015Y-13770924D01*
X13588208Y-13775180D01*
X13541972Y-13774616D01*
X13519416Y-13766361D01*
X13513519Y-13740413D01*
X13508702Y-13681047D01*
X13505472Y-13597173D01*
X13504333Y-13500806D01*
X13504333Y-13250334D01*
X13578417Y-13250334D01*
X13632776Y-13256989D01*
X13652242Y-13278572D01*
X13652500Y-13282717D01*
X13658872Y-13299614D01*
X13683267Y-13290906D01*
X13714247Y-13269449D01*
X13773205Y-13237608D01*
X13836091Y-13235388D01*
X13851222Y-13237911D01*
G36*
X14657917Y-13768917D02*
G01*
X14599708Y-13775614D01*
X14556873Y-13774295D01*
X14542179Y-13751349D01*
X14541500Y-13738573D01*
X14537283Y-13702883D01*
X14520297Y-13700463D01*
X14484045Y-13731171D01*
X14478000Y-13737167D01*
X14419308Y-13769561D01*
X14342490Y-13778966D01*
X14265318Y-13764830D01*
X14226474Y-13744984D01*
X14174013Y-13687072D01*
X14135442Y-13604373D01*
X14119247Y-13518450D01*
X14257867Y-13518450D01*
X14271544Y-13590497D01*
X14297895Y-13623230D01*
X14353940Y-13646415D01*
X14419386Y-13651022D01*
X14469539Y-13636301D01*
X14508795Y-13590312D01*
X14530968Y-13527600D01*
X14529586Y-13477076D01*
X14491553Y-13405256D01*
X14437797Y-13365863D01*
X14377957Y-13357426D01*
X14321675Y-13378480D01*
X14278590Y-13427555D01*
X14258344Y-13503184D01*
X14257867Y-13518450D01*
X14119247Y-13518450D01*
X14118402Y-13513969D01*
X14118167Y-13502921D01*
X14133778Y-13406499D01*
X14175758Y-13326645D01*
X14236823Y-13268253D01*
X14309688Y-13236215D01*
X14387070Y-13235425D01*
X14461685Y-13270778D01*
X14462609Y-13271500D01*
X14503304Y-13300760D01*
X14528344Y-13313791D01*
X14528963Y-13313834D01*
X14535348Y-13294523D01*
X14539864Y-13244000D01*
X14541500Y-13176250D01*
X14541500Y-13038667D01*
X14669499Y-13038667D01*
X14657917Y-13768917D01*
G37*
X14657917Y-13768917D02*
X14599708Y-13775614D01*
X14556873Y-13774295D01*
X14542179Y-13751349D01*
X14541500Y-13738573D01*
X14537283Y-13702883D01*
X14520297Y-13700463D01*
X14484045Y-13731171D01*
X14478000Y-13737167D01*
X14419308Y-13769561D01*
X14342490Y-13778966D01*
X14265318Y-13764830D01*
X14226474Y-13744984D01*
X14174013Y-13687072D01*
X14135442Y-13604373D01*
X14119247Y-13518450D01*
X14257867Y-13518450D01*
X14271544Y-13590497D01*
X14297895Y-13623230D01*
X14353940Y-13646415D01*
X14419386Y-13651022D01*
X14469539Y-13636301D01*
X14508795Y-13590312D01*
X14530968Y-13527600D01*
X14529586Y-13477076D01*
X14491553Y-13405256D01*
X14437797Y-13365863D01*
X14377957Y-13357426D01*
X14321675Y-13378480D01*
X14278590Y-13427555D01*
X14258344Y-13503184D01*
X14257867Y-13518450D01*
X14119247Y-13518450D01*
X14118402Y-13513969D01*
X14118167Y-13502921D01*
X14133778Y-13406499D01*
X14175758Y-13326645D01*
X14236823Y-13268253D01*
X14309688Y-13236215D01*
X14387070Y-13235425D01*
X14461685Y-13270778D01*
X14462609Y-13271500D01*
X14503304Y-13300760D01*
X14528344Y-13313791D01*
X14528963Y-13313834D01*
X14535348Y-13294523D01*
X14539864Y-13244000D01*
X14541500Y-13176250D01*
X14541500Y-13038667D01*
X14669499Y-13038667D01*
X14657917Y-13768917D01*
G36*
X14943667Y-13631334D02*
G01*
X15282333Y-13631334D01*
X15282333Y-13779500D01*
X14816667Y-13779500D01*
X14816667Y-13038667D01*
X14943667Y-13038667D01*
X14943667Y-13631334D01*
G37*
X14943667Y-13631334D02*
X15282333Y-13631334D01*
X15282333Y-13779500D01*
X14816667Y-13779500D01*
X14816667Y-13038667D01*
X14943667Y-13038667D01*
X14943667Y-13631334D01*
G36*
X15743290Y-13262117D02*
G01*
X15777317Y-13279169D01*
X15790333Y-13272700D01*
X15808936Y-13257918D01*
X15854681Y-13250527D01*
X15864417Y-13250334D01*
X15938500Y-13250334D01*
X15938500Y-13439584D01*
X15940723Y-13525130D01*
X15946668Y-13593731D01*
X15955252Y-13635021D01*
X15959667Y-13641917D01*
X15974666Y-13670406D01*
X15980833Y-13719895D01*
X15977624Y-13763425D01*
X15959377Y-13777407D01*
X15913163Y-13771498D01*
X15912042Y-13771278D01*
X15857079Y-13752782D01*
X15820272Y-13726992D01*
X15819894Y-13726495D01*
X15798706Y-13708103D01*
X15774574Y-13720535D01*
X15758405Y-13737364D01*
X15703821Y-13769680D01*
X15630503Y-13778955D01*
X15555577Y-13764645D01*
X15517640Y-13744984D01*
X15465180Y-13687072D01*
X15426608Y-13604373D01*
X15412507Y-13529556D01*
X15544467Y-13529556D01*
X15563364Y-13594639D01*
X15607936Y-13637923D01*
X15671144Y-13652733D01*
X15745949Y-13632393D01*
X15749391Y-13630589D01*
X15778333Y-13600942D01*
X15789694Y-13546138D01*
X15790333Y-13521130D01*
X15776753Y-13439822D01*
X15741614Y-13383695D01*
X15693319Y-13355349D01*
X15640271Y-13357383D01*
X15590872Y-13392396D01*
X15558285Y-13449352D01*
X15544467Y-13529556D01*
X15412507Y-13529556D01*
X15409569Y-13513969D01*
X15409333Y-13502921D01*
X15424966Y-13407743D01*
X15466961Y-13327920D01*
X15527968Y-13268755D01*
X15600633Y-13235548D01*
X15677604Y-13233602D01*
X15743290Y-13262117D01*
G37*
X15743290Y-13262117D02*
X15777317Y-13279169D01*
X15790333Y-13272700D01*
X15808936Y-13257918D01*
X15854681Y-13250527D01*
X15864417Y-13250334D01*
X15938500Y-13250334D01*
X15938500Y-13439584D01*
X15940723Y-13525130D01*
X15946668Y-13593731D01*
X15955252Y-13635021D01*
X15959667Y-13641917D01*
X15974666Y-13670406D01*
X15980833Y-13719895D01*
X15977624Y-13763425D01*
X15959377Y-13777407D01*
X15913163Y-13771498D01*
X15912042Y-13771278D01*
X15857079Y-13752782D01*
X15820272Y-13726992D01*
X15819894Y-13726495D01*
X15798706Y-13708103D01*
X15774574Y-13720535D01*
X15758405Y-13737364D01*
X15703821Y-13769680D01*
X15630503Y-13778955D01*
X15555577Y-13764645D01*
X15517640Y-13744984D01*
X15465180Y-13687072D01*
X15426608Y-13604373D01*
X15412507Y-13529556D01*
X15544467Y-13529556D01*
X15563364Y-13594639D01*
X15607936Y-13637923D01*
X15671144Y-13652733D01*
X15745949Y-13632393D01*
X15749391Y-13630589D01*
X15778333Y-13600942D01*
X15789694Y-13546138D01*
X15790333Y-13521130D01*
X15776753Y-13439822D01*
X15741614Y-13383695D01*
X15693319Y-13355349D01*
X15640271Y-13357383D01*
X15590872Y-13392396D01*
X15558285Y-13449352D01*
X15544467Y-13529556D01*
X15412507Y-13529556D01*
X15409569Y-13513969D01*
X15409333Y-13502921D01*
X15424966Y-13407743D01*
X15466961Y-13327920D01*
X15527968Y-13268755D01*
X15600633Y-13235548D01*
X15677604Y-13233602D01*
X15743290Y-13262117D01*
G36*
X16213667Y-13315101D02*
G01*
X16275823Y-13269146D01*
X16352825Y-13236553D01*
X16438175Y-13239220D01*
X16519173Y-13275681D01*
X16548830Y-13300709D01*
X16585832Y-13361277D01*
X16609450Y-13446861D01*
X16616782Y-13541458D01*
X16606977Y-13621406D01*
X16571338Y-13691999D01*
X16511056Y-13744705D01*
X16437124Y-13775836D01*
X16360532Y-13781705D01*
X16292272Y-13758626D01*
X16265487Y-13735956D01*
X16226080Y-13692412D01*
X16209972Y-13735956D01*
X16176203Y-13772581D01*
X16140265Y-13779500D01*
X16086667Y-13779500D01*
X16086667Y-13485114D01*
X16216363Y-13485114D01*
X16217378Y-13553450D01*
X16248697Y-13613792D01*
X16302574Y-13646267D01*
X16368679Y-13651680D01*
X16429280Y-13630743D01*
X16455883Y-13605457D01*
X16484518Y-13535725D01*
X16481514Y-13465151D01*
X16451473Y-13404694D01*
X16398996Y-13365318D01*
X16351250Y-13356167D01*
X16288069Y-13374489D01*
X16241517Y-13421466D01*
X16216363Y-13485114D01*
X16086667Y-13485114D01*
X16086667Y-13038667D01*
X16213667Y-13038667D01*
X16213667Y-13315101D01*
G37*
X16213667Y-13315101D02*
X16275823Y-13269146D01*
X16352825Y-13236553D01*
X16438175Y-13239220D01*
X16519173Y-13275681D01*
X16548830Y-13300709D01*
X16585832Y-13361277D01*
X16609450Y-13446861D01*
X16616782Y-13541458D01*
X16606977Y-13621406D01*
X16571338Y-13691999D01*
X16511056Y-13744705D01*
X16437124Y-13775836D01*
X16360532Y-13781705D01*
X16292272Y-13758626D01*
X16265487Y-13735956D01*
X16226080Y-13692412D01*
X16209972Y-13735956D01*
X16176203Y-13772581D01*
X16140265Y-13779500D01*
X16086667Y-13779500D01*
X16086667Y-13485114D01*
X16216363Y-13485114D01*
X16217378Y-13553450D01*
X16248697Y-13613792D01*
X16302574Y-13646267D01*
X16368679Y-13651680D01*
X16429280Y-13630743D01*
X16455883Y-13605457D01*
X16484518Y-13535725D01*
X16481514Y-13465151D01*
X16451473Y-13404694D01*
X16398996Y-13365318D01*
X16351250Y-13356167D01*
X16288069Y-13374489D01*
X16241517Y-13421466D01*
X16216363Y-13485114D01*
X16086667Y-13485114D01*
X16086667Y-13038667D01*
X16213667Y-13038667D01*
X16213667Y-13315101D01*
G36*
X17053316Y-13241066D02*
G01*
X17118460Y-13270982D01*
X17164994Y-13310237D01*
X17174902Y-13327233D01*
X17172591Y-13365056D01*
X17142515Y-13390480D01*
X17098626Y-13398283D01*
X17054879Y-13383241D01*
X17045841Y-13375541D01*
X17009214Y-13359597D01*
X16964512Y-13362236D01*
X16930401Y-13380065D01*
X16922750Y-13397914D01*
X16943327Y-13423488D01*
X17003304Y-13442674D01*
X17015454Y-13444904D01*
X17112398Y-13469429D01*
X17173111Y-13506173D01*
X17203008Y-13559742D01*
X17208500Y-13609119D01*
X17191635Y-13690369D01*
X17141478Y-13745804D01*
X17058681Y-13774900D01*
X16995603Y-13779500D01*
X16916075Y-13771993D01*
X16855373Y-13744735D01*
X16829124Y-13724702D01*
X16778812Y-13672989D01*
X16767978Y-13634764D01*
X16796529Y-13608488D01*
X16821378Y-13600355D01*
X16874023Y-13598139D01*
X16905666Y-13622755D01*
X16942502Y-13646723D01*
X16997318Y-13659320D01*
X17049509Y-13657650D01*
X17073531Y-13646357D01*
X17081301Y-13616292D01*
X17055339Y-13585764D01*
X17003432Y-13562582D01*
X16986054Y-13558610D01*
X16882476Y-13529937D01*
X16817356Y-13488347D01*
X16788005Y-13430867D01*
X16791732Y-13354520D01*
X16793762Y-13345968D01*
X16825740Y-13295143D01*
X16885562Y-13253947D01*
X16958746Y-13231168D01*
X16986250Y-13229167D01*
X17053316Y-13241066D01*
G37*
X17053316Y-13241066D02*
X17118460Y-13270982D01*
X17164994Y-13310237D01*
X17174902Y-13327233D01*
X17172591Y-13365056D01*
X17142515Y-13390480D01*
X17098626Y-13398283D01*
X17054879Y-13383241D01*
X17045841Y-13375541D01*
X17009214Y-13359597D01*
X16964512Y-13362236D01*
X16930401Y-13380065D01*
X16922750Y-13397914D01*
X16943327Y-13423488D01*
X17003304Y-13442674D01*
X17015454Y-13444904D01*
X17112398Y-13469429D01*
X17173111Y-13506173D01*
X17203008Y-13559742D01*
X17208500Y-13609119D01*
X17191635Y-13690369D01*
X17141478Y-13745804D01*
X17058681Y-13774900D01*
X16995603Y-13779500D01*
X16916075Y-13771993D01*
X16855373Y-13744735D01*
X16829124Y-13724702D01*
X16778812Y-13672989D01*
X16767978Y-13634764D01*
X16796529Y-13608488D01*
X16821378Y-13600355D01*
X16874023Y-13598139D01*
X16905666Y-13622755D01*
X16942502Y-13646723D01*
X16997318Y-13659320D01*
X17049509Y-13657650D01*
X17073531Y-13646357D01*
X17081301Y-13616292D01*
X17055339Y-13585764D01*
X17003432Y-13562582D01*
X16986054Y-13558610D01*
X16882476Y-13529937D01*
X16817356Y-13488347D01*
X16788005Y-13430867D01*
X16791732Y-13354520D01*
X16793762Y-13345968D01*
X16825740Y-13295143D01*
X16885562Y-13253947D01*
X16958746Y-13231168D01*
X16986250Y-13229167D01*
X17053316Y-13241066D01*
G36*
X11197496Y-13190963D02*
G01*
X11214995Y-13211911D01*
X11218333Y-13260917D01*
X11220896Y-13308350D01*
X11236723Y-13329429D01*
X11278017Y-13334835D01*
X11303000Y-13335000D01*
X11357289Y-13337508D01*
X11381422Y-13351096D01*
X11387533Y-13384865D01*
X11387667Y-13398500D01*
X11384323Y-13439217D01*
X11366205Y-13457317D01*
X11321180Y-13461900D01*
X11303000Y-13462000D01*
X11248806Y-13464037D01*
X11224725Y-13478294D01*
X11218537Y-13516993D01*
X11218333Y-13546667D01*
X11215271Y-13601394D01*
X11201517Y-13625702D01*
X11170225Y-13631330D01*
X11168944Y-13631334D01*
X11124492Y-13625862D01*
X11105444Y-13617222D01*
X11095759Y-13588174D01*
X11091358Y-13536747D01*
X11091333Y-13532556D01*
X11087812Y-13485241D01*
X11068615Y-13465834D01*
X11020794Y-13462004D01*
X11017250Y-13462000D01*
X10967476Y-13458460D01*
X10947061Y-13440505D01*
X10943167Y-13398500D01*
X10947296Y-13355837D01*
X10968244Y-13338338D01*
X11017250Y-13335000D01*
X11066903Y-13331724D01*
X11087266Y-13313237D01*
X11091324Y-13266556D01*
X11091333Y-13260917D01*
X11094873Y-13211143D01*
X11112828Y-13190728D01*
X11154833Y-13186834D01*
X11197496Y-13190963D01*
G37*
X11197496Y-13190963D02*
X11214995Y-13211911D01*
X11218333Y-13260917D01*
X11220896Y-13308350D01*
X11236723Y-13329429D01*
X11278017Y-13334835D01*
X11303000Y-13335000D01*
X11357289Y-13337508D01*
X11381422Y-13351096D01*
X11387533Y-13384865D01*
X11387667Y-13398500D01*
X11384323Y-13439217D01*
X11366205Y-13457317D01*
X11321180Y-13461900D01*
X11303000Y-13462000D01*
X11248806Y-13464037D01*
X11224725Y-13478294D01*
X11218537Y-13516993D01*
X11218333Y-13546667D01*
X11215271Y-13601394D01*
X11201517Y-13625702D01*
X11170225Y-13631330D01*
X11168944Y-13631334D01*
X11124492Y-13625862D01*
X11105444Y-13617222D01*
X11095759Y-13588174D01*
X11091358Y-13536747D01*
X11091333Y-13532556D01*
X11087812Y-13485241D01*
X11068615Y-13465834D01*
X11020794Y-13462004D01*
X11017250Y-13462000D01*
X10967476Y-13458460D01*
X10947061Y-13440505D01*
X10943167Y-13398500D01*
X10947296Y-13355837D01*
X10968244Y-13338338D01*
X11017250Y-13335000D01*
X11066903Y-13331724D01*
X11087266Y-13313237D01*
X11091324Y-13266556D01*
X11091333Y-13260917D01*
X11094873Y-13211143D01*
X11112828Y-13190728D01*
X11154833Y-13186834D01*
X11197496Y-13190963D01*
G36*
X9285099Y-13014563D02*
G01*
X9322745Y-13053821D01*
X9334500Y-13099263D01*
X9317101Y-13136588D01*
X9276790Y-13170670D01*
X9231393Y-13186762D01*
X9228667Y-13186834D01*
X9182089Y-13172518D01*
X9156095Y-13153572D01*
X9127022Y-13112884D01*
X9129706Y-13069809D01*
X9144745Y-13037275D01*
X9182994Y-13002009D01*
X9234147Y-12995865D01*
X9285099Y-13014563D01*
G37*
X9285099Y-13014563D02*
X9322745Y-13053821D01*
X9334500Y-13099263D01*
X9317101Y-13136588D01*
X9276790Y-13170670D01*
X9231393Y-13186762D01*
X9228667Y-13186834D01*
X9182089Y-13172518D01*
X9156095Y-13153572D01*
X9127022Y-13112884D01*
X9129706Y-13069809D01*
X9144745Y-13037275D01*
X9182994Y-13002009D01*
X9234147Y-12995865D01*
X9285099Y-13014563D01*
G36*
X-6533978Y451253D02*
G01*
X-6430790Y409973D01*
X-6356579Y344769D01*
X-6315208Y258582D01*
X-6307746Y195791D01*
X-6312530Y147877D01*
X-6333145Y129282D01*
X-6358228Y127000D01*
X-6395445Y135765D01*
X-6415562Y169764D01*
X-6422142Y198177D01*
X-6450361Y273864D01*
X-6504698Y323177D01*
X-6590424Y350016D01*
X-6634546Y355321D01*
X-6704979Y358507D01*
X-6750073Y350458D01*
X-6786262Y326804D01*
X-6803552Y310373D01*
X-6848467Y242295D01*
X-6855078Y173298D01*
X-6825060Y112361D01*
X-6760088Y68462D01*
X-6758267Y67752D01*
X-6703089Y50399D01*
X-6627812Y31342D01*
X-6584401Y21940D01*
X-6456037Y-17665D01*
X-6363522Y-77063D01*
X-6307811Y-155172D01*
X-6289858Y-250907D01*
X-6295543Y-306149D01*
X-6333108Y-401929D01*
X-6401155Y-476502D01*
X-6492066Y-527114D01*
X-6598224Y-551014D01*
X-6712010Y-545448D01*
X-6825808Y-507663D01*
X-6837157Y-501869D01*
X-6926131Y-433326D01*
X-6986920Y-335533D01*
X-7017729Y-227542D01*
X-7024982Y-175931D01*
X-7016067Y-153595D01*
X-6983025Y-148276D01*
X-6966189Y-148167D01*
X-6919956Y-153145D01*
X-6902456Y-175826D01*
X-6900254Y-206375D01*
X-6880966Y-294749D01*
X-6828565Y-366815D01*
X-6750860Y-417105D01*
X-6655662Y-440150D01*
X-6573111Y-435475D01*
X-6486051Y-403185D01*
X-6432232Y-346298D01*
X-6413504Y-266788D01*
X-6413500Y-265408D01*
X-6428936Y-192053D01*
X-6477234Y-137725D01*
X-6561377Y-99857D01*
X-6622938Y-85318D01*
X-6711243Y-63051D01*
X-6800584Y-31807D01*
X-6836833Y-15662D01*
X-6920088Y45545D01*
X-6966191Y126002D01*
X-6973777Y222342D01*
X-6959302Y286280D01*
X-6910629Y374875D01*
X-6832631Y433442D01*
X-6724799Y462288D01*
X-6662277Y465666D01*
X-6533978Y451253D01*
G37*
X-6533978Y451253D02*
X-6430790Y409973D01*
X-6356579Y344769D01*
X-6315208Y258582D01*
X-6307746Y195791D01*
X-6312530Y147877D01*
X-6333145Y129282D01*
X-6358228Y127000D01*
X-6395445Y135765D01*
X-6415562Y169764D01*
X-6422142Y198177D01*
X-6450361Y273864D01*
X-6504698Y323177D01*
X-6590424Y350016D01*
X-6634546Y355321D01*
X-6704979Y358507D01*
X-6750073Y350458D01*
X-6786262Y326804D01*
X-6803552Y310373D01*
X-6848467Y242295D01*
X-6855078Y173298D01*
X-6825060Y112361D01*
X-6760088Y68462D01*
X-6758267Y67752D01*
X-6703089Y50399D01*
X-6627812Y31342D01*
X-6584401Y21940D01*
X-6456037Y-17665D01*
X-6363522Y-77063D01*
X-6307811Y-155172D01*
X-6289858Y-250907D01*
X-6295543Y-306149D01*
X-6333108Y-401929D01*
X-6401155Y-476502D01*
X-6492066Y-527114D01*
X-6598224Y-551014D01*
X-6712010Y-545448D01*
X-6825808Y-507663D01*
X-6837157Y-501869D01*
X-6926131Y-433326D01*
X-6986920Y-335533D01*
X-7017729Y-227542D01*
X-7024982Y-175931D01*
X-7016067Y-153595D01*
X-6983025Y-148276D01*
X-6966189Y-148167D01*
X-6919956Y-153145D01*
X-6902456Y-175826D01*
X-6900254Y-206375D01*
X-6880966Y-294749D01*
X-6828565Y-366815D01*
X-6750860Y-417105D01*
X-6655662Y-440150D01*
X-6573111Y-435475D01*
X-6486051Y-403185D01*
X-6432232Y-346298D01*
X-6413504Y-266788D01*
X-6413500Y-265408D01*
X-6428936Y-192053D01*
X-6477234Y-137725D01*
X-6561377Y-99857D01*
X-6622938Y-85318D01*
X-6711243Y-63051D01*
X-6800584Y-31807D01*
X-6836833Y-15662D01*
X-6920088Y45545D01*
X-6966191Y126002D01*
X-6973777Y222342D01*
X-6959302Y286280D01*
X-6910629Y374875D01*
X-6832631Y433442D01*
X-6724799Y462288D01*
X-6662277Y465666D01*
X-6533978Y451253D01*
G36*
X-5642989Y152043D02*
G01*
X-5638823Y150168D01*
X-5548612Y94962D01*
X-5489740Y22132D01*
X-5458356Y-75142D01*
X-5450417Y-183656D01*
X-5457064Y-291940D01*
X-5481024Y-372482D01*
X-5528319Y-438341D01*
X-5593722Y-494295D01*
X-5662927Y-526082D01*
X-5754291Y-542607D01*
X-5849981Y-542488D01*
X-5932162Y-524344D01*
X-5939809Y-521099D01*
X-6029444Y-459498D01*
X-6091951Y-373862D01*
X-6127218Y-272748D01*
X-6131360Y-216183D01*
X-6024019Y-216183D01*
X-6021572Y-231532D01*
X-5985372Y-331059D01*
X-5923623Y-401138D01*
X-5842936Y-438390D01*
X-5749921Y-439432D01*
X-5669948Y-411344D01*
X-5602623Y-355073D01*
X-5562568Y-276972D01*
X-5549540Y-187379D01*
X-5563293Y-96635D01*
X-5603580Y-15079D01*
X-5670156Y46949D01*
X-5680981Y53174D01*
X-5767298Y78948D01*
X-5851383Y68575D01*
X-5926168Y27966D01*
X-5984582Y-36970D01*
X-6019556Y-120323D01*
X-6024019Y-216183D01*
X-6131360Y-216183D01*
X-6135130Y-164717D01*
X-6115572Y-58325D01*
X-6068433Y37867D01*
X-5993596Y115302D01*
X-5948640Y142875D01*
X-5844298Y181718D01*
X-5747269Y184660D01*
X-5642989Y152043D01*
G37*
X-5642989Y152043D02*
X-5638823Y150168D01*
X-5548612Y94962D01*
X-5489740Y22132D01*
X-5458356Y-75142D01*
X-5450417Y-183656D01*
X-5457064Y-291940D01*
X-5481024Y-372482D01*
X-5528319Y-438341D01*
X-5593722Y-494295D01*
X-5662927Y-526082D01*
X-5754291Y-542607D01*
X-5849981Y-542488D01*
X-5932162Y-524344D01*
X-5939809Y-521099D01*
X-6029444Y-459498D01*
X-6091951Y-373862D01*
X-6127218Y-272748D01*
X-6131360Y-216183D01*
X-6024019Y-216183D01*
X-6021572Y-231532D01*
X-5985372Y-331059D01*
X-5923623Y-401138D01*
X-5842936Y-438390D01*
X-5749921Y-439432D01*
X-5669948Y-411344D01*
X-5602623Y-355073D01*
X-5562568Y-276972D01*
X-5549540Y-187379D01*
X-5563293Y-96635D01*
X-5603580Y-15079D01*
X-5670156Y46949D01*
X-5680981Y53174D01*
X-5767298Y78948D01*
X-5851383Y68575D01*
X-5926168Y27966D01*
X-5984582Y-36970D01*
X-6019556Y-120323D01*
X-6024019Y-216183D01*
X-6131360Y-216183D01*
X-6135130Y-164717D01*
X-6115572Y-58325D01*
X-6068433Y37867D01*
X-5993596Y115302D01*
X-5948640Y142875D01*
X-5844298Y181718D01*
X-5747269Y184660D01*
X-5642989Y152043D01*
G36*
X-3725333Y-529167D02*
G01*
X-3778250Y-529167D01*
X-3817558Y-521224D01*
X-3830606Y-488931D01*
X-3831167Y-472290D01*
X-3831167Y-415413D01*
X-3893677Y-475302D01*
X-3973348Y-524709D01*
X-4071089Y-546027D01*
X-4171747Y-537400D01*
X-4228715Y-516331D01*
X-4311102Y-457575D01*
X-4364904Y-376939D01*
X-4393606Y-268133D01*
X-4399250Y-208521D01*
X-4397770Y-178138D01*
X-4294854Y-178138D01*
X-4282966Y-272940D01*
X-4265204Y-317266D01*
X-4205073Y-394132D01*
X-4127116Y-437181D01*
X-4040415Y-444666D01*
X-3954052Y-414836D01*
X-3913448Y-385035D01*
X-3858765Y-311075D01*
X-3833468Y-221365D01*
X-3836422Y-127184D01*
X-3866492Y-39809D01*
X-3922544Y29482D01*
X-3957474Y52558D01*
X-4040527Y81364D01*
X-4119261Y74019D01*
X-4172552Y51511D01*
X-4236563Y-3640D01*
X-4278358Y-84280D01*
X-4294854Y-178138D01*
X-4397770Y-178138D01*
X-4392769Y-75558D01*
X-4355820Y29244D01*
X-4287202Y108308D01*
X-4222754Y148165D01*
X-4112328Y183108D01*
X-4009547Y179654D01*
X-3919868Y138657D01*
X-3871959Y93220D01*
X-3857699Y80540D01*
X-3847841Y87614D01*
X-3840867Y120495D01*
X-3835259Y185232D01*
X-3831167Y255866D01*
X-3825551Y348905D01*
X-3819145Y407837D01*
X-3809634Y440860D01*
X-3794700Y456175D01*
X-3772958Y461847D01*
X-3725333Y468611D01*
X-3725333Y-529167D01*
G37*
X-3725333Y-529167D02*
X-3778250Y-529167D01*
X-3817558Y-521224D01*
X-3830606Y-488931D01*
X-3831167Y-472290D01*
X-3831167Y-415413D01*
X-3893677Y-475302D01*
X-3973348Y-524709D01*
X-4071089Y-546027D01*
X-4171747Y-537400D01*
X-4228715Y-516331D01*
X-4311102Y-457575D01*
X-4364904Y-376939D01*
X-4393606Y-268133D01*
X-4399250Y-208521D01*
X-4397770Y-178138D01*
X-4294854Y-178138D01*
X-4282966Y-272940D01*
X-4265204Y-317266D01*
X-4205073Y-394132D01*
X-4127116Y-437181D01*
X-4040415Y-444666D01*
X-3954052Y-414836D01*
X-3913448Y-385035D01*
X-3858765Y-311075D01*
X-3833468Y-221365D01*
X-3836422Y-127184D01*
X-3866492Y-39809D01*
X-3922544Y29482D01*
X-3957474Y52558D01*
X-4040527Y81364D01*
X-4119261Y74019D01*
X-4172552Y51511D01*
X-4236563Y-3640D01*
X-4278358Y-84280D01*
X-4294854Y-178138D01*
X-4397770Y-178138D01*
X-4392769Y-75558D01*
X-4355820Y29244D01*
X-4287202Y108308D01*
X-4222754Y148165D01*
X-4112328Y183108D01*
X-4009547Y179654D01*
X-3919868Y138657D01*
X-3871959Y93220D01*
X-3857699Y80540D01*
X-3847841Y87614D01*
X-3840867Y120495D01*
X-3835259Y185232D01*
X-3831167Y255866D01*
X-3825551Y348905D01*
X-3819145Y407837D01*
X-3809634Y440860D01*
X-3794700Y456175D01*
X-3772958Y461847D01*
X-3725333Y468611D01*
X-3725333Y-529167D01*
G36*
X-3124475Y179356D02*
G01*
X-3026232Y143363D01*
X-2944874Y76783D01*
X-2887531Y-16546D01*
X-2863003Y-113999D01*
X-2851995Y-211667D01*
X-3433589Y-211667D01*
X-3419956Y-269875D01*
X-3395535Y-321833D01*
X-3352209Y-377257D01*
X-3340555Y-388694D01*
X-3295408Y-425178D01*
X-3253033Y-440872D01*
X-3194420Y-441322D01*
X-3167931Y-439038D01*
X-3089710Y-424973D01*
X-3036847Y-396655D01*
X-3013219Y-373135D01*
X-2969514Y-336486D01*
X-2924550Y-318976D01*
X-2890339Y-322993D01*
X-2878667Y-346396D01*
X-2895461Y-393175D01*
X-2938103Y-447124D01*
X-2994982Y-495689D01*
X-3040291Y-521148D01*
X-3146359Y-546386D01*
X-3259323Y-542382D01*
X-3334800Y-520561D01*
X-3428510Y-458051D01*
X-3493578Y-366915D01*
X-3527944Y-251471D01*
X-3529551Y-116038D01*
X-3529181Y-112676D01*
X-3521679Y-83275D01*
X-3407833Y-83275D01*
X-3387198Y-94659D01*
X-3327117Y-102214D01*
X-3230331Y-105650D01*
X-3196167Y-105834D01*
X-3099449Y-105129D01*
X-3037490Y-102097D01*
X-3002725Y-95354D01*
X-2987590Y-83521D01*
X-2984500Y-67190D01*
X-3003257Y-17365D01*
X-3051430Y30406D01*
X-3116875Y66024D01*
X-3158105Y77159D01*
X-3237680Y74548D01*
X-3312771Y46156D01*
X-3372204Y-839D01*
X-3404804Y-59259D01*
X-3407833Y-83275D01*
X-3521679Y-83275D01*
X-3502622Y-8597D01*
X-3445860Y72672D01*
X-3353356Y138778D01*
X-3343094Y144242D01*
X-3232473Y180927D01*
X-3124475Y179356D01*
G37*
X-3124475Y179356D02*
X-3026232Y143363D01*
X-2944874Y76783D01*
X-2887531Y-16546D01*
X-2863003Y-113999D01*
X-2851995Y-211667D01*
X-3433589Y-211667D01*
X-3419956Y-269875D01*
X-3395535Y-321833D01*
X-3352209Y-377257D01*
X-3340555Y-388694D01*
X-3295408Y-425178D01*
X-3253033Y-440872D01*
X-3194420Y-441322D01*
X-3167931Y-439038D01*
X-3089710Y-424973D01*
X-3036847Y-396655D01*
X-3013219Y-373135D01*
X-2969514Y-336486D01*
X-2924550Y-318976D01*
X-2890339Y-322993D01*
X-2878667Y-346396D01*
X-2895461Y-393175D01*
X-2938103Y-447124D01*
X-2994982Y-495689D01*
X-3040291Y-521148D01*
X-3146359Y-546386D01*
X-3259323Y-542382D01*
X-3334800Y-520561D01*
X-3428510Y-458051D01*
X-3493578Y-366915D01*
X-3527944Y-251471D01*
X-3529551Y-116038D01*
X-3529181Y-112676D01*
X-3521679Y-83275D01*
X-3407833Y-83275D01*
X-3387198Y-94659D01*
X-3327117Y-102214D01*
X-3230331Y-105650D01*
X-3196167Y-105834D01*
X-3099449Y-105129D01*
X-3037490Y-102097D01*
X-3002725Y-95354D01*
X-2987590Y-83521D01*
X-2984500Y-67190D01*
X-3003257Y-17365D01*
X-3051430Y30406D01*
X-3116875Y66024D01*
X-3158105Y77159D01*
X-3237680Y74548D01*
X-3312771Y46156D01*
X-3372204Y-839D01*
X-3404804Y-59259D01*
X-3407833Y-83275D01*
X-3521679Y-83275D01*
X-3502622Y-8597D01*
X-3445860Y72672D01*
X-3353356Y138778D01*
X-3343094Y144242D01*
X-3232473Y180927D01*
X-3124475Y179356D01*
G36*
X398169Y154928D02*
G01*
X415378Y146894D01*
X497239Y85544D01*
X558106Y-2846D01*
X589893Y-104998D01*
X592667Y-144266D01*
X592667Y-211667D01*
X42333Y-211667D01*
X42333Y-266212D01*
X58626Y-320892D01*
X100848Y-379207D01*
X104205Y-382628D01*
X154682Y-423752D01*
X209299Y-441520D01*
X264583Y-444500D01*
X335604Y-438711D01*
X386970Y-415655D01*
X426590Y-381000D01*
X486523Y-333249D01*
X533737Y-316299D01*
X562079Y-326881D01*
X565399Y-361725D01*
X537543Y-417563D01*
X525613Y-433627D01*
X448614Y-499534D01*
X349106Y-538828D01*
X239465Y-548879D01*
X132070Y-527054D01*
X116417Y-520647D01*
X26448Y-460047D01*
X-36570Y-375217D01*
X-72492Y-274696D01*
X-81169Y-167021D01*
X-65154Y-76045D01*
X43376Y-76045D01*
X63799Y-93139D01*
X114206Y-102126D01*
X199411Y-105486D01*
X263919Y-105834D01*
X362710Y-105249D01*
X426098Y-102675D01*
X461008Y-96881D01*
X474363Y-86638D01*
X473087Y-70715D01*
X472431Y-68792D01*
X426686Y5357D01*
X357365Y54553D01*
X275208Y77152D01*
X190950Y71508D01*
X115331Y35977D01*
X73240Y-7627D01*
X48128Y-48368D01*
X43376Y-76045D01*
X-65154Y-76045D01*
X-62457Y-60729D01*
X-16208Y35642D01*
X57724Y113554D01*
X105026Y142875D01*
X206813Y181556D01*
X299562Y185509D01*
X398169Y154928D01*
G37*
X398169Y154928D02*
X415378Y146894D01*
X497239Y85544D01*
X558106Y-2846D01*
X589893Y-104998D01*
X592667Y-144266D01*
X592667Y-211667D01*
X42333Y-211667D01*
X42333Y-266212D01*
X58626Y-320892D01*
X100848Y-379207D01*
X104205Y-382628D01*
X154682Y-423752D01*
X209299Y-441520D01*
X264583Y-444500D01*
X335604Y-438711D01*
X386970Y-415655D01*
X426590Y-381000D01*
X486523Y-333249D01*
X533737Y-316299D01*
X562079Y-326881D01*
X565399Y-361725D01*
X537543Y-417563D01*
X525613Y-433627D01*
X448614Y-499534D01*
X349106Y-538828D01*
X239465Y-548879D01*
X132070Y-527054D01*
X116417Y-520647D01*
X26448Y-460047D01*
X-36570Y-375217D01*
X-72492Y-274696D01*
X-81169Y-167021D01*
X-65154Y-76045D01*
X43376Y-76045D01*
X63799Y-93139D01*
X114206Y-102126D01*
X199411Y-105486D01*
X263919Y-105834D01*
X362710Y-105249D01*
X426098Y-102675D01*
X461008Y-96881D01*
X474363Y-86638D01*
X473087Y-70715D01*
X472431Y-68792D01*
X426686Y5357D01*
X357365Y54553D01*
X275208Y77152D01*
X190950Y71508D01*
X115331Y35977D01*
X73240Y-7627D01*
X48128Y-48368D01*
X43376Y-76045D01*
X-65154Y-76045D01*
X-62457Y-60729D01*
X-16208Y35642D01*
X57724Y113554D01*
X105026Y142875D01*
X206813Y181556D01*
X299562Y185509D01*
X398169Y154928D01*
G36*
X2045768Y180716D02*
G01*
X2108788Y158639D01*
X2164659Y121541D01*
X2208779Y76498D01*
X2236549Y30589D01*
X2243366Y-9106D01*
X2224630Y-35510D01*
X2190750Y-42334D01*
X2148752Y-31688D01*
X2137833Y-11784D01*
X2119216Y30963D01*
X2071665Y62365D01*
X2007634Y79982D01*
X1939575Y81376D01*
X1879942Y64107D01*
X1853508Y43908D01*
X1824433Y-7841D01*
X1836964Y-52634D01*
X1890926Y-90330D01*
X1986145Y-120785D01*
X2077478Y-137754D01*
X2173877Y-167028D01*
X2235941Y-220792D01*
X2263388Y-298765D01*
X2264833Y-325629D01*
X2246494Y-419700D01*
X2192789Y-491013D01*
X2123839Y-530464D01*
X2034833Y-548023D01*
X1932485Y-544663D01*
X1839544Y-521589D01*
X1823802Y-514575D01*
X1742560Y-454891D01*
X1691521Y-368125D01*
X1684069Y-345666D01*
X1683013Y-306684D01*
X1716188Y-285224D01*
X1717971Y-284649D01*
X1761171Y-282118D01*
X1775232Y-298613D01*
X1795807Y-331836D01*
X1834234Y-376760D01*
X1843332Y-386088D01*
X1905849Y-427273D01*
X1978346Y-444109D01*
X2050268Y-438551D01*
X2111062Y-412554D01*
X2150173Y-368072D01*
X2159000Y-327628D01*
X2146084Y-282121D01*
X2103943Y-249693D01*
X2027483Y-227342D01*
X1974645Y-218988D01*
X1858935Y-191719D01*
X1775141Y-146565D01*
X1725551Y-87111D01*
X1712456Y-16943D01*
X1738145Y60353D01*
X1768692Y103489D01*
X1845031Y162531D01*
X1944111Y187497D01*
X2045768Y180716D01*
G37*
X2045768Y180716D02*
X2108788Y158639D01*
X2164659Y121541D01*
X2208779Y76498D01*
X2236549Y30589D01*
X2243366Y-9106D01*
X2224630Y-35510D01*
X2190750Y-42334D01*
X2148752Y-31688D01*
X2137833Y-11784D01*
X2119216Y30963D01*
X2071665Y62365D01*
X2007634Y79982D01*
X1939575Y81376D01*
X1879942Y64107D01*
X1853508Y43908D01*
X1824433Y-7841D01*
X1836964Y-52634D01*
X1890926Y-90330D01*
X1986145Y-120785D01*
X2077478Y-137754D01*
X2173877Y-167028D01*
X2235941Y-220792D01*
X2263388Y-298765D01*
X2264833Y-325629D01*
X2246494Y-419700D01*
X2192789Y-491013D01*
X2123839Y-530464D01*
X2034833Y-548023D01*
X1932485Y-544663D01*
X1839544Y-521589D01*
X1823802Y-514575D01*
X1742560Y-454891D01*
X1691521Y-368125D01*
X1684069Y-345666D01*
X1683013Y-306684D01*
X1716188Y-285224D01*
X1717971Y-284649D01*
X1761171Y-282118D01*
X1775232Y-298613D01*
X1795807Y-331836D01*
X1834234Y-376760D01*
X1843332Y-386088D01*
X1905849Y-427273D01*
X1978346Y-444109D01*
X2050268Y-438551D01*
X2111062Y-412554D01*
X2150173Y-368072D01*
X2159000Y-327628D01*
X2146084Y-282121D01*
X2103943Y-249693D01*
X2027483Y-227342D01*
X1974645Y-218988D01*
X1858935Y-191719D01*
X1775141Y-146565D01*
X1725551Y-87111D01*
X1712456Y-16943D01*
X1738145Y60353D01*
X1768692Y103489D01*
X1845031Y162531D01*
X1944111Y187497D01*
X2045768Y180716D01*
G36*
X2910774Y181747D02*
G01*
X3007340Y147313D01*
X3098064Y79514D01*
X3155009Y-11704D01*
X3174920Y-121115D01*
X3174921Y-121709D01*
X3175000Y-211667D01*
X2899833Y-211667D01*
X2781542Y-212211D01*
X2700286Y-215499D01*
X2650768Y-224009D01*
X2627689Y-240224D01*
X2625751Y-266624D01*
X2639659Y-305689D01*
X2649954Y-328675D01*
X2700319Y-391022D01*
X2779414Y-431400D01*
X2869149Y-444500D01*
X2932504Y-434809D01*
X2989054Y-399959D01*
X3016390Y-374510D01*
X3066292Y-330892D01*
X3104019Y-316381D01*
X3132003Y-321397D01*
X3161128Y-334803D01*
X3165492Y-353360D01*
X3146382Y-391120D01*
X3139463Y-402877D01*
X3082787Y-474167D01*
X3008562Y-518244D01*
X2906868Y-540485D01*
X2881267Y-542871D01*
X2781272Y-542581D01*
X2704903Y-522288D01*
X2692785Y-516484D01*
X2617196Y-466393D01*
X2567482Y-402630D01*
X2539631Y-316834D01*
X2529630Y-200645D01*
X2529417Y-176015D01*
X2530466Y-88734D01*
X2530692Y-86291D01*
X2624667Y-86291D01*
X2644372Y-94313D01*
X2697660Y-100739D01*
X2775787Y-104801D01*
X2846917Y-105834D01*
X2953451Y-103817D01*
X3027551Y-98034D01*
X3065191Y-88879D01*
X3069167Y-83922D01*
X3052338Y-35971D01*
X3010436Y15854D01*
X2956331Y56661D01*
X2941487Y63781D01*
X2850186Y80266D01*
X2760183Y59207D01*
X2684234Y3816D01*
X2678859Y-2344D01*
X2644263Y-47989D01*
X2625679Y-81329D01*
X2624667Y-86291D01*
X2530692Y-86291D01*
X2535771Y-31520D01*
X2548561Y7879D01*
X2572071Y41719D01*
X2592917Y64717D01*
X2692007Y144761D01*
X2798825Y183943D01*
X2910774Y181747D01*
G37*
X2910774Y181747D02*
X3007340Y147313D01*
X3098064Y79514D01*
X3155009Y-11704D01*
X3174920Y-121115D01*
X3174921Y-121709D01*
X3175000Y-211667D01*
X2899833Y-211667D01*
X2781542Y-212211D01*
X2700286Y-215499D01*
X2650768Y-224009D01*
X2627689Y-240224D01*
X2625751Y-266624D01*
X2639659Y-305689D01*
X2649954Y-328675D01*
X2700319Y-391022D01*
X2779414Y-431400D01*
X2869149Y-444500D01*
X2932504Y-434809D01*
X2989054Y-399959D01*
X3016390Y-374510D01*
X3066292Y-330892D01*
X3104019Y-316381D01*
X3132003Y-321397D01*
X3161128Y-334803D01*
X3165492Y-353360D01*
X3146382Y-391120D01*
X3139463Y-402877D01*
X3082787Y-474167D01*
X3008562Y-518244D01*
X2906868Y-540485D01*
X2881267Y-542871D01*
X2781272Y-542581D01*
X2704903Y-522288D01*
X2692785Y-516484D01*
X2617196Y-466393D01*
X2567482Y-402630D01*
X2539631Y-316834D01*
X2529630Y-200645D01*
X2529417Y-176015D01*
X2530466Y-88734D01*
X2530692Y-86291D01*
X2624667Y-86291D01*
X2644372Y-94313D01*
X2697660Y-100739D01*
X2775787Y-104801D01*
X2846917Y-105834D01*
X2953451Y-103817D01*
X3027551Y-98034D01*
X3065191Y-88879D01*
X3069167Y-83922D01*
X3052338Y-35971D01*
X3010436Y15854D01*
X2956331Y56661D01*
X2941487Y63781D01*
X2850186Y80266D01*
X2760183Y59207D01*
X2684234Y3816D01*
X2678859Y-2344D01*
X2644263Y-47989D01*
X2625679Y-81329D01*
X2624667Y-86291D01*
X2530692Y-86291D01*
X2535771Y-31520D01*
X2548561Y7879D01*
X2572071Y41719D01*
X2592917Y64717D01*
X2692007Y144761D01*
X2798825Y183943D01*
X2910774Y181747D01*
G36*
X3798372Y179867D02*
G01*
X3898871Y136640D01*
X3962412Y85401D01*
X4007442Y31023D01*
X4036055Y-21598D01*
X4044866Y-63020D01*
X4030488Y-83800D01*
X4023398Y-84667D01*
X3987925Y-91649D01*
X3970481Y-97515D01*
X3942060Y-95593D01*
X3937000Y-77528D01*
X3918075Y-22639D01*
X3869320Y28301D01*
X3802761Y65015D01*
X3757050Y76221D01*
X3661746Y72115D01*
X3583477Y32269D01*
X3519593Y-40480D01*
X3479048Y-133067D01*
X3475152Y-226444D01*
X3503641Y-312436D01*
X3560254Y-382862D01*
X3640729Y-429545D01*
X3730156Y-444500D01*
X3820655Y-424923D01*
X3893362Y-367882D01*
X3926114Y-318086D01*
X3957709Y-275187D01*
X3994265Y-267617D01*
X4000076Y-268923D01*
X4035509Y-291884D01*
X4037859Y-335555D01*
X4007264Y-402925D01*
X4006254Y-404642D01*
X3941806Y-474687D01*
X3850290Y-522358D01*
X3742365Y-544483D01*
X3628691Y-537890D01*
X3590275Y-528438D01*
X3496621Y-479435D01*
X3425014Y-398795D01*
X3379867Y-293367D01*
X3365500Y-179753D01*
X3383220Y-61308D01*
X3431823Y37782D01*
X3504474Y114480D01*
X3594339Y165751D01*
X3694584Y188559D01*
X3798372Y179867D01*
G37*
X3798372Y179867D02*
X3898871Y136640D01*
X3962412Y85401D01*
X4007442Y31023D01*
X4036055Y-21598D01*
X4044866Y-63020D01*
X4030488Y-83800D01*
X4023398Y-84667D01*
X3987925Y-91649D01*
X3970481Y-97515D01*
X3942060Y-95593D01*
X3937000Y-77528D01*
X3918075Y-22639D01*
X3869320Y28301D01*
X3802761Y65015D01*
X3757050Y76221D01*
X3661746Y72115D01*
X3583477Y32269D01*
X3519593Y-40480D01*
X3479048Y-133067D01*
X3475152Y-226444D01*
X3503641Y-312436D01*
X3560254Y-382862D01*
X3640729Y-429545D01*
X3730156Y-444500D01*
X3820655Y-424923D01*
X3893362Y-367882D01*
X3926114Y-318086D01*
X3957709Y-275187D01*
X3994265Y-267617D01*
X4000076Y-268923D01*
X4035509Y-291884D01*
X4037859Y-335555D01*
X4007264Y-402925D01*
X4006254Y-404642D01*
X3941806Y-474687D01*
X3850290Y-522358D01*
X3742365Y-544483D01*
X3628691Y-537890D01*
X3590275Y-528438D01*
X3496621Y-479435D01*
X3425014Y-398795D01*
X3379867Y-293367D01*
X3365500Y-179753D01*
X3383220Y-61308D01*
X3431823Y37782D01*
X3504474Y114480D01*
X3594339Y165751D01*
X3694584Y188559D01*
X3798372Y179867D01*
G36*
X4685205Y168337D02*
G01*
X4728360Y149324D01*
X4825071Y84356D01*
X4887337Y-2054D01*
X4917382Y-113713D01*
X4921018Y-179917D01*
X4907687Y-304070D01*
X4865681Y-399925D01*
X4792037Y-472816D01*
X4741656Y-502709D01*
X4625572Y-543157D01*
X4513876Y-542562D01*
X4402934Y-502181D01*
X4317212Y-439891D01*
X4262855Y-357412D01*
X4236763Y-248817D01*
X4235328Y-219207D01*
X4344674Y-219207D01*
X4370978Y-317850D01*
X4423493Y-390794D01*
X4494474Y-434978D01*
X4576173Y-447343D01*
X4660844Y-424828D01*
X4732867Y-372534D01*
X4776116Y-324041D01*
X4797507Y-279111D01*
X4804445Y-218621D01*
X4804833Y-186743D01*
X4794175Y-84365D01*
X4759057Y-10550D01*
X4694766Y43586D01*
X4677599Y53037D01*
X4585252Y81288D01*
X4500105Y71991D01*
X4427984Y29911D01*
X4374715Y-40189D01*
X4346122Y-133547D01*
X4344674Y-219207D01*
X4235328Y-219207D01*
X4233333Y-178086D01*
X4250462Y-49842D01*
X4300367Y53421D01*
X4380828Y129037D01*
X4489627Y174338D01*
X4533366Y182454D01*
X4613239Y185915D01*
X4685205Y168337D01*
G37*
X4685205Y168337D02*
X4728360Y149324D01*
X4825071Y84356D01*
X4887337Y-2054D01*
X4917382Y-113713D01*
X4921018Y-179917D01*
X4907687Y-304070D01*
X4865681Y-399925D01*
X4792037Y-472816D01*
X4741656Y-502709D01*
X4625572Y-543157D01*
X4513876Y-542562D01*
X4402934Y-502181D01*
X4317212Y-439891D01*
X4262855Y-357412D01*
X4236763Y-248817D01*
X4235328Y-219207D01*
X4344674Y-219207D01*
X4370978Y-317850D01*
X4423493Y-390794D01*
X4494474Y-434978D01*
X4576173Y-447343D01*
X4660844Y-424828D01*
X4732867Y-372534D01*
X4776116Y-324041D01*
X4797507Y-279111D01*
X4804445Y-218621D01*
X4804833Y-186743D01*
X4794175Y-84365D01*
X4759057Y-10550D01*
X4694766Y43586D01*
X4677599Y53037D01*
X4585252Y81288D01*
X4500105Y71991D01*
X4427984Y29911D01*
X4374715Y-40189D01*
X4346122Y-133547D01*
X4344674Y-219207D01*
X4235328Y-219207D01*
X4233333Y-178086D01*
X4250462Y-49842D01*
X4300367Y53421D01*
X4380828Y129037D01*
X4489627Y174338D01*
X4533366Y182454D01*
X4613239Y185915D01*
X4685205Y168337D01*
G36*
X6588125Y461847D02*
G01*
X6635750Y455083D01*
X6641432Y-37042D01*
X6647113Y-529167D01*
X6593807Y-529167D01*
X6554168Y-521258D01*
X6541055Y-489038D01*
X6540500Y-472561D01*
X6540500Y-415954D01*
X6492875Y-459332D01*
X6393992Y-525664D01*
X6289318Y-550159D01*
X6179577Y-532689D01*
X6148917Y-520647D01*
X6060015Y-460015D01*
X5996599Y-373234D01*
X5960165Y-269031D01*
X5952948Y-166650D01*
X6071860Y-166650D01*
X6080409Y-260230D01*
X6113094Y-344028D01*
X6168449Y-405824D01*
X6182996Y-414962D01*
X6271703Y-441531D01*
X6367245Y-432703D01*
X6401624Y-420071D01*
X6472551Y-366819D01*
X6516293Y-290455D01*
X6532257Y-200802D01*
X6519848Y-107687D01*
X6478475Y-20936D01*
X6428996Y33273D01*
X6349645Y75429D01*
X6264415Y78706D01*
X6181824Y44033D01*
X6133042Y973D01*
X6088915Y-75509D01*
X6071860Y-166650D01*
X5952948Y-166650D01*
X5952206Y-156136D01*
X5974217Y-43276D01*
X6027692Y60820D01*
X6045456Y83627D01*
X6121586Y145301D01*
X6215143Y178985D01*
X6314153Y183791D01*
X6406641Y158835D01*
X6469744Y115014D01*
X6506841Y80423D01*
X6529631Y63767D01*
X6530879Y63500D01*
X6534999Y83139D01*
X6538238Y135949D01*
X6540160Y212770D01*
X6540500Y266055D01*
X6540927Y359556D01*
X6543445Y418345D01*
X6549908Y450045D01*
X6562169Y462276D01*
X6582083Y462659D01*
X6588125Y461847D01*
G37*
X6588125Y461847D02*
X6635750Y455083D01*
X6641432Y-37042D01*
X6647113Y-529167D01*
X6593807Y-529167D01*
X6554168Y-521258D01*
X6541055Y-489038D01*
X6540500Y-472561D01*
X6540500Y-415954D01*
X6492875Y-459332D01*
X6393992Y-525664D01*
X6289318Y-550159D01*
X6179577Y-532689D01*
X6148917Y-520647D01*
X6060015Y-460015D01*
X5996599Y-373234D01*
X5960165Y-269031D01*
X5952948Y-166650D01*
X6071860Y-166650D01*
X6080409Y-260230D01*
X6113094Y-344028D01*
X6168449Y-405824D01*
X6182996Y-414962D01*
X6271703Y-441531D01*
X6367245Y-432703D01*
X6401624Y-420071D01*
X6472551Y-366819D01*
X6516293Y-290455D01*
X6532257Y-200802D01*
X6519848Y-107687D01*
X6478475Y-20936D01*
X6428996Y33273D01*
X6349645Y75429D01*
X6264415Y78706D01*
X6181824Y44033D01*
X6133042Y973D01*
X6088915Y-75509D01*
X6071860Y-166650D01*
X5952948Y-166650D01*
X5952206Y-156136D01*
X5974217Y-43276D01*
X6027692Y60820D01*
X6045456Y83627D01*
X6121586Y145301D01*
X6215143Y178985D01*
X6314153Y183791D01*
X6406641Y158835D01*
X6469744Y115014D01*
X6506841Y80423D01*
X6529631Y63767D01*
X6530879Y63500D01*
X6534999Y83139D01*
X6538238Y135949D01*
X6540160Y212770D01*
X6540500Y266055D01*
X6540927Y359556D01*
X6543445Y418345D01*
X6549908Y450045D01*
X6562169Y462276D01*
X6582083Y462659D01*
X6588125Y461847D01*
G36*
X7213490Y-371296D02*
G01*
X7234767Y-385234D01*
X7255973Y-426500D01*
X7260167Y-455084D01*
X7248704Y-503657D01*
X7234767Y-524934D01*
X7193500Y-546140D01*
X7164917Y-550334D01*
X7116343Y-538871D01*
X7095067Y-524934D01*
X7073860Y-483667D01*
X7069667Y-455084D01*
X7081129Y-406510D01*
X7095067Y-385234D01*
X7136333Y-364027D01*
X7164917Y-359834D01*
X7213490Y-371296D01*
G37*
X7213490Y-371296D02*
X7234767Y-385234D01*
X7255973Y-426500D01*
X7260167Y-455084D01*
X7248704Y-503657D01*
X7234767Y-524934D01*
X7193500Y-546140D01*
X7164917Y-550334D01*
X7116343Y-538871D01*
X7095067Y-524934D01*
X7073860Y-483667D01*
X7069667Y-455084D01*
X7081129Y-406510D01*
X7095067Y-385234D01*
X7136333Y-364027D01*
X7164917Y-359834D01*
X7213490Y-371296D01*
G36*
X-4868333Y-423334D02*
G01*
X-4741333Y-423334D01*
X-4670948Y-424454D01*
X-4632948Y-430576D01*
X-4617390Y-445843D01*
X-4614336Y-474395D01*
X-4614333Y-476250D01*
X-4614333Y-529167D01*
X-5228167Y-529167D01*
X-5228167Y-476250D01*
X-5225478Y-446923D01*
X-5210784Y-431089D01*
X-5174144Y-424607D01*
X-5105618Y-423335D01*
X-5101167Y-423334D01*
X-4974167Y-423334D01*
X-4974167Y359833D01*
X-5102639Y359833D01*
X-5173349Y360944D01*
X-5211028Y366700D01*
X-5224966Y380737D01*
X-5224456Y406690D01*
X-5224347Y407458D01*
X-5217946Y430999D01*
X-5201064Y445686D01*
X-5164903Y454129D01*
X-5100663Y458936D01*
X-5042958Y461231D01*
X-4868333Y467379D01*
X-4868333Y-423334D01*
G37*
X-4868333Y-423334D02*
X-4741333Y-423334D01*
X-4670948Y-424454D01*
X-4632948Y-430576D01*
X-4617390Y-445843D01*
X-4614336Y-474395D01*
X-4614333Y-476250D01*
X-4614333Y-529167D01*
X-5228167Y-529167D01*
X-5228167Y-476250D01*
X-5225478Y-446923D01*
X-5210784Y-431089D01*
X-5174144Y-424607D01*
X-5105618Y-423335D01*
X-5101167Y-423334D01*
X-4974167Y-423334D01*
X-4974167Y359833D01*
X-5102639Y359833D01*
X-5173349Y360944D01*
X-5211028Y366700D01*
X-5224966Y380737D01*
X-5224456Y406690D01*
X-5224347Y407458D01*
X-5217946Y430999D01*
X-5201064Y445686D01*
X-5164903Y454129D01*
X-5100663Y458936D01*
X-5042958Y461231D01*
X-4868333Y467379D01*
X-4868333Y-423334D01*
G36*
X-2139547Y172360D02*
G01*
X-2065343Y126496D01*
X-2013756Y52703D01*
X-1997114Y-4641D01*
X-1992392Y-55033D01*
X-2005330Y-78700D01*
X-2040286Y-89408D01*
X-2081397Y-90987D01*
X-2095058Y-69289D01*
X-2095500Y-59603D01*
X-2113293Y-9492D01*
X-2157031Y39924D01*
X-2212252Y75326D01*
X-2252108Y84666D01*
X-2303874Y71083D01*
X-2358894Y38032D01*
X-2363095Y34529D01*
X-2390418Y8215D01*
X-2408144Y-20636D01*
X-2418944Y-62073D01*
X-2425489Y-126148D01*
X-2430242Y-218134D01*
X-2439099Y-420658D01*
X-2346675Y-427288D01*
X-2287066Y-435173D01*
X-2257857Y-451859D01*
X-2247486Y-481542D01*
X-2246110Y-502674D01*
X-2254043Y-516399D01*
X-2278566Y-524313D01*
X-2326960Y-528015D01*
X-2406506Y-529103D01*
X-2464445Y-529167D01*
X-2688167Y-529167D01*
X-2688167Y-476250D01*
X-2682632Y-440465D01*
X-2657724Y-425815D01*
X-2614083Y-423334D01*
X-2540000Y-423334D01*
X-2540000Y63500D01*
X-2614083Y63500D01*
X-2664183Y67453D01*
X-2684693Y85245D01*
X-2688167Y116416D01*
X-2685478Y145744D01*
X-2670784Y161577D01*
X-2634144Y168059D01*
X-2565618Y169332D01*
X-2561167Y169333D01*
X-2490235Y167789D01*
X-2451907Y161003D01*
X-2436502Y145750D01*
X-2434167Y127000D01*
X-2425303Y92605D01*
X-2413000Y84666D01*
X-2392502Y100821D01*
X-2391833Y106176D01*
X-2374534Y128396D01*
X-2331767Y156042D01*
X-2320105Y161890D01*
X-2227444Y185692D01*
X-2139547Y172360D01*
G37*
X-2139547Y172360D02*
X-2065343Y126496D01*
X-2013756Y52703D01*
X-1997114Y-4641D01*
X-1992392Y-55033D01*
X-2005330Y-78700D01*
X-2040286Y-89408D01*
X-2081397Y-90987D01*
X-2095058Y-69289D01*
X-2095500Y-59603D01*
X-2113293Y-9492D01*
X-2157031Y39924D01*
X-2212252Y75326D01*
X-2252108Y84666D01*
X-2303874Y71083D01*
X-2358894Y38032D01*
X-2363095Y34529D01*
X-2390418Y8215D01*
X-2408144Y-20636D01*
X-2418944Y-62073D01*
X-2425489Y-126148D01*
X-2430242Y-218134D01*
X-2439099Y-420658D01*
X-2346675Y-427288D01*
X-2287066Y-435173D01*
X-2257857Y-451859D01*
X-2247486Y-481542D01*
X-2246110Y-502674D01*
X-2254043Y-516399D01*
X-2278566Y-524313D01*
X-2326960Y-528015D01*
X-2406506Y-529103D01*
X-2464445Y-529167D01*
X-2688167Y-529167D01*
X-2688167Y-476250D01*
X-2682632Y-440465D01*
X-2657724Y-425815D01*
X-2614083Y-423334D01*
X-2540000Y-423334D01*
X-2540000Y63500D01*
X-2614083Y63500D01*
X-2664183Y67453D01*
X-2684693Y85245D01*
X-2688167Y116416D01*
X-2685478Y145744D01*
X-2670784Y161577D01*
X-2634144Y168059D01*
X-2565618Y169332D01*
X-2561167Y169333D01*
X-2490235Y167789D01*
X-2451907Y161003D01*
X-2436502Y145750D01*
X-2434167Y127000D01*
X-2425303Y92605D01*
X-2413000Y84666D01*
X-2392502Y100821D01*
X-2391833Y106176D01*
X-2374534Y128396D01*
X-2331767Y156042D01*
X-2320105Y161890D01*
X-2227444Y185692D01*
X-2139547Y172360D01*
G36*
X-673581Y183339D02*
G01*
X-612174Y144620D01*
X-609299Y141478D01*
X-565634Y92457D01*
X-516613Y141478D01*
X-450637Y183002D01*
X-379251Y183071D01*
X-305480Y141714D01*
X-302805Y139442D01*
X-279713Y118510D01*
X-263380Y97050D01*
X-252425Y67606D01*
X-245465Y22720D01*
X-241119Y-45065D01*
X-238006Y-143207D01*
X-236140Y-220391D01*
X-228864Y-529167D01*
X-359833Y-529167D01*
X-359833Y-247650D01*
X-361082Y-120863D01*
X-365836Y-30481D01*
X-375613Y29376D01*
X-391926Y64590D01*
X-416292Y81040D01*
X-445453Y84666D01*
X-486049Y69948D01*
X-515303Y45958D01*
X-530399Y21971D01*
X-540591Y-15580D01*
X-546736Y-74198D01*
X-549691Y-161382D01*
X-550333Y-260959D01*
X-550333Y-529167D01*
X-656167Y-529167D01*
X-656167Y-255512D01*
X-658082Y-124318D01*
X-664988Y-30168D01*
X-678624Y32098D01*
X-700731Y67646D01*
X-733048Y81637D01*
X-769400Y80501D01*
X-807590Y65220D01*
X-835122Y28724D01*
X-853365Y-34011D01*
X-863682Y-128008D01*
X-867440Y-258292D01*
X-867521Y-280459D01*
X-867833Y-529167D01*
X-973667Y-529167D01*
X-973667Y169333D01*
X-920750Y169333D01*
X-878191Y158293D01*
X-867833Y137583D01*
X-862436Y110124D01*
X-842367Y114171D01*
X-804333Y148166D01*
X-741791Y184664D01*
X-673581Y183339D01*
G37*
X-673581Y183339D02*
X-612174Y144620D01*
X-609299Y141478D01*
X-565634Y92457D01*
X-516613Y141478D01*
X-450637Y183002D01*
X-379251Y183071D01*
X-305480Y141714D01*
X-302805Y139442D01*
X-279713Y118510D01*
X-263380Y97050D01*
X-252425Y67606D01*
X-245465Y22720D01*
X-241119Y-45065D01*
X-238006Y-143207D01*
X-236140Y-220391D01*
X-228864Y-529167D01*
X-359833Y-529167D01*
X-359833Y-247650D01*
X-361082Y-120863D01*
X-365836Y-30481D01*
X-375613Y29376D01*
X-391926Y64590D01*
X-416292Y81040D01*
X-445453Y84666D01*
X-486049Y69948D01*
X-515303Y45958D01*
X-530399Y21971D01*
X-540591Y-15580D01*
X-546736Y-74198D01*
X-549691Y-161382D01*
X-550333Y-260959D01*
X-550333Y-529167D01*
X-656167Y-529167D01*
X-656167Y-255512D01*
X-658082Y-124318D01*
X-664988Y-30168D01*
X-678624Y32098D01*
X-700731Y67646D01*
X-733048Y81637D01*
X-769400Y80501D01*
X-807590Y65220D01*
X-835122Y28724D01*
X-853365Y-34011D01*
X-863682Y-128008D01*
X-867440Y-258292D01*
X-867521Y-280459D01*
X-867833Y-529167D01*
X-973667Y-529167D01*
X-973667Y169333D01*
X-920750Y169333D01*
X-878191Y158293D01*
X-867833Y137583D01*
X-862436Y110124D01*
X-842367Y114171D01*
X-804333Y148166D01*
X-741791Y184664D01*
X-673581Y183339D01*
G36*
X5555653Y174086D02*
G01*
X5638359Y134635D01*
X5700489Y67738D01*
X5701600Y65858D01*
X5720497Y24972D01*
X5734016Y-28029D01*
X5743498Y-101842D01*
X5750285Y-205162D01*
X5752948Y-266967D01*
X5763049Y-529167D01*
X5630333Y-529167D01*
X5630333Y-274205D01*
X5629902Y-166070D01*
X5627593Y-91630D01*
X5621885Y-42248D01*
X5611256Y-9289D01*
X5594186Y15884D01*
X5575807Y35283D01*
X5532696Y70506D01*
X5487694Y82027D01*
X5432966Y77963D01*
X5342901Y48918D01*
X5296991Y10712D01*
X5276196Y-17035D01*
X5262486Y-48600D01*
X5254412Y-93046D01*
X5250522Y-159436D01*
X5249365Y-256832D01*
X5249333Y-286930D01*
X5249333Y-529167D01*
X5122333Y-529167D01*
X5122333Y172145D01*
X5180542Y165447D01*
X5228068Y148225D01*
X5245686Y109809D01*
X5252622Y60867D01*
X5301595Y113710D01*
X5375520Y165029D01*
X5464123Y184686D01*
X5555653Y174086D01*
G37*
X5555653Y174086D02*
X5638359Y134635D01*
X5700489Y67738D01*
X5701600Y65858D01*
X5720497Y24972D01*
X5734016Y-28029D01*
X5743498Y-101842D01*
X5750285Y-205162D01*
X5752948Y-266967D01*
X5763049Y-529167D01*
X5630333Y-529167D01*
X5630333Y-274205D01*
X5629902Y-166070D01*
X5627593Y-91630D01*
X5621885Y-42248D01*
X5611256Y-9289D01*
X5594186Y15884D01*
X5575807Y35283D01*
X5532696Y70506D01*
X5487694Y82027D01*
X5432966Y77963D01*
X5342901Y48918D01*
X5296991Y10712D01*
X5276196Y-17035D01*
X5262486Y-48600D01*
X5254412Y-93046D01*
X5250522Y-159436D01*
X5249365Y-256832D01*
X5249333Y-286930D01*
X5249333Y-529167D01*
X5122333Y-529167D01*
X5122333Y172145D01*
X5180542Y165447D01*
X5228068Y148225D01*
X5245686Y109809D01*
X5252622Y60867D01*
X5301595Y113710D01*
X5375520Y165029D01*
X5464123Y184686D01*
X5555653Y174086D01*
G36*
X7217833Y-275167D02*
G01*
X7112000Y-275167D01*
X7112000Y465666D01*
X7217833Y465666D01*
X7217833Y-275167D01*
G37*
X7217833Y-275167D02*
X7112000Y-275167D01*
X7112000Y465666D01*
X7217833Y465666D01*
X7217833Y-275167D01*
G36*
X-18880667Y529166D02*
G01*
X-19452167Y529166D01*
X-19452167Y105833D01*
X-18880667Y105833D01*
X-18880667Y-169334D01*
X-19875500Y-169334D01*
X-19875500Y105833D01*
X-19601562Y105833D01*
X-19595656Y386291D01*
X-19589750Y666750D01*
X-19520958Y673383D01*
X-19473236Y682991D01*
X-19454733Y707670D01*
X-19452167Y742174D01*
X-19452167Y804333D01*
X-18880667Y804333D01*
X-18880667Y529166D01*
G37*
X-18880667Y529166D02*
X-19452167Y529166D01*
X-19452167Y105833D01*
X-18880667Y105833D01*
X-18880667Y-169334D01*
X-19875500Y-169334D01*
X-19875500Y105833D01*
X-19601562Y105833D01*
X-19595656Y386291D01*
X-19589750Y666750D01*
X-19520958Y673383D01*
X-19473236Y682991D01*
X-19454733Y707670D01*
X-19452167Y742174D01*
X-19452167Y804333D01*
X-18880667Y804333D01*
X-18880667Y529166D01*
G36*
X-19171708Y1942656D02*
G01*
X-18891250Y1936750D01*
X-18879772Y1100666D01*
X-18954303Y1100666D01*
X-19004154Y1097444D01*
X-19024677Y1079197D01*
X-19028821Y1033051D01*
X-19028833Y1026583D01*
X-19032110Y976930D01*
X-19050597Y956567D01*
X-19097278Y952509D01*
X-19102917Y952500D01*
X-19152570Y955776D01*
X-19172933Y974263D01*
X-19176991Y1020944D01*
X-19177000Y1026583D01*
X-19180540Y1076357D01*
X-19198495Y1096772D01*
X-19240500Y1100666D01*
X-19304000Y1100666D01*
X-19304000Y1651000D01*
X-19177000Y1651000D01*
X-19177000Y1453444D01*
X-19175577Y1365821D01*
X-19171760Y1294862D01*
X-19166229Y1250743D01*
X-19162889Y1241778D01*
X-19133283Y1231438D01*
X-19088806Y1227666D01*
X-19028833Y1227666D01*
X-19028833Y1651000D01*
X-19177000Y1651000D01*
X-19304000Y1651000D01*
X-19452167Y1651000D01*
X-19452167Y1100666D01*
X-19600333Y1100666D01*
X-19600333Y1799166D01*
X-19526250Y1799166D01*
X-19476736Y1802395D01*
X-19456323Y1820706D01*
X-19452180Y1867035D01*
X-19452167Y1873864D01*
X-19452167Y1948562D01*
X-19171708Y1942656D01*
G37*
X-19171708Y1942656D02*
X-18891250Y1936750D01*
X-18879772Y1100666D01*
X-18954303Y1100666D01*
X-19004154Y1097444D01*
X-19024677Y1079197D01*
X-19028821Y1033051D01*
X-19028833Y1026583D01*
X-19032110Y976930D01*
X-19050597Y956567D01*
X-19097278Y952509D01*
X-19102917Y952500D01*
X-19152570Y955776D01*
X-19172933Y974263D01*
X-19176991Y1020944D01*
X-19177000Y1026583D01*
X-19180540Y1076357D01*
X-19198495Y1096772D01*
X-19240500Y1100666D01*
X-19304000Y1100666D01*
X-19304000Y1651000D01*
X-19177000Y1651000D01*
X-19177000Y1453444D01*
X-19175577Y1365821D01*
X-19171760Y1294862D01*
X-19166229Y1250743D01*
X-19162889Y1241778D01*
X-19133283Y1231438D01*
X-19088806Y1227666D01*
X-19028833Y1227666D01*
X-19028833Y1651000D01*
X-19177000Y1651000D01*
X-19304000Y1651000D01*
X-19452167Y1651000D01*
X-19452167Y1100666D01*
X-19600333Y1100666D01*
X-19600333Y1799166D01*
X-19526250Y1799166D01*
X-19476736Y1802395D01*
X-19456323Y1820706D01*
X-19452180Y1867035D01*
X-19452167Y1873864D01*
X-19452167Y1948562D01*
X-19171708Y1942656D01*
G36*
X10646833Y1756833D02*
G01*
X-10541000Y1756833D01*
X-10541000Y2947458D01*
X-10090380Y2947458D01*
X-10083320Y2929836D01*
X-10040822Y2921977D01*
X-10008806Y2921263D01*
X-9916583Y2921526D01*
X-9802436Y3186465D01*
X-9759365Y3284274D01*
X-9720961Y3367496D01*
X-9690816Y3428632D01*
X-9672521Y3460183D01*
X-9670144Y3462618D01*
X-9665575Y3445223D01*
X-9661428Y3390584D01*
X-9657854Y3303788D01*
X-9655002Y3189926D01*
X-9653022Y3054083D01*
X-9652066Y2901350D01*
X-9652000Y2848166D01*
X-9652000Y2222500D01*
X-10075333Y2222500D01*
X-10075333Y2074333D01*
X-9059333Y2074333D01*
X-9059333Y2181703D01*
X-8424333Y2181703D01*
X-8406939Y2113783D01*
X-8362118Y2067067D01*
X-8300912Y2045087D01*
X-8234362Y2051376D01*
X-8173510Y2089468D01*
X-8165042Y2098747D01*
X-8132316Y2158068D01*
X-8138517Y2218245D01*
X-8171870Y2272562D01*
X-8228471Y2316522D01*
X-8293039Y2326651D01*
X-8354508Y2306932D01*
X-8401811Y2261348D01*
X-8423882Y2193880D01*
X-8424333Y2181703D01*
X-9059333Y2181703D01*
X-9059333Y2220967D01*
X-9472083Y2233083D01*
X-9477677Y2894541D01*
X-9481838Y3386666D01*
X-7495556Y3386666D01*
X-7070945Y3386666D01*
X-6942110Y3385915D01*
X-6829041Y3383817D01*
X-6738056Y3380610D01*
X-6675473Y3376530D01*
X-6647611Y3371814D01*
X-6646762Y3370791D01*
X-6663859Y3354281D01*
X-6710369Y3320259D01*
X-6779621Y3273353D01*
X-6864944Y3218190D01*
X-6884887Y3205609D01*
X-7122583Y3056301D01*
X-7122583Y2804583D01*
X-6962745Y2794000D01*
X-6834907Y2777093D01*
X-6743248Y2744008D01*
X-6683784Y2691948D01*
X-6652533Y2618116D01*
X-6646213Y2571750D01*
X-6643152Y2479511D01*
X-6652073Y2414650D01*
X-6677303Y2362910D01*
X-6723170Y2310033D01*
X-6726754Y2306432D01*
X-6820693Y2236224D01*
X-6924493Y2205894D01*
X-7042718Y2214299D01*
X-7068846Y2220621D01*
X-7180348Y2269534D01*
X-7261337Y2347032D01*
X-7309721Y2450324D01*
X-7323667Y2560487D01*
X-7323667Y2645833D01*
X-7493000Y2645833D01*
X-7493000Y2528737D01*
X-7474352Y2384433D01*
X-7419871Y2261340D01*
X-7331750Y2162064D01*
X-7212184Y2089214D01*
X-7090833Y2050727D01*
X-6990089Y2041973D01*
X-6874247Y2050906D01*
X-6765548Y2075257D01*
X-6732739Y2087240D01*
X-6619139Y2156509D01*
X-6532055Y2254764D01*
X-6476319Y2374633D01*
X-6456763Y2508250D01*
X-6475304Y2644384D01*
X-6475977Y2645833D01*
X-3640667Y2645833D01*
X-3640667Y2539320D01*
X-3620789Y2400718D01*
X-3564305Y2276929D01*
X-3475940Y2173607D01*
X-3360420Y2096405D01*
X-3234600Y2053390D01*
X-3126002Y2041739D01*
X-3004169Y2045877D01*
X-2888894Y2064260D01*
X-2856729Y2074333D01*
X-2307715Y2074333D01*
X-2116667Y2074333D01*
X-2116667Y2730500D01*
X-1481667Y2730500D01*
X-1481667Y2074333D01*
X-1312333Y2074333D01*
X-1312333Y2921000D01*
X-1032957Y2921000D01*
X-852787Y2921000D01*
X-740122Y3180291D01*
X-697097Y3277882D01*
X-658916Y3361843D01*
X-629256Y3424277D01*
X-611793Y3457286D01*
X-610062Y3459691D01*
X-605698Y3444576D01*
X-601735Y3392109D01*
X-598315Y3307270D01*
X-595581Y3195038D01*
X-593675Y3060395D01*
X-592739Y2908321D01*
X-592667Y2851150D01*
X-592667Y2222500D01*
X-1016000Y2222500D01*
X-1016000Y2074333D01*
X0Y2074333D01*
X0Y2222500D01*
X-401564Y2222500D01*
X-407615Y2938199D01*
X275167Y2938199D01*
X293856Y2927443D01*
X340679Y2924086D01*
X361490Y2925074D01*
X447813Y2931583D01*
X563001Y3194831D01*
X605912Y3291984D01*
X643116Y3374508D01*
X671205Y3434970D01*
X686773Y3465936D01*
X688345Y3468234D01*
X690898Y3450559D01*
X693216Y3395642D01*
X695215Y3308574D01*
X696811Y3194446D01*
X697921Y3058350D01*
X698461Y2905377D01*
X698500Y2850444D01*
X698500Y2222500D01*
X296333Y2222500D01*
X296333Y2074333D01*
X1312333Y2074333D01*
X1312333Y2222500D01*
X889000Y2222500D01*
X889000Y2926866D01*
X1568096Y2926866D01*
X1569191Y2758754D01*
X1569558Y2741083D01*
X1572630Y2613420D01*
X1576290Y2519829D01*
X1581813Y2452053D01*
X1590477Y2401838D01*
X1603557Y2360927D01*
X1622330Y2321064D01*
X1639337Y2289734D01*
X1684576Y2219727D01*
X1734691Y2159262D01*
X1765041Y2131989D01*
X1877521Y2075397D01*
X2009372Y2046101D01*
X2146859Y2045016D01*
X2276245Y2073056D01*
X2326612Y2094622D01*
X2425208Y2164275D01*
X2509107Y2259452D01*
X2564217Y2363559D01*
X2576727Y2419047D01*
X2585531Y2506099D01*
X2590845Y2628093D01*
X2591695Y2695027D01*
X2859413Y2695027D01*
X2862577Y2563567D01*
X2872229Y2460129D01*
X2889420Y2377673D01*
X2915205Y2309157D01*
X2950637Y2247540D01*
X2954323Y2242109D01*
X3023131Y2169196D01*
X3118002Y2104279D01*
X3222746Y2057928D01*
X3247481Y2050759D01*
X3351333Y2039912D01*
X3470396Y2051777D01*
X3586073Y2083593D01*
X3643317Y2109568D01*
X3752608Y2191040D01*
X3830312Y2299911D01*
X3877506Y2437692D01*
X3877738Y2438796D01*
X3889229Y2575566D01*
X3868801Y2707653D01*
X3828877Y2804583D01*
X5450906Y2804583D01*
X5451247Y2670476D01*
X5453004Y2570799D01*
X5456998Y2497654D01*
X5464049Y2443141D01*
X5474975Y2399363D01*
X5490597Y2358419D01*
X5499210Y2339180D01*
X5570864Y2216131D01*
X5659394Y2128161D01*
X5771806Y2069183D01*
X5831417Y2050646D01*
X5913160Y2041156D01*
X6015148Y2045593D01*
X6118342Y2062104D01*
X6158516Y2074333D01*
X6794500Y2074333D01*
X7747000Y2074333D01*
X8106833Y2074333D01*
X9017000Y2074333D01*
X9353111Y2074333D01*
X9689260Y2074333D01*
X9816597Y2074648D01*
X9909971Y2076314D01*
X9977752Y2080410D01*
X10028308Y2088016D01*
X10070010Y2100213D01*
X10111227Y2118081D01*
X10140329Y2132541D01*
X10223505Y2183302D01*
X10280818Y2242582D01*
X10308167Y2286000D01*
X10327479Y2323128D01*
X10341628Y2359538D01*
X10351586Y2402756D01*
X10358330Y2460309D01*
X10362834Y2539723D01*
X10366072Y2648526D01*
X10368167Y2749237D01*
X10369804Y2918628D01*
X10366764Y3052372D01*
X10358057Y3156993D01*
X10342691Y3239016D01*
X10319677Y3304966D01*
X10288024Y3361367D01*
X10271829Y3383890D01*
X10223257Y3437994D01*
X10166497Y3479077D01*
X10095023Y3509021D01*
X10002306Y3529709D01*
X9881821Y3543023D01*
X9727040Y3550847D01*
X9689042Y3551983D01*
X9355667Y3561058D01*
X9355667Y3473862D01*
X9357989Y3418530D01*
X9370768Y3393525D01*
X9402723Y3386874D01*
X9419167Y3386666D01*
X9482667Y3386666D01*
X9482667Y2246478D01*
X9424458Y2239781D01*
X9385160Y2229417D01*
X9366644Y2201619D01*
X9359680Y2153708D01*
X9353111Y2074333D01*
X9017000Y2074333D01*
X9017000Y2222500D01*
X8297333Y2222500D01*
X8297333Y2730500D01*
X8995833Y2730500D01*
X8995833Y2899833D01*
X8297333Y2899833D01*
X8297333Y3386666D01*
X9019555Y3386666D01*
X9006417Y3545416D01*
X8106833Y3556842D01*
X8106833Y2074333D01*
X7747000Y2074333D01*
X7747000Y2222500D01*
X6985603Y2222500D01*
X6974417Y3545416D01*
X6884458Y3551925D01*
X6794500Y3558434D01*
X6794500Y2074333D01*
X6158516Y2074333D01*
X6197814Y2086295D01*
X6293020Y2138465D01*
X6365917Y2208975D01*
X6419649Y2303462D01*
X6457359Y2427561D01*
X6482189Y2586910D01*
X6483413Y2598438D01*
X6493454Y2758542D01*
X6491663Y2918638D01*
X6478956Y3068870D01*
X6456252Y3199383D01*
X6424469Y3300321D01*
X6416429Y3317424D01*
X6336700Y3429239D01*
X6229045Y3511816D01*
X6098841Y3562052D01*
X5966544Y3577048D01*
X5817773Y3558564D01*
X5690957Y3503948D01*
X5587096Y3413847D01*
X5507185Y3288908D01*
X5500927Y3275365D01*
X5482503Y3231310D01*
X5469255Y3188701D01*
X5460332Y3139541D01*
X5454887Y3075829D01*
X5452067Y2989567D01*
X5451025Y2872756D01*
X5450906Y2804583D01*
X3828877Y2804583D01*
X3819847Y2826506D01*
X3745758Y2923571D01*
X3661180Y2984833D01*
X3528362Y3032668D01*
X3396991Y3042711D01*
X3273658Y3015788D01*
X3164956Y2952725D01*
X3127375Y2917909D01*
X3048000Y2834551D01*
X3048079Y3010067D01*
X3057617Y3149487D01*
X3087996Y3255366D01*
X3142080Y3332486D01*
X3222731Y3385632D01*
X3286438Y3408390D01*
X3392416Y3420041D01*
X3493247Y3398877D01*
X3580063Y3349816D01*
X3643994Y3277772D01*
X3675411Y3192795D01*
X3686024Y3140089D01*
X3704332Y3117257D01*
X3744188Y3113667D01*
X3775836Y3115715D01*
X3830803Y3121737D01*
X3854548Y3136327D01*
X3858105Y3170562D01*
X3855982Y3196166D01*
X3826666Y3302894D01*
X3764080Y3404132D01*
X3676695Y3487344D01*
X3645396Y3507812D01*
X3587259Y3538590D01*
X3533194Y3556356D01*
X3467737Y3564469D01*
X3376083Y3566288D01*
X3259077Y3560727D01*
X3169639Y3541009D01*
X3093947Y3501873D01*
X3018180Y3438056D01*
X3004889Y3424966D01*
X2958801Y3374721D01*
X2924317Y3324105D01*
X2899564Y3265752D01*
X2882671Y3192297D01*
X2871765Y3096376D01*
X2864974Y2970624D01*
X2861684Y2861553D01*
X2859413Y2695027D01*
X2591695Y2695027D01*
X2592881Y2788412D01*
X2592917Y2816697D01*
X2592917Y3188644D01*
X2529092Y3313408D01*
X2475100Y3402669D01*
X2413680Y3466211D01*
X2365453Y3499884D01*
X2241314Y3554654D01*
X2107500Y3576163D01*
X1973061Y3565891D01*
X1847046Y3525317D01*
X1738506Y3455920D01*
X1674803Y3386946D01*
X1634765Y3322721D01*
X1605197Y3251482D01*
X1584977Y3166348D01*
X1572984Y3060437D01*
X1568096Y2926866D01*
X889000Y2926866D01*
X889000Y3557712D01*
X715127Y3551564D01*
X541253Y3545416D01*
X408210Y3251624D01*
X361980Y3148308D01*
X322731Y3058247D01*
X293512Y2988629D01*
X277376Y2946640D01*
X275167Y2938199D01*
X-407615Y2938199D01*
X-412750Y3545416D01*
X-582083Y3551292D01*
X-751417Y3557167D01*
X-892187Y3239083D01*
X-1032957Y2921000D01*
X-1312333Y2921000D01*
X-1312333Y3556000D01*
X-1481667Y3556000D01*
X-1481667Y2899833D01*
X-2116667Y2899833D01*
X-2116667Y3558434D01*
X-2296583Y3545416D01*
X-2302149Y2809875D01*
X-2307715Y2074333D01*
X-2856729Y2074333D01*
X-2820588Y2085651D01*
X-2727415Y2139668D01*
X-2647985Y2213635D01*
X-2593925Y2295757D01*
X-2582245Y2327394D01*
X-2560604Y2462889D01*
X-2571862Y2586880D01*
X-2614411Y2692730D01*
X-2686643Y2773806D01*
X-2691213Y2777243D01*
X-2755869Y2819680D01*
X-2824798Y2851973D01*
X-2909783Y2878424D01*
X-3022607Y2903338D01*
X-3051830Y2908945D01*
X-3191378Y2941951D01*
X-3292807Y2982701D01*
X-3360059Y3034161D01*
X-3397078Y3099295D01*
X-3407833Y3176619D01*
X-3388714Y3264284D01*
X-3334468Y3334053D01*
X-3249766Y3382469D01*
X-3139275Y3406073D01*
X-3095638Y3407833D01*
X-2975594Y3391352D01*
X-2875961Y3345028D01*
X-2802211Y3273543D01*
X-2759816Y3181580D01*
X-2751667Y3113593D01*
X-2748506Y3071553D01*
X-2730922Y3052866D01*
X-2686760Y3048115D01*
X-2667000Y3048000D01*
X-2582333Y3048000D01*
X-2582333Y3141872D01*
X-2599701Y3270141D01*
X-2652881Y3378216D01*
X-2743491Y3468611D01*
X-2825750Y3520432D01*
X-2917717Y3552294D01*
X-3033497Y3567802D01*
X-3157876Y3566994D01*
X-3275637Y3549912D01*
X-3366767Y3519019D01*
X-3464644Y3456781D01*
X-3528446Y3379503D01*
X-3563498Y3278814D01*
X-3573550Y3194091D01*
X-3571410Y3081043D01*
X-3548088Y2989119D01*
X-3499753Y2914847D01*
X-3422577Y2854757D01*
X-3312728Y2805374D01*
X-3166378Y2763228D01*
X-3076387Y2743389D01*
X-2990097Y2722825D01*
X-2911068Y2699014D01*
X-2857761Y2677718D01*
X-2789515Y2620649D01*
X-2750085Y2541035D01*
X-2741424Y2449050D01*
X-2765485Y2354866D01*
X-2787910Y2313864D01*
X-2845119Y2261693D01*
X-2930575Y2226102D01*
X-3033089Y2208281D01*
X-3141473Y2209417D01*
X-3244537Y2230699D01*
X-3308163Y2258586D01*
X-3371387Y2314565D01*
X-3425090Y2397276D01*
X-3460989Y2491133D01*
X-3471333Y2565651D01*
X-3473571Y2616976D01*
X-3488429Y2639783D01*
X-3528125Y2645642D01*
X-3556000Y2645833D01*
X-3640667Y2645833D01*
X-6475977Y2645833D01*
X-6528585Y2759023D01*
X-6613093Y2848808D01*
X-6725313Y2910375D01*
X-6861734Y2940364D01*
X-6910917Y2942753D01*
X-6963953Y2944222D01*
X-6980262Y2950955D01*
X-6965446Y2968573D01*
X-6949829Y2981791D01*
X-6913395Y3008377D01*
X-6850372Y3050612D01*
X-6770359Y3102175D01*
X-6701804Y3145128D01*
X-6499533Y3270250D01*
X-6498645Y3456554D01*
X-6025911Y3456554D01*
X-6024893Y3397689D01*
X-5990167Y3338557D01*
X-5957532Y3270822D01*
X-5947833Y3180481D01*
X-5944648Y3105893D01*
X-5932052Y3065388D01*
X-5905490Y3050994D01*
X-5874621Y3052399D01*
X-5849261Y3062175D01*
X-5834839Y3089184D01*
X-5827278Y3143768D01*
X-5825140Y3177902D01*
X-5814768Y3263398D01*
X-5792628Y3317455D01*
X-5777515Y3334641D01*
X-5742138Y3391968D01*
X-5742726Y3459276D01*
X-5743233Y3460191D01*
X-5640108Y3460191D01*
X-5637275Y3391281D01*
X-5593237Y3318738D01*
X-5586431Y3311219D01*
X-5557949Y3262197D01*
X-5546338Y3188579D01*
X-5545667Y3157761D01*
X-5544091Y3093497D01*
X-5535941Y3060895D01*
X-5516084Y3049308D01*
X-5492750Y3048000D01*
X-5462444Y3051022D01*
X-5446663Y3066994D01*
X-5440700Y3106276D01*
X-5439833Y3164416D01*
X-5434956Y3244576D01*
X-5417928Y3296739D01*
X-5397500Y3323166D01*
X-5362151Y3383359D01*
X-5358591Y3450628D01*
X-5382360Y3513202D01*
X-5428999Y3559305D01*
X-5493712Y3577166D01*
X-5545131Y3562535D01*
X-5597692Y3526936D01*
X-5601573Y3523185D01*
X-5640108Y3460191D01*
X-5743233Y3460191D01*
X-5778992Y3524685D01*
X-5782190Y3528177D01*
X-5845357Y3570047D01*
X-5912773Y3572956D01*
X-5974524Y3537229D01*
X-5988631Y3521395D01*
X-6025911Y3456554D01*
X-6498645Y3456554D01*
X-6498167Y3556780D01*
X-7482417Y3545416D01*
X-7488986Y3466041D01*
X-7495556Y3386666D01*
X-9481838Y3386666D01*
X-9483270Y3556000D01*
X-9815083Y3556000D01*
X-9947407Y3264958D01*
X-9994417Y3161368D01*
X-10035533Y3070403D01*
X-10067395Y2999524D01*
X-10086644Y2956192D01*
X-10090380Y2947458D01*
X-10541000Y2947458D01*
X-10541000Y3894666D01*
X10646833Y3894666D01*
X10646833Y1756833D01*
G37*
X10646833Y1756833D02*
X-10541000Y1756833D01*
X-10541000Y2947458D01*
X-10090380Y2947458D01*
X-10083320Y2929836D01*
X-10040822Y2921977D01*
X-10008806Y2921263D01*
X-9916583Y2921526D01*
X-9802436Y3186465D01*
X-9759365Y3284274D01*
X-9720961Y3367496D01*
X-9690816Y3428632D01*
X-9672521Y3460183D01*
X-9670144Y3462618D01*
X-9665575Y3445223D01*
X-9661428Y3390584D01*
X-9657854Y3303788D01*
X-9655002Y3189926D01*
X-9653022Y3054083D01*
X-9652066Y2901350D01*
X-9652000Y2848166D01*
X-9652000Y2222500D01*
X-10075333Y2222500D01*
X-10075333Y2074333D01*
X-9059333Y2074333D01*
X-9059333Y2181703D01*
X-8424333Y2181703D01*
X-8406939Y2113783D01*
X-8362118Y2067067D01*
X-8300912Y2045087D01*
X-8234362Y2051376D01*
X-8173510Y2089468D01*
X-8165042Y2098747D01*
X-8132316Y2158068D01*
X-8138517Y2218245D01*
X-8171870Y2272562D01*
X-8228471Y2316522D01*
X-8293039Y2326651D01*
X-8354508Y2306932D01*
X-8401811Y2261348D01*
X-8423882Y2193880D01*
X-8424333Y2181703D01*
X-9059333Y2181703D01*
X-9059333Y2220967D01*
X-9472083Y2233083D01*
X-9477677Y2894541D01*
X-9481838Y3386666D01*
X-7495556Y3386666D01*
X-7070945Y3386666D01*
X-6942110Y3385915D01*
X-6829041Y3383817D01*
X-6738056Y3380610D01*
X-6675473Y3376530D01*
X-6647611Y3371814D01*
X-6646762Y3370791D01*
X-6663859Y3354281D01*
X-6710369Y3320259D01*
X-6779621Y3273353D01*
X-6864944Y3218190D01*
X-6884887Y3205609D01*
X-7122583Y3056301D01*
X-7122583Y2804583D01*
X-6962745Y2794000D01*
X-6834907Y2777093D01*
X-6743248Y2744008D01*
X-6683784Y2691948D01*
X-6652533Y2618116D01*
X-6646213Y2571750D01*
X-6643152Y2479511D01*
X-6652073Y2414650D01*
X-6677303Y2362910D01*
X-6723170Y2310033D01*
X-6726754Y2306432D01*
X-6820693Y2236224D01*
X-6924493Y2205894D01*
X-7042718Y2214299D01*
X-7068846Y2220621D01*
X-7180348Y2269534D01*
X-7261337Y2347032D01*
X-7309721Y2450324D01*
X-7323667Y2560487D01*
X-7323667Y2645833D01*
X-7493000Y2645833D01*
X-7493000Y2528737D01*
X-7474352Y2384433D01*
X-7419871Y2261340D01*
X-7331750Y2162064D01*
X-7212184Y2089214D01*
X-7090833Y2050727D01*
X-6990089Y2041973D01*
X-6874247Y2050906D01*
X-6765548Y2075257D01*
X-6732739Y2087240D01*
X-6619139Y2156509D01*
X-6532055Y2254764D01*
X-6476319Y2374633D01*
X-6456763Y2508250D01*
X-6475304Y2644384D01*
X-6475977Y2645833D01*
X-3640667Y2645833D01*
X-3640667Y2539320D01*
X-3620789Y2400718D01*
X-3564305Y2276929D01*
X-3475940Y2173607D01*
X-3360420Y2096405D01*
X-3234600Y2053390D01*
X-3126002Y2041739D01*
X-3004169Y2045877D01*
X-2888894Y2064260D01*
X-2856729Y2074333D01*
X-2307715Y2074333D01*
X-2116667Y2074333D01*
X-2116667Y2730500D01*
X-1481667Y2730500D01*
X-1481667Y2074333D01*
X-1312333Y2074333D01*
X-1312333Y2921000D01*
X-1032957Y2921000D01*
X-852787Y2921000D01*
X-740122Y3180291D01*
X-697097Y3277882D01*
X-658916Y3361843D01*
X-629256Y3424277D01*
X-611793Y3457286D01*
X-610062Y3459691D01*
X-605698Y3444576D01*
X-601735Y3392109D01*
X-598315Y3307270D01*
X-595581Y3195038D01*
X-593675Y3060395D01*
X-592739Y2908321D01*
X-592667Y2851150D01*
X-592667Y2222500D01*
X-1016000Y2222500D01*
X-1016000Y2074333D01*
X0Y2074333D01*
X0Y2222500D01*
X-401564Y2222500D01*
X-407615Y2938199D01*
X275167Y2938199D01*
X293856Y2927443D01*
X340679Y2924086D01*
X361490Y2925074D01*
X447813Y2931583D01*
X563001Y3194831D01*
X605912Y3291984D01*
X643116Y3374508D01*
X671205Y3434970D01*
X686773Y3465936D01*
X688345Y3468234D01*
X690898Y3450559D01*
X693216Y3395642D01*
X695215Y3308574D01*
X696811Y3194446D01*
X697921Y3058350D01*
X698461Y2905377D01*
X698500Y2850444D01*
X698500Y2222500D01*
X296333Y2222500D01*
X296333Y2074333D01*
X1312333Y2074333D01*
X1312333Y2222500D01*
X889000Y2222500D01*
X889000Y2926866D01*
X1568096Y2926866D01*
X1569191Y2758754D01*
X1569558Y2741083D01*
X1572630Y2613420D01*
X1576290Y2519829D01*
X1581813Y2452053D01*
X1590477Y2401838D01*
X1603557Y2360927D01*
X1622330Y2321064D01*
X1639337Y2289734D01*
X1684576Y2219727D01*
X1734691Y2159262D01*
X1765041Y2131989D01*
X1877521Y2075397D01*
X2009372Y2046101D01*
X2146859Y2045016D01*
X2276245Y2073056D01*
X2326612Y2094622D01*
X2425208Y2164275D01*
X2509107Y2259452D01*
X2564217Y2363559D01*
X2576727Y2419047D01*
X2585531Y2506099D01*
X2590845Y2628093D01*
X2591695Y2695027D01*
X2859413Y2695027D01*
X2862577Y2563567D01*
X2872229Y2460129D01*
X2889420Y2377673D01*
X2915205Y2309157D01*
X2950637Y2247540D01*
X2954323Y2242109D01*
X3023131Y2169196D01*
X3118002Y2104279D01*
X3222746Y2057928D01*
X3247481Y2050759D01*
X3351333Y2039912D01*
X3470396Y2051777D01*
X3586073Y2083593D01*
X3643317Y2109568D01*
X3752608Y2191040D01*
X3830312Y2299911D01*
X3877506Y2437692D01*
X3877738Y2438796D01*
X3889229Y2575566D01*
X3868801Y2707653D01*
X3828877Y2804583D01*
X5450906Y2804583D01*
X5451247Y2670476D01*
X5453004Y2570799D01*
X5456998Y2497654D01*
X5464049Y2443141D01*
X5474975Y2399363D01*
X5490597Y2358419D01*
X5499210Y2339180D01*
X5570864Y2216131D01*
X5659394Y2128161D01*
X5771806Y2069183D01*
X5831417Y2050646D01*
X5913160Y2041156D01*
X6015148Y2045593D01*
X6118342Y2062104D01*
X6158516Y2074333D01*
X6794500Y2074333D01*
X7747000Y2074333D01*
X8106833Y2074333D01*
X9017000Y2074333D01*
X9353111Y2074333D01*
X9689260Y2074333D01*
X9816597Y2074648D01*
X9909971Y2076314D01*
X9977752Y2080410D01*
X10028308Y2088016D01*
X10070010Y2100213D01*
X10111227Y2118081D01*
X10140329Y2132541D01*
X10223505Y2183302D01*
X10280818Y2242582D01*
X10308167Y2286000D01*
X10327479Y2323128D01*
X10341628Y2359538D01*
X10351586Y2402756D01*
X10358330Y2460309D01*
X10362834Y2539723D01*
X10366072Y2648526D01*
X10368167Y2749237D01*
X10369804Y2918628D01*
X10366764Y3052372D01*
X10358057Y3156993D01*
X10342691Y3239016D01*
X10319677Y3304966D01*
X10288024Y3361367D01*
X10271829Y3383890D01*
X10223257Y3437994D01*
X10166497Y3479077D01*
X10095023Y3509021D01*
X10002306Y3529709D01*
X9881821Y3543023D01*
X9727040Y3550847D01*
X9689042Y3551983D01*
X9355667Y3561058D01*
X9355667Y3473862D01*
X9357989Y3418530D01*
X9370768Y3393525D01*
X9402723Y3386874D01*
X9419167Y3386666D01*
X9482667Y3386666D01*
X9482667Y2246478D01*
X9424458Y2239781D01*
X9385160Y2229417D01*
X9366644Y2201619D01*
X9359680Y2153708D01*
X9353111Y2074333D01*
X9017000Y2074333D01*
X9017000Y2222500D01*
X8297333Y2222500D01*
X8297333Y2730500D01*
X8995833Y2730500D01*
X8995833Y2899833D01*
X8297333Y2899833D01*
X8297333Y3386666D01*
X9019555Y3386666D01*
X9006417Y3545416D01*
X8106833Y3556842D01*
X8106833Y2074333D01*
X7747000Y2074333D01*
X7747000Y2222500D01*
X6985603Y2222500D01*
X6974417Y3545416D01*
X6884458Y3551925D01*
X6794500Y3558434D01*
X6794500Y2074333D01*
X6158516Y2074333D01*
X6197814Y2086295D01*
X6293020Y2138465D01*
X6365917Y2208975D01*
X6419649Y2303462D01*
X6457359Y2427561D01*
X6482189Y2586910D01*
X6483413Y2598438D01*
X6493454Y2758542D01*
X6491663Y2918638D01*
X6478956Y3068870D01*
X6456252Y3199383D01*
X6424469Y3300321D01*
X6416429Y3317424D01*
X6336700Y3429239D01*
X6229045Y3511816D01*
X6098841Y3562052D01*
X5966544Y3577048D01*
X5817773Y3558564D01*
X5690957Y3503948D01*
X5587096Y3413847D01*
X5507185Y3288908D01*
X5500927Y3275365D01*
X5482503Y3231310D01*
X5469255Y3188701D01*
X5460332Y3139541D01*
X5454887Y3075829D01*
X5452067Y2989567D01*
X5451025Y2872756D01*
X5450906Y2804583D01*
X3828877Y2804583D01*
X3819847Y2826506D01*
X3745758Y2923571D01*
X3661180Y2984833D01*
X3528362Y3032668D01*
X3396991Y3042711D01*
X3273658Y3015788D01*
X3164956Y2952725D01*
X3127375Y2917909D01*
X3048000Y2834551D01*
X3048079Y3010067D01*
X3057617Y3149487D01*
X3087996Y3255366D01*
X3142080Y3332486D01*
X3222731Y3385632D01*
X3286438Y3408390D01*
X3392416Y3420041D01*
X3493247Y3398877D01*
X3580063Y3349816D01*
X3643994Y3277772D01*
X3675411Y3192795D01*
X3686024Y3140089D01*
X3704332Y3117257D01*
X3744188Y3113667D01*
X3775836Y3115715D01*
X3830803Y3121737D01*
X3854548Y3136327D01*
X3858105Y3170562D01*
X3855982Y3196166D01*
X3826666Y3302894D01*
X3764080Y3404132D01*
X3676695Y3487344D01*
X3645396Y3507812D01*
X3587259Y3538590D01*
X3533194Y3556356D01*
X3467737Y3564469D01*
X3376083Y3566288D01*
X3259077Y3560727D01*
X3169639Y3541009D01*
X3093947Y3501873D01*
X3018180Y3438056D01*
X3004889Y3424966D01*
X2958801Y3374721D01*
X2924317Y3324105D01*
X2899564Y3265752D01*
X2882671Y3192297D01*
X2871765Y3096376D01*
X2864974Y2970624D01*
X2861684Y2861553D01*
X2859413Y2695027D01*
X2591695Y2695027D01*
X2592881Y2788412D01*
X2592917Y2816697D01*
X2592917Y3188644D01*
X2529092Y3313408D01*
X2475100Y3402669D01*
X2413680Y3466211D01*
X2365453Y3499884D01*
X2241314Y3554654D01*
X2107500Y3576163D01*
X1973061Y3565891D01*
X1847046Y3525317D01*
X1738506Y3455920D01*
X1674803Y3386946D01*
X1634765Y3322721D01*
X1605197Y3251482D01*
X1584977Y3166348D01*
X1572984Y3060437D01*
X1568096Y2926866D01*
X889000Y2926866D01*
X889000Y3557712D01*
X715127Y3551564D01*
X541253Y3545416D01*
X408210Y3251624D01*
X361980Y3148308D01*
X322731Y3058247D01*
X293512Y2988629D01*
X277376Y2946640D01*
X275167Y2938199D01*
X-407615Y2938199D01*
X-412750Y3545416D01*
X-582083Y3551292D01*
X-751417Y3557167D01*
X-892187Y3239083D01*
X-1032957Y2921000D01*
X-1312333Y2921000D01*
X-1312333Y3556000D01*
X-1481667Y3556000D01*
X-1481667Y2899833D01*
X-2116667Y2899833D01*
X-2116667Y3558434D01*
X-2296583Y3545416D01*
X-2302149Y2809875D01*
X-2307715Y2074333D01*
X-2856729Y2074333D01*
X-2820588Y2085651D01*
X-2727415Y2139668D01*
X-2647985Y2213635D01*
X-2593925Y2295757D01*
X-2582245Y2327394D01*
X-2560604Y2462889D01*
X-2571862Y2586880D01*
X-2614411Y2692730D01*
X-2686643Y2773806D01*
X-2691213Y2777243D01*
X-2755869Y2819680D01*
X-2824798Y2851973D01*
X-2909783Y2878424D01*
X-3022607Y2903338D01*
X-3051830Y2908945D01*
X-3191378Y2941951D01*
X-3292807Y2982701D01*
X-3360059Y3034161D01*
X-3397078Y3099295D01*
X-3407833Y3176619D01*
X-3388714Y3264284D01*
X-3334468Y3334053D01*
X-3249766Y3382469D01*
X-3139275Y3406073D01*
X-3095638Y3407833D01*
X-2975594Y3391352D01*
X-2875961Y3345028D01*
X-2802211Y3273543D01*
X-2759816Y3181580D01*
X-2751667Y3113593D01*
X-2748506Y3071553D01*
X-2730922Y3052866D01*
X-2686760Y3048115D01*
X-2667000Y3048000D01*
X-2582333Y3048000D01*
X-2582333Y3141872D01*
X-2599701Y3270141D01*
X-2652881Y3378216D01*
X-2743491Y3468611D01*
X-2825750Y3520432D01*
X-2917717Y3552294D01*
X-3033497Y3567802D01*
X-3157876Y3566994D01*
X-3275637Y3549912D01*
X-3366767Y3519019D01*
X-3464644Y3456781D01*
X-3528446Y3379503D01*
X-3563498Y3278814D01*
X-3573550Y3194091D01*
X-3571410Y3081043D01*
X-3548088Y2989119D01*
X-3499753Y2914847D01*
X-3422577Y2854757D01*
X-3312728Y2805374D01*
X-3166378Y2763228D01*
X-3076387Y2743389D01*
X-2990097Y2722825D01*
X-2911068Y2699014D01*
X-2857761Y2677718D01*
X-2789515Y2620649D01*
X-2750085Y2541035D01*
X-2741424Y2449050D01*
X-2765485Y2354866D01*
X-2787910Y2313864D01*
X-2845119Y2261693D01*
X-2930575Y2226102D01*
X-3033089Y2208281D01*
X-3141473Y2209417D01*
X-3244537Y2230699D01*
X-3308163Y2258586D01*
X-3371387Y2314565D01*
X-3425090Y2397276D01*
X-3460989Y2491133D01*
X-3471333Y2565651D01*
X-3473571Y2616976D01*
X-3488429Y2639783D01*
X-3528125Y2645642D01*
X-3556000Y2645833D01*
X-3640667Y2645833D01*
X-6475977Y2645833D01*
X-6528585Y2759023D01*
X-6613093Y2848808D01*
X-6725313Y2910375D01*
X-6861734Y2940364D01*
X-6910917Y2942753D01*
X-6963953Y2944222D01*
X-6980262Y2950955D01*
X-6965446Y2968573D01*
X-6949829Y2981791D01*
X-6913395Y3008377D01*
X-6850372Y3050612D01*
X-6770359Y3102175D01*
X-6701804Y3145128D01*
X-6499533Y3270250D01*
X-6498645Y3456554D01*
X-6025911Y3456554D01*
X-6024893Y3397689D01*
X-5990167Y3338557D01*
X-5957532Y3270822D01*
X-5947833Y3180481D01*
X-5944648Y3105893D01*
X-5932052Y3065388D01*
X-5905490Y3050994D01*
X-5874621Y3052399D01*
X-5849261Y3062175D01*
X-5834839Y3089184D01*
X-5827278Y3143768D01*
X-5825140Y3177902D01*
X-5814768Y3263398D01*
X-5792628Y3317455D01*
X-5777515Y3334641D01*
X-5742138Y3391968D01*
X-5742726Y3459276D01*
X-5743233Y3460191D01*
X-5640108Y3460191D01*
X-5637275Y3391281D01*
X-5593237Y3318738D01*
X-5586431Y3311219D01*
X-5557949Y3262197D01*
X-5546338Y3188579D01*
X-5545667Y3157761D01*
X-5544091Y3093497D01*
X-5535941Y3060895D01*
X-5516084Y3049308D01*
X-5492750Y3048000D01*
X-5462444Y3051022D01*
X-5446663Y3066994D01*
X-5440700Y3106276D01*
X-5439833Y3164416D01*
X-5434956Y3244576D01*
X-5417928Y3296739D01*
X-5397500Y3323166D01*
X-5362151Y3383359D01*
X-5358591Y3450628D01*
X-5382360Y3513202D01*
X-5428999Y3559305D01*
X-5493712Y3577166D01*
X-5545131Y3562535D01*
X-5597692Y3526936D01*
X-5601573Y3523185D01*
X-5640108Y3460191D01*
X-5743233Y3460191D01*
X-5778992Y3524685D01*
X-5782190Y3528177D01*
X-5845357Y3570047D01*
X-5912773Y3572956D01*
X-5974524Y3537229D01*
X-5988631Y3521395D01*
X-6025911Y3456554D01*
X-6498645Y3456554D01*
X-6498167Y3556780D01*
X-7482417Y3545416D01*
X-7488986Y3466041D01*
X-7495556Y3386666D01*
X-9481838Y3386666D01*
X-9483270Y3556000D01*
X-9815083Y3556000D01*
X-9947407Y3264958D01*
X-9994417Y3161368D01*
X-10035533Y3070403D01*
X-10067395Y2999524D01*
X-10086644Y2956192D01*
X-10090380Y2947458D01*
X-10541000Y2947458D01*
X-10541000Y3894666D01*
X10646833Y3894666D01*
X10646833Y1756833D01*
G36*
X-19476597Y3065890D02*
G01*
X-19456234Y3047403D01*
X-19452176Y3000722D01*
X-19452167Y2995083D01*
X-19448890Y2945430D01*
X-19430404Y2925067D01*
X-19383722Y2921009D01*
X-19378083Y2921000D01*
X-19328310Y2917460D01*
X-19307895Y2899505D01*
X-19304000Y2857500D01*
X-19298755Y2812523D01*
X-19274015Y2795945D01*
X-19240500Y2794000D01*
X-19195523Y2799245D01*
X-19178946Y2823985D01*
X-19177000Y2857500D01*
X-19172870Y2900163D01*
X-19151923Y2917662D01*
X-19102917Y2921000D01*
X-19053264Y2924276D01*
X-19032901Y2942763D01*
X-19028843Y2989444D01*
X-19028833Y2995083D01*
X-19025557Y3044736D01*
X-19007070Y3065099D01*
X-18960389Y3069157D01*
X-18954750Y3069166D01*
X-18880667Y3069166D01*
X-18880667Y2794000D01*
X-18954750Y2794000D01*
X-19004403Y2790723D01*
X-19024766Y2772237D01*
X-19028824Y2725555D01*
X-19028833Y2719916D01*
X-19032110Y2670264D01*
X-19050597Y2649900D01*
X-19097278Y2645842D01*
X-19102917Y2645833D01*
X-19177000Y2645833D01*
X-19177000Y2372601D01*
X-18891250Y2360083D01*
X-18891250Y2084916D01*
X-19383375Y2079235D01*
X-19875500Y2073553D01*
X-19875500Y2370666D01*
X-19304000Y2370666D01*
X-19304000Y2645833D01*
X-19378083Y2645833D01*
X-19427736Y2649110D01*
X-19448100Y2667596D01*
X-19452158Y2714278D01*
X-19452167Y2719916D01*
X-19455443Y2769569D01*
X-19473930Y2789933D01*
X-19520611Y2793991D01*
X-19526250Y2794000D01*
X-19600333Y2794000D01*
X-19600333Y3069166D01*
X-19526250Y3069166D01*
X-19476597Y3065890D01*
G37*
X-19476597Y3065890D02*
X-19456234Y3047403D01*
X-19452176Y3000722D01*
X-19452167Y2995083D01*
X-19448890Y2945430D01*
X-19430404Y2925067D01*
X-19383722Y2921009D01*
X-19378083Y2921000D01*
X-19328310Y2917460D01*
X-19307895Y2899505D01*
X-19304000Y2857500D01*
X-19298755Y2812523D01*
X-19274015Y2795945D01*
X-19240500Y2794000D01*
X-19195523Y2799245D01*
X-19178946Y2823985D01*
X-19177000Y2857500D01*
X-19172870Y2900163D01*
X-19151923Y2917662D01*
X-19102917Y2921000D01*
X-19053264Y2924276D01*
X-19032901Y2942763D01*
X-19028843Y2989444D01*
X-19028833Y2995083D01*
X-19025557Y3044736D01*
X-19007070Y3065099D01*
X-18960389Y3069157D01*
X-18954750Y3069166D01*
X-18880667Y3069166D01*
X-18880667Y2794000D01*
X-18954750Y2794000D01*
X-19004403Y2790723D01*
X-19024766Y2772237D01*
X-19028824Y2725555D01*
X-19028833Y2719916D01*
X-19032110Y2670264D01*
X-19050597Y2649900D01*
X-19097278Y2645842D01*
X-19102917Y2645833D01*
X-19177000Y2645833D01*
X-19177000Y2372601D01*
X-18891250Y2360083D01*
X-18891250Y2084916D01*
X-19383375Y2079235D01*
X-19875500Y2073553D01*
X-19875500Y2370666D01*
X-19304000Y2370666D01*
X-19304000Y2645833D01*
X-19378083Y2645833D01*
X-19427736Y2649110D01*
X-19448100Y2667596D01*
X-19452158Y2714278D01*
X-19452167Y2719916D01*
X-19455443Y2769569D01*
X-19473930Y2789933D01*
X-19520611Y2793991D01*
X-19526250Y2794000D01*
X-19600333Y2794000D01*
X-19600333Y3069166D01*
X-19526250Y3069166D01*
X-19476597Y3065890D01*
G36*
X-19452167Y3492500D02*
G01*
X-19028833Y3492500D01*
X-19028833Y4191000D01*
X-18879772Y4191000D01*
X-18891250Y3354916D01*
X-18960042Y3348284D01*
X-19007764Y3338675D01*
X-19026267Y3313997D01*
X-19028833Y3279492D01*
X-19028833Y3217333D01*
X-19452167Y3217333D01*
X-19452167Y3279492D01*
X-19457709Y3323147D01*
X-19483046Y3342309D01*
X-19520958Y3348284D01*
X-19589750Y3354916D01*
X-19601228Y4191000D01*
X-19452167Y4191000D01*
X-19452167Y3492500D01*
G37*
X-19452167Y3492500D02*
X-19028833Y3492500D01*
X-19028833Y4191000D01*
X-18879772Y4191000D01*
X-18891250Y3354916D01*
X-18960042Y3348284D01*
X-19007764Y3338675D01*
X-19026267Y3313997D01*
X-19028833Y3279492D01*
X-19028833Y3217333D01*
X-19452167Y3217333D01*
X-19452167Y3279492D01*
X-19457709Y3323147D01*
X-19483046Y3342309D01*
X-19520958Y3348284D01*
X-19589750Y3354916D01*
X-19601228Y4191000D01*
X-19452167Y4191000D01*
X-19452167Y3492500D01*
G36*
X-19171708Y5329323D02*
G01*
X-18891250Y5323416D01*
X-18885511Y4905375D01*
X-18879772Y4487333D01*
X-18954303Y4487333D01*
X-19004154Y4484111D01*
X-19024677Y4465863D01*
X-19028821Y4419717D01*
X-19028833Y4413250D01*
X-19032110Y4363597D01*
X-19050597Y4343234D01*
X-19097278Y4339176D01*
X-19102917Y4339166D01*
X-19152570Y4342443D01*
X-19172933Y4360930D01*
X-19176991Y4407611D01*
X-19177000Y4413250D01*
X-19180540Y4463024D01*
X-19198495Y4483439D01*
X-19240500Y4487333D01*
X-19304000Y4487333D01*
X-19304000Y5037666D01*
X-19177000Y5037666D01*
X-19177000Y4840111D01*
X-19175577Y4752488D01*
X-19171760Y4681528D01*
X-19166229Y4637410D01*
X-19162889Y4628444D01*
X-19133283Y4618105D01*
X-19088806Y4614333D01*
X-19028833Y4614333D01*
X-19028833Y5037666D01*
X-19177000Y5037666D01*
X-19304000Y5037666D01*
X-19452167Y5037666D01*
X-19452167Y4487333D01*
X-19600333Y4487333D01*
X-19600333Y5185833D01*
X-19526250Y5185833D01*
X-19476736Y5189062D01*
X-19456323Y5207372D01*
X-19452180Y5253702D01*
X-19452167Y5260531D01*
X-19452167Y5335229D01*
X-19171708Y5329323D01*
G37*
X-19171708Y5329323D02*
X-18891250Y5323416D01*
X-18885511Y4905375D01*
X-18879772Y4487333D01*
X-18954303Y4487333D01*
X-19004154Y4484111D01*
X-19024677Y4465863D01*
X-19028821Y4419717D01*
X-19028833Y4413250D01*
X-19032110Y4363597D01*
X-19050597Y4343234D01*
X-19097278Y4339176D01*
X-19102917Y4339166D01*
X-19152570Y4342443D01*
X-19172933Y4360930D01*
X-19176991Y4407611D01*
X-19177000Y4413250D01*
X-19180540Y4463024D01*
X-19198495Y4483439D01*
X-19240500Y4487333D01*
X-19304000Y4487333D01*
X-19304000Y5037666D01*
X-19177000Y5037666D01*
X-19177000Y4840111D01*
X-19175577Y4752488D01*
X-19171760Y4681528D01*
X-19166229Y4637410D01*
X-19162889Y4628444D01*
X-19133283Y4618105D01*
X-19088806Y4614333D01*
X-19028833Y4614333D01*
X-19028833Y5037666D01*
X-19177000Y5037666D01*
X-19304000Y5037666D01*
X-19452167Y5037666D01*
X-19452167Y4487333D01*
X-19600333Y4487333D01*
X-19600333Y5185833D01*
X-19526250Y5185833D01*
X-19476736Y5189062D01*
X-19456323Y5207372D01*
X-19452180Y5253702D01*
X-19452167Y5260531D01*
X-19452167Y5335229D01*
X-19171708Y5329323D01*
G36*
X971751Y6656194D02*
G01*
X1098873Y6598411D01*
X1198301Y6514620D01*
X1266831Y6408687D01*
X1301259Y6284477D01*
X1298381Y6145855D01*
X1292514Y6114229D01*
X1261780Y6008054D01*
X1216457Y5922887D01*
X1150720Y5853705D01*
X1058742Y5795487D01*
X934696Y5743210D01*
X817845Y5705100D01*
X689464Y5659717D01*
X600514Y5611796D01*
X548096Y5559216D01*
X529308Y5499852D01*
X529167Y5493712D01*
X529167Y5439833D01*
X1291167Y5439833D01*
X1291167Y5185833D01*
X254000Y5185833D01*
X254465Y5392208D01*
X260888Y5537936D01*
X282700Y5652765D01*
X324819Y5742940D01*
X392164Y5814706D01*
X489652Y5874310D01*
X622201Y5927996D01*
X695366Y5952131D01*
X819938Y5994343D01*
X908525Y6033093D01*
X966723Y6072856D01*
X1000128Y6118106D01*
X1014338Y6173319D01*
X1016000Y6208519D01*
X999585Y6295039D01*
X955481Y6364665D01*
X891396Y6407778D01*
X849072Y6416792D01*
X728289Y6414249D01*
X639532Y6387394D01*
X577627Y6332114D01*
X537395Y6244296D01*
X518228Y6153929D01*
X503193Y6053666D01*
X226712Y6053666D01*
X239477Y6190371D01*
X272188Y6346193D01*
X336910Y6475821D01*
X430607Y6576676D01*
X550244Y6646176D01*
X692785Y6681739D01*
X820139Y6684104D01*
X971751Y6656194D01*
G37*
X971751Y6656194D02*
X1098873Y6598411D01*
X1198301Y6514620D01*
X1266831Y6408687D01*
X1301259Y6284477D01*
X1298381Y6145855D01*
X1292514Y6114229D01*
X1261780Y6008054D01*
X1216457Y5922887D01*
X1150720Y5853705D01*
X1058742Y5795487D01*
X934696Y5743210D01*
X817845Y5705100D01*
X689464Y5659717D01*
X600514Y5611796D01*
X548096Y5559216D01*
X529308Y5499852D01*
X529167Y5493712D01*
X529167Y5439833D01*
X1291167Y5439833D01*
X1291167Y5185833D01*
X254000Y5185833D01*
X254465Y5392208D01*
X260888Y5537936D01*
X282700Y5652765D01*
X324819Y5742940D01*
X392164Y5814706D01*
X489652Y5874310D01*
X622201Y5927996D01*
X695366Y5952131D01*
X819938Y5994343D01*
X908525Y6033093D01*
X966723Y6072856D01*
X1000128Y6118106D01*
X1014338Y6173319D01*
X1016000Y6208519D01*
X999585Y6295039D01*
X955481Y6364665D01*
X891396Y6407778D01*
X849072Y6416792D01*
X728289Y6414249D01*
X639532Y6387394D01*
X577627Y6332114D01*
X537395Y6244296D01*
X518228Y6153929D01*
X503193Y6053666D01*
X226712Y6053666D01*
X239477Y6190371D01*
X272188Y6346193D01*
X336910Y6475821D01*
X430607Y6576676D01*
X550244Y6646176D01*
X692785Y6681739D01*
X820139Y6684104D01*
X971751Y6656194D01*
G36*
X-613833Y6220444D02*
G01*
X-534458Y6227014D01*
X-455083Y6233583D01*
X-448736Y6355291D01*
X-442388Y6477000D01*
X-234946Y6477000D01*
X-228598Y6355291D01*
X-222250Y6233583D01*
X-111125Y6227185D01*
X0Y6220788D01*
X0Y6013545D01*
X-111125Y6007148D01*
X-222250Y6000750D01*
X-228820Y5921375D01*
X-235389Y5842000D01*
X2212Y5842000D01*
X-4186Y5730875D01*
X-10583Y5619750D01*
X-232833Y5606954D01*
X-232833Y5376333D01*
X-444500Y5376333D01*
X-444500Y5609166D01*
X-613833Y5609166D01*
X-613833Y5376333D01*
X-846667Y5376333D01*
X-846667Y5609166D01*
X-1058333Y5609166D01*
X-1058333Y5842000D01*
X-846667Y5842000D01*
X-613833Y5842000D01*
X-441945Y5842000D01*
X-448514Y5921375D01*
X-456231Y5973779D01*
X-476710Y5997551D01*
X-523643Y6006383D01*
X-534458Y6007319D01*
X-613833Y6013889D01*
X-613833Y5842000D01*
X-846667Y5842000D01*
X-846667Y6011333D01*
X-1058333Y6011333D01*
X-1058333Y6223000D01*
X-846667Y6223000D01*
X-846667Y6477000D01*
X-613833Y6477000D01*
X-613833Y6220444D01*
G37*
X-613833Y6220444D02*
X-534458Y6227014D01*
X-455083Y6233583D01*
X-448736Y6355291D01*
X-442388Y6477000D01*
X-234946Y6477000D01*
X-228598Y6355291D01*
X-222250Y6233583D01*
X-111125Y6227185D01*
X0Y6220788D01*
X0Y6013545D01*
X-111125Y6007148D01*
X-222250Y6000750D01*
X-228820Y5921375D01*
X-235389Y5842000D01*
X2212Y5842000D01*
X-4186Y5730875D01*
X-10583Y5619750D01*
X-232833Y5606954D01*
X-232833Y5376333D01*
X-444500Y5376333D01*
X-444500Y5609166D01*
X-613833Y5609166D01*
X-613833Y5376333D01*
X-846667Y5376333D01*
X-846667Y5609166D01*
X-1058333Y5609166D01*
X-1058333Y5842000D01*
X-846667Y5842000D01*
X-613833Y5842000D01*
X-441945Y5842000D01*
X-448514Y5921375D01*
X-456231Y5973779D01*
X-476710Y5997551D01*
X-523643Y6006383D01*
X-534458Y6007319D01*
X-613833Y6013889D01*
X-613833Y5842000D01*
X-846667Y5842000D01*
X-846667Y6011333D01*
X-1058333Y6011333D01*
X-1058333Y6223000D01*
X-846667Y6223000D01*
X-846667Y6477000D01*
X-613833Y6477000D01*
X-613833Y6220444D01*
G36*
X-19452167Y6181895D02*
G01*
X-19171708Y6175989D01*
X-18891250Y6170083D01*
X-18891250Y5894916D01*
X-19171708Y5889010D01*
X-19452167Y5883104D01*
X-19452167Y5609166D01*
X-19600333Y5609166D01*
X-19600333Y5884333D01*
X-19875500Y5884333D01*
X-19875500Y6180666D01*
X-19600333Y6180666D01*
X-19600333Y6455833D01*
X-19452167Y6455833D01*
X-19452167Y6181895D01*
G37*
X-19452167Y6181895D02*
X-19171708Y6175989D01*
X-18891250Y6170083D01*
X-18891250Y5894916D01*
X-19171708Y5889010D01*
X-19452167Y5883104D01*
X-19452167Y5609166D01*
X-19600333Y5609166D01*
X-19600333Y5884333D01*
X-19875500Y5884333D01*
X-19875500Y6180666D01*
X-19600333Y6180666D01*
X-19600333Y6455833D01*
X-19452167Y6455833D01*
X-19452167Y6181895D01*
G36*
X-18880667Y6879166D02*
G01*
X-19177000Y6879166D01*
X-19177000Y7154333D01*
X-18880667Y7154333D01*
X-18880667Y6879166D01*
G37*
X-18880667Y6879166D02*
X-19177000Y6879166D01*
X-19177000Y7154333D01*
X-18880667Y7154333D01*
X-18880667Y6879166D01*
G36*
X-18960042Y8716716D02*
G01*
X-18891250Y8710083D01*
X-18885511Y8292041D01*
X-18879772Y7874000D01*
X-18954303Y7874000D01*
X-19004154Y7870778D01*
X-19024677Y7852530D01*
X-19028821Y7806384D01*
X-19028833Y7799916D01*
X-19028833Y7725833D01*
X-19452167Y7725833D01*
X-19452167Y7799916D01*
X-19455408Y7849468D01*
X-19473766Y7869868D01*
X-19520191Y7873988D01*
X-19526698Y7874000D01*
X-19601228Y7874000D01*
X-19595489Y8292041D01*
X-19589750Y8710083D01*
X-19520958Y8716716D01*
X-19452167Y8723349D01*
X-19452167Y8001000D01*
X-19028833Y8001000D01*
X-19028833Y8723349D01*
X-18960042Y8716716D01*
G37*
X-18960042Y8716716D02*
X-18891250Y8710083D01*
X-18885511Y8292041D01*
X-18879772Y7874000D01*
X-18954303Y7874000D01*
X-19004154Y7870778D01*
X-19024677Y7852530D01*
X-19028821Y7806384D01*
X-19028833Y7799916D01*
X-19028833Y7725833D01*
X-19452167Y7725833D01*
X-19452167Y7799916D01*
X-19455408Y7849468D01*
X-19473766Y7869868D01*
X-19520191Y7873988D01*
X-19526698Y7874000D01*
X-19601228Y7874000D01*
X-19595489Y8292041D01*
X-19589750Y8710083D01*
X-19520958Y8716716D01*
X-19452167Y8723349D01*
X-19452167Y8001000D01*
X-19028833Y8001000D01*
X-19028833Y8723349D01*
X-18960042Y8716716D01*
G36*
X-19028833Y9768416D02*
G01*
X-19025557Y9718764D01*
X-19007070Y9698400D01*
X-18960389Y9694342D01*
X-18954750Y9694333D01*
X-18880667Y9694333D01*
X-18880667Y8995833D01*
X-18954750Y8995833D01*
X-19004403Y8992557D01*
X-19024766Y8974070D01*
X-19028824Y8927389D01*
X-19028833Y8921750D01*
X-19028833Y8847666D01*
X-19452167Y8847666D01*
X-19452167Y8921750D01*
X-19455443Y8971403D01*
X-19473930Y8991766D01*
X-19520611Y8995824D01*
X-19526250Y8995833D01*
X-19600333Y8995833D01*
X-19600333Y9567333D01*
X-19452167Y9567333D01*
X-19452167Y9144000D01*
X-19028833Y9144000D01*
X-19028833Y9567333D01*
X-19452167Y9567333D01*
X-19600333Y9567333D01*
X-19600333Y9694333D01*
X-19526250Y9694333D01*
X-19476597Y9697610D01*
X-19456234Y9716096D01*
X-19452176Y9762778D01*
X-19452167Y9768416D01*
X-19452167Y9842500D01*
X-19028833Y9842500D01*
X-19028833Y9768416D01*
G37*
X-19028833Y9768416D02*
X-19025557Y9718764D01*
X-19007070Y9698400D01*
X-18960389Y9694342D01*
X-18954750Y9694333D01*
X-18880667Y9694333D01*
X-18880667Y8995833D01*
X-18954750Y8995833D01*
X-19004403Y8992557D01*
X-19024766Y8974070D01*
X-19028824Y8927389D01*
X-19028833Y8921750D01*
X-19028833Y8847666D01*
X-19452167Y8847666D01*
X-19452167Y8921750D01*
X-19455443Y8971403D01*
X-19473930Y8991766D01*
X-19520611Y8995824D01*
X-19526250Y8995833D01*
X-19600333Y8995833D01*
X-19600333Y9567333D01*
X-19452167Y9567333D01*
X-19452167Y9144000D01*
X-19028833Y9144000D01*
X-19028833Y9567333D01*
X-19452167Y9567333D01*
X-19600333Y9567333D01*
X-19600333Y9694333D01*
X-19526250Y9694333D01*
X-19476597Y9697610D01*
X-19456234Y9716096D01*
X-19452176Y9762778D01*
X-19452167Y9768416D01*
X-19452167Y9842500D01*
X-19028833Y9842500D01*
X-19028833Y9768416D01*
G36*
X-18880667Y10689166D02*
G01*
X-19452167Y10689166D01*
X-19452167Y10541000D01*
X-18880667Y10541000D01*
X-18880667Y10265833D01*
X-19452167Y10265833D01*
X-19452167Y10117666D01*
X-18880667Y10117666D01*
X-18880667Y9990666D01*
X-19601228Y9990666D01*
X-19589750Y10826750D01*
X-19520958Y10833383D01*
X-19473236Y10842991D01*
X-19454733Y10867670D01*
X-19452167Y10902174D01*
X-19452167Y10964333D01*
X-18880667Y10964333D01*
X-18880667Y10689166D01*
G37*
X-18880667Y10689166D02*
X-19452167Y10689166D01*
X-19452167Y10541000D01*
X-18880667Y10541000D01*
X-18880667Y10265833D01*
X-19452167Y10265833D01*
X-19452167Y10117666D01*
X-18880667Y10117666D01*
X-18880667Y9990666D01*
X-19601228Y9990666D01*
X-19589750Y10826750D01*
X-19520958Y10833383D01*
X-19473236Y10842991D01*
X-19454733Y10867670D01*
X-19452167Y10902174D01*
X-19452167Y10964333D01*
X-18880667Y10964333D01*
X-18880667Y10689166D01*
G36*
X-19806708Y12103383D02*
G01*
X-19758218Y12093120D01*
X-19737331Y12065525D01*
X-19731284Y12027958D01*
X-19721675Y11980236D01*
X-19696997Y11961733D01*
X-19662492Y11959166D01*
X-19620709Y11954898D01*
X-19603572Y11933554D01*
X-19600333Y11885083D01*
X-19597057Y11835430D01*
X-19578570Y11815067D01*
X-19531889Y11811009D01*
X-19526250Y11811000D01*
X-19476451Y11807418D01*
X-19456026Y11789510D01*
X-19452167Y11748841D01*
X-19446625Y11705186D01*
X-19421288Y11686024D01*
X-19383375Y11680049D01*
X-19334884Y11669787D01*
X-19313998Y11642191D01*
X-19307951Y11604625D01*
X-19298342Y11556903D01*
X-19273664Y11538399D01*
X-19239159Y11535833D01*
X-19197375Y11531564D01*
X-19180238Y11510221D01*
X-19177000Y11461750D01*
X-19173724Y11412097D01*
X-19155237Y11391734D01*
X-19108556Y11387676D01*
X-19102917Y11387666D01*
X-19053117Y11384085D01*
X-19032693Y11366177D01*
X-19028833Y11325508D01*
X-19023292Y11281852D01*
X-18997954Y11262690D01*
X-18960042Y11256716D01*
X-18911551Y11246454D01*
X-18890664Y11218858D01*
X-18884617Y11181291D01*
X-18883279Y11135529D01*
X-18899211Y11116503D01*
X-18944107Y11112522D01*
X-18953409Y11112500D01*
X-19003654Y11115616D01*
X-19024495Y11133400D01*
X-19028814Y11178505D01*
X-19028833Y11186583D01*
X-19032110Y11236236D01*
X-19050597Y11256599D01*
X-19097278Y11260657D01*
X-19102917Y11260666D01*
X-19152691Y11264206D01*
X-19173106Y11282161D01*
X-19177000Y11324166D01*
X-19182245Y11369144D01*
X-19206985Y11385721D01*
X-19240500Y11387666D01*
X-19283163Y11391796D01*
X-19300662Y11412744D01*
X-19304000Y11461750D01*
X-19307277Y11511403D01*
X-19325763Y11531766D01*
X-19372445Y11535824D01*
X-19378083Y11535833D01*
X-19427736Y11539110D01*
X-19448100Y11557596D01*
X-19452158Y11604278D01*
X-19452167Y11609916D01*
X-19455443Y11659569D01*
X-19473930Y11679933D01*
X-19520611Y11683991D01*
X-19526250Y11684000D01*
X-19576024Y11687540D01*
X-19596439Y11705495D01*
X-19600333Y11747500D01*
X-19605578Y11792477D01*
X-19630318Y11809054D01*
X-19663833Y11811000D01*
X-19706497Y11815130D01*
X-19723995Y11836077D01*
X-19727333Y11885083D01*
X-19730610Y11934736D01*
X-19749097Y11955099D01*
X-19795778Y11959157D01*
X-19801417Y11959166D01*
X-19850768Y11962339D01*
X-19871239Y11980446D01*
X-19875481Y12026366D01*
X-19875500Y12034591D01*
X-19872697Y12084496D01*
X-19856492Y12103793D01*
X-19815195Y12104176D01*
X-19806708Y12103383D01*
G37*
X-19806708Y12103383D02*
X-19758218Y12093120D01*
X-19737331Y12065525D01*
X-19731284Y12027958D01*
X-19721675Y11980236D01*
X-19696997Y11961733D01*
X-19662492Y11959166D01*
X-19620709Y11954898D01*
X-19603572Y11933554D01*
X-19600333Y11885083D01*
X-19597057Y11835430D01*
X-19578570Y11815067D01*
X-19531889Y11811009D01*
X-19526250Y11811000D01*
X-19476451Y11807418D01*
X-19456026Y11789510D01*
X-19452167Y11748841D01*
X-19446625Y11705186D01*
X-19421288Y11686024D01*
X-19383375Y11680049D01*
X-19334884Y11669787D01*
X-19313998Y11642191D01*
X-19307951Y11604625D01*
X-19298342Y11556903D01*
X-19273664Y11538399D01*
X-19239159Y11535833D01*
X-19197375Y11531564D01*
X-19180238Y11510221D01*
X-19177000Y11461750D01*
X-19173724Y11412097D01*
X-19155237Y11391734D01*
X-19108556Y11387676D01*
X-19102917Y11387666D01*
X-19053117Y11384085D01*
X-19032693Y11366177D01*
X-19028833Y11325508D01*
X-19023292Y11281852D01*
X-18997954Y11262690D01*
X-18960042Y11256716D01*
X-18911551Y11246454D01*
X-18890664Y11218858D01*
X-18884617Y11181291D01*
X-18883279Y11135529D01*
X-18899211Y11116503D01*
X-18944107Y11112522D01*
X-18953409Y11112500D01*
X-19003654Y11115616D01*
X-19024495Y11133400D01*
X-19028814Y11178505D01*
X-19028833Y11186583D01*
X-19032110Y11236236D01*
X-19050597Y11256599D01*
X-19097278Y11260657D01*
X-19102917Y11260666D01*
X-19152691Y11264206D01*
X-19173106Y11282161D01*
X-19177000Y11324166D01*
X-19182245Y11369144D01*
X-19206985Y11385721D01*
X-19240500Y11387666D01*
X-19283163Y11391796D01*
X-19300662Y11412744D01*
X-19304000Y11461750D01*
X-19307277Y11511403D01*
X-19325763Y11531766D01*
X-19372445Y11535824D01*
X-19378083Y11535833D01*
X-19427736Y11539110D01*
X-19448100Y11557596D01*
X-19452158Y11604278D01*
X-19452167Y11609916D01*
X-19455443Y11659569D01*
X-19473930Y11679933D01*
X-19520611Y11683991D01*
X-19526250Y11684000D01*
X-19576024Y11687540D01*
X-19596439Y11705495D01*
X-19600333Y11747500D01*
X-19605578Y11792477D01*
X-19630318Y11809054D01*
X-19663833Y11811000D01*
X-19706497Y11815130D01*
X-19723995Y11836077D01*
X-19727333Y11885083D01*
X-19730610Y11934736D01*
X-19749097Y11955099D01*
X-19795778Y11959157D01*
X-19801417Y11959166D01*
X-19850768Y11962339D01*
X-19871239Y11980446D01*
X-19875481Y12026366D01*
X-19875500Y12034591D01*
X-19872697Y12084496D01*
X-19856492Y12103793D01*
X-19815195Y12104176D01*
X-19806708Y12103383D01*
G36*
X-18880667Y12954000D02*
G01*
X-19452167Y12954000D01*
X-19452167Y12531895D01*
X-19171708Y12525989D01*
X-18891250Y12520083D01*
X-18884991Y12377208D01*
X-18878733Y12234333D01*
X-19600333Y12234333D01*
X-19600333Y13081000D01*
X-19526250Y13081000D01*
X-19476597Y13084276D01*
X-19456234Y13102763D01*
X-19452176Y13149444D01*
X-19452167Y13155083D01*
X-19452167Y13229166D01*
X-18880667Y13229166D01*
X-18880667Y12954000D01*
G37*
X-18880667Y12954000D02*
X-19452167Y12954000D01*
X-19452167Y12531895D01*
X-19171708Y12525989D01*
X-18891250Y12520083D01*
X-18884991Y12377208D01*
X-18878733Y12234333D01*
X-19600333Y12234333D01*
X-19600333Y13081000D01*
X-19526250Y13081000D01*
X-19476597Y13084276D01*
X-19456234Y13102763D01*
X-19452176Y13149444D01*
X-19452167Y13155083D01*
X-19452167Y13229166D01*
X-18880667Y13229166D01*
X-18880667Y12954000D01*
G36*
X-18880667Y13504333D02*
G01*
X-18954750Y13504333D01*
X-19004524Y13500793D01*
X-19024939Y13482838D01*
X-19028833Y13440833D01*
X-19028833Y13377333D01*
X-19600333Y13377333D01*
X-19600333Y13652500D01*
X-19028833Y13652500D01*
X-19028833Y14075833D01*
X-19600333Y14075833D01*
X-19600333Y14351000D01*
X-18880667Y14351000D01*
X-18880667Y13504333D01*
G37*
X-18880667Y13504333D02*
X-18954750Y13504333D01*
X-19004524Y13500793D01*
X-19024939Y13482838D01*
X-19028833Y13440833D01*
X-19028833Y13377333D01*
X-19600333Y13377333D01*
X-19600333Y13652500D01*
X-19028833Y13652500D01*
X-19028833Y14075833D01*
X-19600333Y14075833D01*
X-19600333Y14351000D01*
X-18880667Y14351000D01*
X-18880667Y13504333D01*
G36*
X-18884617Y15414625D02*
G01*
X-18875009Y15366903D01*
X-18850330Y15348399D01*
X-18815826Y15345833D01*
X-18753667Y15345833D01*
X-18753667Y14647333D01*
X-18880667Y14647333D01*
X-18880667Y15197666D01*
X-19028833Y15197666D01*
X-19028833Y14650015D01*
X-19097625Y14643383D01*
X-19146116Y14633120D01*
X-19167003Y14605525D01*
X-19173050Y14567958D01*
X-19179682Y14499166D01*
X-19452167Y14499166D01*
X-19452167Y14573250D01*
X-19455408Y14622802D01*
X-19473766Y14643201D01*
X-19520191Y14647321D01*
X-19526698Y14647333D01*
X-19601228Y14647333D01*
X-19595489Y15065375D01*
X-19593673Y15197666D01*
X-19452167Y15197666D01*
X-19452167Y14774333D01*
X-19177000Y14774333D01*
X-19177000Y15197666D01*
X-19452167Y15197666D01*
X-19593673Y15197666D01*
X-19589750Y15483416D01*
X-18891250Y15483416D01*
X-18884617Y15414625D01*
G37*
X-18884617Y15414625D02*
X-18875009Y15366903D01*
X-18850330Y15348399D01*
X-18815826Y15345833D01*
X-18753667Y15345833D01*
X-18753667Y14647333D01*
X-18880667Y14647333D01*
X-18880667Y15197666D01*
X-19028833Y15197666D01*
X-19028833Y14650015D01*
X-19097625Y14643383D01*
X-19146116Y14633120D01*
X-19167003Y14605525D01*
X-19173050Y14567958D01*
X-19179682Y14499166D01*
X-19452167Y14499166D01*
X-19452167Y14573250D01*
X-19455408Y14622802D01*
X-19473766Y14643201D01*
X-19520191Y14647321D01*
X-19526698Y14647333D01*
X-19601228Y14647333D01*
X-19595489Y15065375D01*
X-19593673Y15197666D01*
X-19452167Y15197666D01*
X-19452167Y14774333D01*
X-19177000Y14774333D01*
X-19177000Y15197666D01*
X-19452167Y15197666D01*
X-19593673Y15197666D01*
X-19589750Y15483416D01*
X-18891250Y15483416D01*
X-18884617Y15414625D01*
G36*
X-4758272Y15892216D02*
G01*
X-4690544Y15885583D01*
X-4622420Y15571578D01*
X-4598033Y15461727D01*
X-4575983Y15367123D01*
X-4558090Y15295231D01*
X-4546179Y15253519D01*
X-4543011Y15246288D01*
X-4536757Y15244964D01*
X-4529456Y15256723D01*
X-4519783Y15286651D01*
X-4506410Y15339833D01*
X-4488014Y15421353D01*
X-4463268Y15536298D01*
X-4445333Y15621000D01*
X-4389498Y15885583D01*
X-4321999Y15892216D01*
X-4270927Y15890250D01*
X-4254503Y15869729D01*
X-4254500Y15869286D01*
X-4258951Y15839350D01*
X-4271241Y15775892D01*
X-4289778Y15686660D01*
X-4312968Y15579401D01*
X-4328583Y15509031D01*
X-4353677Y15396337D01*
X-4375133Y15298675D01*
X-4391386Y15223275D01*
X-4400871Y15177368D01*
X-4402667Y15166837D01*
X-4421955Y15160914D01*
X-4472320Y15156762D01*
X-4536930Y15155333D01*
X-4671193Y15155333D01*
X-4749046Y15509875D01*
X-4774588Y15627269D01*
X-4796557Y15730290D01*
X-4813471Y15811822D01*
X-4823848Y15864747D01*
X-4826449Y15881633D01*
X-4807794Y15891589D01*
X-4763003Y15892637D01*
X-4758272Y15892216D01*
G37*
X-4758272Y15892216D02*
X-4690544Y15885583D01*
X-4622420Y15571578D01*
X-4598033Y15461727D01*
X-4575983Y15367123D01*
X-4558090Y15295231D01*
X-4546179Y15253519D01*
X-4543011Y15246288D01*
X-4536757Y15244964D01*
X-4529456Y15256723D01*
X-4519783Y15286651D01*
X-4506410Y15339833D01*
X-4488014Y15421353D01*
X-4463268Y15536298D01*
X-4445333Y15621000D01*
X-4389498Y15885583D01*
X-4321999Y15892216D01*
X-4270927Y15890250D01*
X-4254503Y15869729D01*
X-4254500Y15869286D01*
X-4258951Y15839350D01*
X-4271241Y15775892D01*
X-4289778Y15686660D01*
X-4312968Y15579401D01*
X-4328583Y15509031D01*
X-4353677Y15396337D01*
X-4375133Y15298675D01*
X-4391386Y15223275D01*
X-4400871Y15177368D01*
X-4402667Y15166837D01*
X-4421955Y15160914D01*
X-4472320Y15156762D01*
X-4536930Y15155333D01*
X-4671193Y15155333D01*
X-4749046Y15509875D01*
X-4774588Y15627269D01*
X-4796557Y15730290D01*
X-4813471Y15811822D01*
X-4823848Y15864747D01*
X-4826449Y15881633D01*
X-4807794Y15891589D01*
X-4763003Y15892637D01*
X-4758272Y15892216D01*
G36*
X-3790446Y15898596D02*
G01*
X-3709824Y15848380D01*
X-3650200Y15775675D01*
X-3620965Y15689472D01*
X-3619500Y15665426D01*
X-3627052Y15634980D01*
X-3657454Y15622628D01*
X-3693583Y15621000D01*
X-3743874Y15625138D01*
X-3764421Y15643012D01*
X-3767667Y15670636D01*
X-3785032Y15732258D01*
X-3829110Y15772417D01*
X-3887871Y15786716D01*
X-3949286Y15770758D01*
X-3979333Y15748000D01*
X-4000899Y15719754D01*
X-4013778Y15681142D01*
X-4020019Y15621579D01*
X-4021667Y15530480D01*
X-4021667Y15529030D01*
X-4017337Y15420924D01*
X-4002031Y15348376D01*
X-3972279Y15305282D01*
X-3924608Y15285538D01*
X-3881358Y15282333D01*
X-3812268Y15296404D01*
X-3774842Y15338400D01*
X-3767667Y15381816D01*
X-3761570Y15414463D01*
X-3735255Y15428121D01*
X-3690814Y15430500D01*
X-3613961Y15430500D01*
X-3626579Y15351125D01*
X-3659896Y15259978D01*
X-3724339Y15195634D01*
X-3816024Y15161096D01*
X-3879126Y15155896D01*
X-3967606Y15164589D01*
X-4038051Y15186906D01*
X-4047681Y15192279D01*
X-4108588Y15254435D01*
X-4149112Y15351001D01*
X-4168059Y15478654D01*
X-4169369Y15531470D01*
X-4155728Y15673730D01*
X-4116442Y15784568D01*
X-4052422Y15862756D01*
X-3964581Y15907068D01*
X-3882671Y15917333D01*
X-3790446Y15898596D01*
G37*
X-3790446Y15898596D02*
X-3709824Y15848380D01*
X-3650200Y15775675D01*
X-3620965Y15689472D01*
X-3619500Y15665426D01*
X-3627052Y15634980D01*
X-3657454Y15622628D01*
X-3693583Y15621000D01*
X-3743874Y15625138D01*
X-3764421Y15643012D01*
X-3767667Y15670636D01*
X-3785032Y15732258D01*
X-3829110Y15772417D01*
X-3887871Y15786716D01*
X-3949286Y15770758D01*
X-3979333Y15748000D01*
X-4000899Y15719754D01*
X-4013778Y15681142D01*
X-4020019Y15621579D01*
X-4021667Y15530480D01*
X-4021667Y15529030D01*
X-4017337Y15420924D01*
X-4002031Y15348376D01*
X-3972279Y15305282D01*
X-3924608Y15285538D01*
X-3881358Y15282333D01*
X-3812268Y15296404D01*
X-3774842Y15338400D01*
X-3767667Y15381816D01*
X-3761570Y15414463D01*
X-3735255Y15428121D01*
X-3690814Y15430500D01*
X-3613961Y15430500D01*
X-3626579Y15351125D01*
X-3659896Y15259978D01*
X-3724339Y15195634D01*
X-3816024Y15161096D01*
X-3879126Y15155896D01*
X-3967606Y15164589D01*
X-4038051Y15186906D01*
X-4047681Y15192279D01*
X-4108588Y15254435D01*
X-4149112Y15351001D01*
X-4168059Y15478654D01*
X-4169369Y15531470D01*
X-4155728Y15673730D01*
X-4116442Y15784568D01*
X-4052422Y15862756D01*
X-3964581Y15907068D01*
X-3882671Y15917333D01*
X-3790446Y15898596D01*
G36*
X-3177122Y15906014D02*
G01*
X-3123050Y15887351D01*
X-3043992Y15834641D01*
X-2992570Y15752416D01*
X-2974313Y15689791D01*
X-2967397Y15643599D01*
X-2980305Y15624762D01*
X-3023510Y15621018D01*
X-3033089Y15621000D01*
X-3084084Y15625851D01*
X-3108487Y15647989D01*
X-3118955Y15684734D01*
X-3147440Y15746961D01*
X-3195237Y15779599D01*
X-3252249Y15783505D01*
X-3308375Y15759537D01*
X-3353518Y15708552D01*
X-3371688Y15663267D01*
X-3381448Y15594789D01*
X-3382173Y15510845D01*
X-3375057Y15425954D01*
X-3361296Y15354633D01*
X-3342808Y15312245D01*
X-3296029Y15288740D01*
X-3229747Y15286577D01*
X-3172502Y15294704D01*
X-3142314Y15315120D01*
X-3123935Y15358556D01*
X-3122998Y15361708D01*
X-3102864Y15409504D01*
X-3070544Y15428049D01*
X-3033040Y15430500D01*
X-2988510Y15428688D01*
X-2968625Y15416511D01*
X-2969007Y15383852D01*
X-2985275Y15320596D01*
X-2985347Y15320338D01*
X-3024346Y15236438D01*
X-3088338Y15183222D01*
X-3181212Y15158134D01*
X-3236645Y15155333D01*
X-3333539Y15163498D01*
X-3400556Y15186700D01*
X-3405360Y15189849D01*
X-3457965Y15245285D01*
X-3492430Y15327705D01*
X-3510238Y15441919D01*
X-3513588Y15540945D01*
X-3506254Y15668778D01*
X-3482405Y15763489D01*
X-3439070Y15832066D01*
X-3373278Y15881493D01*
X-3367487Y15884556D01*
X-3274403Y15914275D01*
X-3177122Y15906014D01*
G37*
X-3177122Y15906014D02*
X-3123050Y15887351D01*
X-3043992Y15834641D01*
X-2992570Y15752416D01*
X-2974313Y15689791D01*
X-2967397Y15643599D01*
X-2980305Y15624762D01*
X-3023510Y15621018D01*
X-3033089Y15621000D01*
X-3084084Y15625851D01*
X-3108487Y15647989D01*
X-3118955Y15684734D01*
X-3147440Y15746961D01*
X-3195237Y15779599D01*
X-3252249Y15783505D01*
X-3308375Y15759537D01*
X-3353518Y15708552D01*
X-3371688Y15663267D01*
X-3381448Y15594789D01*
X-3382173Y15510845D01*
X-3375057Y15425954D01*
X-3361296Y15354633D01*
X-3342808Y15312245D01*
X-3296029Y15288740D01*
X-3229747Y15286577D01*
X-3172502Y15294704D01*
X-3142314Y15315120D01*
X-3123935Y15358556D01*
X-3122998Y15361708D01*
X-3102864Y15409504D01*
X-3070544Y15428049D01*
X-3033040Y15430500D01*
X-2988510Y15428688D01*
X-2968625Y15416511D01*
X-2969007Y15383852D01*
X-2985275Y15320596D01*
X-2985347Y15320338D01*
X-3024346Y15236438D01*
X-3088338Y15183222D01*
X-3181212Y15158134D01*
X-3236645Y15155333D01*
X-3333539Y15163498D01*
X-3400556Y15186700D01*
X-3405360Y15189849D01*
X-3457965Y15245285D01*
X-3492430Y15327705D01*
X-3510238Y15441919D01*
X-3513588Y15540945D01*
X-3506254Y15668778D01*
X-3482405Y15763489D01*
X-3439070Y15832066D01*
X-3373278Y15881493D01*
X-3367487Y15884556D01*
X-3274403Y15914275D01*
X-3177122Y15906014D01*
G36*
X-1921916Y15897128D02*
G01*
X-1841891Y15850714D01*
X-1792945Y15792017D01*
X-1759747Y15718815D01*
X-1760172Y15669420D01*
X-1794034Y15644851D01*
X-1820333Y15642166D01*
X-1864915Y15648575D01*
X-1883828Y15664015D01*
X-1883833Y15664295D01*
X-1899746Y15698102D01*
X-1937634Y15739394D01*
X-1982728Y15774639D01*
X-2020256Y15790305D01*
X-2021417Y15790333D01*
X-2058495Y15776249D01*
X-2103362Y15741981D01*
X-2107046Y15738379D01*
X-2134563Y15705749D01*
X-2150285Y15668397D01*
X-2157375Y15613713D01*
X-2159000Y15531422D01*
X-2153423Y15420778D01*
X-2134789Y15346052D01*
X-2100243Y15302078D01*
X-2046933Y15283688D01*
X-2021417Y15282333D01*
X-1953217Y15296294D01*
X-1917666Y15328116D01*
X-1895840Y15371770D01*
X-1907757Y15397375D01*
X-1956458Y15408305D01*
X-1990916Y15409333D01*
X-2044685Y15411939D01*
X-2068386Y15425956D01*
X-2074231Y15460680D01*
X-2074333Y15472833D01*
X-2074333Y15536333D01*
X-1756833Y15536333D01*
X-1756833Y15155333D01*
X-1820333Y15155333D01*
X-1866178Y15161459D01*
X-1882727Y15185765D01*
X-1883833Y15202376D01*
X-1883833Y15249419D01*
X-1916784Y15202376D01*
X-1962384Y15169800D01*
X-2030960Y15154831D01*
X-2106749Y15158011D01*
X-2173985Y15179884D01*
X-2193564Y15192845D01*
X-2240027Y15239911D01*
X-2270419Y15297530D01*
X-2287596Y15375082D01*
X-2294411Y15481947D01*
X-2294874Y15525750D01*
X-2292880Y15628595D01*
X-2285289Y15700647D01*
X-2270331Y15753273D01*
X-2254491Y15784699D01*
X-2189743Y15857198D01*
X-2105976Y15900209D01*
X-2013322Y15913573D01*
X-1921916Y15897128D01*
G37*
X-1921916Y15897128D02*
X-1841891Y15850714D01*
X-1792945Y15792017D01*
X-1759747Y15718815D01*
X-1760172Y15669420D01*
X-1794034Y15644851D01*
X-1820333Y15642166D01*
X-1864915Y15648575D01*
X-1883828Y15664015D01*
X-1883833Y15664295D01*
X-1899746Y15698102D01*
X-1937634Y15739394D01*
X-1982728Y15774639D01*
X-2020256Y15790305D01*
X-2021417Y15790333D01*
X-2058495Y15776249D01*
X-2103362Y15741981D01*
X-2107046Y15738379D01*
X-2134563Y15705749D01*
X-2150285Y15668397D01*
X-2157375Y15613713D01*
X-2159000Y15531422D01*
X-2153423Y15420778D01*
X-2134789Y15346052D01*
X-2100243Y15302078D01*
X-2046933Y15283688D01*
X-2021417Y15282333D01*
X-1953217Y15296294D01*
X-1917666Y15328116D01*
X-1895840Y15371770D01*
X-1907757Y15397375D01*
X-1956458Y15408305D01*
X-1990916Y15409333D01*
X-2044685Y15411939D01*
X-2068386Y15425956D01*
X-2074231Y15460680D01*
X-2074333Y15472833D01*
X-2074333Y15536333D01*
X-1756833Y15536333D01*
X-1756833Y15155333D01*
X-1820333Y15155333D01*
X-1866178Y15161459D01*
X-1882727Y15185765D01*
X-1883833Y15202376D01*
X-1883833Y15249419D01*
X-1916784Y15202376D01*
X-1962384Y15169800D01*
X-2030960Y15154831D01*
X-2106749Y15158011D01*
X-2173985Y15179884D01*
X-2193564Y15192845D01*
X-2240027Y15239911D01*
X-2270419Y15297530D01*
X-2287596Y15375082D01*
X-2294411Y15481947D01*
X-2294874Y15525750D01*
X-2292880Y15628595D01*
X-2285289Y15700647D01*
X-2270331Y15753273D01*
X-2254491Y15784699D01*
X-2189743Y15857198D01*
X-2105976Y15900209D01*
X-2013322Y15913573D01*
X-1921916Y15897128D01*
G36*
X-1409053Y15892909D02*
G01*
X-1364373Y15882711D01*
X-1354112Y15869708D01*
X-1350684Y15826854D01*
X-1342385Y15756199D01*
X-1330560Y15666835D01*
X-1316553Y15567855D01*
X-1301711Y15468352D01*
X-1287377Y15377419D01*
X-1274897Y15304150D01*
X-1265617Y15257637D01*
X-1261842Y15245952D01*
X-1257424Y15261340D01*
X-1253649Y15312270D01*
X-1250795Y15391953D01*
X-1249138Y15493600D01*
X-1248833Y15564555D01*
X-1248833Y15896166D01*
X-1121833Y15896166D01*
X-1121833Y15153313D01*
X-1254125Y15159615D01*
X-1386417Y15165916D01*
X-1431328Y15494000D01*
X-1476239Y15822083D01*
X-1484245Y15494000D01*
X-1492250Y15165916D01*
X-1561042Y15159284D01*
X-1629833Y15152651D01*
X-1629833Y15896166D01*
X-1492250Y15896166D01*
X-1409053Y15892909D01*
G37*
X-1409053Y15892909D02*
X-1364373Y15882711D01*
X-1354112Y15869708D01*
X-1350684Y15826854D01*
X-1342385Y15756199D01*
X-1330560Y15666835D01*
X-1316553Y15567855D01*
X-1301711Y15468352D01*
X-1287377Y15377419D01*
X-1274897Y15304150D01*
X-1265617Y15257637D01*
X-1261842Y15245952D01*
X-1257424Y15261340D01*
X-1253649Y15312270D01*
X-1250795Y15391953D01*
X-1249138Y15493600D01*
X-1248833Y15564555D01*
X-1248833Y15896166D01*
X-1121833Y15896166D01*
X-1121833Y15153313D01*
X-1254125Y15159615D01*
X-1386417Y15165916D01*
X-1431328Y15494000D01*
X-1476239Y15822083D01*
X-1484245Y15494000D01*
X-1492250Y15165916D01*
X-1561042Y15159284D01*
X-1629833Y15152651D01*
X-1629833Y15896166D01*
X-1492250Y15896166D01*
X-1409053Y15892909D01*
G36*
X-688785Y15891615D02*
G01*
X-597251Y15874332D01*
X-534240Y15838871D01*
X-494725Y15779786D01*
X-473681Y15691632D01*
X-466081Y15568963D01*
X-465667Y15518880D01*
X-471762Y15386684D01*
X-493455Y15289832D01*
X-535858Y15223298D01*
X-604084Y15182055D01*
X-703244Y15161076D01*
X-835404Y15155333D01*
X-994833Y15155333D01*
X-994833Y15229416D01*
X-987949Y15284210D01*
X-965975Y15303366D01*
X-963083Y15303500D01*
X-948872Y15310150D01*
X-939514Y15334576D01*
X-934096Y15383485D01*
X-931701Y15463588D01*
X-931333Y15536333D01*
X-783167Y15536333D01*
X-783167Y15303500D01*
X-708560Y15303500D01*
X-654011Y15309739D01*
X-623954Y15335191D01*
X-611501Y15361708D01*
X-601039Y15412881D01*
X-595927Y15488874D01*
X-596972Y15565099D01*
X-608509Y15663497D01*
X-632869Y15726383D01*
X-674011Y15759644D01*
X-734296Y15769166D01*
X-755636Y15767589D01*
X-769637Y15757944D01*
X-777844Y15732867D01*
X-781805Y15684991D01*
X-783064Y15606949D01*
X-783167Y15536333D01*
X-931333Y15536333D01*
X-932240Y15640552D01*
X-935571Y15709175D01*
X-942241Y15748910D01*
X-953164Y15766468D01*
X-963083Y15769166D01*
X-988290Y15788099D01*
X-994833Y15832666D01*
X-994833Y15896166D01*
X-813866Y15896166D01*
X-688785Y15891615D01*
G37*
X-688785Y15891615D02*
X-597251Y15874332D01*
X-534240Y15838871D01*
X-494725Y15779786D01*
X-473681Y15691632D01*
X-466081Y15568963D01*
X-465667Y15518880D01*
X-471762Y15386684D01*
X-493455Y15289832D01*
X-535858Y15223298D01*
X-604084Y15182055D01*
X-703244Y15161076D01*
X-835404Y15155333D01*
X-994833Y15155333D01*
X-994833Y15229416D01*
X-987949Y15284210D01*
X-965975Y15303366D01*
X-963083Y15303500D01*
X-948872Y15310150D01*
X-939514Y15334576D01*
X-934096Y15383485D01*
X-931701Y15463588D01*
X-931333Y15536333D01*
X-783167Y15536333D01*
X-783167Y15303500D01*
X-708560Y15303500D01*
X-654011Y15309739D01*
X-623954Y15335191D01*
X-611501Y15361708D01*
X-601039Y15412881D01*
X-595927Y15488874D01*
X-596972Y15565099D01*
X-608509Y15663497D01*
X-632869Y15726383D01*
X-674011Y15759644D01*
X-734296Y15769166D01*
X-755636Y15767589D01*
X-769637Y15757944D01*
X-777844Y15732867D01*
X-781805Y15684991D01*
X-783064Y15606949D01*
X-783167Y15536333D01*
X-931333Y15536333D01*
X-932240Y15640552D01*
X-935571Y15709175D01*
X-942241Y15748910D01*
X-953164Y15766468D01*
X-963083Y15769166D01*
X-988290Y15788099D01*
X-994833Y15832666D01*
X-994833Y15896166D01*
X-813866Y15896166D01*
X-688785Y15891615D01*
G36*
X584865Y15905968D02*
G01*
X668893Y15875773D01*
X736686Y15823754D01*
X778739Y15752487D01*
X786575Y15716250D01*
X787094Y15672174D01*
X767040Y15652938D01*
X724958Y15646117D01*
X675102Y15647068D01*
X656797Y15665267D01*
X656167Y15672575D01*
X638848Y15717521D01*
X597664Y15760996D01*
X548774Y15787735D01*
X531511Y15790333D01*
X485435Y15777462D01*
X445550Y15753106D01*
X412090Y15712643D01*
X417615Y15675580D01*
X463176Y15640623D01*
X549826Y15606479D01*
X569714Y15600365D01*
X684067Y15556610D01*
X759191Y15504124D01*
X797698Y15440600D01*
X804333Y15393472D01*
X789815Y15293439D01*
X745269Y15221422D01*
X669209Y15176176D01*
X560150Y15156457D01*
X519968Y15155333D01*
X443761Y15159246D01*
X391220Y15174874D01*
X344090Y15208055D01*
X337877Y15213541D01*
X299425Y15260353D01*
X267276Y15320378D01*
X246702Y15380121D01*
X242975Y15426082D01*
X249412Y15440023D01*
X277020Y15448526D01*
X321028Y15451666D01*
X367030Y15443206D01*
X380996Y15414727D01*
X381000Y15414043D01*
X399633Y15346528D01*
X450206Y15300242D01*
X524726Y15282357D01*
X527775Y15282333D01*
X603198Y15294968D01*
X645164Y15332128D01*
X652500Y15392051D01*
X641552Y15420904D01*
X612261Y15443133D01*
X555426Y15464238D01*
X510257Y15477044D01*
X401030Y15514033D01*
X328892Y15558458D01*
X288683Y15615123D01*
X275240Y15688833D01*
X275167Y15695886D01*
X284484Y15770103D01*
X317940Y15826572D01*
X330455Y15839849D01*
X406138Y15890583D01*
X494111Y15911764D01*
X584865Y15905968D01*
G37*
X584865Y15905968D02*
X668893Y15875773D01*
X736686Y15823754D01*
X778739Y15752487D01*
X786575Y15716250D01*
X787094Y15672174D01*
X767040Y15652938D01*
X724958Y15646117D01*
X675102Y15647068D01*
X656797Y15665267D01*
X656167Y15672575D01*
X638848Y15717521D01*
X597664Y15760996D01*
X548774Y15787735D01*
X531511Y15790333D01*
X485435Y15777462D01*
X445550Y15753106D01*
X412090Y15712643D01*
X417615Y15675580D01*
X463176Y15640623D01*
X549826Y15606479D01*
X569714Y15600365D01*
X684067Y15556610D01*
X759191Y15504124D01*
X797698Y15440600D01*
X804333Y15393472D01*
X789815Y15293439D01*
X745269Y15221422D01*
X669209Y15176176D01*
X560150Y15156457D01*
X519968Y15155333D01*
X443761Y15159246D01*
X391220Y15174874D01*
X344090Y15208055D01*
X337877Y15213541D01*
X299425Y15260353D01*
X267276Y15320378D01*
X246702Y15380121D01*
X242975Y15426082D01*
X249412Y15440023D01*
X277020Y15448526D01*
X321028Y15451666D01*
X367030Y15443206D01*
X380996Y15414727D01*
X381000Y15414043D01*
X399633Y15346528D01*
X450206Y15300242D01*
X524726Y15282357D01*
X527775Y15282333D01*
X603198Y15294968D01*
X645164Y15332128D01*
X652500Y15392051D01*
X641552Y15420904D01*
X612261Y15443133D01*
X555426Y15464238D01*
X510257Y15477044D01*
X401030Y15514033D01*
X328892Y15558458D01*
X288683Y15615123D01*
X275240Y15688833D01*
X275167Y15695886D01*
X284484Y15770103D01*
X317940Y15826572D01*
X330455Y15839849D01*
X406138Y15890583D01*
X494111Y15911764D01*
X584865Y15905968D01*
G36*
X1268596Y15899088D02*
G01*
X1355377Y15858242D01*
X1408684Y15794534D01*
X1433331Y15707309D01*
X1438867Y15652622D01*
X1430848Y15627906D01*
X1401964Y15621263D01*
X1380302Y15621000D01*
X1332406Y15627933D01*
X1309138Y15657504D01*
X1301711Y15684676D01*
X1270215Y15749644D01*
X1218080Y15784253D01*
X1156587Y15785954D01*
X1097015Y15752198D01*
X1081036Y15734562D01*
X1055116Y15690638D01*
X1041624Y15633974D01*
X1037492Y15550784D01*
X1037479Y15538770D01*
X1045746Y15420128D01*
X1070323Y15339357D01*
X1111791Y15295024D01*
X1140391Y15285871D01*
X1224238Y15287056D01*
X1278928Y15318617D01*
X1301745Y15366980D01*
X1319082Y15412797D01*
X1352911Y15429238D01*
X1377515Y15430500D01*
X1422180Y15424368D01*
X1438133Y15398852D01*
X1439333Y15378579D01*
X1421724Y15284936D01*
X1370274Y15215401D01*
X1287053Y15171659D01*
X1174129Y15155399D01*
X1165552Y15155333D01*
X1090899Y15160538D01*
X1036674Y15181111D01*
X989875Y15217097D01*
X920750Y15278861D01*
X920750Y15522624D01*
X921128Y15627627D01*
X923487Y15699454D01*
X929665Y15747263D01*
X941503Y15780210D01*
X960836Y15807454D01*
X982666Y15831013D01*
X1067686Y15891149D01*
X1168181Y15913246D01*
X1268596Y15899088D01*
G37*
X1268596Y15899088D02*
X1355377Y15858242D01*
X1408684Y15794534D01*
X1433331Y15707309D01*
X1438867Y15652622D01*
X1430848Y15627906D01*
X1401964Y15621263D01*
X1380302Y15621000D01*
X1332406Y15627933D01*
X1309138Y15657504D01*
X1301711Y15684676D01*
X1270215Y15749644D01*
X1218080Y15784253D01*
X1156587Y15785954D01*
X1097015Y15752198D01*
X1081036Y15734562D01*
X1055116Y15690638D01*
X1041624Y15633974D01*
X1037492Y15550784D01*
X1037479Y15538770D01*
X1045746Y15420128D01*
X1070323Y15339357D01*
X1111791Y15295024D01*
X1140391Y15285871D01*
X1224238Y15287056D01*
X1278928Y15318617D01*
X1301745Y15366980D01*
X1319082Y15412797D01*
X1352911Y15429238D01*
X1377515Y15430500D01*
X1422180Y15424368D01*
X1438133Y15398852D01*
X1439333Y15378579D01*
X1421724Y15284936D01*
X1370274Y15215401D01*
X1287053Y15171659D01*
X1174129Y15155399D01*
X1165552Y15155333D01*
X1090899Y15160538D01*
X1036674Y15181111D01*
X989875Y15217097D01*
X920750Y15278861D01*
X920750Y15522624D01*
X921128Y15627627D01*
X923487Y15699454D01*
X929665Y15747263D01*
X941503Y15780210D01*
X960836Y15807454D01*
X982666Y15831013D01*
X1067686Y15891149D01*
X1168181Y15913246D01*
X1268596Y15899088D01*
G36*
X1714500Y15748000D02*
G01*
X1716862Y15674973D01*
X1723077Y15622055D01*
X1731841Y15599950D01*
X1732561Y15599833D01*
X1751758Y15616297D01*
X1787196Y15660159D01*
X1832353Y15723130D01*
X1849146Y15748000D01*
X1899131Y15820992D01*
X1935200Y15865124D01*
X1965684Y15887553D01*
X1998913Y15895437D01*
X2021585Y15896166D01*
X2070513Y15893258D01*
X2094888Y15886110D01*
X2095500Y15884627D01*
X2084425Y15863091D01*
X2054794Y15815224D01*
X2012000Y15749606D01*
X1989667Y15716250D01*
X1942432Y15643809D01*
X1906064Y15583387D01*
X1886047Y15544307D01*
X1883833Y15536333D01*
X1894962Y15509262D01*
X1924653Y15456927D01*
X1967361Y15388866D01*
X1985923Y15360752D01*
X2034159Y15288344D01*
X2074161Y15227650D01*
X2099398Y15188600D01*
X2103589Y15181791D01*
X2101998Y15163961D01*
X2066150Y15156131D01*
X2036355Y15155333D01*
X1994437Y15157418D01*
X1962558Y15168424D01*
X1931992Y15195483D01*
X1894014Y15245723D01*
X1855020Y15303500D01*
X1807641Y15371235D01*
X1767188Y15422707D01*
X1740367Y15449600D01*
X1735498Y15451666D01*
X1724833Y15432143D01*
X1717374Y15380065D01*
X1714501Y15305171D01*
X1714500Y15303500D01*
X1714500Y15155333D01*
X1587500Y15155333D01*
X1587500Y15896166D01*
X1714500Y15896166D01*
X1714500Y15748000D01*
G37*
X1714500Y15748000D02*
X1716862Y15674973D01*
X1723077Y15622055D01*
X1731841Y15599950D01*
X1732561Y15599833D01*
X1751758Y15616297D01*
X1787196Y15660159D01*
X1832353Y15723130D01*
X1849146Y15748000D01*
X1899131Y15820992D01*
X1935200Y15865124D01*
X1965684Y15887553D01*
X1998913Y15895437D01*
X2021585Y15896166D01*
X2070513Y15893258D01*
X2094888Y15886110D01*
X2095500Y15884627D01*
X2084425Y15863091D01*
X2054794Y15815224D01*
X2012000Y15749606D01*
X1989667Y15716250D01*
X1942432Y15643809D01*
X1906064Y15583387D01*
X1886047Y15544307D01*
X1883833Y15536333D01*
X1894962Y15509262D01*
X1924653Y15456927D01*
X1967361Y15388866D01*
X1985923Y15360752D01*
X2034159Y15288344D01*
X2074161Y15227650D01*
X2099398Y15188600D01*
X2103589Y15181791D01*
X2101998Y15163961D01*
X2066150Y15156131D01*
X2036355Y15155333D01*
X1994437Y15157418D01*
X1962558Y15168424D01*
X1931992Y15195483D01*
X1894014Y15245723D01*
X1855020Y15303500D01*
X1807641Y15371235D01*
X1767188Y15422707D01*
X1740367Y15449600D01*
X1735498Y15451666D01*
X1724833Y15432143D01*
X1717374Y15380065D01*
X1714501Y15305171D01*
X1714500Y15303500D01*
X1714500Y15155333D01*
X1587500Y15155333D01*
X1587500Y15896166D01*
X1714500Y15896166D01*
X1714500Y15748000D01*
G36*
X3124865Y15905968D02*
G01*
X3208893Y15875773D01*
X3276686Y15823754D01*
X3318739Y15752487D01*
X3326575Y15716250D01*
X3327094Y15672174D01*
X3307040Y15652938D01*
X3264958Y15646117D01*
X3215102Y15647068D01*
X3196797Y15665267D01*
X3196167Y15672575D01*
X3178848Y15717521D01*
X3137664Y15760996D01*
X3088774Y15787735D01*
X3071511Y15790333D01*
X3025435Y15777462D01*
X2985550Y15753106D01*
X2952108Y15712890D01*
X2957255Y15676089D01*
X3002148Y15641303D01*
X3087946Y15607131D01*
X3112583Y15599511D01*
X3226346Y15555037D01*
X3300897Y15500105D01*
X3338525Y15432609D01*
X3344333Y15386308D01*
X3327773Y15288747D01*
X3278256Y15217650D01*
X3196026Y15173214D01*
X3081327Y15155640D01*
X3061258Y15155333D01*
X2982486Y15159992D01*
X2926834Y15177691D01*
X2880910Y15209610D01*
X2838936Y15257914D01*
X2804473Y15319760D01*
X2783600Y15380869D01*
X2782397Y15426961D01*
X2785459Y15433805D01*
X2812463Y15446641D01*
X2858749Y15451666D01*
X2905776Y15443857D01*
X2920923Y15417174D01*
X2921000Y15414043D01*
X2939692Y15346655D01*
X2990134Y15300199D01*
X3063873Y15282347D01*
X3066133Y15282333D01*
X3142407Y15293530D01*
X3184847Y15328345D01*
X3196167Y15379249D01*
X3187449Y15411080D01*
X3156924Y15437708D01*
X3098030Y15462854D01*
X3004207Y15490239D01*
X2997385Y15492019D01*
X2900878Y15531673D01*
X2840875Y15591804D01*
X2816043Y15673904D01*
X2815167Y15695886D01*
X2824484Y15770103D01*
X2857940Y15826572D01*
X2870455Y15839849D01*
X2946138Y15890583D01*
X3034111Y15911764D01*
X3124865Y15905968D01*
G37*
X3124865Y15905968D02*
X3208893Y15875773D01*
X3276686Y15823754D01*
X3318739Y15752487D01*
X3326575Y15716250D01*
X3327094Y15672174D01*
X3307040Y15652938D01*
X3264958Y15646117D01*
X3215102Y15647068D01*
X3196797Y15665267D01*
X3196167Y15672575D01*
X3178848Y15717521D01*
X3137664Y15760996D01*
X3088774Y15787735D01*
X3071511Y15790333D01*
X3025435Y15777462D01*
X2985550Y15753106D01*
X2952108Y15712890D01*
X2957255Y15676089D01*
X3002148Y15641303D01*
X3087946Y15607131D01*
X3112583Y15599511D01*
X3226346Y15555037D01*
X3300897Y15500105D01*
X3338525Y15432609D01*
X3344333Y15386308D01*
X3327773Y15288747D01*
X3278256Y15217650D01*
X3196026Y15173214D01*
X3081327Y15155640D01*
X3061258Y15155333D01*
X2982486Y15159992D01*
X2926834Y15177691D01*
X2880910Y15209610D01*
X2838936Y15257914D01*
X2804473Y15319760D01*
X2783600Y15380869D01*
X2782397Y15426961D01*
X2785459Y15433805D01*
X2812463Y15446641D01*
X2858749Y15451666D01*
X2905776Y15443857D01*
X2920923Y15417174D01*
X2921000Y15414043D01*
X2939692Y15346655D01*
X2990134Y15300199D01*
X3063873Y15282347D01*
X3066133Y15282333D01*
X3142407Y15293530D01*
X3184847Y15328345D01*
X3196167Y15379249D01*
X3187449Y15411080D01*
X3156924Y15437708D01*
X3098030Y15462854D01*
X3004207Y15490239D01*
X2997385Y15492019D01*
X2900878Y15531673D01*
X2840875Y15591804D01*
X2816043Y15673904D01*
X2815167Y15695886D01*
X2824484Y15770103D01*
X2857940Y15826572D01*
X2870455Y15839849D01*
X2946138Y15890583D01*
X3034111Y15911764D01*
X3124865Y15905968D01*
G36*
X3732316Y15895301D02*
G01*
X3793397Y15890891D01*
X3835000Y15880218D01*
X3868549Y15860561D01*
X3899624Y15834437D01*
X3931158Y15804698D01*
X3951595Y15776673D01*
X3963757Y15740291D01*
X3970462Y15685482D01*
X3974533Y15602173D01*
X3975943Y15561896D01*
X3974805Y15420193D01*
X3957545Y15314397D01*
X3919898Y15239773D01*
X3857600Y15191590D01*
X3766386Y15165115D01*
X3641992Y15155615D01*
X3609596Y15155333D01*
X3450167Y15155333D01*
X3450167Y15229416D01*
X3457051Y15284210D01*
X3479025Y15303366D01*
X3481917Y15303500D01*
X3496128Y15310150D01*
X3505486Y15334576D01*
X3510904Y15383485D01*
X3513299Y15463588D01*
X3513667Y15536333D01*
X3512760Y15640552D01*
X3509429Y15709175D01*
X3502759Y15748910D01*
X3491836Y15766468D01*
X3481917Y15769166D01*
X3640667Y15769166D01*
X3640667Y15303500D01*
X3710517Y15303500D01*
X3766605Y15310775D01*
X3805182Y15328333D01*
X3805767Y15328900D01*
X3819425Y15364901D01*
X3828123Y15437238D01*
X3831167Y15539822D01*
X3828511Y15641465D01*
X3817720Y15708088D01*
X3794557Y15746824D01*
X3754787Y15764805D01*
X3694975Y15769166D01*
X3640667Y15769166D01*
X3481917Y15769166D01*
X3456710Y15788099D01*
X3450167Y15832666D01*
X3450167Y15896166D01*
X3640333Y15896166D01*
X3732316Y15895301D01*
G37*
X3732316Y15895301D02*
X3793397Y15890891D01*
X3835000Y15880218D01*
X3868549Y15860561D01*
X3899624Y15834437D01*
X3931158Y15804698D01*
X3951595Y15776673D01*
X3963757Y15740291D01*
X3970462Y15685482D01*
X3974533Y15602173D01*
X3975943Y15561896D01*
X3974805Y15420193D01*
X3957545Y15314397D01*
X3919898Y15239773D01*
X3857600Y15191590D01*
X3766386Y15165115D01*
X3641992Y15155615D01*
X3609596Y15155333D01*
X3450167Y15155333D01*
X3450167Y15229416D01*
X3457051Y15284210D01*
X3479025Y15303366D01*
X3481917Y15303500D01*
X3496128Y15310150D01*
X3505486Y15334576D01*
X3510904Y15383485D01*
X3513299Y15463588D01*
X3513667Y15536333D01*
X3512760Y15640552D01*
X3509429Y15709175D01*
X3502759Y15748910D01*
X3491836Y15766468D01*
X3481917Y15769166D01*
X3640667Y15769166D01*
X3640667Y15303500D01*
X3710517Y15303500D01*
X3766605Y15310775D01*
X3805182Y15328333D01*
X3805767Y15328900D01*
X3819425Y15364901D01*
X3828123Y15437238D01*
X3831167Y15539822D01*
X3828511Y15641465D01*
X3817720Y15708088D01*
X3794557Y15746824D01*
X3754787Y15764805D01*
X3694975Y15769166D01*
X3640667Y15769166D01*
X3481917Y15769166D01*
X3456710Y15788099D01*
X3450167Y15832666D01*
X3450167Y15896166D01*
X3640333Y15896166D01*
X3732316Y15895301D01*
G36*
X4366296Y15891857D02*
G01*
X4497098Y15885583D01*
X4576182Y15557500D01*
X4609288Y15419582D01*
X4632770Y15317460D01*
X4646847Y15245756D01*
X4651736Y15199094D01*
X4647656Y15172094D01*
X4634826Y15159381D01*
X4613462Y15155576D01*
X4592502Y15155333D01*
X4551916Y15158426D01*
X4527872Y15174608D01*
X4511686Y15214233D01*
X4499281Y15266458D01*
X4489348Y15299028D01*
X4470401Y15316433D01*
X4431291Y15323403D01*
X4362033Y15324666D01*
X4237539Y15324666D01*
X4218888Y15245291D01*
X4201555Y15191997D01*
X4174494Y15167535D01*
X4132119Y15159284D01*
X4085782Y15160456D01*
X4064201Y15172203D01*
X4064000Y15173810D01*
X4068679Y15200852D01*
X4081363Y15260308D01*
X4100022Y15343463D01*
X4122627Y15441605D01*
X4129350Y15470237D01*
X4275667Y15470237D01*
X4294545Y15458979D01*
X4342114Y15452384D01*
X4367285Y15451666D01*
X4458903Y15451666D01*
X4415944Y15642142D01*
X4395942Y15722994D01*
X4377610Y15783241D01*
X4363624Y15814712D01*
X4358729Y15816767D01*
X4348664Y15791078D01*
X4333125Y15736421D01*
X4315109Y15665304D01*
X4297616Y15590236D01*
X4283642Y15523727D01*
X4276186Y15478283D01*
X4275667Y15470237D01*
X4129350Y15470237D01*
X4147146Y15546019D01*
X4171551Y15647993D01*
X4193811Y15738814D01*
X4211896Y15809766D01*
X4214021Y15817773D01*
X4235494Y15898130D01*
X4366296Y15891857D01*
G37*
X4366296Y15891857D02*
X4497098Y15885583D01*
X4576182Y15557500D01*
X4609288Y15419582D01*
X4632770Y15317460D01*
X4646847Y15245756D01*
X4651736Y15199094D01*
X4647656Y15172094D01*
X4634826Y15159381D01*
X4613462Y15155576D01*
X4592502Y15155333D01*
X4551916Y15158426D01*
X4527872Y15174608D01*
X4511686Y15214233D01*
X4499281Y15266458D01*
X4489348Y15299028D01*
X4470401Y15316433D01*
X4431291Y15323403D01*
X4362033Y15324666D01*
X4237539Y15324666D01*
X4218888Y15245291D01*
X4201555Y15191997D01*
X4174494Y15167535D01*
X4132119Y15159284D01*
X4085782Y15160456D01*
X4064201Y15172203D01*
X4064000Y15173810D01*
X4068679Y15200852D01*
X4081363Y15260308D01*
X4100022Y15343463D01*
X4122627Y15441605D01*
X4129350Y15470237D01*
X4275667Y15470237D01*
X4294545Y15458979D01*
X4342114Y15452384D01*
X4367285Y15451666D01*
X4458903Y15451666D01*
X4415944Y15642142D01*
X4395942Y15722994D01*
X4377610Y15783241D01*
X4363624Y15814712D01*
X4358729Y15816767D01*
X4348664Y15791078D01*
X4333125Y15736421D01*
X4315109Y15665304D01*
X4297616Y15590236D01*
X4283642Y15523727D01*
X4276186Y15478283D01*
X4275667Y15470237D01*
X4129350Y15470237D01*
X4147146Y15546019D01*
X4171551Y15647993D01*
X4193811Y15738814D01*
X4211896Y15809766D01*
X4214021Y15817773D01*
X4235494Y15898130D01*
X4366296Y15891857D01*
G36*
X-18880667Y16541750D02*
G01*
X-18877127Y16491976D01*
X-18859172Y16471561D01*
X-18817167Y16467666D01*
X-18753667Y16467666D01*
X-18753667Y15769166D01*
X-18879438Y15769166D01*
X-18885344Y16049625D01*
X-18891250Y16330083D01*
X-18960042Y16336716D01*
X-19028833Y16343349D01*
X-19028833Y15769166D01*
X-19102917Y15769166D01*
X-19152570Y15765890D01*
X-19172933Y15747403D01*
X-19176991Y15700722D01*
X-19177000Y15695083D01*
X-19177000Y15621000D01*
X-19452167Y15621000D01*
X-19452167Y15695083D01*
X-19455443Y15744736D01*
X-19473930Y15765099D01*
X-19520611Y15769157D01*
X-19526250Y15769166D01*
X-19600333Y15769166D01*
X-19600333Y16340666D01*
X-19452167Y16340666D01*
X-19452167Y15917333D01*
X-19177000Y15917333D01*
X-19177000Y16340666D01*
X-19452167Y16340666D01*
X-19600333Y16340666D01*
X-19600333Y16615833D01*
X-18880667Y16615833D01*
X-18880667Y16541750D01*
G37*
X-18880667Y16541750D02*
X-18877127Y16491976D01*
X-18859172Y16471561D01*
X-18817167Y16467666D01*
X-18753667Y16467666D01*
X-18753667Y15769166D01*
X-18879438Y15769166D01*
X-18885344Y16049625D01*
X-18891250Y16330083D01*
X-18960042Y16336716D01*
X-19028833Y16343349D01*
X-19028833Y15769166D01*
X-19102917Y15769166D01*
X-19152570Y15765890D01*
X-19172933Y15747403D01*
X-19176991Y15700722D01*
X-19177000Y15695083D01*
X-19177000Y15621000D01*
X-19452167Y15621000D01*
X-19452167Y15695083D01*
X-19455443Y15744736D01*
X-19473930Y15765099D01*
X-19520611Y15769157D01*
X-19526250Y15769166D01*
X-19600333Y15769166D01*
X-19600333Y16340666D01*
X-19452167Y16340666D01*
X-19452167Y15917333D01*
X-19177000Y15917333D01*
X-19177000Y16340666D01*
X-19452167Y16340666D01*
X-19600333Y16340666D01*
X-19600333Y16615833D01*
X-18880667Y16615833D01*
X-18880667Y16541750D01*
G36*
X-19177000Y17039166D02*
G01*
X-19028833Y17039166D01*
X-19028833Y17613349D01*
X-18960042Y17606716D01*
X-18891250Y17600083D01*
X-18885447Y17245541D01*
X-18879643Y16891000D01*
X-18954238Y16891000D01*
X-19004236Y16887522D01*
X-19024834Y16869823D01*
X-19028833Y16827500D01*
X-19028833Y16764000D01*
X-19452167Y16764000D01*
X-19452167Y16827500D01*
X-19456252Y16870061D01*
X-19477044Y16887595D01*
X-19526762Y16891000D01*
X-19601357Y16891000D01*
X-19595554Y17245541D01*
X-19592003Y17462500D01*
X-19452167Y17462500D01*
X-19452167Y17039166D01*
X-19304000Y17039166D01*
X-19304000Y17462500D01*
X-19452167Y17462500D01*
X-19592003Y17462500D01*
X-19589750Y17600083D01*
X-19520958Y17606716D01*
X-19473236Y17616325D01*
X-19454733Y17641003D01*
X-19452167Y17675508D01*
X-19452167Y17737666D01*
X-19177000Y17737666D01*
X-19177000Y17039166D01*
G37*
X-19177000Y17039166D02*
X-19028833Y17039166D01*
X-19028833Y17613349D01*
X-18960042Y17606716D01*
X-18891250Y17600083D01*
X-18885447Y17245541D01*
X-18879643Y16891000D01*
X-18954238Y16891000D01*
X-19004236Y16887522D01*
X-19024834Y16869823D01*
X-19028833Y16827500D01*
X-19028833Y16764000D01*
X-19452167Y16764000D01*
X-19452167Y16827500D01*
X-19456252Y16870061D01*
X-19477044Y16887595D01*
X-19526762Y16891000D01*
X-19601357Y16891000D01*
X-19595554Y17245541D01*
X-19592003Y17462500D01*
X-19452167Y17462500D01*
X-19452167Y17039166D01*
X-19304000Y17039166D01*
X-19304000Y17462500D01*
X-19452167Y17462500D01*
X-19592003Y17462500D01*
X-19589750Y17600083D01*
X-19520958Y17606716D01*
X-19473236Y17616325D01*
X-19454733Y17641003D01*
X-19452167Y17675508D01*
X-19452167Y17737666D01*
X-19177000Y17737666D01*
X-19177000Y17039166D01*
G36*
X-19452167Y18584333D02*
G01*
X-18880667Y18584333D01*
X-18880667Y18309166D01*
X-19452167Y18309166D01*
X-19452167Y18034000D01*
X-19600333Y18034000D01*
X-19600333Y18309166D01*
X-19875500Y18309166D01*
X-19875500Y18584333D01*
X-19602268Y18584333D01*
X-19589750Y18870083D01*
X-19520958Y18876716D01*
X-19452167Y18883349D01*
X-19452167Y18584333D01*
G37*
X-19452167Y18584333D02*
X-18880667Y18584333D01*
X-18880667Y18309166D01*
X-19452167Y18309166D01*
X-19452167Y18034000D01*
X-19600333Y18034000D01*
X-19600333Y18309166D01*
X-19875500Y18309166D01*
X-19875500Y18584333D01*
X-19602268Y18584333D01*
X-19589750Y18870083D01*
X-19520958Y18876716D01*
X-19452167Y18883349D01*
X-19452167Y18584333D01*
G36*
X-656167Y-21526500D02*
G01*
X-1079500Y-21526500D01*
X-1079500Y-21251334D01*
X-656167Y-21251334D01*
X-656167Y-21526500D01*
G37*
X-656167Y-21526500D02*
X-1079500Y-21526500D01*
X-1079500Y-21251334D01*
X-656167Y-21251334D01*
X-656167Y-21526500D01*
G36*
X-656167Y-21103167D02*
G01*
X-1079500Y-21103167D01*
X-1079500Y-20828000D01*
X-656167Y-20828000D01*
X-656167Y-21103167D01*
G37*
X-656167Y-21103167D02*
X-1079500Y-21103167D01*
X-1079500Y-20828000D01*
X-656167Y-20828000D01*
X-656167Y-21103167D01*
G36*
X-13486388Y-21284475D02*
G01*
X-13464776Y-21300906D01*
X-13450793Y-21330977D01*
X-13471602Y-21348993D01*
X-13530070Y-21356633D01*
X-13560778Y-21357167D01*
X-13624169Y-21351998D01*
X-13650931Y-21335517D01*
X-13652500Y-21327681D01*
X-13634485Y-21296344D01*
X-13590616Y-21277245D01*
X-13536161Y-21272563D01*
X-13486388Y-21284475D01*
G37*
X-13486388Y-21284475D02*
X-13464776Y-21300906D01*
X-13450793Y-21330977D01*
X-13471602Y-21348993D01*
X-13530070Y-21356633D01*
X-13560778Y-21357167D01*
X-13624169Y-21351998D01*
X-13650931Y-21335517D01*
X-13652500Y-21327681D01*
X-13634485Y-21296344D01*
X-13590616Y-21277245D01*
X-13536161Y-21272563D01*
X-13486388Y-21284475D01*
G36*
X-10548553Y-21284426D02*
G01*
X-10508773Y-21313724D01*
X-10498667Y-21340234D01*
X-10517710Y-21349894D01*
X-10566398Y-21356025D01*
X-10604500Y-21357167D01*
X-10664881Y-21354120D01*
X-10703200Y-21346330D01*
X-10710333Y-21340234D01*
X-10691700Y-21304427D01*
X-10645921Y-21278968D01*
X-10604500Y-21272500D01*
X-10548553Y-21284426D01*
G37*
X-10548553Y-21284426D02*
X-10508773Y-21313724D01*
X-10498667Y-21340234D01*
X-10517710Y-21349894D01*
X-10566398Y-21356025D01*
X-10604500Y-21357167D01*
X-10664881Y-21354120D01*
X-10703200Y-21346330D01*
X-10710333Y-21340234D01*
X-10691700Y-21304427D01*
X-10645921Y-21278968D01*
X-10604500Y-21272500D01*
X-10548553Y-21284426D01*
G36*
X-12907533Y-21290786D02*
G01*
X-12866523Y-21335084D01*
X-12848334Y-21405394D01*
X-12848167Y-21413761D01*
X-12864959Y-21483501D01*
X-12908079Y-21528830D01*
X-12966640Y-21545199D01*
X-13029755Y-21528059D01*
X-13062038Y-21503129D01*
X-13093752Y-21455831D01*
X-13094561Y-21397668D01*
X-13093503Y-21392004D01*
X-13064349Y-21323108D01*
X-13016760Y-21283883D01*
X-12961050Y-21273414D01*
X-12907533Y-21290786D01*
G37*
X-12907533Y-21290786D02*
X-12866523Y-21335084D01*
X-12848334Y-21405394D01*
X-12848167Y-21413761D01*
X-12864959Y-21483501D01*
X-12908079Y-21528830D01*
X-12966640Y-21545199D01*
X-13029755Y-21528059D01*
X-13062038Y-21503129D01*
X-13093752Y-21455831D01*
X-13094561Y-21397668D01*
X-13093503Y-21392004D01*
X-13064349Y-21323108D01*
X-13016760Y-21283883D01*
X-12961050Y-21273414D01*
X-12907533Y-21290786D01*
G36*
X-12379364Y-21107241D02*
G01*
X-12305959Y-21123471D01*
X-12263901Y-21156124D01*
X-12257497Y-21200639D01*
X-12268347Y-21224875D01*
X-12309432Y-21254189D01*
X-12379364Y-21268426D01*
X-12467167Y-21274934D01*
X-12467167Y-21100733D01*
X-12379364Y-21107241D01*
G37*
X-12379364Y-21107241D02*
X-12305959Y-21123471D01*
X-12263901Y-21156124D01*
X-12257497Y-21200639D01*
X-12268347Y-21224875D01*
X-12309432Y-21254189D01*
X-12379364Y-21268426D01*
X-12467167Y-21274934D01*
X-12467167Y-21100733D01*
X-12379364Y-21107241D01*
G36*
X5884333Y-17314334D02*
G01*
X5810250Y-17314334D01*
X5760476Y-17317873D01*
X5740061Y-17335828D01*
X5736167Y-17377834D01*
X5736167Y-17441334D01*
X5461000Y-17441334D01*
X5461000Y-17018000D01*
X5884333Y-17018000D01*
X5884333Y-17314334D01*
G37*
X5884333Y-17314334D02*
X5810250Y-17314334D01*
X5760476Y-17317873D01*
X5740061Y-17335828D01*
X5736167Y-17377834D01*
X5736167Y-17441334D01*
X5461000Y-17441334D01*
X5461000Y-17018000D01*
X5884333Y-17018000D01*
X5884333Y-17314334D01*
G36*
X2196608Y3390868D02*
G01*
X2287991Y3338916D01*
X2359156Y3250250D01*
X2374252Y3221827D01*
X2393408Y3179258D01*
X2406831Y3137003D01*
X2415531Y3086480D01*
X2420517Y3019107D01*
X2422797Y2926304D01*
X2423378Y2804018D01*
X2423017Y2679624D01*
X2421032Y2588982D01*
X2416349Y2523514D01*
X2407893Y2474643D01*
X2394590Y2433791D01*
X2375365Y2392381D01*
X2370667Y2383182D01*
X2300270Y2288079D01*
X2208056Y2226453D01*
X2100965Y2200716D01*
X1985940Y2213281D01*
X1934554Y2231588D01*
X1862764Y2277397D01*
X1808294Y2346847D01*
X1770069Y2443500D01*
X1747013Y2570922D01*
X1738048Y2732676D01*
X1739369Y2838084D01*
X1952456Y2838084D01*
X1955388Y2773623D01*
X1997843Y2715165D01*
X2003104Y2710869D01*
X2061624Y2674632D01*
X2109564Y2673840D01*
X2160458Y2709147D01*
X2170545Y2718954D01*
X2212157Y2771731D01*
X2217556Y2819213D01*
X2187397Y2874937D01*
X2178630Y2886395D01*
X2121058Y2932091D01*
X2056763Y2938315D01*
X1994459Y2904448D01*
X1989667Y2899833D01*
X1952456Y2838084D01*
X1739369Y2838084D01*
X1739850Y2876424D01*
X1744980Y2995370D01*
X1752043Y3081676D01*
X1762563Y3145034D01*
X1778062Y3195135D01*
X1796028Y3234039D01*
X1864478Y3328098D01*
X1953881Y3385527D01*
X2066092Y3407453D01*
X2082418Y3407754D01*
X2196608Y3390868D01*
G37*
X2196608Y3390868D02*
X2287991Y3338916D01*
X2359156Y3250250D01*
X2374252Y3221827D01*
X2393408Y3179258D01*
X2406831Y3137003D01*
X2415531Y3086480D01*
X2420517Y3019107D01*
X2422797Y2926304D01*
X2423378Y2804018D01*
X2423017Y2679624D01*
X2421032Y2588982D01*
X2416349Y2523514D01*
X2407893Y2474643D01*
X2394590Y2433791D01*
X2375365Y2392381D01*
X2370667Y2383182D01*
X2300270Y2288079D01*
X2208056Y2226453D01*
X2100965Y2200716D01*
X1985940Y2213281D01*
X1934554Y2231588D01*
X1862764Y2277397D01*
X1808294Y2346847D01*
X1770069Y2443500D01*
X1747013Y2570922D01*
X1738048Y2732676D01*
X1739369Y2838084D01*
X1952456Y2838084D01*
X1955388Y2773623D01*
X1997843Y2715165D01*
X2003104Y2710869D01*
X2061624Y2674632D01*
X2109564Y2673840D01*
X2160458Y2709147D01*
X2170545Y2718954D01*
X2212157Y2771731D01*
X2217556Y2819213D01*
X2187397Y2874937D01*
X2178630Y2886395D01*
X2121058Y2932091D01*
X2056763Y2938315D01*
X1994459Y2904448D01*
X1989667Y2899833D01*
X1952456Y2838084D01*
X1739369Y2838084D01*
X1739850Y2876424D01*
X1744980Y2995370D01*
X1752043Y3081676D01*
X1762563Y3145034D01*
X1778062Y3195135D01*
X1796028Y3234039D01*
X1864478Y3328098D01*
X1953881Y3385527D01*
X2066092Y3407453D01*
X2082418Y3407754D01*
X2196608Y3390868D01*
G36*
X3395371Y2873901D02*
G01*
X3403236Y2873477D01*
X3480584Y2866684D01*
X3532467Y2852528D01*
X3575752Y2824178D01*
X3614191Y2788020D01*
X3656552Y2742229D01*
X3680864Y2701299D01*
X3693075Y2649788D01*
X3699136Y2572253D01*
X3699415Y2566818D01*
X3694385Y2440408D01*
X3663324Y2343990D01*
X3604012Y2272558D01*
X3554695Y2240010D01*
X3461768Y2209068D01*
X3355861Y2202342D01*
X3255122Y2219652D01*
X3201265Y2243552D01*
X3116057Y2317457D01*
X3065288Y2414973D01*
X3048163Y2537643D01*
X3048158Y2540000D01*
X3064685Y2663045D01*
X3115001Y2761333D01*
X3200210Y2837012D01*
X3201265Y2837676D01*
X3253151Y2863195D01*
X3312370Y2874299D01*
X3395371Y2873901D01*
G37*
X3395371Y2873901D02*
X3403236Y2873477D01*
X3480584Y2866684D01*
X3532467Y2852528D01*
X3575752Y2824178D01*
X3614191Y2788020D01*
X3656552Y2742229D01*
X3680864Y2701299D01*
X3693075Y2649788D01*
X3699136Y2572253D01*
X3699415Y2566818D01*
X3694385Y2440408D01*
X3663324Y2343990D01*
X3604012Y2272558D01*
X3554695Y2240010D01*
X3461768Y2209068D01*
X3355861Y2202342D01*
X3255122Y2219652D01*
X3201265Y2243552D01*
X3116057Y2317457D01*
X3065288Y2414973D01*
X3048163Y2537643D01*
X3048158Y2540000D01*
X3064685Y2663045D01*
X3115001Y2761333D01*
X3200210Y2837012D01*
X3201265Y2837676D01*
X3253151Y2863195D01*
X3312370Y2874299D01*
X3395371Y2873901D01*
G36*
X6048869Y3396140D02*
G01*
X6100099Y3389628D01*
X6136380Y3372935D01*
X6171401Y3341285D01*
X6191602Y3319576D01*
X6235226Y3264792D01*
X6267008Y3204780D01*
X6288389Y3132286D01*
X6300813Y3040056D01*
X6305722Y2920835D01*
X6304558Y2767370D01*
X6304238Y2753068D01*
X6299050Y2609264D01*
X6289603Y2500348D01*
X6273675Y2418922D01*
X6249045Y2357590D01*
X6213491Y2308955D01*
X6164792Y2265620D01*
X6155785Y2258798D01*
X6083530Y2225309D01*
X5990951Y2209070D01*
X5897095Y2211780D01*
X5831417Y2229848D01*
X5762940Y2269862D01*
X5711234Y2322408D01*
X5674267Y2393215D01*
X5650007Y2488011D01*
X5636424Y2612524D01*
X5631487Y2772482D01*
X5631380Y2794000D01*
X5632920Y2943207D01*
X5639620Y3057908D01*
X5653166Y3145787D01*
X5675243Y3214529D01*
X5707535Y3271816D01*
X5746670Y3319873D01*
X5785783Y3360174D01*
X5819731Y3383303D01*
X5862194Y3394024D01*
X5926849Y3397095D01*
X5969000Y3397250D01*
X6048869Y3396140D01*
G37*
X6048869Y3396140D02*
X6100099Y3389628D01*
X6136380Y3372935D01*
X6171401Y3341285D01*
X6191602Y3319576D01*
X6235226Y3264792D01*
X6267008Y3204780D01*
X6288389Y3132286D01*
X6300813Y3040056D01*
X6305722Y2920835D01*
X6304558Y2767370D01*
X6304238Y2753068D01*
X6299050Y2609264D01*
X6289603Y2500348D01*
X6273675Y2418922D01*
X6249045Y2357590D01*
X6213491Y2308955D01*
X6164792Y2265620D01*
X6155785Y2258798D01*
X6083530Y2225309D01*
X5990951Y2209070D01*
X5897095Y2211780D01*
X5831417Y2229848D01*
X5762940Y2269862D01*
X5711234Y2322408D01*
X5674267Y2393215D01*
X5650007Y2488011D01*
X5636424Y2612524D01*
X5631487Y2772482D01*
X5631380Y2794000D01*
X5632920Y2943207D01*
X5639620Y3057908D01*
X5653166Y3145787D01*
X5675243Y3214529D01*
X5707535Y3271816D01*
X5746670Y3319873D01*
X5785783Y3360174D01*
X5819731Y3383303D01*
X5862194Y3394024D01*
X5926849Y3397095D01*
X5969000Y3397250D01*
X6048869Y3396140D01*
G36*
X9826625Y3382280D02*
G01*
X9958669Y3364683D01*
X10056391Y3329857D01*
X10125136Y3275364D01*
X10154350Y3232850D01*
X10168699Y3200461D01*
X10178943Y3159322D01*
X10185723Y3102265D01*
X10189681Y3022124D01*
X10191459Y2911731D01*
X10191750Y2815166D01*
X10189587Y2647692D01*
X10180981Y2517363D01*
X10162759Y2419122D01*
X10131746Y2347907D01*
X10084768Y2298657D01*
X10018651Y2266314D01*
X9930221Y2245816D01*
X9826625Y2233090D01*
X9673167Y2218203D01*
X9673167Y3392234D01*
X9826625Y3382280D01*
G37*
X9826625Y3382280D02*
X9958669Y3364683D01*
X10056391Y3329857D01*
X10125136Y3275364D01*
X10154350Y3232850D01*
X10168699Y3200461D01*
X10178943Y3159322D01*
X10185723Y3102265D01*
X10189681Y3022124D01*
X10191459Y2911731D01*
X10191750Y2815166D01*
X10189587Y2647692D01*
X10180981Y2517363D01*
X10162759Y2419122D01*
X10131746Y2347907D01*
X10084768Y2298657D01*
X10018651Y2266314D01*
X9930221Y2245816D01*
X9826625Y2233090D01*
X9673167Y2218203D01*
X9673167Y3392234D01*
X9826625Y3382280D01*
M02*
