M48
INCH,TZ
T1C0.0157
T2C0.0394
T3C0.0400
T4C0.0984
%
G90
G05
T1
X-4775Y-8825
X1575Y-9900
X6675Y-3025
X6675Y-4050
T2
X7600Y7100
X7600Y6100
X7600Y5100
X7600Y4100
X7600Y3100
X7600Y2100
X7600Y1100
X7600Y100
T3
X-4400Y5100
X-4400Y-3900
X-3400Y5100
X-3400Y-3900
X-2400Y5100
X-2400Y-3900
X-1400Y5100
X-1400Y-3900
X-400Y5100
X-400Y-3900
X600Y5100
X600Y-3900
X1600Y5100
X1600Y-3900
X2600Y5100
X2600Y-3900
X-1500Y6807
X-500Y6807
X500Y6807
X1500Y6807
T4
X-5413Y9449
X5413Y9449
T0
M30
